G04 #@! TF.GenerationSoftware,KiCad,Pcbnew,5.0.2-bee76a0~70~ubuntu18.04.1*
G04 #@! TF.CreationDate,2019-11-01T13:53:43-07:00*
G04 #@! TF.ProjectId,piweather,70697765-6174-4686-9572-2e6b69636164,rev?*
G04 #@! TF.SameCoordinates,Original*
G04 #@! TF.FileFunction,Copper,L2,Inr*
G04 #@! TF.FilePolarity,Positive*
%FSLAX46Y46*%
G04 Gerber Fmt 4.6, Leading zero omitted, Abs format (unit mm)*
G04 Created by KiCad (PCBNEW 5.0.2-bee76a0~70~ubuntu18.04.1) date Fri 01 Nov 2019 01:53:43 PM PDT*
%MOMM*%
%LPD*%
G01*
G04 APERTURE LIST*
G04 #@! TA.AperFunction,ViaPad*
%ADD10C,0.800000*%
G04 #@! TD*
G04 #@! TA.AperFunction,ViaPad*
%ADD11C,2.000000*%
G04 #@! TD*
G04 #@! TA.AperFunction,ViaPad*
%ADD12C,1.900000*%
G04 #@! TD*
G04 #@! TA.AperFunction,ViaPad*
%ADD13C,3.000000*%
G04 #@! TD*
G04 #@! TA.AperFunction,WasherPad*
%ADD14C,4.500000*%
G04 #@! TD*
G04 #@! TA.AperFunction,ViaPad*
%ADD15R,3.000000X3.000000*%
G04 #@! TD*
G04 #@! TA.AperFunction,ViaPad*
%ADD16C,1.300000*%
G04 #@! TD*
G04 #@! TA.AperFunction,ViaPad*
%ADD17O,1.500000X1.700000*%
G04 #@! TD*
G04 #@! TA.AperFunction,ViaPad*
%ADD18O,1.500000X1.800000*%
G04 #@! TD*
G04 #@! TA.AperFunction,ViaPad*
%ADD19R,1.500000X1.800000*%
G04 #@! TD*
G04 #@! TA.AperFunction,ViaPad*
%ADD20C,0.450000*%
G04 #@! TD*
G04 #@! TA.AperFunction,Conductor*
%ADD21C,0.150000*%
G04 #@! TD*
G04 #@! TA.AperFunction,Conductor*
%ADD22C,0.100000*%
G04 #@! TD*
G04 #@! TA.AperFunction,Conductor*
%ADD23C,0.250000*%
G04 #@! TD*
G04 #@! TA.AperFunction,Conductor*
%ADD24C,0.254000*%
G04 #@! TD*
G04 APERTURE END LIST*
D10*
G04 #@! TO.N,GND*
G04 #@! TO.C,J2*
X128200000Y-95425000D03*
G04 #@! TO.N,/P1_TXD_HW_RXD*
X128200000Y-96675000D03*
G04 #@! TO.N,/P1_RXD_HW_TXD*
X128200000Y-97925000D03*
G04 #@! TO.N,N/C*
X128200000Y-99175000D03*
X128200000Y-100425000D03*
X128200000Y-101675000D03*
G04 #@! TO.N,+5V*
X128200000Y-102925000D03*
G04 #@! TO.N,/P1_3V3*
X128200000Y-104175000D03*
G04 #@! TD*
D11*
G04 #@! TO.N,+5V*
G04 #@! TO.C,U2*
X108660000Y-60885000D03*
G04 #@! TO.N,GND*
X113740000Y-60885000D03*
G04 #@! TO.N,N/C*
X113740000Y-78665000D03*
G04 #@! TO.N,/AC_N*
X88340000Y-78665000D03*
G04 #@! TO.N,/AC_L*
X83260000Y-78665000D03*
G04 #@! TD*
D12*
G04 #@! TO.N,+24V*
G04 #@! TO.C,J1*
X122300000Y-56570000D03*
G04 #@! TO.N,/DO27*
X122300000Y-59110000D03*
G04 #@! TO.N,/DO16*
X122300000Y-61650000D03*
G04 #@! TO.N,/DO13*
X122300000Y-64190000D03*
G04 #@! TO.N,/DO12*
X122300000Y-66730000D03*
G04 #@! TO.N,/DI26*
X122300000Y-69270000D03*
G04 #@! TO.N,/DI17*
X122300000Y-71810000D03*
G04 #@! TO.N,GND*
X122300000Y-74350000D03*
G04 #@! TO.N,RS485_B*
X122300000Y-76890000D03*
G04 #@! TO.N,RS485_A*
X122300000Y-79430000D03*
G04 #@! TD*
D13*
G04 #@! TO.N,/AC_N*
G04 #@! TO.C,J12*
X77000000Y-67200000D03*
G04 #@! TO.N,/AC_L*
X77000000Y-75800000D03*
D14*
G04 #@! TO.N,*
X70500000Y-65000000D03*
X70500000Y-78000000D03*
G04 #@! TD*
D15*
G04 #@! TO.N,/IN_24V*
G04 #@! TO.C,J3*
X73100000Y-68960000D03*
D13*
G04 #@! TO.N,GND*
X73100000Y-74040000D03*
G04 #@! TD*
D16*
G04 #@! TO.N,+5V*
G04 #@! TO.C,J6*
X121600000Y-111400000D03*
G04 #@! TD*
G04 #@! TO.N,GND*
G04 #@! TO.C,J7*
X121200000Y-108500000D03*
G04 #@! TD*
G04 #@! TO.N,/USBD_P*
G04 #@! TO.C,J8*
X109500000Y-113200000D03*
G04 #@! TD*
G04 #@! TO.N,/USBD_N*
G04 #@! TO.C,J9*
X107700000Y-113200000D03*
G04 #@! TD*
D17*
G04 #@! TO.N,GND*
G04 #@! TO.C,J5*
X102000000Y-109000000D03*
D18*
G04 #@! TO.N,/BCM5_PIN29*
X100000000Y-109000000D03*
D19*
G04 #@! TO.N,+3V3*
X98000000Y-109000000D03*
G04 #@! TD*
D17*
G04 #@! TO.N,GND*
G04 #@! TO.C,J10*
X92000000Y-109000000D03*
D18*
G04 #@! TO.N,/BCM4_PIN7*
X90000000Y-109000000D03*
D19*
G04 #@! TO.N,+3V3*
X88000000Y-109000000D03*
G04 #@! TD*
D17*
G04 #@! TO.N,/P0_RXD*
G04 #@! TO.C,J11*
X82000000Y-109000000D03*
D18*
G04 #@! TO.N,/P0_TXD*
X80000000Y-109000000D03*
D19*
G04 #@! TO.N,GND*
X78000000Y-109000000D03*
G04 #@! TD*
D20*
G04 #@! TO.N,GND*
X80950000Y-83925000D03*
X91100000Y-84075000D03*
X98750000Y-83725000D03*
X110950000Y-83725000D03*
X115800000Y-83475000D03*
X124750000Y-93375000D03*
X86050000Y-92925000D03*
X69600000Y-106025000D03*
X72350000Y-101025000D03*
X80650000Y-98025000D03*
X80650000Y-99325000D03*
X80650000Y-100625000D03*
X80650000Y-101925000D03*
X86500000Y-98675000D03*
X84100000Y-96725000D03*
X82400000Y-96675000D03*
X97500000Y-102925000D03*
X105450000Y-93425000D03*
X112400000Y-105975000D03*
X110700000Y-101275000D03*
X117600000Y-106775000D03*
X116400000Y-97075000D03*
X120200000Y-100775000D03*
X106900000Y-95675000D03*
G04 #@! TO.N,+5V*
X110620000Y-103985000D03*
X98680000Y-96255000D03*
X75050000Y-83375000D03*
X78410000Y-83950000D03*
X96350000Y-57525000D03*
X98600000Y-57525000D03*
X87150000Y-52175000D03*
X81150000Y-54925000D03*
X100050000Y-76875000D03*
X102950000Y-76825000D03*
X104050000Y-105725000D03*
X118600000Y-99075000D03*
X101550000Y-100025000D03*
G04 #@! TO.N,/P1_3V3*
X117800000Y-107775000D03*
G04 #@! TO.N,+3V3*
X114550000Y-51475000D03*
X74500000Y-91625000D03*
X75900000Y-92825000D03*
X85800000Y-96775000D03*
X87500000Y-96775000D03*
X86500000Y-98025000D03*
X95800000Y-93075000D03*
X69850000Y-99225000D03*
G04 #@! TO.N,/P1_RXD_HW_TXD*
X126500000Y-104875000D03*
X119200000Y-105175000D03*
G04 #@! TO.N,/P1_TXD_HW_RXD*
X126000000Y-104175000D03*
X119600000Y-103775000D03*
G04 #@! TO.N,/P0_RXD*
X84750000Y-86875000D03*
G04 #@! TO.N,/P0_TXD*
X82250000Y-87025000D03*
G04 #@! TO.N,/SCL*
X80950000Y-92925000D03*
X68600000Y-101025000D03*
G04 #@! TO.N,/SDA*
X78400000Y-93225000D03*
X68550000Y-106275000D03*
G04 #@! TO.N,/USBD_P*
X112383294Y-105108294D03*
G04 #@! TO.N,/USBD_N*
X111976706Y-104701706D03*
G04 #@! TO.N,/~RSTOUT*
X111000000Y-104675000D03*
X109700000Y-109975000D03*
G04 #@! TO.N,/EEDATA*
X106600000Y-103375000D03*
X109800000Y-103375000D03*
G04 #@! TO.N,/P_DE*
X93450000Y-100625000D03*
X115800000Y-101025000D03*
G04 #@! TO.N,/P2_R*
X93450000Y-98075000D03*
X112600000Y-99275000D03*
G04 #@! TO.N,/P2_D*
X93450000Y-101875000D03*
X112800000Y-101375000D03*
G04 #@! TO.N,/P2_~RE*
X93450000Y-99325000D03*
X111950000Y-100075000D03*
G04 #@! TO.N,/VCC_FTDI*
X104500000Y-102575000D03*
X112000000Y-102375000D03*
X107300000Y-104175000D03*
X107300000Y-102575000D03*
G04 #@! TO.N,+24V*
X106350000Y-53175000D03*
X88100000Y-51825000D03*
X102000000Y-52475000D03*
G04 #@! TO.N,RS485_A*
X99400000Y-100075000D03*
X100350000Y-80725000D03*
G04 #@! TO.N,RS485_B*
X99100000Y-98825000D03*
X99700000Y-80025000D03*
G04 #@! TO.N,/BCM5_PIN29*
X100000000Y-93025000D03*
X111450000Y-93125000D03*
G04 #@! TO.N,/BCM4_PIN7*
X83500000Y-93075000D03*
X83500000Y-107025000D03*
G04 #@! TO.N,/DI17*
X112800000Y-58275000D03*
G04 #@! TO.N,/DI26*
X115550000Y-57275000D03*
G04 #@! TO.N,/DO12*
X105650000Y-52775000D03*
X125100000Y-52725000D03*
G04 #@! TO.N,/DO13*
X107950000Y-53525000D03*
G04 #@! TO.N,/DO16*
X107200000Y-53225000D03*
G04 #@! TO.N,/DO27*
X105450000Y-52125000D03*
X124650000Y-52125000D03*
G04 #@! TO.N,BCM16*
X118350000Y-83825000D03*
X118350000Y-59275000D03*
X111300000Y-55325000D03*
G04 #@! TO.N,BCM12*
X112700000Y-83325000D03*
X111800000Y-58975000D03*
X105350000Y-58975000D03*
X105350000Y-54725000D03*
G04 #@! TO.N,/BCM26_PIN37*
X89250000Y-101125000D03*
X89450000Y-93075000D03*
X121600000Y-92925000D03*
G04 #@! TO.N,BCM13*
X115250000Y-89725000D03*
X115250000Y-63775000D03*
X107350000Y-63775000D03*
X107850000Y-54125000D03*
G04 #@! TO.N,BCM27*
X92350000Y-90875000D03*
X92350000Y-57075000D03*
X104050000Y-56875000D03*
G04 #@! TO.N,/BCM17_PIN11*
X88500000Y-102825000D03*
X88500000Y-93225000D03*
G04 #@! TO.N,~BCM17*
X89700000Y-101825000D03*
X113300000Y-58875000D03*
X91200000Y-60975000D03*
G04 #@! TO.N,~BCM26*
X89750000Y-100375000D03*
X89900000Y-63025000D03*
X116800000Y-62375000D03*
X116800000Y-58875000D03*
G04 #@! TO.N,REF3V3*
X87200000Y-93075000D03*
X87050000Y-58425000D03*
X106700000Y-58025000D03*
G04 #@! TD*
D21*
G04 #@! TO.N,+3V3*
X114550000Y-51475000D02*
X114231802Y-51475000D01*
X114156801Y-51399999D02*
X74825001Y-51399999D01*
X114231802Y-51475000D02*
X114156801Y-51399999D01*
X74825001Y-51399999D02*
X74450000Y-51775000D01*
X74450000Y-57423998D02*
X71748998Y-60125000D01*
X74450000Y-51775000D02*
X74450000Y-57423998D01*
X71748998Y-60125000D02*
X69550000Y-60125000D01*
X69550000Y-60125000D02*
X67900000Y-61775000D01*
X67900000Y-61775000D02*
X67900000Y-71425000D01*
X67900000Y-71425000D02*
X67900000Y-83425000D01*
X67900000Y-83425000D02*
X69300000Y-84825000D01*
X69300000Y-84825000D02*
X72950000Y-84825000D01*
X72950000Y-84825000D02*
X74500000Y-86375000D01*
X74500000Y-86375000D02*
X74500000Y-91625000D01*
D22*
G04 #@! TO.N,/P1_RXD_HW_TXD*
X128200000Y-97925000D02*
X126700000Y-99425000D01*
X126700000Y-99425000D02*
X126700000Y-104675000D01*
X126700000Y-104675000D02*
X126500000Y-104875000D01*
G04 #@! TO.N,/P1_TXD_HW_RXD*
X128200000Y-96675000D02*
X126500000Y-98375000D01*
X126500000Y-98375000D02*
X126400000Y-98475000D01*
X126400000Y-98475000D02*
X126400000Y-103775000D01*
X126400000Y-103775000D02*
X126000000Y-104175000D01*
D21*
G04 #@! TO.N,/P0_RXD*
X84750000Y-86875000D02*
X84750000Y-107975000D01*
X83725000Y-109000000D02*
X82000000Y-109000000D01*
X84750000Y-107975000D02*
X83725000Y-109000000D01*
G04 #@! TO.N,/P0_TXD*
X80000000Y-107775000D02*
X80000000Y-109000000D01*
X82250000Y-95625000D02*
X81700000Y-96175000D01*
X82250000Y-87025000D02*
X82250000Y-95625000D01*
X81000000Y-107575000D02*
X80200000Y-107575000D01*
X81700000Y-96175000D02*
X81700000Y-106875000D01*
X81700000Y-106875000D02*
X81000000Y-107575000D01*
X80200000Y-107575000D02*
X80000000Y-107775000D01*
D22*
G04 #@! TO.N,/~RSTOUT*
X111000000Y-104675000D02*
X111000000Y-108675000D01*
X111000000Y-108675000D02*
X109700000Y-109975000D01*
D21*
G04 #@! TO.N,/VCC_FTDI*
X107300000Y-104175000D02*
X107300000Y-102575000D01*
D23*
G04 #@! TO.N,+24V*
X122300000Y-53225000D02*
X122300000Y-56570000D01*
X121800020Y-52725020D02*
X122300000Y-53225000D01*
X106350000Y-53175000D02*
X106799980Y-52725020D01*
X106799980Y-52725020D02*
X121800020Y-52725020D01*
X88100000Y-51825000D02*
X88418198Y-51825000D01*
X88418198Y-51825000D02*
X101350000Y-51825000D01*
X101350000Y-51825000D02*
X102000000Y-52475000D01*
D21*
G04 #@! TO.N,RS485_A*
X99574999Y-92500001D02*
X99574999Y-99200001D01*
X99400000Y-99375000D02*
X99400000Y-100075000D01*
X100350000Y-80725000D02*
X100300000Y-80775000D01*
X99574999Y-99200001D02*
X99400000Y-99375000D01*
X100300000Y-91775000D02*
X99574999Y-92500001D01*
X100300000Y-80775000D02*
X100300000Y-91775000D01*
G04 #@! TO.N,RS485_B*
X99250000Y-98356802D02*
X99100000Y-98506802D01*
X99250000Y-92436078D02*
X99250000Y-98356802D01*
X99700000Y-91986078D02*
X99250000Y-92436078D01*
X99100000Y-98506802D02*
X99100000Y-98825000D01*
X99700000Y-80025000D02*
X99700000Y-91986078D01*
G04 #@! TO.N,/BCM5_PIN29*
X100000000Y-109000000D02*
X100000000Y-93025000D01*
G04 #@! TO.N,/BCM4_PIN7*
X83500000Y-93075000D02*
X83500000Y-107025000D01*
G04 #@! TO.N,/DI17*
X120635000Y-71810000D02*
X122300000Y-71810000D01*
X119900000Y-71075000D02*
X120635000Y-71810000D01*
X119900000Y-59175000D02*
X119900000Y-71075000D01*
X112800000Y-58275000D02*
X119000000Y-58275000D01*
X119000000Y-58275000D02*
X119900000Y-59175000D01*
G04 #@! TO.N,/DI26*
X119200000Y-57275000D02*
X120200000Y-58275000D01*
X120200000Y-58275000D02*
X120200000Y-68675000D01*
X120795000Y-69270000D02*
X122300000Y-69270000D01*
X120200000Y-68675000D02*
X120795000Y-69270000D01*
X115550000Y-57275000D02*
X116900000Y-57275000D01*
X116600000Y-57275000D02*
X116900000Y-57275000D01*
X116900000Y-57275000D02*
X119200000Y-57275000D01*
G04 #@! TO.N,/DO12*
X125100000Y-53043198D02*
X124925010Y-53218188D01*
X125100000Y-52725000D02*
X125100000Y-53043198D01*
X124925010Y-53218188D02*
X124925010Y-65899990D01*
X124095000Y-66730000D02*
X122300000Y-66730000D01*
X124925010Y-65899990D02*
X124095000Y-66730000D01*
G04 #@! TO.N,/DO13*
X120815000Y-64190000D02*
X122300000Y-64190000D01*
X107950000Y-53525000D02*
X108268198Y-53525000D01*
X119800040Y-53325040D02*
X120500000Y-54025000D01*
X120500000Y-54025000D02*
X120500000Y-63875000D01*
X108268198Y-53525000D02*
X108468158Y-53325040D01*
X108468158Y-53325040D02*
X119800040Y-53325040D01*
X120500000Y-63875000D02*
X120815000Y-64190000D01*
G04 #@! TO.N,/DO16*
X107518198Y-53225000D02*
X107693168Y-53050030D01*
X107200000Y-53225000D02*
X107518198Y-53225000D01*
X121225000Y-61650000D02*
X122300000Y-61650000D01*
X107693168Y-53050030D02*
X119925030Y-53050030D01*
X119925030Y-53050030D02*
X120800000Y-53925000D01*
X120800000Y-53925000D02*
X120800000Y-61225000D01*
X120800000Y-61225000D02*
X121225000Y-61650000D01*
G04 #@! TO.N,/DO27*
X124650000Y-52125000D02*
X124650000Y-58325000D01*
X123865000Y-59110000D02*
X122300000Y-59110000D01*
X124650000Y-58325000D02*
X123865000Y-59110000D01*
G04 #@! TO.N,BCM16*
X118350000Y-83825000D02*
X118350000Y-59275000D01*
G04 #@! TO.N,BCM12*
X112700000Y-83325000D02*
X112475001Y-83100001D01*
X112475001Y-83100001D02*
X112200000Y-82825000D01*
X105350000Y-58975000D02*
X105350000Y-54725000D01*
X111800000Y-64375000D02*
X112200000Y-64775000D01*
X111800000Y-58975000D02*
X111800000Y-64375000D01*
X112200000Y-82825000D02*
X112200000Y-64775000D01*
G04 #@! TO.N,/BCM26_PIN37*
X89250000Y-101125000D02*
X89250000Y-93275000D01*
X89250000Y-93275000D02*
X89450000Y-93075000D01*
G04 #@! TO.N,BCM13*
X115250000Y-89725000D02*
X115250000Y-63775000D01*
X107350000Y-63775000D02*
X107350000Y-56095998D01*
X107350000Y-56095998D02*
X107350000Y-54625000D01*
X107350000Y-54625000D02*
X107850000Y-54125000D01*
G04 #@! TO.N,BCM27*
X92350000Y-90875000D02*
X92350000Y-57075000D01*
G04 #@! TO.N,/BCM17_PIN11*
X88500000Y-102825000D02*
X88500000Y-93225000D01*
G04 #@! TO.N,~BCM17*
X89700000Y-101825000D02*
X89700000Y-101275000D01*
X90175001Y-100799999D02*
X90175001Y-99549999D01*
X89700000Y-101275000D02*
X90175001Y-100799999D01*
X90175001Y-99549999D02*
X90250000Y-99475000D01*
X90325001Y-99399999D02*
X90325001Y-64199999D01*
X90250000Y-99475000D02*
X90325001Y-99399999D01*
X90325001Y-64199999D02*
X91200000Y-63325000D01*
X91200000Y-63325000D02*
X91200000Y-60975000D01*
G04 #@! TO.N,~BCM26*
X89750000Y-100375000D02*
X89750000Y-94725000D01*
X89750000Y-94725000D02*
X89900000Y-94575000D01*
X89900000Y-94575000D02*
X89900000Y-63025000D01*
X116800000Y-59193198D02*
X116800000Y-62375000D01*
X116800000Y-58875000D02*
X116800000Y-59193198D01*
G04 #@! TO.N,REF3V3*
X87050000Y-79151002D02*
X87050000Y-58425000D01*
X87200000Y-93075000D02*
X87200000Y-79301002D01*
X87200000Y-79301002D02*
X87050000Y-79151002D01*
G04 #@! TD*
D24*
G04 #@! TO.N,GND*
G36*
X130097043Y-51474330D02*
X130662057Y-51679421D01*
X131164739Y-52008994D01*
X131578119Y-52445367D01*
X131880024Y-52965134D01*
X132055855Y-53545683D01*
X132098000Y-54017898D01*
X132098001Y-87546676D01*
X131735719Y-86672051D01*
X130827949Y-85764281D01*
X129641890Y-85273000D01*
X128358110Y-85273000D01*
X127172051Y-85764281D01*
X126264281Y-86672051D01*
X125773000Y-87858110D01*
X125773000Y-89141890D01*
X126264281Y-90327949D01*
X127172051Y-91235719D01*
X128358110Y-91727000D01*
X129641890Y-91727000D01*
X130827949Y-91235719D01*
X131735719Y-90327949D01*
X132098001Y-89453324D01*
X132098001Y-110546678D01*
X131735719Y-109672051D01*
X130827949Y-108764281D01*
X129641890Y-108273000D01*
X128358110Y-108273000D01*
X127172051Y-108764281D01*
X126264281Y-109672051D01*
X125773000Y-110858110D01*
X125773000Y-112141890D01*
X126264281Y-113327949D01*
X127172051Y-114235719D01*
X128046676Y-114598000D01*
X71953324Y-114598000D01*
X72827949Y-114235719D01*
X73735719Y-113327949D01*
X73869214Y-113005663D01*
X106723000Y-113005663D01*
X106723000Y-113394337D01*
X106871739Y-113753426D01*
X107146574Y-114028261D01*
X107505663Y-114177000D01*
X107894337Y-114177000D01*
X108253426Y-114028261D01*
X108528261Y-113753426D01*
X108600000Y-113580232D01*
X108671739Y-113753426D01*
X108946574Y-114028261D01*
X109305663Y-114177000D01*
X109694337Y-114177000D01*
X110053426Y-114028261D01*
X110328261Y-113753426D01*
X110477000Y-113394337D01*
X110477000Y-113005663D01*
X110328261Y-112646574D01*
X110053426Y-112371739D01*
X109694337Y-112223000D01*
X109305663Y-112223000D01*
X108946574Y-112371739D01*
X108671739Y-112646574D01*
X108600000Y-112819768D01*
X108528261Y-112646574D01*
X108253426Y-112371739D01*
X107894337Y-112223000D01*
X107505663Y-112223000D01*
X107146574Y-112371739D01*
X106871739Y-112646574D01*
X106723000Y-113005663D01*
X73869214Y-113005663D01*
X74227000Y-112141890D01*
X74227000Y-111205663D01*
X120623000Y-111205663D01*
X120623000Y-111594337D01*
X120771739Y-111953426D01*
X121046574Y-112228261D01*
X121405663Y-112377000D01*
X121794337Y-112377000D01*
X122153426Y-112228261D01*
X122428261Y-111953426D01*
X122577000Y-111594337D01*
X122577000Y-111205663D01*
X122428261Y-110846574D01*
X122153426Y-110571739D01*
X121794337Y-110423000D01*
X121405663Y-110423000D01*
X121046574Y-110571739D01*
X120771739Y-110846574D01*
X120623000Y-111205663D01*
X74227000Y-111205663D01*
X74227000Y-110858110D01*
X73735719Y-109672051D01*
X73349418Y-109285750D01*
X76615000Y-109285750D01*
X76615000Y-110026310D01*
X76711673Y-110259699D01*
X76890302Y-110438327D01*
X77123691Y-110535000D01*
X77714250Y-110535000D01*
X77873000Y-110376250D01*
X77873000Y-109127000D01*
X76773750Y-109127000D01*
X76615000Y-109285750D01*
X73349418Y-109285750D01*
X72827949Y-108764281D01*
X71641890Y-108273000D01*
X70358110Y-108273000D01*
X69172051Y-108764281D01*
X68264281Y-109672051D01*
X67902000Y-110546676D01*
X67902000Y-107973690D01*
X76615000Y-107973690D01*
X76615000Y-108714250D01*
X76773750Y-108873000D01*
X77873000Y-108873000D01*
X77873000Y-107623750D01*
X78127000Y-107623750D01*
X78127000Y-108873000D01*
X78147000Y-108873000D01*
X78147000Y-109127000D01*
X78127000Y-109127000D01*
X78127000Y-110376250D01*
X78285750Y-110535000D01*
X78876309Y-110535000D01*
X79109698Y-110438327D01*
X79288327Y-110259699D01*
X79382387Y-110032619D01*
X79579777Y-110164511D01*
X80000000Y-110248099D01*
X80420224Y-110164511D01*
X80776473Y-109926473D01*
X81014511Y-109570223D01*
X81015517Y-109565164D01*
X81223528Y-109876473D01*
X81579777Y-110114511D01*
X82000000Y-110198099D01*
X82420224Y-110114511D01*
X82776473Y-109876473D01*
X83014511Y-109520223D01*
X83038027Y-109402000D01*
X83685415Y-109402000D01*
X83725000Y-109409874D01*
X83764585Y-109402000D01*
X83764590Y-109402000D01*
X83881852Y-109378675D01*
X84014825Y-109289825D01*
X84037251Y-109256262D01*
X85006264Y-108287250D01*
X85039825Y-108264825D01*
X85062249Y-108231265D01*
X85062251Y-108231263D01*
X85128674Y-108131853D01*
X85128675Y-108131852D01*
X85135010Y-108100000D01*
X86916594Y-108100000D01*
X86916594Y-109900000D01*
X86941973Y-110027589D01*
X87014246Y-110135754D01*
X87122411Y-110208027D01*
X87250000Y-110233406D01*
X88750000Y-110233406D01*
X88877589Y-110208027D01*
X88985754Y-110135754D01*
X89058027Y-110027589D01*
X89083406Y-109900000D01*
X89083406Y-109716767D01*
X89223528Y-109926473D01*
X89579777Y-110164511D01*
X90000000Y-110248099D01*
X90420224Y-110164511D01*
X90776473Y-109926473D01*
X90832765Y-109842227D01*
X90834255Y-109846036D01*
X91208488Y-110235359D01*
X91658815Y-110442318D01*
X91873000Y-110319656D01*
X91873000Y-109127000D01*
X92127000Y-109127000D01*
X92127000Y-110319656D01*
X92341185Y-110442318D01*
X92791512Y-110235359D01*
X93165745Y-109846036D01*
X93362504Y-109343136D01*
X93225014Y-109127000D01*
X92127000Y-109127000D01*
X91873000Y-109127000D01*
X91853000Y-109127000D01*
X91853000Y-108873000D01*
X91873000Y-108873000D01*
X91873000Y-107680344D01*
X92127000Y-107680344D01*
X92127000Y-108873000D01*
X93225014Y-108873000D01*
X93362504Y-108656864D01*
X93165745Y-108153964D01*
X93113873Y-108100000D01*
X96916594Y-108100000D01*
X96916594Y-109900000D01*
X96941973Y-110027589D01*
X97014246Y-110135754D01*
X97122411Y-110208027D01*
X97250000Y-110233406D01*
X98750000Y-110233406D01*
X98877589Y-110208027D01*
X98985754Y-110135754D01*
X99058027Y-110027589D01*
X99083406Y-109900000D01*
X99083406Y-109716767D01*
X99223528Y-109926473D01*
X99579777Y-110164511D01*
X100000000Y-110248099D01*
X100420224Y-110164511D01*
X100776473Y-109926473D01*
X100832765Y-109842227D01*
X100834255Y-109846036D01*
X101208488Y-110235359D01*
X101658815Y-110442318D01*
X101873000Y-110319656D01*
X101873000Y-109127000D01*
X102127000Y-109127000D01*
X102127000Y-110319656D01*
X102341185Y-110442318D01*
X102791512Y-110235359D01*
X103147323Y-109865200D01*
X109148000Y-109865200D01*
X109148000Y-110084800D01*
X109232037Y-110287683D01*
X109387317Y-110442963D01*
X109590200Y-110527000D01*
X109809800Y-110527000D01*
X110012683Y-110442963D01*
X110167963Y-110287683D01*
X110252000Y-110084800D01*
X110252000Y-109956158D01*
X110809142Y-109399016D01*
X120480590Y-109399016D01*
X120536271Y-109629611D01*
X121019078Y-109797622D01*
X121529428Y-109768083D01*
X121863729Y-109629611D01*
X121919410Y-109399016D01*
X121200000Y-108679605D01*
X120480590Y-109399016D01*
X110809142Y-109399016D01*
X111240326Y-108967832D01*
X111271801Y-108946801D01*
X111355125Y-108822098D01*
X111377000Y-108712126D01*
X111377000Y-108712123D01*
X111384384Y-108675000D01*
X111377000Y-108637878D01*
X111377000Y-107665200D01*
X117248000Y-107665200D01*
X117248000Y-107884800D01*
X117332037Y-108087683D01*
X117487317Y-108242963D01*
X117690200Y-108327000D01*
X117909800Y-108327000D01*
X117928925Y-108319078D01*
X119902378Y-108319078D01*
X119931917Y-108829428D01*
X120070389Y-109163729D01*
X120300984Y-109219410D01*
X121020395Y-108500000D01*
X121379605Y-108500000D01*
X122099016Y-109219410D01*
X122329611Y-109163729D01*
X122497622Y-108680922D01*
X122468083Y-108170572D01*
X122329611Y-107836271D01*
X122099016Y-107780590D01*
X121379605Y-108500000D01*
X121020395Y-108500000D01*
X120300984Y-107780590D01*
X120070389Y-107836271D01*
X119902378Y-108319078D01*
X117928925Y-108319078D01*
X118112683Y-108242963D01*
X118267963Y-108087683D01*
X118352000Y-107884800D01*
X118352000Y-107665200D01*
X118325401Y-107600984D01*
X120480590Y-107600984D01*
X121200000Y-108320395D01*
X121919410Y-107600984D01*
X121863729Y-107370389D01*
X121380922Y-107202378D01*
X120870572Y-107231917D01*
X120536271Y-107370389D01*
X120480590Y-107600984D01*
X118325401Y-107600984D01*
X118267963Y-107462317D01*
X118112683Y-107307037D01*
X117909800Y-107223000D01*
X117690200Y-107223000D01*
X117487317Y-107307037D01*
X117332037Y-107462317D01*
X117248000Y-107665200D01*
X111377000Y-107665200D01*
X111377000Y-105078646D01*
X111467963Y-104987683D01*
X111482822Y-104951810D01*
X111508743Y-105014389D01*
X111664023Y-105169669D01*
X111841725Y-105243275D01*
X111915331Y-105420977D01*
X112070611Y-105576257D01*
X112273494Y-105660294D01*
X112493094Y-105660294D01*
X112695977Y-105576257D01*
X112851257Y-105420977D01*
X112935294Y-105218094D01*
X112935294Y-105065200D01*
X118648000Y-105065200D01*
X118648000Y-105284800D01*
X118732037Y-105487683D01*
X118887317Y-105642963D01*
X119090200Y-105727000D01*
X119309800Y-105727000D01*
X119512683Y-105642963D01*
X119667963Y-105487683D01*
X119752000Y-105284800D01*
X119752000Y-105065200D01*
X119667963Y-104862317D01*
X119512683Y-104707037D01*
X119309800Y-104623000D01*
X119090200Y-104623000D01*
X118887317Y-104707037D01*
X118732037Y-104862317D01*
X118648000Y-105065200D01*
X112935294Y-105065200D01*
X112935294Y-104998494D01*
X112851257Y-104795611D01*
X112695977Y-104640331D01*
X112518275Y-104566725D01*
X112444669Y-104389023D01*
X112289389Y-104233743D01*
X112086506Y-104149706D01*
X111866906Y-104149706D01*
X111664023Y-104233743D01*
X111508743Y-104389023D01*
X111493884Y-104424896D01*
X111467963Y-104362317D01*
X111312683Y-104207037D01*
X111152921Y-104140861D01*
X111172000Y-104094800D01*
X111172000Y-103875200D01*
X111087963Y-103672317D01*
X111080846Y-103665200D01*
X119048000Y-103665200D01*
X119048000Y-103884800D01*
X119132037Y-104087683D01*
X119287317Y-104242963D01*
X119490200Y-104327000D01*
X119709800Y-104327000D01*
X119912683Y-104242963D01*
X120067963Y-104087683D01*
X120077275Y-104065200D01*
X125448000Y-104065200D01*
X125448000Y-104284800D01*
X125532037Y-104487683D01*
X125687317Y-104642963D01*
X125890200Y-104727000D01*
X125963823Y-104727000D01*
X125948000Y-104765200D01*
X125948000Y-104984800D01*
X126032037Y-105187683D01*
X126187317Y-105342963D01*
X126390200Y-105427000D01*
X126609800Y-105427000D01*
X126812683Y-105342963D01*
X126967963Y-105187683D01*
X127052000Y-104984800D01*
X127052000Y-104826775D01*
X127055125Y-104822098D01*
X127077000Y-104712126D01*
X127077000Y-104712123D01*
X127084384Y-104675000D01*
X127077000Y-104637878D01*
X127077000Y-99581158D01*
X127473000Y-99185158D01*
X127473000Y-99319609D01*
X127583679Y-99586813D01*
X127788187Y-99791321D01*
X127809140Y-99800000D01*
X127788187Y-99808679D01*
X127583679Y-100013187D01*
X127473000Y-100280391D01*
X127473000Y-100569609D01*
X127583679Y-100836813D01*
X127788187Y-101041321D01*
X127809140Y-101050000D01*
X127788187Y-101058679D01*
X127583679Y-101263187D01*
X127473000Y-101530391D01*
X127473000Y-101819609D01*
X127583679Y-102086813D01*
X127788187Y-102291321D01*
X127809140Y-102300000D01*
X127788187Y-102308679D01*
X127583679Y-102513187D01*
X127473000Y-102780391D01*
X127473000Y-103069609D01*
X127583679Y-103336813D01*
X127788187Y-103541321D01*
X127809140Y-103550000D01*
X127788187Y-103558679D01*
X127583679Y-103763187D01*
X127473000Y-104030391D01*
X127473000Y-104319609D01*
X127583679Y-104586813D01*
X127788187Y-104791321D01*
X128055391Y-104902000D01*
X128344609Y-104902000D01*
X128611813Y-104791321D01*
X128816321Y-104586813D01*
X128927000Y-104319609D01*
X128927000Y-104030391D01*
X128816321Y-103763187D01*
X128611813Y-103558679D01*
X128590860Y-103550000D01*
X128611813Y-103541321D01*
X128816321Y-103336813D01*
X128927000Y-103069609D01*
X128927000Y-102780391D01*
X128816321Y-102513187D01*
X128611813Y-102308679D01*
X128590860Y-102300000D01*
X128611813Y-102291321D01*
X128816321Y-102086813D01*
X128927000Y-101819609D01*
X128927000Y-101530391D01*
X128816321Y-101263187D01*
X128611813Y-101058679D01*
X128590860Y-101050000D01*
X128611813Y-101041321D01*
X128816321Y-100836813D01*
X128927000Y-100569609D01*
X128927000Y-100280391D01*
X128816321Y-100013187D01*
X128611813Y-99808679D01*
X128590860Y-99800000D01*
X128611813Y-99791321D01*
X128816321Y-99586813D01*
X128927000Y-99319609D01*
X128927000Y-99030391D01*
X128816321Y-98763187D01*
X128611813Y-98558679D01*
X128590860Y-98550000D01*
X128611813Y-98541321D01*
X128816321Y-98336813D01*
X128927000Y-98069609D01*
X128927000Y-97780391D01*
X128816321Y-97513187D01*
X128611813Y-97308679D01*
X128590860Y-97300000D01*
X128611813Y-97291321D01*
X128816321Y-97086813D01*
X128927000Y-96819609D01*
X128927000Y-96530391D01*
X128816321Y-96263187D01*
X128733194Y-96180060D01*
X128737745Y-96142350D01*
X128200000Y-95604605D01*
X127662255Y-96142350D01*
X127666806Y-96180060D01*
X127583679Y-96263187D01*
X127473000Y-96530391D01*
X127473000Y-96819609D01*
X127487420Y-96854422D01*
X126159674Y-98182168D01*
X126128199Y-98203199D01*
X126044875Y-98327903D01*
X126023000Y-98437875D01*
X126023000Y-98437878D01*
X126015616Y-98475000D01*
X126023000Y-98512122D01*
X126023001Y-103618840D01*
X126018841Y-103623000D01*
X125890200Y-103623000D01*
X125687317Y-103707037D01*
X125532037Y-103862317D01*
X125448000Y-104065200D01*
X120077275Y-104065200D01*
X120152000Y-103884800D01*
X120152000Y-103665200D01*
X120067963Y-103462317D01*
X119912683Y-103307037D01*
X119709800Y-103223000D01*
X119490200Y-103223000D01*
X119287317Y-103307037D01*
X119132037Y-103462317D01*
X119048000Y-103665200D01*
X111080846Y-103665200D01*
X110932683Y-103517037D01*
X110729800Y-103433000D01*
X110510200Y-103433000D01*
X110345136Y-103501372D01*
X110352000Y-103484800D01*
X110352000Y-103265200D01*
X110267963Y-103062317D01*
X110112683Y-102907037D01*
X109909800Y-102823000D01*
X109690200Y-102823000D01*
X109487317Y-102907037D01*
X109332037Y-103062317D01*
X109248000Y-103265200D01*
X109248000Y-103484800D01*
X109332037Y-103687683D01*
X109487317Y-103842963D01*
X109690200Y-103927000D01*
X109909800Y-103927000D01*
X110074864Y-103858628D01*
X110068000Y-103875200D01*
X110068000Y-104094800D01*
X110152037Y-104297683D01*
X110307317Y-104452963D01*
X110467079Y-104519139D01*
X110448000Y-104565200D01*
X110448000Y-104784800D01*
X110532037Y-104987683D01*
X110623000Y-105078646D01*
X110623001Y-108518841D01*
X109718842Y-109423000D01*
X109590200Y-109423000D01*
X109387317Y-109507037D01*
X109232037Y-109662317D01*
X109148000Y-109865200D01*
X103147323Y-109865200D01*
X103165745Y-109846036D01*
X103362504Y-109343136D01*
X103225014Y-109127000D01*
X102127000Y-109127000D01*
X101873000Y-109127000D01*
X101853000Y-109127000D01*
X101853000Y-108873000D01*
X101873000Y-108873000D01*
X101873000Y-107680344D01*
X102127000Y-107680344D01*
X102127000Y-108873000D01*
X103225014Y-108873000D01*
X103362504Y-108656864D01*
X103165745Y-108153964D01*
X102791512Y-107764641D01*
X102341185Y-107557682D01*
X102127000Y-107680344D01*
X101873000Y-107680344D01*
X101658815Y-107557682D01*
X101208488Y-107764641D01*
X100834255Y-108153964D01*
X100832765Y-108157773D01*
X100776473Y-108073527D01*
X100420223Y-107835489D01*
X100402000Y-107831864D01*
X100402000Y-105615200D01*
X103498000Y-105615200D01*
X103498000Y-105834800D01*
X103582037Y-106037683D01*
X103737317Y-106192963D01*
X103940200Y-106277000D01*
X104159800Y-106277000D01*
X104362683Y-106192963D01*
X104517963Y-106037683D01*
X104602000Y-105834800D01*
X104602000Y-105615200D01*
X104517963Y-105412317D01*
X104362683Y-105257037D01*
X104159800Y-105173000D01*
X103940200Y-105173000D01*
X103737317Y-105257037D01*
X103582037Y-105412317D01*
X103498000Y-105615200D01*
X100402000Y-105615200D01*
X100402000Y-103265200D01*
X106048000Y-103265200D01*
X106048000Y-103484800D01*
X106132037Y-103687683D01*
X106287317Y-103842963D01*
X106490200Y-103927000D01*
X106709800Y-103927000D01*
X106825012Y-103879278D01*
X106748000Y-104065200D01*
X106748000Y-104284800D01*
X106832037Y-104487683D01*
X106987317Y-104642963D01*
X107190200Y-104727000D01*
X107409800Y-104727000D01*
X107612683Y-104642963D01*
X107767963Y-104487683D01*
X107852000Y-104284800D01*
X107852000Y-104065200D01*
X107767963Y-103862317D01*
X107702000Y-103796354D01*
X107702000Y-102953646D01*
X107767963Y-102887683D01*
X107852000Y-102684800D01*
X107852000Y-102465200D01*
X107769158Y-102265200D01*
X111448000Y-102265200D01*
X111448000Y-102484800D01*
X111532037Y-102687683D01*
X111687317Y-102842963D01*
X111890200Y-102927000D01*
X112109800Y-102927000D01*
X112312683Y-102842963D01*
X112467963Y-102687683D01*
X112552000Y-102484800D01*
X112552000Y-102265200D01*
X112467963Y-102062317D01*
X112312683Y-101907037D01*
X112109800Y-101823000D01*
X111890200Y-101823000D01*
X111687317Y-101907037D01*
X111532037Y-102062317D01*
X111448000Y-102265200D01*
X107769158Y-102265200D01*
X107767963Y-102262317D01*
X107612683Y-102107037D01*
X107409800Y-102023000D01*
X107190200Y-102023000D01*
X106987317Y-102107037D01*
X106832037Y-102262317D01*
X106748000Y-102465200D01*
X106748000Y-102684800D01*
X106825012Y-102870722D01*
X106709800Y-102823000D01*
X106490200Y-102823000D01*
X106287317Y-102907037D01*
X106132037Y-103062317D01*
X106048000Y-103265200D01*
X100402000Y-103265200D01*
X100402000Y-102465200D01*
X103948000Y-102465200D01*
X103948000Y-102684800D01*
X104032037Y-102887683D01*
X104187317Y-103042963D01*
X104390200Y-103127000D01*
X104609800Y-103127000D01*
X104812683Y-103042963D01*
X104967963Y-102887683D01*
X105052000Y-102684800D01*
X105052000Y-102465200D01*
X104967963Y-102262317D01*
X104812683Y-102107037D01*
X104609800Y-102023000D01*
X104390200Y-102023000D01*
X104187317Y-102107037D01*
X104032037Y-102262317D01*
X103948000Y-102465200D01*
X100402000Y-102465200D01*
X100402000Y-101265200D01*
X112248000Y-101265200D01*
X112248000Y-101484800D01*
X112332037Y-101687683D01*
X112487317Y-101842963D01*
X112690200Y-101927000D01*
X112909800Y-101927000D01*
X113112683Y-101842963D01*
X113267963Y-101687683D01*
X113352000Y-101484800D01*
X113352000Y-101265200D01*
X113267963Y-101062317D01*
X113120846Y-100915200D01*
X115248000Y-100915200D01*
X115248000Y-101134800D01*
X115332037Y-101337683D01*
X115487317Y-101492963D01*
X115690200Y-101577000D01*
X115909800Y-101577000D01*
X116112683Y-101492963D01*
X116267963Y-101337683D01*
X116352000Y-101134800D01*
X116352000Y-100915200D01*
X116267963Y-100712317D01*
X116112683Y-100557037D01*
X115909800Y-100473000D01*
X115690200Y-100473000D01*
X115487317Y-100557037D01*
X115332037Y-100712317D01*
X115248000Y-100915200D01*
X113120846Y-100915200D01*
X113112683Y-100907037D01*
X112909800Y-100823000D01*
X112690200Y-100823000D01*
X112487317Y-100907037D01*
X112332037Y-101062317D01*
X112248000Y-101265200D01*
X100402000Y-101265200D01*
X100402000Y-99915200D01*
X100998000Y-99915200D01*
X100998000Y-100134800D01*
X101082037Y-100337683D01*
X101237317Y-100492963D01*
X101440200Y-100577000D01*
X101659800Y-100577000D01*
X101862683Y-100492963D01*
X102017963Y-100337683D01*
X102102000Y-100134800D01*
X102102000Y-99965200D01*
X111398000Y-99965200D01*
X111398000Y-100184800D01*
X111482037Y-100387683D01*
X111637317Y-100542963D01*
X111840200Y-100627000D01*
X112059800Y-100627000D01*
X112262683Y-100542963D01*
X112417963Y-100387683D01*
X112502000Y-100184800D01*
X112502000Y-99965200D01*
X112435344Y-99804278D01*
X112490200Y-99827000D01*
X112709800Y-99827000D01*
X112912683Y-99742963D01*
X113067963Y-99587683D01*
X113152000Y-99384800D01*
X113152000Y-99165200D01*
X113069158Y-98965200D01*
X118048000Y-98965200D01*
X118048000Y-99184800D01*
X118132037Y-99387683D01*
X118287317Y-99542963D01*
X118490200Y-99627000D01*
X118709800Y-99627000D01*
X118912683Y-99542963D01*
X119067963Y-99387683D01*
X119152000Y-99184800D01*
X119152000Y-98965200D01*
X119067963Y-98762317D01*
X118912683Y-98607037D01*
X118709800Y-98523000D01*
X118490200Y-98523000D01*
X118287317Y-98607037D01*
X118132037Y-98762317D01*
X118048000Y-98965200D01*
X113069158Y-98965200D01*
X113067963Y-98962317D01*
X112912683Y-98807037D01*
X112709800Y-98723000D01*
X112490200Y-98723000D01*
X112287317Y-98807037D01*
X112132037Y-98962317D01*
X112048000Y-99165200D01*
X112048000Y-99384800D01*
X112114656Y-99545722D01*
X112059800Y-99523000D01*
X111840200Y-99523000D01*
X111637317Y-99607037D01*
X111482037Y-99762317D01*
X111398000Y-99965200D01*
X102102000Y-99965200D01*
X102102000Y-99915200D01*
X102017963Y-99712317D01*
X101862683Y-99557037D01*
X101659800Y-99473000D01*
X101440200Y-99473000D01*
X101237317Y-99557037D01*
X101082037Y-99712317D01*
X100998000Y-99915200D01*
X100402000Y-99915200D01*
X100402000Y-95303931D01*
X127151691Y-95303931D01*
X127185158Y-95714318D01*
X127277820Y-95938023D01*
X127482650Y-95962745D01*
X128020395Y-95425000D01*
X128379605Y-95425000D01*
X128917350Y-95962745D01*
X129122180Y-95938023D01*
X129248309Y-95546069D01*
X129214842Y-95135682D01*
X129122180Y-94911977D01*
X128917350Y-94887255D01*
X128379605Y-95425000D01*
X128020395Y-95425000D01*
X127482650Y-94887255D01*
X127277820Y-94911977D01*
X127151691Y-95303931D01*
X100402000Y-95303931D01*
X100402000Y-94707650D01*
X127662255Y-94707650D01*
X128200000Y-95245395D01*
X128737745Y-94707650D01*
X128713023Y-94502820D01*
X128321069Y-94376691D01*
X127910682Y-94410158D01*
X127686977Y-94502820D01*
X127662255Y-94707650D01*
X100402000Y-94707650D01*
X100402000Y-93403646D01*
X100467963Y-93337683D01*
X100552000Y-93134800D01*
X100552000Y-93015200D01*
X110898000Y-93015200D01*
X110898000Y-93234800D01*
X110982037Y-93437683D01*
X111137317Y-93592963D01*
X111340200Y-93677000D01*
X111559800Y-93677000D01*
X111762683Y-93592963D01*
X111917963Y-93437683D01*
X112002000Y-93234800D01*
X112002000Y-93015200D01*
X111919158Y-92815200D01*
X121048000Y-92815200D01*
X121048000Y-93034800D01*
X121132037Y-93237683D01*
X121287317Y-93392963D01*
X121490200Y-93477000D01*
X121709800Y-93477000D01*
X121912683Y-93392963D01*
X122067963Y-93237683D01*
X122152000Y-93034800D01*
X122152000Y-92815200D01*
X122067963Y-92612317D01*
X121912683Y-92457037D01*
X121709800Y-92373000D01*
X121490200Y-92373000D01*
X121287317Y-92457037D01*
X121132037Y-92612317D01*
X121048000Y-92815200D01*
X111919158Y-92815200D01*
X111917963Y-92812317D01*
X111762683Y-92657037D01*
X111559800Y-92573000D01*
X111340200Y-92573000D01*
X111137317Y-92657037D01*
X110982037Y-92812317D01*
X110898000Y-93015200D01*
X100552000Y-93015200D01*
X100552000Y-92915200D01*
X100467963Y-92712317D01*
X100312683Y-92557037D01*
X100152731Y-92490783D01*
X100556264Y-92087250D01*
X100589825Y-92064825D01*
X100612249Y-92031265D01*
X100612251Y-92031263D01*
X100678674Y-91931853D01*
X100678675Y-91931852D01*
X100702000Y-91814590D01*
X100702000Y-91814586D01*
X100709874Y-91775001D01*
X100702000Y-91735416D01*
X100702000Y-90350341D01*
X100810039Y-90458380D01*
X101108483Y-90582000D01*
X101431517Y-90582000D01*
X101729961Y-90458380D01*
X101958380Y-90229961D01*
X102082000Y-89931517D01*
X102082000Y-89608483D01*
X102998000Y-89608483D01*
X102998000Y-89931517D01*
X103121620Y-90229961D01*
X103350039Y-90458380D01*
X103648483Y-90582000D01*
X103971517Y-90582000D01*
X104269961Y-90458380D01*
X104498380Y-90229961D01*
X104622000Y-89931517D01*
X104622000Y-89608483D01*
X105538000Y-89608483D01*
X105538000Y-89931517D01*
X105661620Y-90229961D01*
X105890039Y-90458380D01*
X106188483Y-90582000D01*
X106511517Y-90582000D01*
X106809961Y-90458380D01*
X107038380Y-90229961D01*
X107162000Y-89931517D01*
X107162000Y-89608483D01*
X108078000Y-89608483D01*
X108078000Y-89931517D01*
X108201620Y-90229961D01*
X108430039Y-90458380D01*
X108728483Y-90582000D01*
X109051517Y-90582000D01*
X109349961Y-90458380D01*
X109578380Y-90229961D01*
X109702000Y-89931517D01*
X109702000Y-89608483D01*
X110618000Y-89608483D01*
X110618000Y-89931517D01*
X110741620Y-90229961D01*
X110970039Y-90458380D01*
X111268483Y-90582000D01*
X111591517Y-90582000D01*
X111889961Y-90458380D01*
X112118380Y-90229961D01*
X112242000Y-89931517D01*
X112242000Y-89608483D01*
X112118380Y-89310039D01*
X111889961Y-89081620D01*
X111591517Y-88958000D01*
X111268483Y-88958000D01*
X110970039Y-89081620D01*
X110741620Y-89310039D01*
X110618000Y-89608483D01*
X109702000Y-89608483D01*
X109578380Y-89310039D01*
X109349961Y-89081620D01*
X109051517Y-88958000D01*
X108728483Y-88958000D01*
X108430039Y-89081620D01*
X108201620Y-89310039D01*
X108078000Y-89608483D01*
X107162000Y-89608483D01*
X107038380Y-89310039D01*
X106809961Y-89081620D01*
X106511517Y-88958000D01*
X106188483Y-88958000D01*
X105890039Y-89081620D01*
X105661620Y-89310039D01*
X105538000Y-89608483D01*
X104622000Y-89608483D01*
X104498380Y-89310039D01*
X104269961Y-89081620D01*
X103971517Y-88958000D01*
X103648483Y-88958000D01*
X103350039Y-89081620D01*
X103121620Y-89310039D01*
X102998000Y-89608483D01*
X102082000Y-89608483D01*
X101958380Y-89310039D01*
X101729961Y-89081620D01*
X101431517Y-88958000D01*
X101108483Y-88958000D01*
X100810039Y-89081620D01*
X100702000Y-89189659D01*
X100702000Y-87810341D01*
X100810039Y-87918380D01*
X101108483Y-88042000D01*
X101431517Y-88042000D01*
X101729961Y-87918380D01*
X101958380Y-87689961D01*
X102082000Y-87391517D01*
X102082000Y-87068483D01*
X102998000Y-87068483D01*
X102998000Y-87391517D01*
X103121620Y-87689961D01*
X103350039Y-87918380D01*
X103648483Y-88042000D01*
X103971517Y-88042000D01*
X104269961Y-87918380D01*
X104498380Y-87689961D01*
X104622000Y-87391517D01*
X104622000Y-87068483D01*
X105538000Y-87068483D01*
X105538000Y-87391517D01*
X105661620Y-87689961D01*
X105890039Y-87918380D01*
X106188483Y-88042000D01*
X106511517Y-88042000D01*
X106809961Y-87918380D01*
X107038380Y-87689961D01*
X107162000Y-87391517D01*
X107162000Y-87068483D01*
X108078000Y-87068483D01*
X108078000Y-87391517D01*
X108201620Y-87689961D01*
X108430039Y-87918380D01*
X108728483Y-88042000D01*
X109051517Y-88042000D01*
X109349961Y-87918380D01*
X109578380Y-87689961D01*
X109702000Y-87391517D01*
X109702000Y-87068483D01*
X110618000Y-87068483D01*
X110618000Y-87391517D01*
X110741620Y-87689961D01*
X110970039Y-87918380D01*
X111268483Y-88042000D01*
X111591517Y-88042000D01*
X111889961Y-87918380D01*
X112118380Y-87689961D01*
X112242000Y-87391517D01*
X112242000Y-87068483D01*
X113158000Y-87068483D01*
X113158000Y-87391517D01*
X113281620Y-87689961D01*
X113510039Y-87918380D01*
X113808483Y-88042000D01*
X114131517Y-88042000D01*
X114429961Y-87918380D01*
X114658380Y-87689961D01*
X114782000Y-87391517D01*
X114782000Y-87068483D01*
X114658380Y-86770039D01*
X114429961Y-86541620D01*
X114131517Y-86418000D01*
X113808483Y-86418000D01*
X113510039Y-86541620D01*
X113281620Y-86770039D01*
X113158000Y-87068483D01*
X112242000Y-87068483D01*
X112118380Y-86770039D01*
X111889961Y-86541620D01*
X111591517Y-86418000D01*
X111268483Y-86418000D01*
X110970039Y-86541620D01*
X110741620Y-86770039D01*
X110618000Y-87068483D01*
X109702000Y-87068483D01*
X109578380Y-86770039D01*
X109349961Y-86541620D01*
X109051517Y-86418000D01*
X108728483Y-86418000D01*
X108430039Y-86541620D01*
X108201620Y-86770039D01*
X108078000Y-87068483D01*
X107162000Y-87068483D01*
X107038380Y-86770039D01*
X106809961Y-86541620D01*
X106511517Y-86418000D01*
X106188483Y-86418000D01*
X105890039Y-86541620D01*
X105661620Y-86770039D01*
X105538000Y-87068483D01*
X104622000Y-87068483D01*
X104498380Y-86770039D01*
X104269961Y-86541620D01*
X103971517Y-86418000D01*
X103648483Y-86418000D01*
X103350039Y-86541620D01*
X103121620Y-86770039D01*
X102998000Y-87068483D01*
X102082000Y-87068483D01*
X101958380Y-86770039D01*
X101729961Y-86541620D01*
X101431517Y-86418000D01*
X101108483Y-86418000D01*
X100810039Y-86541620D01*
X100702000Y-86649659D01*
X100702000Y-81153646D01*
X100817963Y-81037683D01*
X100902000Y-80834800D01*
X100902000Y-80615200D01*
X100817963Y-80412317D01*
X100662683Y-80257037D01*
X100459800Y-80173000D01*
X100240200Y-80173000D01*
X100235344Y-80175011D01*
X100252000Y-80134800D01*
X100252000Y-79915200D01*
X100167963Y-79712317D01*
X100012683Y-79557037D01*
X99809800Y-79473000D01*
X99590200Y-79473000D01*
X99387317Y-79557037D01*
X99232037Y-79712317D01*
X99148000Y-79915200D01*
X99148000Y-80134800D01*
X99232037Y-80337683D01*
X99298000Y-80403646D01*
X99298001Y-86649660D01*
X99189961Y-86541620D01*
X98891517Y-86418000D01*
X98568483Y-86418000D01*
X98270039Y-86541620D01*
X98041620Y-86770039D01*
X97918000Y-87068483D01*
X97918000Y-87391517D01*
X98041620Y-87689961D01*
X98270039Y-87918380D01*
X98568483Y-88042000D01*
X98891517Y-88042000D01*
X99189961Y-87918380D01*
X99298001Y-87810340D01*
X99298001Y-89189660D01*
X99189961Y-89081620D01*
X98891517Y-88958000D01*
X98568483Y-88958000D01*
X98270039Y-89081620D01*
X98041620Y-89310039D01*
X97918000Y-89608483D01*
X97918000Y-89931517D01*
X98041620Y-90229961D01*
X98270039Y-90458380D01*
X98568483Y-90582000D01*
X98891517Y-90582000D01*
X99189961Y-90458380D01*
X99298001Y-90350340D01*
X99298001Y-91819563D01*
X98993738Y-92123827D01*
X98960175Y-92146253D01*
X98871325Y-92279227D01*
X98848000Y-92396489D01*
X98848000Y-92396493D01*
X98840126Y-92436078D01*
X98848000Y-92475663D01*
X98848001Y-95727107D01*
X98789800Y-95703000D01*
X98570200Y-95703000D01*
X98367317Y-95787037D01*
X98212037Y-95942317D01*
X98128000Y-96145200D01*
X98128000Y-96364800D01*
X98212037Y-96567683D01*
X98367317Y-96722963D01*
X98570200Y-96807000D01*
X98789800Y-96807000D01*
X98848001Y-96782892D01*
X98848001Y-98190288D01*
X98843738Y-98194551D01*
X98810175Y-98216977D01*
X98721325Y-98349951D01*
X98703179Y-98441175D01*
X98632037Y-98512317D01*
X98548000Y-98715200D01*
X98548000Y-98934800D01*
X98632037Y-99137683D01*
X98787317Y-99292963D01*
X98990200Y-99377000D01*
X98990524Y-99377000D01*
X98998000Y-99414586D01*
X98998000Y-99696354D01*
X98932037Y-99762317D01*
X98848000Y-99965200D01*
X98848000Y-100184800D01*
X98932037Y-100387683D01*
X99087317Y-100542963D01*
X99290200Y-100627000D01*
X99509800Y-100627000D01*
X99598001Y-100590466D01*
X99598000Y-107831864D01*
X99579776Y-107835489D01*
X99223527Y-108073527D01*
X99083406Y-108283233D01*
X99083406Y-108100000D01*
X99058027Y-107972411D01*
X98985754Y-107864246D01*
X98877589Y-107791973D01*
X98750000Y-107766594D01*
X97250000Y-107766594D01*
X97122411Y-107791973D01*
X97014246Y-107864246D01*
X96941973Y-107972411D01*
X96916594Y-108100000D01*
X93113873Y-108100000D01*
X92791512Y-107764641D01*
X92341185Y-107557682D01*
X92127000Y-107680344D01*
X91873000Y-107680344D01*
X91658815Y-107557682D01*
X91208488Y-107764641D01*
X90834255Y-108153964D01*
X90832765Y-108157773D01*
X90776473Y-108073527D01*
X90420223Y-107835489D01*
X90000000Y-107751901D01*
X89579776Y-107835489D01*
X89223527Y-108073527D01*
X89083406Y-108283233D01*
X89083406Y-108100000D01*
X89058027Y-107972411D01*
X88985754Y-107864246D01*
X88877589Y-107791973D01*
X88750000Y-107766594D01*
X87250000Y-107766594D01*
X87122411Y-107791973D01*
X87014246Y-107864246D01*
X86941973Y-107972411D01*
X86916594Y-108100000D01*
X85135010Y-108100000D01*
X85152000Y-108014590D01*
X85152000Y-108014585D01*
X85159874Y-107975000D01*
X85152000Y-107935415D01*
X85152000Y-97915200D01*
X85948000Y-97915200D01*
X85948000Y-98134800D01*
X86032037Y-98337683D01*
X86187317Y-98492963D01*
X86390200Y-98577000D01*
X86609800Y-98577000D01*
X86812683Y-98492963D01*
X86967963Y-98337683D01*
X87052000Y-98134800D01*
X87052000Y-97915200D01*
X86967963Y-97712317D01*
X86812683Y-97557037D01*
X86609800Y-97473000D01*
X86390200Y-97473000D01*
X86187317Y-97557037D01*
X86032037Y-97712317D01*
X85948000Y-97915200D01*
X85152000Y-97915200D01*
X85152000Y-96665200D01*
X85248000Y-96665200D01*
X85248000Y-96884800D01*
X85332037Y-97087683D01*
X85487317Y-97242963D01*
X85690200Y-97327000D01*
X85909800Y-97327000D01*
X86112683Y-97242963D01*
X86267963Y-97087683D01*
X86352000Y-96884800D01*
X86352000Y-96665200D01*
X86948000Y-96665200D01*
X86948000Y-96884800D01*
X87032037Y-97087683D01*
X87187317Y-97242963D01*
X87390200Y-97327000D01*
X87609800Y-97327000D01*
X87812683Y-97242963D01*
X87967963Y-97087683D01*
X88052000Y-96884800D01*
X88052000Y-96665200D01*
X87967963Y-96462317D01*
X87812683Y-96307037D01*
X87609800Y-96223000D01*
X87390200Y-96223000D01*
X87187317Y-96307037D01*
X87032037Y-96462317D01*
X86948000Y-96665200D01*
X86352000Y-96665200D01*
X86267963Y-96462317D01*
X86112683Y-96307037D01*
X85909800Y-96223000D01*
X85690200Y-96223000D01*
X85487317Y-96307037D01*
X85332037Y-96462317D01*
X85248000Y-96665200D01*
X85152000Y-96665200D01*
X85152000Y-87253646D01*
X85217963Y-87187683D01*
X85218000Y-87187594D01*
X85218000Y-87391517D01*
X85341620Y-87689961D01*
X85570039Y-87918380D01*
X85868483Y-88042000D01*
X86191517Y-88042000D01*
X86489961Y-87918380D01*
X86718380Y-87689961D01*
X86798000Y-87497741D01*
X86798000Y-89502259D01*
X86718380Y-89310039D01*
X86489961Y-89081620D01*
X86191517Y-88958000D01*
X85868483Y-88958000D01*
X85570039Y-89081620D01*
X85341620Y-89310039D01*
X85218000Y-89608483D01*
X85218000Y-89931517D01*
X85341620Y-90229961D01*
X85570039Y-90458380D01*
X85868483Y-90582000D01*
X86191517Y-90582000D01*
X86489961Y-90458380D01*
X86718380Y-90229961D01*
X86798000Y-90037741D01*
X86798000Y-92696354D01*
X86732037Y-92762317D01*
X86648000Y-92965200D01*
X86648000Y-93184800D01*
X86732037Y-93387683D01*
X86887317Y-93542963D01*
X87090200Y-93627000D01*
X87309800Y-93627000D01*
X87512683Y-93542963D01*
X87667963Y-93387683D01*
X87752000Y-93184800D01*
X87752000Y-92965200D01*
X87667963Y-92762317D01*
X87602000Y-92696354D01*
X87602000Y-89608483D01*
X87758000Y-89608483D01*
X87758000Y-89931517D01*
X87881620Y-90229961D01*
X88110039Y-90458380D01*
X88408483Y-90582000D01*
X88731517Y-90582000D01*
X89029961Y-90458380D01*
X89258380Y-90229961D01*
X89382000Y-89931517D01*
X89382000Y-89608483D01*
X89258380Y-89310039D01*
X89029961Y-89081620D01*
X88731517Y-88958000D01*
X88408483Y-88958000D01*
X88110039Y-89081620D01*
X87881620Y-89310039D01*
X87758000Y-89608483D01*
X87602000Y-89608483D01*
X87602000Y-87068483D01*
X87758000Y-87068483D01*
X87758000Y-87391517D01*
X87881620Y-87689961D01*
X88110039Y-87918380D01*
X88408483Y-88042000D01*
X88731517Y-88042000D01*
X89029961Y-87918380D01*
X89258380Y-87689961D01*
X89382000Y-87391517D01*
X89382000Y-87068483D01*
X89258380Y-86770039D01*
X89029961Y-86541620D01*
X88731517Y-86418000D01*
X88408483Y-86418000D01*
X88110039Y-86541620D01*
X87881620Y-86770039D01*
X87758000Y-87068483D01*
X87602000Y-87068483D01*
X87602000Y-79795645D01*
X88076043Y-79992000D01*
X88603957Y-79992000D01*
X89091685Y-79789976D01*
X89464976Y-79416685D01*
X89498000Y-79336957D01*
X89498000Y-92523000D01*
X89340200Y-92523000D01*
X89137317Y-92607037D01*
X88982037Y-92762317D01*
X88933981Y-92878335D01*
X88812683Y-92757037D01*
X88609800Y-92673000D01*
X88390200Y-92673000D01*
X88187317Y-92757037D01*
X88032037Y-92912317D01*
X87948000Y-93115200D01*
X87948000Y-93334800D01*
X88032037Y-93537683D01*
X88098001Y-93603647D01*
X88098000Y-102446354D01*
X88032037Y-102512317D01*
X87948000Y-102715200D01*
X87948000Y-102934800D01*
X88032037Y-103137683D01*
X88187317Y-103292963D01*
X88390200Y-103377000D01*
X88609800Y-103377000D01*
X88812683Y-103292963D01*
X88967963Y-103137683D01*
X89052000Y-102934800D01*
X89052000Y-102715200D01*
X88967963Y-102512317D01*
X88902000Y-102446354D01*
X88902000Y-101557646D01*
X88937317Y-101592963D01*
X89140200Y-101677000D01*
X89163823Y-101677000D01*
X89148000Y-101715200D01*
X89148000Y-101934800D01*
X89232037Y-102137683D01*
X89387317Y-102292963D01*
X89590200Y-102377000D01*
X89809800Y-102377000D01*
X90012683Y-102292963D01*
X90167963Y-102137683D01*
X90252000Y-101934800D01*
X90252000Y-101765200D01*
X92898000Y-101765200D01*
X92898000Y-101984800D01*
X92982037Y-102187683D01*
X93137317Y-102342963D01*
X93340200Y-102427000D01*
X93559800Y-102427000D01*
X93762683Y-102342963D01*
X93917963Y-102187683D01*
X94002000Y-101984800D01*
X94002000Y-101765200D01*
X93917963Y-101562317D01*
X93762683Y-101407037D01*
X93559800Y-101323000D01*
X93340200Y-101323000D01*
X93137317Y-101407037D01*
X92982037Y-101562317D01*
X92898000Y-101765200D01*
X90252000Y-101765200D01*
X90252000Y-101715200D01*
X90167963Y-101512317D01*
X90102000Y-101446354D01*
X90102000Y-101441513D01*
X90431266Y-101112248D01*
X90464826Y-101089824D01*
X90487250Y-101056264D01*
X90487252Y-101056262D01*
X90553675Y-100956852D01*
X90553676Y-100956851D01*
X90577001Y-100839589D01*
X90577001Y-100839584D01*
X90584875Y-100799999D01*
X90577001Y-100760414D01*
X90577001Y-100515200D01*
X92898000Y-100515200D01*
X92898000Y-100734800D01*
X92982037Y-100937683D01*
X93137317Y-101092963D01*
X93340200Y-101177000D01*
X93559800Y-101177000D01*
X93762683Y-101092963D01*
X93917963Y-100937683D01*
X94002000Y-100734800D01*
X94002000Y-100515200D01*
X93917963Y-100312317D01*
X93762683Y-100157037D01*
X93559800Y-100073000D01*
X93340200Y-100073000D01*
X93137317Y-100157037D01*
X92982037Y-100312317D01*
X92898000Y-100515200D01*
X90577001Y-100515200D01*
X90577001Y-99716511D01*
X90581261Y-99712251D01*
X90614826Y-99689824D01*
X90703676Y-99556851D01*
X90727001Y-99439589D01*
X90727001Y-99439585D01*
X90734875Y-99400000D01*
X90727001Y-99360415D01*
X90727001Y-99215200D01*
X92898000Y-99215200D01*
X92898000Y-99434800D01*
X92982037Y-99637683D01*
X93137317Y-99792963D01*
X93340200Y-99877000D01*
X93559800Y-99877000D01*
X93762683Y-99792963D01*
X93917963Y-99637683D01*
X94002000Y-99434800D01*
X94002000Y-99215200D01*
X93917963Y-99012317D01*
X93762683Y-98857037D01*
X93559800Y-98773000D01*
X93340200Y-98773000D01*
X93137317Y-98857037D01*
X92982037Y-99012317D01*
X92898000Y-99215200D01*
X90727001Y-99215200D01*
X90727001Y-97965200D01*
X92898000Y-97965200D01*
X92898000Y-98184800D01*
X92982037Y-98387683D01*
X93137317Y-98542963D01*
X93340200Y-98627000D01*
X93559800Y-98627000D01*
X93762683Y-98542963D01*
X93917963Y-98387683D01*
X94002000Y-98184800D01*
X94002000Y-97965200D01*
X93917963Y-97762317D01*
X93762683Y-97607037D01*
X93559800Y-97523000D01*
X93340200Y-97523000D01*
X93137317Y-97607037D01*
X92982037Y-97762317D01*
X92898000Y-97965200D01*
X90727001Y-97965200D01*
X90727001Y-92965200D01*
X95248000Y-92965200D01*
X95248000Y-93184800D01*
X95332037Y-93387683D01*
X95487317Y-93542963D01*
X95690200Y-93627000D01*
X95909800Y-93627000D01*
X96112683Y-93542963D01*
X96267963Y-93387683D01*
X96352000Y-93184800D01*
X96352000Y-92965200D01*
X96267963Y-92762317D01*
X96112683Y-92607037D01*
X95909800Y-92523000D01*
X95690200Y-92523000D01*
X95487317Y-92607037D01*
X95332037Y-92762317D01*
X95248000Y-92965200D01*
X90727001Y-92965200D01*
X90727001Y-90490259D01*
X90948483Y-90582000D01*
X91271517Y-90582000D01*
X91569961Y-90458380D01*
X91798380Y-90229961D01*
X91922000Y-89931517D01*
X91922000Y-89608483D01*
X91798380Y-89310039D01*
X91569961Y-89081620D01*
X91271517Y-88958000D01*
X90948483Y-88958000D01*
X90727001Y-89049741D01*
X90727001Y-87950259D01*
X90948483Y-88042000D01*
X91271517Y-88042000D01*
X91569961Y-87918380D01*
X91798380Y-87689961D01*
X91922000Y-87391517D01*
X91922000Y-87068483D01*
X91798380Y-86770039D01*
X91569961Y-86541620D01*
X91271517Y-86418000D01*
X90948483Y-86418000D01*
X90727001Y-86509741D01*
X90727001Y-64366512D01*
X91456262Y-63637251D01*
X91489825Y-63614825D01*
X91578675Y-63481852D01*
X91602000Y-63364590D01*
X91602000Y-63364586D01*
X91609874Y-63325001D01*
X91602000Y-63285416D01*
X91602000Y-61353646D01*
X91667963Y-61287683D01*
X91752000Y-61084800D01*
X91752000Y-60865200D01*
X91667963Y-60662317D01*
X91512683Y-60507037D01*
X91309800Y-60423000D01*
X91090200Y-60423000D01*
X90887317Y-60507037D01*
X90732037Y-60662317D01*
X90648000Y-60865200D01*
X90648000Y-61084800D01*
X90732037Y-61287683D01*
X90798001Y-61353647D01*
X90798000Y-63158487D01*
X90302000Y-63654487D01*
X90302000Y-63403646D01*
X90367963Y-63337683D01*
X90452000Y-63134800D01*
X90452000Y-62915200D01*
X90367963Y-62712317D01*
X90212683Y-62557037D01*
X90009800Y-62473000D01*
X89790200Y-62473000D01*
X89587317Y-62557037D01*
X89432037Y-62712317D01*
X89348000Y-62915200D01*
X89348000Y-63134800D01*
X89432037Y-63337683D01*
X89498001Y-63403647D01*
X89498001Y-77993043D01*
X89464976Y-77913315D01*
X89091685Y-77540024D01*
X88603957Y-77338000D01*
X88076043Y-77338000D01*
X87588315Y-77540024D01*
X87452000Y-77676339D01*
X87452000Y-58803646D01*
X87517963Y-58737683D01*
X87602000Y-58534800D01*
X87602000Y-58315200D01*
X87517963Y-58112317D01*
X87362683Y-57957037D01*
X87159800Y-57873000D01*
X86940200Y-57873000D01*
X86737317Y-57957037D01*
X86582037Y-58112317D01*
X86498000Y-58315200D01*
X86498000Y-58534800D01*
X86582037Y-58737683D01*
X86648001Y-58803647D01*
X86648000Y-79111417D01*
X86640126Y-79151002D01*
X86648000Y-79190587D01*
X86648000Y-79190591D01*
X86671325Y-79307853D01*
X86760175Y-79440827D01*
X86793738Y-79463253D01*
X86798001Y-79467516D01*
X86798000Y-86962259D01*
X86718380Y-86770039D01*
X86489961Y-86541620D01*
X86191517Y-86418000D01*
X85868483Y-86418000D01*
X85570039Y-86541620D01*
X85341620Y-86770039D01*
X85302000Y-86865690D01*
X85302000Y-86765200D01*
X85217963Y-86562317D01*
X85062683Y-86407037D01*
X84859800Y-86323000D01*
X84640200Y-86323000D01*
X84437317Y-86407037D01*
X84282037Y-86562317D01*
X84198000Y-86765200D01*
X84198000Y-86817406D01*
X84178380Y-86770039D01*
X83949961Y-86541620D01*
X83651517Y-86418000D01*
X83328483Y-86418000D01*
X83030039Y-86541620D01*
X82801620Y-86770039D01*
X82771746Y-86842161D01*
X82717963Y-86712317D01*
X82562683Y-86557037D01*
X82359800Y-86473000D01*
X82140200Y-86473000D01*
X81937317Y-86557037D01*
X81782037Y-86712317D01*
X81698254Y-86914587D01*
X81638380Y-86770039D01*
X81409961Y-86541620D01*
X81111517Y-86418000D01*
X80788483Y-86418000D01*
X80490039Y-86541620D01*
X80261620Y-86770039D01*
X80138000Y-87068483D01*
X80138000Y-87391517D01*
X80261620Y-87689961D01*
X80490039Y-87918380D01*
X80788483Y-88042000D01*
X81111517Y-88042000D01*
X81409961Y-87918380D01*
X81638380Y-87689961D01*
X81762000Y-87391517D01*
X81762000Y-87289309D01*
X81782037Y-87337683D01*
X81848000Y-87403646D01*
X81848001Y-95458486D01*
X81443738Y-95862749D01*
X81410175Y-95885175D01*
X81321325Y-96018149D01*
X81298000Y-96135411D01*
X81298000Y-96135415D01*
X81290126Y-96175000D01*
X81298000Y-96214585D01*
X81298001Y-106708486D01*
X80833487Y-107173000D01*
X80239585Y-107173000D01*
X80200000Y-107165126D01*
X80160415Y-107173000D01*
X80160410Y-107173000D01*
X80043148Y-107196325D01*
X79910175Y-107285175D01*
X79887749Y-107318738D01*
X79743738Y-107462749D01*
X79710175Y-107485175D01*
X79621325Y-107618149D01*
X79598000Y-107735411D01*
X79598000Y-107735415D01*
X79590126Y-107775000D01*
X79598000Y-107814585D01*
X79598000Y-107831864D01*
X79579776Y-107835489D01*
X79382387Y-107967380D01*
X79288327Y-107740301D01*
X79109698Y-107561673D01*
X78876309Y-107465000D01*
X78285750Y-107465000D01*
X78127000Y-107623750D01*
X77873000Y-107623750D01*
X77714250Y-107465000D01*
X77123691Y-107465000D01*
X76890302Y-107561673D01*
X76711673Y-107740301D01*
X76615000Y-107973690D01*
X67902000Y-107973690D01*
X67902000Y-106165200D01*
X67998000Y-106165200D01*
X67998000Y-106384800D01*
X68082037Y-106587683D01*
X68237317Y-106742963D01*
X68440200Y-106827000D01*
X68659800Y-106827000D01*
X68862683Y-106742963D01*
X69017963Y-106587683D01*
X69102000Y-106384800D01*
X69102000Y-106165200D01*
X69017963Y-105962317D01*
X68862683Y-105807037D01*
X68659800Y-105723000D01*
X68440200Y-105723000D01*
X68237317Y-105807037D01*
X68082037Y-105962317D01*
X67998000Y-106165200D01*
X67902000Y-106165200D01*
X67902000Y-100915200D01*
X68048000Y-100915200D01*
X68048000Y-101134800D01*
X68132037Y-101337683D01*
X68287317Y-101492963D01*
X68490200Y-101577000D01*
X68709800Y-101577000D01*
X68912683Y-101492963D01*
X69067963Y-101337683D01*
X69152000Y-101134800D01*
X69152000Y-100915200D01*
X69067963Y-100712317D01*
X68912683Y-100557037D01*
X68709800Y-100473000D01*
X68490200Y-100473000D01*
X68287317Y-100557037D01*
X68132037Y-100712317D01*
X68048000Y-100915200D01*
X67902000Y-100915200D01*
X67902000Y-99115200D01*
X69298000Y-99115200D01*
X69298000Y-99334800D01*
X69382037Y-99537683D01*
X69537317Y-99692963D01*
X69740200Y-99777000D01*
X69959800Y-99777000D01*
X70162683Y-99692963D01*
X70317963Y-99537683D01*
X70402000Y-99334800D01*
X70402000Y-99115200D01*
X70317963Y-98912317D01*
X70162683Y-98757037D01*
X69959800Y-98673000D01*
X69740200Y-98673000D01*
X69537317Y-98757037D01*
X69382037Y-98912317D01*
X69298000Y-99115200D01*
X67902000Y-99115200D01*
X67902000Y-92715200D01*
X75348000Y-92715200D01*
X75348000Y-92934800D01*
X75432037Y-93137683D01*
X75587317Y-93292963D01*
X75790200Y-93377000D01*
X76009800Y-93377000D01*
X76212683Y-93292963D01*
X76367963Y-93137683D01*
X76377275Y-93115200D01*
X77848000Y-93115200D01*
X77848000Y-93334800D01*
X77932037Y-93537683D01*
X78087317Y-93692963D01*
X78290200Y-93777000D01*
X78509800Y-93777000D01*
X78712683Y-93692963D01*
X78867963Y-93537683D01*
X78952000Y-93334800D01*
X78952000Y-93115200D01*
X78867963Y-92912317D01*
X78770846Y-92815200D01*
X80398000Y-92815200D01*
X80398000Y-93034800D01*
X80482037Y-93237683D01*
X80637317Y-93392963D01*
X80840200Y-93477000D01*
X81059800Y-93477000D01*
X81262683Y-93392963D01*
X81417963Y-93237683D01*
X81502000Y-93034800D01*
X81502000Y-92815200D01*
X81417963Y-92612317D01*
X81262683Y-92457037D01*
X81059800Y-92373000D01*
X80840200Y-92373000D01*
X80637317Y-92457037D01*
X80482037Y-92612317D01*
X80398000Y-92815200D01*
X78770846Y-92815200D01*
X78712683Y-92757037D01*
X78509800Y-92673000D01*
X78290200Y-92673000D01*
X78087317Y-92757037D01*
X77932037Y-92912317D01*
X77848000Y-93115200D01*
X76377275Y-93115200D01*
X76452000Y-92934800D01*
X76452000Y-92715200D01*
X76367963Y-92512317D01*
X76212683Y-92357037D01*
X76009800Y-92273000D01*
X75790200Y-92273000D01*
X75587317Y-92357037D01*
X75432037Y-92512317D01*
X75348000Y-92715200D01*
X67902000Y-92715200D01*
X67902000Y-89453324D01*
X68264281Y-90327949D01*
X69172051Y-91235719D01*
X70358110Y-91727000D01*
X71641890Y-91727000D01*
X72827949Y-91235719D01*
X73735719Y-90327949D01*
X74098001Y-89453324D01*
X74098001Y-91246353D01*
X74032037Y-91312317D01*
X73948000Y-91515200D01*
X73948000Y-91734800D01*
X74032037Y-91937683D01*
X74187317Y-92092963D01*
X74390200Y-92177000D01*
X74609800Y-92177000D01*
X74812683Y-92092963D01*
X74967963Y-91937683D01*
X75052000Y-91734800D01*
X75052000Y-91515200D01*
X74967963Y-91312317D01*
X74902000Y-91246354D01*
X74902000Y-87068483D01*
X75058000Y-87068483D01*
X75058000Y-87391517D01*
X75181620Y-87689961D01*
X75410039Y-87918380D01*
X75708483Y-88042000D01*
X76012439Y-88042000D01*
X75923000Y-88257924D01*
X75923000Y-88742076D01*
X76012439Y-88958000D01*
X75708483Y-88958000D01*
X75410039Y-89081620D01*
X75181620Y-89310039D01*
X75058000Y-89608483D01*
X75058000Y-89931517D01*
X75181620Y-90229961D01*
X75410039Y-90458380D01*
X75708483Y-90582000D01*
X76031517Y-90582000D01*
X76329961Y-90458380D01*
X76558380Y-90229961D01*
X76682000Y-89931517D01*
X76682000Y-89627561D01*
X76897924Y-89717000D01*
X77382076Y-89717000D01*
X77598000Y-89627561D01*
X77598000Y-89931517D01*
X77721620Y-90229961D01*
X77950039Y-90458380D01*
X78248483Y-90582000D01*
X78571517Y-90582000D01*
X78869961Y-90458380D01*
X79098380Y-90229961D01*
X79222000Y-89931517D01*
X79222000Y-89608483D01*
X80138000Y-89608483D01*
X80138000Y-89931517D01*
X80261620Y-90229961D01*
X80490039Y-90458380D01*
X80788483Y-90582000D01*
X81111517Y-90582000D01*
X81409961Y-90458380D01*
X81638380Y-90229961D01*
X81762000Y-89931517D01*
X81762000Y-89608483D01*
X81638380Y-89310039D01*
X81409961Y-89081620D01*
X81111517Y-88958000D01*
X80788483Y-88958000D01*
X80490039Y-89081620D01*
X80261620Y-89310039D01*
X80138000Y-89608483D01*
X79222000Y-89608483D01*
X79098380Y-89310039D01*
X78869961Y-89081620D01*
X78571517Y-88958000D01*
X78267561Y-88958000D01*
X78357000Y-88742076D01*
X78357000Y-88257924D01*
X78267561Y-88042000D01*
X78571517Y-88042000D01*
X78869961Y-87918380D01*
X79098380Y-87689961D01*
X79222000Y-87391517D01*
X79222000Y-87068483D01*
X79098380Y-86770039D01*
X78869961Y-86541620D01*
X78571517Y-86418000D01*
X78248483Y-86418000D01*
X77950039Y-86541620D01*
X77721620Y-86770039D01*
X77598000Y-87068483D01*
X77598000Y-87372439D01*
X77382076Y-87283000D01*
X76897924Y-87283000D01*
X76682000Y-87372439D01*
X76682000Y-87068483D01*
X76558380Y-86770039D01*
X76329961Y-86541620D01*
X76031517Y-86418000D01*
X75708483Y-86418000D01*
X75410039Y-86541620D01*
X75181620Y-86770039D01*
X75058000Y-87068483D01*
X74902000Y-87068483D01*
X74902000Y-86414584D01*
X74909874Y-86374999D01*
X74902000Y-86335414D01*
X74902000Y-86335410D01*
X74878675Y-86218148D01*
X74852720Y-86179303D01*
X74812251Y-86118737D01*
X74812249Y-86118735D01*
X74789825Y-86085175D01*
X74756265Y-86062751D01*
X73262250Y-84568737D01*
X73239825Y-84535175D01*
X73106852Y-84446325D01*
X72989590Y-84423000D01*
X72989585Y-84423000D01*
X72950000Y-84415126D01*
X72910415Y-84423000D01*
X69466514Y-84423000D01*
X68308714Y-83265200D01*
X74498000Y-83265200D01*
X74498000Y-83484800D01*
X74582037Y-83687683D01*
X74737317Y-83842963D01*
X74940200Y-83927000D01*
X75159800Y-83927000D01*
X75362683Y-83842963D01*
X75365446Y-83840200D01*
X77858000Y-83840200D01*
X77858000Y-84059800D01*
X77942037Y-84262683D01*
X78097317Y-84417963D01*
X78300200Y-84502000D01*
X78519800Y-84502000D01*
X78722683Y-84417963D01*
X78877963Y-84262683D01*
X78962000Y-84059800D01*
X78962000Y-83840200D01*
X78877963Y-83637317D01*
X78722683Y-83482037D01*
X78519800Y-83398000D01*
X78300200Y-83398000D01*
X78097317Y-83482037D01*
X77942037Y-83637317D01*
X77858000Y-83840200D01*
X75365446Y-83840200D01*
X75517963Y-83687683D01*
X75602000Y-83484800D01*
X75602000Y-83265200D01*
X75517963Y-83062317D01*
X75362683Y-82907037D01*
X75159800Y-82823000D01*
X74940200Y-82823000D01*
X74737317Y-82907037D01*
X74582037Y-83062317D01*
X74498000Y-83265200D01*
X68308714Y-83265200D01*
X68302000Y-83258487D01*
X68302000Y-79427584D01*
X68315325Y-79459753D01*
X69040247Y-80184675D01*
X69987403Y-80577000D01*
X71012597Y-80577000D01*
X71959753Y-80184675D01*
X72684675Y-79459753D01*
X73077000Y-78512597D01*
X73077000Y-78401043D01*
X81933000Y-78401043D01*
X81933000Y-78928957D01*
X82135024Y-79416685D01*
X82508315Y-79789976D01*
X82996043Y-79992000D01*
X83523957Y-79992000D01*
X84011685Y-79789976D01*
X84384976Y-79416685D01*
X84587000Y-78928957D01*
X84587000Y-78401043D01*
X84384976Y-77913315D01*
X84011685Y-77540024D01*
X83523957Y-77338000D01*
X82996043Y-77338000D01*
X82508315Y-77540024D01*
X82135024Y-77913315D01*
X81933000Y-78401043D01*
X73077000Y-78401043D01*
X73077000Y-77487403D01*
X72684675Y-76540247D01*
X72076322Y-75931894D01*
X72716187Y-76182723D01*
X73565387Y-76166497D01*
X74274582Y-75872739D01*
X74434365Y-75553970D01*
X74316982Y-75436587D01*
X75173000Y-75436587D01*
X75173000Y-76163413D01*
X75451144Y-76834912D01*
X75965088Y-77348856D01*
X76636587Y-77627000D01*
X77363413Y-77627000D01*
X78034912Y-77348856D01*
X78548856Y-76834912D01*
X78827000Y-76163413D01*
X78827000Y-75436587D01*
X78548856Y-74765088D01*
X78034912Y-74251144D01*
X77363413Y-73973000D01*
X76636587Y-73973000D01*
X75965088Y-74251144D01*
X75451144Y-74765088D01*
X75173000Y-75436587D01*
X74316982Y-75436587D01*
X73100000Y-74219605D01*
X71765635Y-75553970D01*
X71880102Y-75782332D01*
X71012597Y-75423000D01*
X69987403Y-75423000D01*
X69040247Y-75815325D01*
X68315325Y-76540247D01*
X68302000Y-76572416D01*
X68302000Y-73656187D01*
X70957277Y-73656187D01*
X70973503Y-74505387D01*
X71267261Y-75214582D01*
X71586030Y-75374365D01*
X72920395Y-74040000D01*
X73279605Y-74040000D01*
X74613970Y-75374365D01*
X74932739Y-75214582D01*
X75242723Y-74423813D01*
X75226497Y-73574613D01*
X74932739Y-72865418D01*
X74613970Y-72705635D01*
X73279605Y-74040000D01*
X72920395Y-74040000D01*
X71586030Y-72705635D01*
X71267261Y-72865418D01*
X70957277Y-73656187D01*
X68302000Y-73656187D01*
X68302000Y-72526030D01*
X71765635Y-72526030D01*
X73100000Y-73860395D01*
X74434365Y-72526030D01*
X74274582Y-72207261D01*
X73483813Y-71897277D01*
X72634613Y-71913503D01*
X71925418Y-72207261D01*
X71765635Y-72526030D01*
X68302000Y-72526030D01*
X68302000Y-66427584D01*
X68315325Y-66459753D01*
X69040247Y-67184675D01*
X69987403Y-67577000D01*
X71012597Y-67577000D01*
X71266594Y-67471791D01*
X71266594Y-70460000D01*
X71291973Y-70587589D01*
X71364246Y-70695754D01*
X71472411Y-70768027D01*
X71600000Y-70793406D01*
X74600000Y-70793406D01*
X74727589Y-70768027D01*
X74835754Y-70695754D01*
X74908027Y-70587589D01*
X74933406Y-70460000D01*
X74933406Y-67460000D01*
X74908027Y-67332411D01*
X74835754Y-67224246D01*
X74727589Y-67151973D01*
X74600000Y-67126594D01*
X72017834Y-67126594D01*
X72307841Y-66836587D01*
X75173000Y-66836587D01*
X75173000Y-67563413D01*
X75451144Y-68234912D01*
X75965088Y-68748856D01*
X76636587Y-69027000D01*
X77363413Y-69027000D01*
X78034912Y-68748856D01*
X78548856Y-68234912D01*
X78827000Y-67563413D01*
X78827000Y-66836587D01*
X78548856Y-66165088D01*
X78034912Y-65651144D01*
X77363413Y-65373000D01*
X76636587Y-65373000D01*
X75965088Y-65651144D01*
X75451144Y-66165088D01*
X75173000Y-66836587D01*
X72307841Y-66836587D01*
X72684675Y-66459753D01*
X73077000Y-65512597D01*
X73077000Y-64487403D01*
X72684675Y-63540247D01*
X71959753Y-62815325D01*
X71012597Y-62423000D01*
X69987403Y-62423000D01*
X69040247Y-62815325D01*
X68315325Y-63540247D01*
X68302000Y-63572416D01*
X68302000Y-61941513D01*
X69716514Y-60527000D01*
X71709413Y-60527000D01*
X71748998Y-60534874D01*
X71788583Y-60527000D01*
X71788588Y-60527000D01*
X71905850Y-60503675D01*
X72038823Y-60414825D01*
X72061249Y-60381262D01*
X74706264Y-57736247D01*
X74739825Y-57713823D01*
X74762249Y-57680263D01*
X74762251Y-57680261D01*
X74828675Y-57580851D01*
X74838539Y-57531262D01*
X74852000Y-57463588D01*
X74852000Y-57463585D01*
X74859874Y-57423998D01*
X74852000Y-57384412D01*
X74852000Y-56965200D01*
X91798000Y-56965200D01*
X91798000Y-57184800D01*
X91882037Y-57387683D01*
X91948001Y-57453647D01*
X91948000Y-90496354D01*
X91882037Y-90562317D01*
X91798000Y-90765200D01*
X91798000Y-90984800D01*
X91882037Y-91187683D01*
X92037317Y-91342963D01*
X92240200Y-91427000D01*
X92459800Y-91427000D01*
X92662683Y-91342963D01*
X92817963Y-91187683D01*
X92902000Y-90984800D01*
X92902000Y-90765200D01*
X92817963Y-90562317D01*
X92752000Y-90496354D01*
X92752000Y-89608483D01*
X92838000Y-89608483D01*
X92838000Y-89931517D01*
X92961620Y-90229961D01*
X93190039Y-90458380D01*
X93488483Y-90582000D01*
X93811517Y-90582000D01*
X94109961Y-90458380D01*
X94338380Y-90229961D01*
X94462000Y-89931517D01*
X94462000Y-89608483D01*
X95378000Y-89608483D01*
X95378000Y-89931517D01*
X95501620Y-90229961D01*
X95730039Y-90458380D01*
X96028483Y-90582000D01*
X96351517Y-90582000D01*
X96649961Y-90458380D01*
X96878380Y-90229961D01*
X97002000Y-89931517D01*
X97002000Y-89608483D01*
X96878380Y-89310039D01*
X96649961Y-89081620D01*
X96351517Y-88958000D01*
X96028483Y-88958000D01*
X95730039Y-89081620D01*
X95501620Y-89310039D01*
X95378000Y-89608483D01*
X94462000Y-89608483D01*
X94338380Y-89310039D01*
X94109961Y-89081620D01*
X93811517Y-88958000D01*
X93488483Y-88958000D01*
X93190039Y-89081620D01*
X92961620Y-89310039D01*
X92838000Y-89608483D01*
X92752000Y-89608483D01*
X92752000Y-87068483D01*
X92838000Y-87068483D01*
X92838000Y-87391517D01*
X92961620Y-87689961D01*
X93190039Y-87918380D01*
X93488483Y-88042000D01*
X93811517Y-88042000D01*
X94109961Y-87918380D01*
X94338380Y-87689961D01*
X94462000Y-87391517D01*
X94462000Y-87068483D01*
X95378000Y-87068483D01*
X95378000Y-87391517D01*
X95501620Y-87689961D01*
X95730039Y-87918380D01*
X96028483Y-88042000D01*
X96351517Y-88042000D01*
X96649961Y-87918380D01*
X96878380Y-87689961D01*
X97002000Y-87391517D01*
X97002000Y-87068483D01*
X96878380Y-86770039D01*
X96649961Y-86541620D01*
X96351517Y-86418000D01*
X96028483Y-86418000D01*
X95730039Y-86541620D01*
X95501620Y-86770039D01*
X95378000Y-87068483D01*
X94462000Y-87068483D01*
X94338380Y-86770039D01*
X94109961Y-86541620D01*
X93811517Y-86418000D01*
X93488483Y-86418000D01*
X93190039Y-86541620D01*
X92961620Y-86770039D01*
X92838000Y-87068483D01*
X92752000Y-87068483D01*
X92752000Y-76765200D01*
X99498000Y-76765200D01*
X99498000Y-76984800D01*
X99582037Y-77187683D01*
X99737317Y-77342963D01*
X99940200Y-77427000D01*
X100159800Y-77427000D01*
X100362683Y-77342963D01*
X100517963Y-77187683D01*
X100602000Y-76984800D01*
X100602000Y-76765200D01*
X100581290Y-76715200D01*
X102398000Y-76715200D01*
X102398000Y-76934800D01*
X102482037Y-77137683D01*
X102637317Y-77292963D01*
X102840200Y-77377000D01*
X103059800Y-77377000D01*
X103262683Y-77292963D01*
X103417963Y-77137683D01*
X103502000Y-76934800D01*
X103502000Y-76715200D01*
X103417963Y-76512317D01*
X103262683Y-76357037D01*
X103059800Y-76273000D01*
X102840200Y-76273000D01*
X102637317Y-76357037D01*
X102482037Y-76512317D01*
X102398000Y-76715200D01*
X100581290Y-76715200D01*
X100517963Y-76562317D01*
X100362683Y-76407037D01*
X100159800Y-76323000D01*
X99940200Y-76323000D01*
X99737317Y-76407037D01*
X99582037Y-76562317D01*
X99498000Y-76765200D01*
X92752000Y-76765200D01*
X92752000Y-57453646D01*
X92790446Y-57415200D01*
X95798000Y-57415200D01*
X95798000Y-57634800D01*
X95882037Y-57837683D01*
X96037317Y-57992963D01*
X96240200Y-58077000D01*
X96459800Y-58077000D01*
X96662683Y-57992963D01*
X96817963Y-57837683D01*
X96902000Y-57634800D01*
X96902000Y-57415200D01*
X98048000Y-57415200D01*
X98048000Y-57634800D01*
X98132037Y-57837683D01*
X98287317Y-57992963D01*
X98490200Y-58077000D01*
X98709800Y-58077000D01*
X98912683Y-57992963D01*
X99067963Y-57837683D01*
X99152000Y-57634800D01*
X99152000Y-57415200D01*
X99067963Y-57212317D01*
X98912683Y-57057037D01*
X98709800Y-56973000D01*
X98490200Y-56973000D01*
X98287317Y-57057037D01*
X98132037Y-57212317D01*
X98048000Y-57415200D01*
X96902000Y-57415200D01*
X96817963Y-57212317D01*
X96662683Y-57057037D01*
X96459800Y-56973000D01*
X96240200Y-56973000D01*
X96037317Y-57057037D01*
X95882037Y-57212317D01*
X95798000Y-57415200D01*
X92790446Y-57415200D01*
X92817963Y-57387683D01*
X92902000Y-57184800D01*
X92902000Y-56965200D01*
X92819158Y-56765200D01*
X103498000Y-56765200D01*
X103498000Y-56984800D01*
X103582037Y-57187683D01*
X103737317Y-57342963D01*
X103940200Y-57427000D01*
X104159800Y-57427000D01*
X104362683Y-57342963D01*
X104517963Y-57187683D01*
X104602000Y-56984800D01*
X104602000Y-56765200D01*
X104517963Y-56562317D01*
X104362683Y-56407037D01*
X104159800Y-56323000D01*
X103940200Y-56323000D01*
X103737317Y-56407037D01*
X103582037Y-56562317D01*
X103498000Y-56765200D01*
X92819158Y-56765200D01*
X92817963Y-56762317D01*
X92662683Y-56607037D01*
X92459800Y-56523000D01*
X92240200Y-56523000D01*
X92037317Y-56607037D01*
X91882037Y-56762317D01*
X91798000Y-56965200D01*
X74852000Y-56965200D01*
X74852000Y-54815200D01*
X80598000Y-54815200D01*
X80598000Y-55034800D01*
X80682037Y-55237683D01*
X80837317Y-55392963D01*
X81040200Y-55477000D01*
X81259800Y-55477000D01*
X81462683Y-55392963D01*
X81617963Y-55237683D01*
X81702000Y-55034800D01*
X81702000Y-54815200D01*
X81619158Y-54615200D01*
X104798000Y-54615200D01*
X104798000Y-54834800D01*
X104882037Y-55037683D01*
X104948001Y-55103647D01*
X104948000Y-58596354D01*
X104882037Y-58662317D01*
X104798000Y-58865200D01*
X104798000Y-59084800D01*
X104882037Y-59287683D01*
X105037317Y-59442963D01*
X105240200Y-59527000D01*
X105459800Y-59527000D01*
X105662683Y-59442963D01*
X105817963Y-59287683D01*
X105902000Y-59084800D01*
X105902000Y-58865200D01*
X105817963Y-58662317D01*
X105752000Y-58596354D01*
X105752000Y-55103646D01*
X105817963Y-55037683D01*
X105902000Y-54834800D01*
X105902000Y-54615200D01*
X105817963Y-54412317D01*
X105662683Y-54257037D01*
X105459800Y-54173000D01*
X105240200Y-54173000D01*
X105037317Y-54257037D01*
X104882037Y-54412317D01*
X104798000Y-54615200D01*
X81619158Y-54615200D01*
X81617963Y-54612317D01*
X81462683Y-54457037D01*
X81259800Y-54373000D01*
X81040200Y-54373000D01*
X80837317Y-54457037D01*
X80682037Y-54612317D01*
X80598000Y-54815200D01*
X74852000Y-54815200D01*
X74852000Y-51941513D01*
X74991515Y-51801999D01*
X86742355Y-51801999D01*
X86682037Y-51862317D01*
X86598000Y-52065200D01*
X86598000Y-52284800D01*
X86682037Y-52487683D01*
X86837317Y-52642963D01*
X87040200Y-52727000D01*
X87259800Y-52727000D01*
X87462683Y-52642963D01*
X87617963Y-52487683D01*
X87702000Y-52284800D01*
X87702000Y-52207646D01*
X87787317Y-52292963D01*
X87990200Y-52377000D01*
X88209800Y-52377000D01*
X88412683Y-52292963D01*
X88428646Y-52277000D01*
X101162776Y-52277000D01*
X101448000Y-52562225D01*
X101448000Y-52584800D01*
X101532037Y-52787683D01*
X101687317Y-52942963D01*
X101890200Y-53027000D01*
X102109800Y-53027000D01*
X102312683Y-52942963D01*
X102467963Y-52787683D01*
X102552000Y-52584800D01*
X102552000Y-52365200D01*
X102467963Y-52162317D01*
X102312683Y-52007037D01*
X102109800Y-51923000D01*
X102087225Y-51923000D01*
X101966223Y-51801999D01*
X104992355Y-51801999D01*
X104982037Y-51812317D01*
X104898000Y-52015200D01*
X104898000Y-52234800D01*
X104982037Y-52437683D01*
X105130673Y-52586319D01*
X105098000Y-52665200D01*
X105098000Y-52884800D01*
X105182037Y-53087683D01*
X105337317Y-53242963D01*
X105540200Y-53327000D01*
X105759800Y-53327000D01*
X105807326Y-53307314D01*
X105882037Y-53487683D01*
X106037317Y-53642963D01*
X106240200Y-53727000D01*
X106459800Y-53727000D01*
X106662683Y-53642963D01*
X106750000Y-53555646D01*
X106887317Y-53692963D01*
X107090200Y-53777000D01*
X107309800Y-53777000D01*
X107435359Y-53724992D01*
X107445318Y-53749036D01*
X107382037Y-53812317D01*
X107298000Y-54015200D01*
X107298000Y-54108487D01*
X107093736Y-54312751D01*
X107060176Y-54335175D01*
X107037752Y-54368735D01*
X107037749Y-54368738D01*
X106971326Y-54468148D01*
X106940126Y-54625000D01*
X106948001Y-54664590D01*
X106948000Y-56135587D01*
X106948001Y-56135592D01*
X106948001Y-57530245D01*
X106809800Y-57473000D01*
X106590200Y-57473000D01*
X106387317Y-57557037D01*
X106232037Y-57712317D01*
X106148000Y-57915200D01*
X106148000Y-58134800D01*
X106232037Y-58337683D01*
X106387317Y-58492963D01*
X106590200Y-58577000D01*
X106809800Y-58577000D01*
X106948001Y-58519755D01*
X106948000Y-63396354D01*
X106882037Y-63462317D01*
X106798000Y-63665200D01*
X106798000Y-63884800D01*
X106882037Y-64087683D01*
X107037317Y-64242963D01*
X107240200Y-64327000D01*
X107459800Y-64327000D01*
X107662683Y-64242963D01*
X107817963Y-64087683D01*
X107902000Y-63884800D01*
X107902000Y-63665200D01*
X107817963Y-63462317D01*
X107752000Y-63396354D01*
X107752000Y-61853661D01*
X107908315Y-62009976D01*
X108396043Y-62212000D01*
X108923957Y-62212000D01*
X109411685Y-62009976D01*
X109784976Y-61636685D01*
X109987000Y-61148957D01*
X109987000Y-60621043D01*
X109784976Y-60133315D01*
X109411685Y-59760024D01*
X108923957Y-59558000D01*
X108396043Y-59558000D01*
X107908315Y-59760024D01*
X107752000Y-59916339D01*
X107752000Y-58865200D01*
X111248000Y-58865200D01*
X111248000Y-59084800D01*
X111332037Y-59287683D01*
X111398000Y-59353646D01*
X111398001Y-64335410D01*
X111390126Y-64375000D01*
X111421326Y-64531852D01*
X111487749Y-64631262D01*
X111487752Y-64631265D01*
X111510176Y-64664825D01*
X111543736Y-64687249D01*
X111798001Y-64941514D01*
X111798000Y-82785415D01*
X111790126Y-82825000D01*
X111798000Y-82864585D01*
X111798000Y-82864589D01*
X111821325Y-82981851D01*
X111910175Y-83114825D01*
X111943738Y-83137251D01*
X112148000Y-83341514D01*
X112148000Y-83434800D01*
X112232037Y-83637683D01*
X112387317Y-83792963D01*
X112590200Y-83877000D01*
X112809800Y-83877000D01*
X113012683Y-83792963D01*
X113167963Y-83637683D01*
X113252000Y-83434800D01*
X113252000Y-83215200D01*
X113167963Y-83012317D01*
X113012683Y-82857037D01*
X112809800Y-82773000D01*
X112716514Y-82773000D01*
X112602000Y-82658487D01*
X112602000Y-79385242D01*
X112615024Y-79416685D01*
X112988315Y-79789976D01*
X113476043Y-79992000D01*
X114003957Y-79992000D01*
X114491685Y-79789976D01*
X114848000Y-79433661D01*
X114848000Y-89346354D01*
X114782037Y-89412317D01*
X114741391Y-89510445D01*
X114658380Y-89310039D01*
X114429961Y-89081620D01*
X114131517Y-88958000D01*
X113808483Y-88958000D01*
X113510039Y-89081620D01*
X113281620Y-89310039D01*
X113158000Y-89608483D01*
X113158000Y-89931517D01*
X113281620Y-90229961D01*
X113510039Y-90458380D01*
X113808483Y-90582000D01*
X114131517Y-90582000D01*
X114429961Y-90458380D01*
X114658380Y-90229961D01*
X114760031Y-89984555D01*
X114782037Y-90037683D01*
X114937317Y-90192963D01*
X115140200Y-90277000D01*
X115359800Y-90277000D01*
X115562683Y-90192963D01*
X115717963Y-90037683D01*
X115729969Y-90008697D01*
X115821620Y-90229961D01*
X116050039Y-90458380D01*
X116348483Y-90582000D01*
X116671517Y-90582000D01*
X116969961Y-90458380D01*
X117198380Y-90229961D01*
X117322000Y-89931517D01*
X117322000Y-89608483D01*
X118238000Y-89608483D01*
X118238000Y-89931517D01*
X118361620Y-90229961D01*
X118590039Y-90458380D01*
X118888483Y-90582000D01*
X119211517Y-90582000D01*
X119509961Y-90458380D01*
X119738380Y-90229961D01*
X119862000Y-89931517D01*
X119862000Y-89608483D01*
X119738380Y-89310039D01*
X119509961Y-89081620D01*
X119211517Y-88958000D01*
X118888483Y-88958000D01*
X118590039Y-89081620D01*
X118361620Y-89310039D01*
X118238000Y-89608483D01*
X117322000Y-89608483D01*
X117198380Y-89310039D01*
X116969961Y-89081620D01*
X116671517Y-88958000D01*
X116348483Y-88958000D01*
X116050039Y-89081620D01*
X115821620Y-89310039D01*
X115748609Y-89486303D01*
X115717963Y-89412317D01*
X115652000Y-89346354D01*
X115652000Y-87068483D01*
X115698000Y-87068483D01*
X115698000Y-87391517D01*
X115821620Y-87689961D01*
X116050039Y-87918380D01*
X116348483Y-88042000D01*
X116671517Y-88042000D01*
X116969961Y-87918380D01*
X117198380Y-87689961D01*
X117322000Y-87391517D01*
X117322000Y-87068483D01*
X118238000Y-87068483D01*
X118238000Y-87391517D01*
X118361620Y-87689961D01*
X118590039Y-87918380D01*
X118888483Y-88042000D01*
X119211517Y-88042000D01*
X119509961Y-87918380D01*
X119738380Y-87689961D01*
X119862000Y-87391517D01*
X119862000Y-87068483D01*
X120778000Y-87068483D01*
X120778000Y-87391517D01*
X120901620Y-87689961D01*
X121130039Y-87918380D01*
X121428483Y-88042000D01*
X121732439Y-88042000D01*
X121643000Y-88257924D01*
X121643000Y-88742076D01*
X121732439Y-88958000D01*
X121428483Y-88958000D01*
X121130039Y-89081620D01*
X120901620Y-89310039D01*
X120778000Y-89608483D01*
X120778000Y-89931517D01*
X120901620Y-90229961D01*
X121130039Y-90458380D01*
X121428483Y-90582000D01*
X121751517Y-90582000D01*
X122049961Y-90458380D01*
X122278380Y-90229961D01*
X122402000Y-89931517D01*
X122402000Y-89627561D01*
X122617924Y-89717000D01*
X123102076Y-89717000D01*
X123318000Y-89627561D01*
X123318000Y-89931517D01*
X123441620Y-90229961D01*
X123670039Y-90458380D01*
X123968483Y-90582000D01*
X124291517Y-90582000D01*
X124589961Y-90458380D01*
X124818380Y-90229961D01*
X124942000Y-89931517D01*
X124942000Y-89608483D01*
X124818380Y-89310039D01*
X124589961Y-89081620D01*
X124291517Y-88958000D01*
X123987561Y-88958000D01*
X124077000Y-88742076D01*
X124077000Y-88257924D01*
X123987561Y-88042000D01*
X124291517Y-88042000D01*
X124589961Y-87918380D01*
X124818380Y-87689961D01*
X124942000Y-87391517D01*
X124942000Y-87068483D01*
X124818380Y-86770039D01*
X124589961Y-86541620D01*
X124291517Y-86418000D01*
X123968483Y-86418000D01*
X123670039Y-86541620D01*
X123441620Y-86770039D01*
X123318000Y-87068483D01*
X123318000Y-87372439D01*
X123102076Y-87283000D01*
X122617924Y-87283000D01*
X122402000Y-87372439D01*
X122402000Y-87068483D01*
X122278380Y-86770039D01*
X122049961Y-86541620D01*
X121751517Y-86418000D01*
X121428483Y-86418000D01*
X121130039Y-86541620D01*
X120901620Y-86770039D01*
X120778000Y-87068483D01*
X119862000Y-87068483D01*
X119738380Y-86770039D01*
X119509961Y-86541620D01*
X119211517Y-86418000D01*
X118888483Y-86418000D01*
X118590039Y-86541620D01*
X118361620Y-86770039D01*
X118238000Y-87068483D01*
X117322000Y-87068483D01*
X117198380Y-86770039D01*
X116969961Y-86541620D01*
X116671517Y-86418000D01*
X116348483Y-86418000D01*
X116050039Y-86541620D01*
X115821620Y-86770039D01*
X115698000Y-87068483D01*
X115652000Y-87068483D01*
X115652000Y-64153646D01*
X115717963Y-64087683D01*
X115802000Y-63884800D01*
X115802000Y-63665200D01*
X115717963Y-63462317D01*
X115562683Y-63307037D01*
X115359800Y-63223000D01*
X115140200Y-63223000D01*
X114937317Y-63307037D01*
X114782037Y-63462317D01*
X114698000Y-63665200D01*
X114698000Y-63884800D01*
X114782037Y-64087683D01*
X114848001Y-64153647D01*
X114848000Y-77896339D01*
X114491685Y-77540024D01*
X114003957Y-77338000D01*
X113476043Y-77338000D01*
X112988315Y-77540024D01*
X112615024Y-77913315D01*
X112602000Y-77944758D01*
X112602000Y-64814584D01*
X112609874Y-64774999D01*
X112602000Y-64735414D01*
X112602000Y-64735410D01*
X112578675Y-64618148D01*
X112489825Y-64485175D01*
X112456262Y-64462749D01*
X112202000Y-64208487D01*
X112202000Y-62037532D01*
X112767073Y-62037532D01*
X112865736Y-62304387D01*
X113475461Y-62530908D01*
X114125460Y-62506856D01*
X114614264Y-62304387D01*
X114712927Y-62037532D01*
X113740000Y-61064605D01*
X112767073Y-62037532D01*
X112202000Y-62037532D01*
X112202000Y-61472907D01*
X112320613Y-61759264D01*
X112587468Y-61857927D01*
X113560395Y-60885000D01*
X113919605Y-60885000D01*
X114892532Y-61857927D01*
X115159387Y-61759264D01*
X115385908Y-61149539D01*
X115361856Y-60499540D01*
X115159387Y-60010736D01*
X114892532Y-59912073D01*
X113919605Y-60885000D01*
X113560395Y-60885000D01*
X112587468Y-59912073D01*
X112320613Y-60010736D01*
X112202000Y-60330006D01*
X112202000Y-59353646D01*
X112267963Y-59287683D01*
X112352000Y-59084800D01*
X112352000Y-58865200D01*
X112267963Y-58662317D01*
X112112683Y-58507037D01*
X111909800Y-58423000D01*
X111690200Y-58423000D01*
X111487317Y-58507037D01*
X111332037Y-58662317D01*
X111248000Y-58865200D01*
X107752000Y-58865200D01*
X107752000Y-55215200D01*
X110748000Y-55215200D01*
X110748000Y-55434800D01*
X110832037Y-55637683D01*
X110987317Y-55792963D01*
X111190200Y-55877000D01*
X111409800Y-55877000D01*
X111612683Y-55792963D01*
X111767963Y-55637683D01*
X111852000Y-55434800D01*
X111852000Y-55215200D01*
X111767963Y-55012317D01*
X111612683Y-54857037D01*
X111409800Y-54773000D01*
X111190200Y-54773000D01*
X110987317Y-54857037D01*
X110832037Y-55012317D01*
X110748000Y-55215200D01*
X107752000Y-55215200D01*
X107752000Y-54791513D01*
X107866513Y-54677000D01*
X107959800Y-54677000D01*
X108162683Y-54592963D01*
X108317963Y-54437683D01*
X108402000Y-54234800D01*
X108402000Y-54015200D01*
X108361076Y-53916400D01*
X108425050Y-53903675D01*
X108558023Y-53814825D01*
X108580449Y-53781262D01*
X108634671Y-53727040D01*
X119633527Y-53727040D01*
X120098000Y-54191514D01*
X120098000Y-57604487D01*
X119512251Y-57018738D01*
X119489825Y-56985175D01*
X119356852Y-56896325D01*
X119239590Y-56873000D01*
X119239585Y-56873000D01*
X119200000Y-56865126D01*
X119160415Y-56873000D01*
X115928646Y-56873000D01*
X115862683Y-56807037D01*
X115659800Y-56723000D01*
X115440200Y-56723000D01*
X115237317Y-56807037D01*
X115082037Y-56962317D01*
X114998000Y-57165200D01*
X114998000Y-57384800D01*
X115082037Y-57587683D01*
X115237317Y-57742963D01*
X115440200Y-57827000D01*
X115659800Y-57827000D01*
X115862683Y-57742963D01*
X115928646Y-57677000D01*
X119033487Y-57677000D01*
X119798000Y-58441514D01*
X119798000Y-58504486D01*
X119312250Y-58018737D01*
X119289825Y-57985175D01*
X119156852Y-57896325D01*
X119039590Y-57873000D01*
X119039585Y-57873000D01*
X119000000Y-57865126D01*
X118960415Y-57873000D01*
X113178646Y-57873000D01*
X113112683Y-57807037D01*
X112909800Y-57723000D01*
X112690200Y-57723000D01*
X112487317Y-57807037D01*
X112332037Y-57962317D01*
X112248000Y-58165200D01*
X112248000Y-58384800D01*
X112332037Y-58587683D01*
X112487317Y-58742963D01*
X112690200Y-58827000D01*
X112748000Y-58827000D01*
X112748000Y-58984800D01*
X112832037Y-59187683D01*
X112987317Y-59342963D01*
X113074578Y-59379108D01*
X112865736Y-59465613D01*
X112767073Y-59732468D01*
X113740000Y-60705395D01*
X114712927Y-59732468D01*
X114614264Y-59465613D01*
X114004539Y-59239092D01*
X113705488Y-59250158D01*
X113767963Y-59187683D01*
X113852000Y-58984800D01*
X113852000Y-58765200D01*
X113815466Y-58677000D01*
X116284534Y-58677000D01*
X116248000Y-58765200D01*
X116248000Y-58984800D01*
X116332037Y-59187683D01*
X116398000Y-59253646D01*
X116398001Y-61996353D01*
X116332037Y-62062317D01*
X116248000Y-62265200D01*
X116248000Y-62484800D01*
X116332037Y-62687683D01*
X116487317Y-62842963D01*
X116690200Y-62927000D01*
X116909800Y-62927000D01*
X117112683Y-62842963D01*
X117267963Y-62687683D01*
X117352000Y-62484800D01*
X117352000Y-62265200D01*
X117267963Y-62062317D01*
X117202000Y-61996354D01*
X117202000Y-59253646D01*
X117267963Y-59187683D01*
X117277275Y-59165200D01*
X117798000Y-59165200D01*
X117798000Y-59384800D01*
X117882037Y-59587683D01*
X117948001Y-59653647D01*
X117948000Y-83446354D01*
X117882037Y-83512317D01*
X117798000Y-83715200D01*
X117798000Y-83934800D01*
X117882037Y-84137683D01*
X118037317Y-84292963D01*
X118240200Y-84377000D01*
X118459800Y-84377000D01*
X118662683Y-84292963D01*
X118817963Y-84137683D01*
X118902000Y-83934800D01*
X118902000Y-83715200D01*
X118817963Y-83512317D01*
X118752000Y-83446354D01*
X118752000Y-76635989D01*
X121023000Y-76635989D01*
X121023000Y-77144011D01*
X121217412Y-77613362D01*
X121576638Y-77972588D01*
X122029090Y-78160000D01*
X121576638Y-78347412D01*
X121217412Y-78706638D01*
X121023000Y-79175989D01*
X121023000Y-79684011D01*
X121217412Y-80153362D01*
X121576638Y-80512588D01*
X122045989Y-80707000D01*
X122554011Y-80707000D01*
X123023362Y-80512588D01*
X123382588Y-80153362D01*
X123577000Y-79684011D01*
X123577000Y-79175989D01*
X123382588Y-78706638D01*
X123023362Y-78347412D01*
X122570910Y-78160000D01*
X123023362Y-77972588D01*
X123382588Y-77613362D01*
X123577000Y-77144011D01*
X123577000Y-76635989D01*
X123382588Y-76166638D01*
X123023362Y-75807412D01*
X122987949Y-75792744D01*
X123144208Y-75728019D01*
X123236745Y-75466350D01*
X122300000Y-74529605D01*
X121363255Y-75466350D01*
X121455792Y-75728019D01*
X121621119Y-75788987D01*
X121576638Y-75807412D01*
X121217412Y-76166638D01*
X121023000Y-76635989D01*
X118752000Y-76635989D01*
X118752000Y-74097398D01*
X120703812Y-74097398D01*
X120728648Y-74727461D01*
X120921981Y-75194208D01*
X121183650Y-75286745D01*
X122120395Y-74350000D01*
X122479605Y-74350000D01*
X123416350Y-75286745D01*
X123678019Y-75194208D01*
X123896188Y-74602602D01*
X123871352Y-73972539D01*
X123678019Y-73505792D01*
X123416350Y-73413255D01*
X122479605Y-74350000D01*
X122120395Y-74350000D01*
X121183650Y-73413255D01*
X120921981Y-73505792D01*
X120703812Y-74097398D01*
X118752000Y-74097398D01*
X118752000Y-59653646D01*
X118817963Y-59587683D01*
X118902000Y-59384800D01*
X118902000Y-59165200D01*
X118817963Y-58962317D01*
X118662683Y-58807037D01*
X118459800Y-58723000D01*
X118240200Y-58723000D01*
X118037317Y-58807037D01*
X117882037Y-58962317D01*
X117798000Y-59165200D01*
X117277275Y-59165200D01*
X117352000Y-58984800D01*
X117352000Y-58765200D01*
X117315466Y-58677000D01*
X118833487Y-58677000D01*
X119498000Y-59341514D01*
X119498001Y-71035410D01*
X119490126Y-71075000D01*
X119521326Y-71231852D01*
X119587749Y-71331262D01*
X119587752Y-71331265D01*
X119610176Y-71364825D01*
X119643736Y-71387249D01*
X120322750Y-72066264D01*
X120345175Y-72099825D01*
X120378735Y-72122249D01*
X120378737Y-72122251D01*
X120439303Y-72162720D01*
X120478148Y-72188675D01*
X120595410Y-72212000D01*
X120595415Y-72212000D01*
X120635000Y-72219874D01*
X120674585Y-72212000D01*
X121084299Y-72212000D01*
X121217412Y-72533362D01*
X121576638Y-72892588D01*
X121612051Y-72907256D01*
X121455792Y-72971981D01*
X121363255Y-73233650D01*
X122300000Y-74170395D01*
X123236745Y-73233650D01*
X123144208Y-72971981D01*
X122978881Y-72911013D01*
X123023362Y-72892588D01*
X123382588Y-72533362D01*
X123577000Y-72064011D01*
X123577000Y-71555989D01*
X123382588Y-71086638D01*
X123023362Y-70727412D01*
X122570910Y-70540000D01*
X123023362Y-70352588D01*
X123382588Y-69993362D01*
X123577000Y-69524011D01*
X123577000Y-69015989D01*
X123382588Y-68546638D01*
X123023362Y-68187412D01*
X122570910Y-68000000D01*
X123023362Y-67812588D01*
X123382588Y-67453362D01*
X123515701Y-67132000D01*
X124055415Y-67132000D01*
X124095000Y-67139874D01*
X124134585Y-67132000D01*
X124134590Y-67132000D01*
X124251852Y-67108675D01*
X124384825Y-67019825D01*
X124407251Y-66986262D01*
X125181274Y-66212240D01*
X125214835Y-66189815D01*
X125237259Y-66156255D01*
X125237261Y-66156253D01*
X125303684Y-66056843D01*
X125303685Y-66056842D01*
X125327010Y-65939580D01*
X125327010Y-65939576D01*
X125334884Y-65899991D01*
X125327010Y-65860406D01*
X125327010Y-53384701D01*
X125356262Y-53355449D01*
X125389825Y-53333023D01*
X125478675Y-53200050D01*
X125496821Y-53108825D01*
X125567963Y-53037683D01*
X125652000Y-52834800D01*
X125652000Y-52615200D01*
X125567963Y-52412317D01*
X125412683Y-52257037D01*
X125209800Y-52173000D01*
X125202000Y-52173000D01*
X125202000Y-52015200D01*
X125117963Y-51812317D01*
X124962683Y-51657037D01*
X124759800Y-51573000D01*
X124540200Y-51573000D01*
X124337317Y-51657037D01*
X124182037Y-51812317D01*
X124098000Y-52015200D01*
X124098000Y-52234800D01*
X124182037Y-52437683D01*
X124248000Y-52503646D01*
X124248001Y-58158485D01*
X123698487Y-58708000D01*
X123515701Y-58708000D01*
X123382588Y-58386638D01*
X123023362Y-58027412D01*
X122570910Y-57840000D01*
X123023362Y-57652588D01*
X123382588Y-57293362D01*
X123577000Y-56824011D01*
X123577000Y-56315989D01*
X123382588Y-55846638D01*
X123023362Y-55487412D01*
X122752000Y-55375010D01*
X122752000Y-53269516D01*
X122760855Y-53224999D01*
X122751311Y-53177020D01*
X122725775Y-53048638D01*
X122625874Y-52899126D01*
X122588131Y-52873907D01*
X122151113Y-52436889D01*
X122125894Y-52399146D01*
X121976382Y-52299245D01*
X121844538Y-52273020D01*
X121800020Y-52264165D01*
X121755502Y-52273020D01*
X106844498Y-52273020D01*
X106799980Y-52264165D01*
X106755462Y-52273020D01*
X106623618Y-52299245D01*
X106474106Y-52399146D01*
X106448888Y-52436887D01*
X106262775Y-52623000D01*
X106240200Y-52623000D01*
X106192674Y-52642686D01*
X106117963Y-52462317D01*
X105969327Y-52313681D01*
X106002000Y-52234800D01*
X106002000Y-52015200D01*
X105917963Y-51812317D01*
X105907645Y-51801999D01*
X113997612Y-51801999D01*
X114074950Y-51853675D01*
X114166175Y-51871821D01*
X114237317Y-51942963D01*
X114440200Y-52027000D01*
X114659800Y-52027000D01*
X114862683Y-51942963D01*
X115017963Y-51787683D01*
X115102000Y-51584800D01*
X115102000Y-51402000D01*
X129476648Y-51402000D01*
X130097043Y-51474330D01*
X130097043Y-51474330D01*
G37*
X130097043Y-51474330D02*
X130662057Y-51679421D01*
X131164739Y-52008994D01*
X131578119Y-52445367D01*
X131880024Y-52965134D01*
X132055855Y-53545683D01*
X132098000Y-54017898D01*
X132098001Y-87546676D01*
X131735719Y-86672051D01*
X130827949Y-85764281D01*
X129641890Y-85273000D01*
X128358110Y-85273000D01*
X127172051Y-85764281D01*
X126264281Y-86672051D01*
X125773000Y-87858110D01*
X125773000Y-89141890D01*
X126264281Y-90327949D01*
X127172051Y-91235719D01*
X128358110Y-91727000D01*
X129641890Y-91727000D01*
X130827949Y-91235719D01*
X131735719Y-90327949D01*
X132098001Y-89453324D01*
X132098001Y-110546678D01*
X131735719Y-109672051D01*
X130827949Y-108764281D01*
X129641890Y-108273000D01*
X128358110Y-108273000D01*
X127172051Y-108764281D01*
X126264281Y-109672051D01*
X125773000Y-110858110D01*
X125773000Y-112141890D01*
X126264281Y-113327949D01*
X127172051Y-114235719D01*
X128046676Y-114598000D01*
X71953324Y-114598000D01*
X72827949Y-114235719D01*
X73735719Y-113327949D01*
X73869214Y-113005663D01*
X106723000Y-113005663D01*
X106723000Y-113394337D01*
X106871739Y-113753426D01*
X107146574Y-114028261D01*
X107505663Y-114177000D01*
X107894337Y-114177000D01*
X108253426Y-114028261D01*
X108528261Y-113753426D01*
X108600000Y-113580232D01*
X108671739Y-113753426D01*
X108946574Y-114028261D01*
X109305663Y-114177000D01*
X109694337Y-114177000D01*
X110053426Y-114028261D01*
X110328261Y-113753426D01*
X110477000Y-113394337D01*
X110477000Y-113005663D01*
X110328261Y-112646574D01*
X110053426Y-112371739D01*
X109694337Y-112223000D01*
X109305663Y-112223000D01*
X108946574Y-112371739D01*
X108671739Y-112646574D01*
X108600000Y-112819768D01*
X108528261Y-112646574D01*
X108253426Y-112371739D01*
X107894337Y-112223000D01*
X107505663Y-112223000D01*
X107146574Y-112371739D01*
X106871739Y-112646574D01*
X106723000Y-113005663D01*
X73869214Y-113005663D01*
X74227000Y-112141890D01*
X74227000Y-111205663D01*
X120623000Y-111205663D01*
X120623000Y-111594337D01*
X120771739Y-111953426D01*
X121046574Y-112228261D01*
X121405663Y-112377000D01*
X121794337Y-112377000D01*
X122153426Y-112228261D01*
X122428261Y-111953426D01*
X122577000Y-111594337D01*
X122577000Y-111205663D01*
X122428261Y-110846574D01*
X122153426Y-110571739D01*
X121794337Y-110423000D01*
X121405663Y-110423000D01*
X121046574Y-110571739D01*
X120771739Y-110846574D01*
X120623000Y-111205663D01*
X74227000Y-111205663D01*
X74227000Y-110858110D01*
X73735719Y-109672051D01*
X73349418Y-109285750D01*
X76615000Y-109285750D01*
X76615000Y-110026310D01*
X76711673Y-110259699D01*
X76890302Y-110438327D01*
X77123691Y-110535000D01*
X77714250Y-110535000D01*
X77873000Y-110376250D01*
X77873000Y-109127000D01*
X76773750Y-109127000D01*
X76615000Y-109285750D01*
X73349418Y-109285750D01*
X72827949Y-108764281D01*
X71641890Y-108273000D01*
X70358110Y-108273000D01*
X69172051Y-108764281D01*
X68264281Y-109672051D01*
X67902000Y-110546676D01*
X67902000Y-107973690D01*
X76615000Y-107973690D01*
X76615000Y-108714250D01*
X76773750Y-108873000D01*
X77873000Y-108873000D01*
X77873000Y-107623750D01*
X78127000Y-107623750D01*
X78127000Y-108873000D01*
X78147000Y-108873000D01*
X78147000Y-109127000D01*
X78127000Y-109127000D01*
X78127000Y-110376250D01*
X78285750Y-110535000D01*
X78876309Y-110535000D01*
X79109698Y-110438327D01*
X79288327Y-110259699D01*
X79382387Y-110032619D01*
X79579777Y-110164511D01*
X80000000Y-110248099D01*
X80420224Y-110164511D01*
X80776473Y-109926473D01*
X81014511Y-109570223D01*
X81015517Y-109565164D01*
X81223528Y-109876473D01*
X81579777Y-110114511D01*
X82000000Y-110198099D01*
X82420224Y-110114511D01*
X82776473Y-109876473D01*
X83014511Y-109520223D01*
X83038027Y-109402000D01*
X83685415Y-109402000D01*
X83725000Y-109409874D01*
X83764585Y-109402000D01*
X83764590Y-109402000D01*
X83881852Y-109378675D01*
X84014825Y-109289825D01*
X84037251Y-109256262D01*
X85006264Y-108287250D01*
X85039825Y-108264825D01*
X85062249Y-108231265D01*
X85062251Y-108231263D01*
X85128674Y-108131853D01*
X85128675Y-108131852D01*
X85135010Y-108100000D01*
X86916594Y-108100000D01*
X86916594Y-109900000D01*
X86941973Y-110027589D01*
X87014246Y-110135754D01*
X87122411Y-110208027D01*
X87250000Y-110233406D01*
X88750000Y-110233406D01*
X88877589Y-110208027D01*
X88985754Y-110135754D01*
X89058027Y-110027589D01*
X89083406Y-109900000D01*
X89083406Y-109716767D01*
X89223528Y-109926473D01*
X89579777Y-110164511D01*
X90000000Y-110248099D01*
X90420224Y-110164511D01*
X90776473Y-109926473D01*
X90832765Y-109842227D01*
X90834255Y-109846036D01*
X91208488Y-110235359D01*
X91658815Y-110442318D01*
X91873000Y-110319656D01*
X91873000Y-109127000D01*
X92127000Y-109127000D01*
X92127000Y-110319656D01*
X92341185Y-110442318D01*
X92791512Y-110235359D01*
X93165745Y-109846036D01*
X93362504Y-109343136D01*
X93225014Y-109127000D01*
X92127000Y-109127000D01*
X91873000Y-109127000D01*
X91853000Y-109127000D01*
X91853000Y-108873000D01*
X91873000Y-108873000D01*
X91873000Y-107680344D01*
X92127000Y-107680344D01*
X92127000Y-108873000D01*
X93225014Y-108873000D01*
X93362504Y-108656864D01*
X93165745Y-108153964D01*
X93113873Y-108100000D01*
X96916594Y-108100000D01*
X96916594Y-109900000D01*
X96941973Y-110027589D01*
X97014246Y-110135754D01*
X97122411Y-110208027D01*
X97250000Y-110233406D01*
X98750000Y-110233406D01*
X98877589Y-110208027D01*
X98985754Y-110135754D01*
X99058027Y-110027589D01*
X99083406Y-109900000D01*
X99083406Y-109716767D01*
X99223528Y-109926473D01*
X99579777Y-110164511D01*
X100000000Y-110248099D01*
X100420224Y-110164511D01*
X100776473Y-109926473D01*
X100832765Y-109842227D01*
X100834255Y-109846036D01*
X101208488Y-110235359D01*
X101658815Y-110442318D01*
X101873000Y-110319656D01*
X101873000Y-109127000D01*
X102127000Y-109127000D01*
X102127000Y-110319656D01*
X102341185Y-110442318D01*
X102791512Y-110235359D01*
X103147323Y-109865200D01*
X109148000Y-109865200D01*
X109148000Y-110084800D01*
X109232037Y-110287683D01*
X109387317Y-110442963D01*
X109590200Y-110527000D01*
X109809800Y-110527000D01*
X110012683Y-110442963D01*
X110167963Y-110287683D01*
X110252000Y-110084800D01*
X110252000Y-109956158D01*
X110809142Y-109399016D01*
X120480590Y-109399016D01*
X120536271Y-109629611D01*
X121019078Y-109797622D01*
X121529428Y-109768083D01*
X121863729Y-109629611D01*
X121919410Y-109399016D01*
X121200000Y-108679605D01*
X120480590Y-109399016D01*
X110809142Y-109399016D01*
X111240326Y-108967832D01*
X111271801Y-108946801D01*
X111355125Y-108822098D01*
X111377000Y-108712126D01*
X111377000Y-108712123D01*
X111384384Y-108675000D01*
X111377000Y-108637878D01*
X111377000Y-107665200D01*
X117248000Y-107665200D01*
X117248000Y-107884800D01*
X117332037Y-108087683D01*
X117487317Y-108242963D01*
X117690200Y-108327000D01*
X117909800Y-108327000D01*
X117928925Y-108319078D01*
X119902378Y-108319078D01*
X119931917Y-108829428D01*
X120070389Y-109163729D01*
X120300984Y-109219410D01*
X121020395Y-108500000D01*
X121379605Y-108500000D01*
X122099016Y-109219410D01*
X122329611Y-109163729D01*
X122497622Y-108680922D01*
X122468083Y-108170572D01*
X122329611Y-107836271D01*
X122099016Y-107780590D01*
X121379605Y-108500000D01*
X121020395Y-108500000D01*
X120300984Y-107780590D01*
X120070389Y-107836271D01*
X119902378Y-108319078D01*
X117928925Y-108319078D01*
X118112683Y-108242963D01*
X118267963Y-108087683D01*
X118352000Y-107884800D01*
X118352000Y-107665200D01*
X118325401Y-107600984D01*
X120480590Y-107600984D01*
X121200000Y-108320395D01*
X121919410Y-107600984D01*
X121863729Y-107370389D01*
X121380922Y-107202378D01*
X120870572Y-107231917D01*
X120536271Y-107370389D01*
X120480590Y-107600984D01*
X118325401Y-107600984D01*
X118267963Y-107462317D01*
X118112683Y-107307037D01*
X117909800Y-107223000D01*
X117690200Y-107223000D01*
X117487317Y-107307037D01*
X117332037Y-107462317D01*
X117248000Y-107665200D01*
X111377000Y-107665200D01*
X111377000Y-105078646D01*
X111467963Y-104987683D01*
X111482822Y-104951810D01*
X111508743Y-105014389D01*
X111664023Y-105169669D01*
X111841725Y-105243275D01*
X111915331Y-105420977D01*
X112070611Y-105576257D01*
X112273494Y-105660294D01*
X112493094Y-105660294D01*
X112695977Y-105576257D01*
X112851257Y-105420977D01*
X112935294Y-105218094D01*
X112935294Y-105065200D01*
X118648000Y-105065200D01*
X118648000Y-105284800D01*
X118732037Y-105487683D01*
X118887317Y-105642963D01*
X119090200Y-105727000D01*
X119309800Y-105727000D01*
X119512683Y-105642963D01*
X119667963Y-105487683D01*
X119752000Y-105284800D01*
X119752000Y-105065200D01*
X119667963Y-104862317D01*
X119512683Y-104707037D01*
X119309800Y-104623000D01*
X119090200Y-104623000D01*
X118887317Y-104707037D01*
X118732037Y-104862317D01*
X118648000Y-105065200D01*
X112935294Y-105065200D01*
X112935294Y-104998494D01*
X112851257Y-104795611D01*
X112695977Y-104640331D01*
X112518275Y-104566725D01*
X112444669Y-104389023D01*
X112289389Y-104233743D01*
X112086506Y-104149706D01*
X111866906Y-104149706D01*
X111664023Y-104233743D01*
X111508743Y-104389023D01*
X111493884Y-104424896D01*
X111467963Y-104362317D01*
X111312683Y-104207037D01*
X111152921Y-104140861D01*
X111172000Y-104094800D01*
X111172000Y-103875200D01*
X111087963Y-103672317D01*
X111080846Y-103665200D01*
X119048000Y-103665200D01*
X119048000Y-103884800D01*
X119132037Y-104087683D01*
X119287317Y-104242963D01*
X119490200Y-104327000D01*
X119709800Y-104327000D01*
X119912683Y-104242963D01*
X120067963Y-104087683D01*
X120077275Y-104065200D01*
X125448000Y-104065200D01*
X125448000Y-104284800D01*
X125532037Y-104487683D01*
X125687317Y-104642963D01*
X125890200Y-104727000D01*
X125963823Y-104727000D01*
X125948000Y-104765200D01*
X125948000Y-104984800D01*
X126032037Y-105187683D01*
X126187317Y-105342963D01*
X126390200Y-105427000D01*
X126609800Y-105427000D01*
X126812683Y-105342963D01*
X126967963Y-105187683D01*
X127052000Y-104984800D01*
X127052000Y-104826775D01*
X127055125Y-104822098D01*
X127077000Y-104712126D01*
X127077000Y-104712123D01*
X127084384Y-104675000D01*
X127077000Y-104637878D01*
X127077000Y-99581158D01*
X127473000Y-99185158D01*
X127473000Y-99319609D01*
X127583679Y-99586813D01*
X127788187Y-99791321D01*
X127809140Y-99800000D01*
X127788187Y-99808679D01*
X127583679Y-100013187D01*
X127473000Y-100280391D01*
X127473000Y-100569609D01*
X127583679Y-100836813D01*
X127788187Y-101041321D01*
X127809140Y-101050000D01*
X127788187Y-101058679D01*
X127583679Y-101263187D01*
X127473000Y-101530391D01*
X127473000Y-101819609D01*
X127583679Y-102086813D01*
X127788187Y-102291321D01*
X127809140Y-102300000D01*
X127788187Y-102308679D01*
X127583679Y-102513187D01*
X127473000Y-102780391D01*
X127473000Y-103069609D01*
X127583679Y-103336813D01*
X127788187Y-103541321D01*
X127809140Y-103550000D01*
X127788187Y-103558679D01*
X127583679Y-103763187D01*
X127473000Y-104030391D01*
X127473000Y-104319609D01*
X127583679Y-104586813D01*
X127788187Y-104791321D01*
X128055391Y-104902000D01*
X128344609Y-104902000D01*
X128611813Y-104791321D01*
X128816321Y-104586813D01*
X128927000Y-104319609D01*
X128927000Y-104030391D01*
X128816321Y-103763187D01*
X128611813Y-103558679D01*
X128590860Y-103550000D01*
X128611813Y-103541321D01*
X128816321Y-103336813D01*
X128927000Y-103069609D01*
X128927000Y-102780391D01*
X128816321Y-102513187D01*
X128611813Y-102308679D01*
X128590860Y-102300000D01*
X128611813Y-102291321D01*
X128816321Y-102086813D01*
X128927000Y-101819609D01*
X128927000Y-101530391D01*
X128816321Y-101263187D01*
X128611813Y-101058679D01*
X128590860Y-101050000D01*
X128611813Y-101041321D01*
X128816321Y-100836813D01*
X128927000Y-100569609D01*
X128927000Y-100280391D01*
X128816321Y-100013187D01*
X128611813Y-99808679D01*
X128590860Y-99800000D01*
X128611813Y-99791321D01*
X128816321Y-99586813D01*
X128927000Y-99319609D01*
X128927000Y-99030391D01*
X128816321Y-98763187D01*
X128611813Y-98558679D01*
X128590860Y-98550000D01*
X128611813Y-98541321D01*
X128816321Y-98336813D01*
X128927000Y-98069609D01*
X128927000Y-97780391D01*
X128816321Y-97513187D01*
X128611813Y-97308679D01*
X128590860Y-97300000D01*
X128611813Y-97291321D01*
X128816321Y-97086813D01*
X128927000Y-96819609D01*
X128927000Y-96530391D01*
X128816321Y-96263187D01*
X128733194Y-96180060D01*
X128737745Y-96142350D01*
X128200000Y-95604605D01*
X127662255Y-96142350D01*
X127666806Y-96180060D01*
X127583679Y-96263187D01*
X127473000Y-96530391D01*
X127473000Y-96819609D01*
X127487420Y-96854422D01*
X126159674Y-98182168D01*
X126128199Y-98203199D01*
X126044875Y-98327903D01*
X126023000Y-98437875D01*
X126023000Y-98437878D01*
X126015616Y-98475000D01*
X126023000Y-98512122D01*
X126023001Y-103618840D01*
X126018841Y-103623000D01*
X125890200Y-103623000D01*
X125687317Y-103707037D01*
X125532037Y-103862317D01*
X125448000Y-104065200D01*
X120077275Y-104065200D01*
X120152000Y-103884800D01*
X120152000Y-103665200D01*
X120067963Y-103462317D01*
X119912683Y-103307037D01*
X119709800Y-103223000D01*
X119490200Y-103223000D01*
X119287317Y-103307037D01*
X119132037Y-103462317D01*
X119048000Y-103665200D01*
X111080846Y-103665200D01*
X110932683Y-103517037D01*
X110729800Y-103433000D01*
X110510200Y-103433000D01*
X110345136Y-103501372D01*
X110352000Y-103484800D01*
X110352000Y-103265200D01*
X110267963Y-103062317D01*
X110112683Y-102907037D01*
X109909800Y-102823000D01*
X109690200Y-102823000D01*
X109487317Y-102907037D01*
X109332037Y-103062317D01*
X109248000Y-103265200D01*
X109248000Y-103484800D01*
X109332037Y-103687683D01*
X109487317Y-103842963D01*
X109690200Y-103927000D01*
X109909800Y-103927000D01*
X110074864Y-103858628D01*
X110068000Y-103875200D01*
X110068000Y-104094800D01*
X110152037Y-104297683D01*
X110307317Y-104452963D01*
X110467079Y-104519139D01*
X110448000Y-104565200D01*
X110448000Y-104784800D01*
X110532037Y-104987683D01*
X110623000Y-105078646D01*
X110623001Y-108518841D01*
X109718842Y-109423000D01*
X109590200Y-109423000D01*
X109387317Y-109507037D01*
X109232037Y-109662317D01*
X109148000Y-109865200D01*
X103147323Y-109865200D01*
X103165745Y-109846036D01*
X103362504Y-109343136D01*
X103225014Y-109127000D01*
X102127000Y-109127000D01*
X101873000Y-109127000D01*
X101853000Y-109127000D01*
X101853000Y-108873000D01*
X101873000Y-108873000D01*
X101873000Y-107680344D01*
X102127000Y-107680344D01*
X102127000Y-108873000D01*
X103225014Y-108873000D01*
X103362504Y-108656864D01*
X103165745Y-108153964D01*
X102791512Y-107764641D01*
X102341185Y-107557682D01*
X102127000Y-107680344D01*
X101873000Y-107680344D01*
X101658815Y-107557682D01*
X101208488Y-107764641D01*
X100834255Y-108153964D01*
X100832765Y-108157773D01*
X100776473Y-108073527D01*
X100420223Y-107835489D01*
X100402000Y-107831864D01*
X100402000Y-105615200D01*
X103498000Y-105615200D01*
X103498000Y-105834800D01*
X103582037Y-106037683D01*
X103737317Y-106192963D01*
X103940200Y-106277000D01*
X104159800Y-106277000D01*
X104362683Y-106192963D01*
X104517963Y-106037683D01*
X104602000Y-105834800D01*
X104602000Y-105615200D01*
X104517963Y-105412317D01*
X104362683Y-105257037D01*
X104159800Y-105173000D01*
X103940200Y-105173000D01*
X103737317Y-105257037D01*
X103582037Y-105412317D01*
X103498000Y-105615200D01*
X100402000Y-105615200D01*
X100402000Y-103265200D01*
X106048000Y-103265200D01*
X106048000Y-103484800D01*
X106132037Y-103687683D01*
X106287317Y-103842963D01*
X106490200Y-103927000D01*
X106709800Y-103927000D01*
X106825012Y-103879278D01*
X106748000Y-104065200D01*
X106748000Y-104284800D01*
X106832037Y-104487683D01*
X106987317Y-104642963D01*
X107190200Y-104727000D01*
X107409800Y-104727000D01*
X107612683Y-104642963D01*
X107767963Y-104487683D01*
X107852000Y-104284800D01*
X107852000Y-104065200D01*
X107767963Y-103862317D01*
X107702000Y-103796354D01*
X107702000Y-102953646D01*
X107767963Y-102887683D01*
X107852000Y-102684800D01*
X107852000Y-102465200D01*
X107769158Y-102265200D01*
X111448000Y-102265200D01*
X111448000Y-102484800D01*
X111532037Y-102687683D01*
X111687317Y-102842963D01*
X111890200Y-102927000D01*
X112109800Y-102927000D01*
X112312683Y-102842963D01*
X112467963Y-102687683D01*
X112552000Y-102484800D01*
X112552000Y-102265200D01*
X112467963Y-102062317D01*
X112312683Y-101907037D01*
X112109800Y-101823000D01*
X111890200Y-101823000D01*
X111687317Y-101907037D01*
X111532037Y-102062317D01*
X111448000Y-102265200D01*
X107769158Y-102265200D01*
X107767963Y-102262317D01*
X107612683Y-102107037D01*
X107409800Y-102023000D01*
X107190200Y-102023000D01*
X106987317Y-102107037D01*
X106832037Y-102262317D01*
X106748000Y-102465200D01*
X106748000Y-102684800D01*
X106825012Y-102870722D01*
X106709800Y-102823000D01*
X106490200Y-102823000D01*
X106287317Y-102907037D01*
X106132037Y-103062317D01*
X106048000Y-103265200D01*
X100402000Y-103265200D01*
X100402000Y-102465200D01*
X103948000Y-102465200D01*
X103948000Y-102684800D01*
X104032037Y-102887683D01*
X104187317Y-103042963D01*
X104390200Y-103127000D01*
X104609800Y-103127000D01*
X104812683Y-103042963D01*
X104967963Y-102887683D01*
X105052000Y-102684800D01*
X105052000Y-102465200D01*
X104967963Y-102262317D01*
X104812683Y-102107037D01*
X104609800Y-102023000D01*
X104390200Y-102023000D01*
X104187317Y-102107037D01*
X104032037Y-102262317D01*
X103948000Y-102465200D01*
X100402000Y-102465200D01*
X100402000Y-101265200D01*
X112248000Y-101265200D01*
X112248000Y-101484800D01*
X112332037Y-101687683D01*
X112487317Y-101842963D01*
X112690200Y-101927000D01*
X112909800Y-101927000D01*
X113112683Y-101842963D01*
X113267963Y-101687683D01*
X113352000Y-101484800D01*
X113352000Y-101265200D01*
X113267963Y-101062317D01*
X113120846Y-100915200D01*
X115248000Y-100915200D01*
X115248000Y-101134800D01*
X115332037Y-101337683D01*
X115487317Y-101492963D01*
X115690200Y-101577000D01*
X115909800Y-101577000D01*
X116112683Y-101492963D01*
X116267963Y-101337683D01*
X116352000Y-101134800D01*
X116352000Y-100915200D01*
X116267963Y-100712317D01*
X116112683Y-100557037D01*
X115909800Y-100473000D01*
X115690200Y-100473000D01*
X115487317Y-100557037D01*
X115332037Y-100712317D01*
X115248000Y-100915200D01*
X113120846Y-100915200D01*
X113112683Y-100907037D01*
X112909800Y-100823000D01*
X112690200Y-100823000D01*
X112487317Y-100907037D01*
X112332037Y-101062317D01*
X112248000Y-101265200D01*
X100402000Y-101265200D01*
X100402000Y-99915200D01*
X100998000Y-99915200D01*
X100998000Y-100134800D01*
X101082037Y-100337683D01*
X101237317Y-100492963D01*
X101440200Y-100577000D01*
X101659800Y-100577000D01*
X101862683Y-100492963D01*
X102017963Y-100337683D01*
X102102000Y-100134800D01*
X102102000Y-99965200D01*
X111398000Y-99965200D01*
X111398000Y-100184800D01*
X111482037Y-100387683D01*
X111637317Y-100542963D01*
X111840200Y-100627000D01*
X112059800Y-100627000D01*
X112262683Y-100542963D01*
X112417963Y-100387683D01*
X112502000Y-100184800D01*
X112502000Y-99965200D01*
X112435344Y-99804278D01*
X112490200Y-99827000D01*
X112709800Y-99827000D01*
X112912683Y-99742963D01*
X113067963Y-99587683D01*
X113152000Y-99384800D01*
X113152000Y-99165200D01*
X113069158Y-98965200D01*
X118048000Y-98965200D01*
X118048000Y-99184800D01*
X118132037Y-99387683D01*
X118287317Y-99542963D01*
X118490200Y-99627000D01*
X118709800Y-99627000D01*
X118912683Y-99542963D01*
X119067963Y-99387683D01*
X119152000Y-99184800D01*
X119152000Y-98965200D01*
X119067963Y-98762317D01*
X118912683Y-98607037D01*
X118709800Y-98523000D01*
X118490200Y-98523000D01*
X118287317Y-98607037D01*
X118132037Y-98762317D01*
X118048000Y-98965200D01*
X113069158Y-98965200D01*
X113067963Y-98962317D01*
X112912683Y-98807037D01*
X112709800Y-98723000D01*
X112490200Y-98723000D01*
X112287317Y-98807037D01*
X112132037Y-98962317D01*
X112048000Y-99165200D01*
X112048000Y-99384800D01*
X112114656Y-99545722D01*
X112059800Y-99523000D01*
X111840200Y-99523000D01*
X111637317Y-99607037D01*
X111482037Y-99762317D01*
X111398000Y-99965200D01*
X102102000Y-99965200D01*
X102102000Y-99915200D01*
X102017963Y-99712317D01*
X101862683Y-99557037D01*
X101659800Y-99473000D01*
X101440200Y-99473000D01*
X101237317Y-99557037D01*
X101082037Y-99712317D01*
X100998000Y-99915200D01*
X100402000Y-99915200D01*
X100402000Y-95303931D01*
X127151691Y-95303931D01*
X127185158Y-95714318D01*
X127277820Y-95938023D01*
X127482650Y-95962745D01*
X128020395Y-95425000D01*
X128379605Y-95425000D01*
X128917350Y-95962745D01*
X129122180Y-95938023D01*
X129248309Y-95546069D01*
X129214842Y-95135682D01*
X129122180Y-94911977D01*
X128917350Y-94887255D01*
X128379605Y-95425000D01*
X128020395Y-95425000D01*
X127482650Y-94887255D01*
X127277820Y-94911977D01*
X127151691Y-95303931D01*
X100402000Y-95303931D01*
X100402000Y-94707650D01*
X127662255Y-94707650D01*
X128200000Y-95245395D01*
X128737745Y-94707650D01*
X128713023Y-94502820D01*
X128321069Y-94376691D01*
X127910682Y-94410158D01*
X127686977Y-94502820D01*
X127662255Y-94707650D01*
X100402000Y-94707650D01*
X100402000Y-93403646D01*
X100467963Y-93337683D01*
X100552000Y-93134800D01*
X100552000Y-93015200D01*
X110898000Y-93015200D01*
X110898000Y-93234800D01*
X110982037Y-93437683D01*
X111137317Y-93592963D01*
X111340200Y-93677000D01*
X111559800Y-93677000D01*
X111762683Y-93592963D01*
X111917963Y-93437683D01*
X112002000Y-93234800D01*
X112002000Y-93015200D01*
X111919158Y-92815200D01*
X121048000Y-92815200D01*
X121048000Y-93034800D01*
X121132037Y-93237683D01*
X121287317Y-93392963D01*
X121490200Y-93477000D01*
X121709800Y-93477000D01*
X121912683Y-93392963D01*
X122067963Y-93237683D01*
X122152000Y-93034800D01*
X122152000Y-92815200D01*
X122067963Y-92612317D01*
X121912683Y-92457037D01*
X121709800Y-92373000D01*
X121490200Y-92373000D01*
X121287317Y-92457037D01*
X121132037Y-92612317D01*
X121048000Y-92815200D01*
X111919158Y-92815200D01*
X111917963Y-92812317D01*
X111762683Y-92657037D01*
X111559800Y-92573000D01*
X111340200Y-92573000D01*
X111137317Y-92657037D01*
X110982037Y-92812317D01*
X110898000Y-93015200D01*
X100552000Y-93015200D01*
X100552000Y-92915200D01*
X100467963Y-92712317D01*
X100312683Y-92557037D01*
X100152731Y-92490783D01*
X100556264Y-92087250D01*
X100589825Y-92064825D01*
X100612249Y-92031265D01*
X100612251Y-92031263D01*
X100678674Y-91931853D01*
X100678675Y-91931852D01*
X100702000Y-91814590D01*
X100702000Y-91814586D01*
X100709874Y-91775001D01*
X100702000Y-91735416D01*
X100702000Y-90350341D01*
X100810039Y-90458380D01*
X101108483Y-90582000D01*
X101431517Y-90582000D01*
X101729961Y-90458380D01*
X101958380Y-90229961D01*
X102082000Y-89931517D01*
X102082000Y-89608483D01*
X102998000Y-89608483D01*
X102998000Y-89931517D01*
X103121620Y-90229961D01*
X103350039Y-90458380D01*
X103648483Y-90582000D01*
X103971517Y-90582000D01*
X104269961Y-90458380D01*
X104498380Y-90229961D01*
X104622000Y-89931517D01*
X104622000Y-89608483D01*
X105538000Y-89608483D01*
X105538000Y-89931517D01*
X105661620Y-90229961D01*
X105890039Y-90458380D01*
X106188483Y-90582000D01*
X106511517Y-90582000D01*
X106809961Y-90458380D01*
X107038380Y-90229961D01*
X107162000Y-89931517D01*
X107162000Y-89608483D01*
X108078000Y-89608483D01*
X108078000Y-89931517D01*
X108201620Y-90229961D01*
X108430039Y-90458380D01*
X108728483Y-90582000D01*
X109051517Y-90582000D01*
X109349961Y-90458380D01*
X109578380Y-90229961D01*
X109702000Y-89931517D01*
X109702000Y-89608483D01*
X110618000Y-89608483D01*
X110618000Y-89931517D01*
X110741620Y-90229961D01*
X110970039Y-90458380D01*
X111268483Y-90582000D01*
X111591517Y-90582000D01*
X111889961Y-90458380D01*
X112118380Y-90229961D01*
X112242000Y-89931517D01*
X112242000Y-89608483D01*
X112118380Y-89310039D01*
X111889961Y-89081620D01*
X111591517Y-88958000D01*
X111268483Y-88958000D01*
X110970039Y-89081620D01*
X110741620Y-89310039D01*
X110618000Y-89608483D01*
X109702000Y-89608483D01*
X109578380Y-89310039D01*
X109349961Y-89081620D01*
X109051517Y-88958000D01*
X108728483Y-88958000D01*
X108430039Y-89081620D01*
X108201620Y-89310039D01*
X108078000Y-89608483D01*
X107162000Y-89608483D01*
X107038380Y-89310039D01*
X106809961Y-89081620D01*
X106511517Y-88958000D01*
X106188483Y-88958000D01*
X105890039Y-89081620D01*
X105661620Y-89310039D01*
X105538000Y-89608483D01*
X104622000Y-89608483D01*
X104498380Y-89310039D01*
X104269961Y-89081620D01*
X103971517Y-88958000D01*
X103648483Y-88958000D01*
X103350039Y-89081620D01*
X103121620Y-89310039D01*
X102998000Y-89608483D01*
X102082000Y-89608483D01*
X101958380Y-89310039D01*
X101729961Y-89081620D01*
X101431517Y-88958000D01*
X101108483Y-88958000D01*
X100810039Y-89081620D01*
X100702000Y-89189659D01*
X100702000Y-87810341D01*
X100810039Y-87918380D01*
X101108483Y-88042000D01*
X101431517Y-88042000D01*
X101729961Y-87918380D01*
X101958380Y-87689961D01*
X102082000Y-87391517D01*
X102082000Y-87068483D01*
X102998000Y-87068483D01*
X102998000Y-87391517D01*
X103121620Y-87689961D01*
X103350039Y-87918380D01*
X103648483Y-88042000D01*
X103971517Y-88042000D01*
X104269961Y-87918380D01*
X104498380Y-87689961D01*
X104622000Y-87391517D01*
X104622000Y-87068483D01*
X105538000Y-87068483D01*
X105538000Y-87391517D01*
X105661620Y-87689961D01*
X105890039Y-87918380D01*
X106188483Y-88042000D01*
X106511517Y-88042000D01*
X106809961Y-87918380D01*
X107038380Y-87689961D01*
X107162000Y-87391517D01*
X107162000Y-87068483D01*
X108078000Y-87068483D01*
X108078000Y-87391517D01*
X108201620Y-87689961D01*
X108430039Y-87918380D01*
X108728483Y-88042000D01*
X109051517Y-88042000D01*
X109349961Y-87918380D01*
X109578380Y-87689961D01*
X109702000Y-87391517D01*
X109702000Y-87068483D01*
X110618000Y-87068483D01*
X110618000Y-87391517D01*
X110741620Y-87689961D01*
X110970039Y-87918380D01*
X111268483Y-88042000D01*
X111591517Y-88042000D01*
X111889961Y-87918380D01*
X112118380Y-87689961D01*
X112242000Y-87391517D01*
X112242000Y-87068483D01*
X113158000Y-87068483D01*
X113158000Y-87391517D01*
X113281620Y-87689961D01*
X113510039Y-87918380D01*
X113808483Y-88042000D01*
X114131517Y-88042000D01*
X114429961Y-87918380D01*
X114658380Y-87689961D01*
X114782000Y-87391517D01*
X114782000Y-87068483D01*
X114658380Y-86770039D01*
X114429961Y-86541620D01*
X114131517Y-86418000D01*
X113808483Y-86418000D01*
X113510039Y-86541620D01*
X113281620Y-86770039D01*
X113158000Y-87068483D01*
X112242000Y-87068483D01*
X112118380Y-86770039D01*
X111889961Y-86541620D01*
X111591517Y-86418000D01*
X111268483Y-86418000D01*
X110970039Y-86541620D01*
X110741620Y-86770039D01*
X110618000Y-87068483D01*
X109702000Y-87068483D01*
X109578380Y-86770039D01*
X109349961Y-86541620D01*
X109051517Y-86418000D01*
X108728483Y-86418000D01*
X108430039Y-86541620D01*
X108201620Y-86770039D01*
X108078000Y-87068483D01*
X107162000Y-87068483D01*
X107038380Y-86770039D01*
X106809961Y-86541620D01*
X106511517Y-86418000D01*
X106188483Y-86418000D01*
X105890039Y-86541620D01*
X105661620Y-86770039D01*
X105538000Y-87068483D01*
X104622000Y-87068483D01*
X104498380Y-86770039D01*
X104269961Y-86541620D01*
X103971517Y-86418000D01*
X103648483Y-86418000D01*
X103350039Y-86541620D01*
X103121620Y-86770039D01*
X102998000Y-87068483D01*
X102082000Y-87068483D01*
X101958380Y-86770039D01*
X101729961Y-86541620D01*
X101431517Y-86418000D01*
X101108483Y-86418000D01*
X100810039Y-86541620D01*
X100702000Y-86649659D01*
X100702000Y-81153646D01*
X100817963Y-81037683D01*
X100902000Y-80834800D01*
X100902000Y-80615200D01*
X100817963Y-80412317D01*
X100662683Y-80257037D01*
X100459800Y-80173000D01*
X100240200Y-80173000D01*
X100235344Y-80175011D01*
X100252000Y-80134800D01*
X100252000Y-79915200D01*
X100167963Y-79712317D01*
X100012683Y-79557037D01*
X99809800Y-79473000D01*
X99590200Y-79473000D01*
X99387317Y-79557037D01*
X99232037Y-79712317D01*
X99148000Y-79915200D01*
X99148000Y-80134800D01*
X99232037Y-80337683D01*
X99298000Y-80403646D01*
X99298001Y-86649660D01*
X99189961Y-86541620D01*
X98891517Y-86418000D01*
X98568483Y-86418000D01*
X98270039Y-86541620D01*
X98041620Y-86770039D01*
X97918000Y-87068483D01*
X97918000Y-87391517D01*
X98041620Y-87689961D01*
X98270039Y-87918380D01*
X98568483Y-88042000D01*
X98891517Y-88042000D01*
X99189961Y-87918380D01*
X99298001Y-87810340D01*
X99298001Y-89189660D01*
X99189961Y-89081620D01*
X98891517Y-88958000D01*
X98568483Y-88958000D01*
X98270039Y-89081620D01*
X98041620Y-89310039D01*
X97918000Y-89608483D01*
X97918000Y-89931517D01*
X98041620Y-90229961D01*
X98270039Y-90458380D01*
X98568483Y-90582000D01*
X98891517Y-90582000D01*
X99189961Y-90458380D01*
X99298001Y-90350340D01*
X99298001Y-91819563D01*
X98993738Y-92123827D01*
X98960175Y-92146253D01*
X98871325Y-92279227D01*
X98848000Y-92396489D01*
X98848000Y-92396493D01*
X98840126Y-92436078D01*
X98848000Y-92475663D01*
X98848001Y-95727107D01*
X98789800Y-95703000D01*
X98570200Y-95703000D01*
X98367317Y-95787037D01*
X98212037Y-95942317D01*
X98128000Y-96145200D01*
X98128000Y-96364800D01*
X98212037Y-96567683D01*
X98367317Y-96722963D01*
X98570200Y-96807000D01*
X98789800Y-96807000D01*
X98848001Y-96782892D01*
X98848001Y-98190288D01*
X98843738Y-98194551D01*
X98810175Y-98216977D01*
X98721325Y-98349951D01*
X98703179Y-98441175D01*
X98632037Y-98512317D01*
X98548000Y-98715200D01*
X98548000Y-98934800D01*
X98632037Y-99137683D01*
X98787317Y-99292963D01*
X98990200Y-99377000D01*
X98990524Y-99377000D01*
X98998000Y-99414586D01*
X98998000Y-99696354D01*
X98932037Y-99762317D01*
X98848000Y-99965200D01*
X98848000Y-100184800D01*
X98932037Y-100387683D01*
X99087317Y-100542963D01*
X99290200Y-100627000D01*
X99509800Y-100627000D01*
X99598001Y-100590466D01*
X99598000Y-107831864D01*
X99579776Y-107835489D01*
X99223527Y-108073527D01*
X99083406Y-108283233D01*
X99083406Y-108100000D01*
X99058027Y-107972411D01*
X98985754Y-107864246D01*
X98877589Y-107791973D01*
X98750000Y-107766594D01*
X97250000Y-107766594D01*
X97122411Y-107791973D01*
X97014246Y-107864246D01*
X96941973Y-107972411D01*
X96916594Y-108100000D01*
X93113873Y-108100000D01*
X92791512Y-107764641D01*
X92341185Y-107557682D01*
X92127000Y-107680344D01*
X91873000Y-107680344D01*
X91658815Y-107557682D01*
X91208488Y-107764641D01*
X90834255Y-108153964D01*
X90832765Y-108157773D01*
X90776473Y-108073527D01*
X90420223Y-107835489D01*
X90000000Y-107751901D01*
X89579776Y-107835489D01*
X89223527Y-108073527D01*
X89083406Y-108283233D01*
X89083406Y-108100000D01*
X89058027Y-107972411D01*
X88985754Y-107864246D01*
X88877589Y-107791973D01*
X88750000Y-107766594D01*
X87250000Y-107766594D01*
X87122411Y-107791973D01*
X87014246Y-107864246D01*
X86941973Y-107972411D01*
X86916594Y-108100000D01*
X85135010Y-108100000D01*
X85152000Y-108014590D01*
X85152000Y-108014585D01*
X85159874Y-107975000D01*
X85152000Y-107935415D01*
X85152000Y-97915200D01*
X85948000Y-97915200D01*
X85948000Y-98134800D01*
X86032037Y-98337683D01*
X86187317Y-98492963D01*
X86390200Y-98577000D01*
X86609800Y-98577000D01*
X86812683Y-98492963D01*
X86967963Y-98337683D01*
X87052000Y-98134800D01*
X87052000Y-97915200D01*
X86967963Y-97712317D01*
X86812683Y-97557037D01*
X86609800Y-97473000D01*
X86390200Y-97473000D01*
X86187317Y-97557037D01*
X86032037Y-97712317D01*
X85948000Y-97915200D01*
X85152000Y-97915200D01*
X85152000Y-96665200D01*
X85248000Y-96665200D01*
X85248000Y-96884800D01*
X85332037Y-97087683D01*
X85487317Y-97242963D01*
X85690200Y-97327000D01*
X85909800Y-97327000D01*
X86112683Y-97242963D01*
X86267963Y-97087683D01*
X86352000Y-96884800D01*
X86352000Y-96665200D01*
X86948000Y-96665200D01*
X86948000Y-96884800D01*
X87032037Y-97087683D01*
X87187317Y-97242963D01*
X87390200Y-97327000D01*
X87609800Y-97327000D01*
X87812683Y-97242963D01*
X87967963Y-97087683D01*
X88052000Y-96884800D01*
X88052000Y-96665200D01*
X87967963Y-96462317D01*
X87812683Y-96307037D01*
X87609800Y-96223000D01*
X87390200Y-96223000D01*
X87187317Y-96307037D01*
X87032037Y-96462317D01*
X86948000Y-96665200D01*
X86352000Y-96665200D01*
X86267963Y-96462317D01*
X86112683Y-96307037D01*
X85909800Y-96223000D01*
X85690200Y-96223000D01*
X85487317Y-96307037D01*
X85332037Y-96462317D01*
X85248000Y-96665200D01*
X85152000Y-96665200D01*
X85152000Y-87253646D01*
X85217963Y-87187683D01*
X85218000Y-87187594D01*
X85218000Y-87391517D01*
X85341620Y-87689961D01*
X85570039Y-87918380D01*
X85868483Y-88042000D01*
X86191517Y-88042000D01*
X86489961Y-87918380D01*
X86718380Y-87689961D01*
X86798000Y-87497741D01*
X86798000Y-89502259D01*
X86718380Y-89310039D01*
X86489961Y-89081620D01*
X86191517Y-88958000D01*
X85868483Y-88958000D01*
X85570039Y-89081620D01*
X85341620Y-89310039D01*
X85218000Y-89608483D01*
X85218000Y-89931517D01*
X85341620Y-90229961D01*
X85570039Y-90458380D01*
X85868483Y-90582000D01*
X86191517Y-90582000D01*
X86489961Y-90458380D01*
X86718380Y-90229961D01*
X86798000Y-90037741D01*
X86798000Y-92696354D01*
X86732037Y-92762317D01*
X86648000Y-92965200D01*
X86648000Y-93184800D01*
X86732037Y-93387683D01*
X86887317Y-93542963D01*
X87090200Y-93627000D01*
X87309800Y-93627000D01*
X87512683Y-93542963D01*
X87667963Y-93387683D01*
X87752000Y-93184800D01*
X87752000Y-92965200D01*
X87667963Y-92762317D01*
X87602000Y-92696354D01*
X87602000Y-89608483D01*
X87758000Y-89608483D01*
X87758000Y-89931517D01*
X87881620Y-90229961D01*
X88110039Y-90458380D01*
X88408483Y-90582000D01*
X88731517Y-90582000D01*
X89029961Y-90458380D01*
X89258380Y-90229961D01*
X89382000Y-89931517D01*
X89382000Y-89608483D01*
X89258380Y-89310039D01*
X89029961Y-89081620D01*
X88731517Y-88958000D01*
X88408483Y-88958000D01*
X88110039Y-89081620D01*
X87881620Y-89310039D01*
X87758000Y-89608483D01*
X87602000Y-89608483D01*
X87602000Y-87068483D01*
X87758000Y-87068483D01*
X87758000Y-87391517D01*
X87881620Y-87689961D01*
X88110039Y-87918380D01*
X88408483Y-88042000D01*
X88731517Y-88042000D01*
X89029961Y-87918380D01*
X89258380Y-87689961D01*
X89382000Y-87391517D01*
X89382000Y-87068483D01*
X89258380Y-86770039D01*
X89029961Y-86541620D01*
X88731517Y-86418000D01*
X88408483Y-86418000D01*
X88110039Y-86541620D01*
X87881620Y-86770039D01*
X87758000Y-87068483D01*
X87602000Y-87068483D01*
X87602000Y-79795645D01*
X88076043Y-79992000D01*
X88603957Y-79992000D01*
X89091685Y-79789976D01*
X89464976Y-79416685D01*
X89498000Y-79336957D01*
X89498000Y-92523000D01*
X89340200Y-92523000D01*
X89137317Y-92607037D01*
X88982037Y-92762317D01*
X88933981Y-92878335D01*
X88812683Y-92757037D01*
X88609800Y-92673000D01*
X88390200Y-92673000D01*
X88187317Y-92757037D01*
X88032037Y-92912317D01*
X87948000Y-93115200D01*
X87948000Y-93334800D01*
X88032037Y-93537683D01*
X88098001Y-93603647D01*
X88098000Y-102446354D01*
X88032037Y-102512317D01*
X87948000Y-102715200D01*
X87948000Y-102934800D01*
X88032037Y-103137683D01*
X88187317Y-103292963D01*
X88390200Y-103377000D01*
X88609800Y-103377000D01*
X88812683Y-103292963D01*
X88967963Y-103137683D01*
X89052000Y-102934800D01*
X89052000Y-102715200D01*
X88967963Y-102512317D01*
X88902000Y-102446354D01*
X88902000Y-101557646D01*
X88937317Y-101592963D01*
X89140200Y-101677000D01*
X89163823Y-101677000D01*
X89148000Y-101715200D01*
X89148000Y-101934800D01*
X89232037Y-102137683D01*
X89387317Y-102292963D01*
X89590200Y-102377000D01*
X89809800Y-102377000D01*
X90012683Y-102292963D01*
X90167963Y-102137683D01*
X90252000Y-101934800D01*
X90252000Y-101765200D01*
X92898000Y-101765200D01*
X92898000Y-101984800D01*
X92982037Y-102187683D01*
X93137317Y-102342963D01*
X93340200Y-102427000D01*
X93559800Y-102427000D01*
X93762683Y-102342963D01*
X93917963Y-102187683D01*
X94002000Y-101984800D01*
X94002000Y-101765200D01*
X93917963Y-101562317D01*
X93762683Y-101407037D01*
X93559800Y-101323000D01*
X93340200Y-101323000D01*
X93137317Y-101407037D01*
X92982037Y-101562317D01*
X92898000Y-101765200D01*
X90252000Y-101765200D01*
X90252000Y-101715200D01*
X90167963Y-101512317D01*
X90102000Y-101446354D01*
X90102000Y-101441513D01*
X90431266Y-101112248D01*
X90464826Y-101089824D01*
X90487250Y-101056264D01*
X90487252Y-101056262D01*
X90553675Y-100956852D01*
X90553676Y-100956851D01*
X90577001Y-100839589D01*
X90577001Y-100839584D01*
X90584875Y-100799999D01*
X90577001Y-100760414D01*
X90577001Y-100515200D01*
X92898000Y-100515200D01*
X92898000Y-100734800D01*
X92982037Y-100937683D01*
X93137317Y-101092963D01*
X93340200Y-101177000D01*
X93559800Y-101177000D01*
X93762683Y-101092963D01*
X93917963Y-100937683D01*
X94002000Y-100734800D01*
X94002000Y-100515200D01*
X93917963Y-100312317D01*
X93762683Y-100157037D01*
X93559800Y-100073000D01*
X93340200Y-100073000D01*
X93137317Y-100157037D01*
X92982037Y-100312317D01*
X92898000Y-100515200D01*
X90577001Y-100515200D01*
X90577001Y-99716511D01*
X90581261Y-99712251D01*
X90614826Y-99689824D01*
X90703676Y-99556851D01*
X90727001Y-99439589D01*
X90727001Y-99439585D01*
X90734875Y-99400000D01*
X90727001Y-99360415D01*
X90727001Y-99215200D01*
X92898000Y-99215200D01*
X92898000Y-99434800D01*
X92982037Y-99637683D01*
X93137317Y-99792963D01*
X93340200Y-99877000D01*
X93559800Y-99877000D01*
X93762683Y-99792963D01*
X93917963Y-99637683D01*
X94002000Y-99434800D01*
X94002000Y-99215200D01*
X93917963Y-99012317D01*
X93762683Y-98857037D01*
X93559800Y-98773000D01*
X93340200Y-98773000D01*
X93137317Y-98857037D01*
X92982037Y-99012317D01*
X92898000Y-99215200D01*
X90727001Y-99215200D01*
X90727001Y-97965200D01*
X92898000Y-97965200D01*
X92898000Y-98184800D01*
X92982037Y-98387683D01*
X93137317Y-98542963D01*
X93340200Y-98627000D01*
X93559800Y-98627000D01*
X93762683Y-98542963D01*
X93917963Y-98387683D01*
X94002000Y-98184800D01*
X94002000Y-97965200D01*
X93917963Y-97762317D01*
X93762683Y-97607037D01*
X93559800Y-97523000D01*
X93340200Y-97523000D01*
X93137317Y-97607037D01*
X92982037Y-97762317D01*
X92898000Y-97965200D01*
X90727001Y-97965200D01*
X90727001Y-92965200D01*
X95248000Y-92965200D01*
X95248000Y-93184800D01*
X95332037Y-93387683D01*
X95487317Y-93542963D01*
X95690200Y-93627000D01*
X95909800Y-93627000D01*
X96112683Y-93542963D01*
X96267963Y-93387683D01*
X96352000Y-93184800D01*
X96352000Y-92965200D01*
X96267963Y-92762317D01*
X96112683Y-92607037D01*
X95909800Y-92523000D01*
X95690200Y-92523000D01*
X95487317Y-92607037D01*
X95332037Y-92762317D01*
X95248000Y-92965200D01*
X90727001Y-92965200D01*
X90727001Y-90490259D01*
X90948483Y-90582000D01*
X91271517Y-90582000D01*
X91569961Y-90458380D01*
X91798380Y-90229961D01*
X91922000Y-89931517D01*
X91922000Y-89608483D01*
X91798380Y-89310039D01*
X91569961Y-89081620D01*
X91271517Y-88958000D01*
X90948483Y-88958000D01*
X90727001Y-89049741D01*
X90727001Y-87950259D01*
X90948483Y-88042000D01*
X91271517Y-88042000D01*
X91569961Y-87918380D01*
X91798380Y-87689961D01*
X91922000Y-87391517D01*
X91922000Y-87068483D01*
X91798380Y-86770039D01*
X91569961Y-86541620D01*
X91271517Y-86418000D01*
X90948483Y-86418000D01*
X90727001Y-86509741D01*
X90727001Y-64366512D01*
X91456262Y-63637251D01*
X91489825Y-63614825D01*
X91578675Y-63481852D01*
X91602000Y-63364590D01*
X91602000Y-63364586D01*
X91609874Y-63325001D01*
X91602000Y-63285416D01*
X91602000Y-61353646D01*
X91667963Y-61287683D01*
X91752000Y-61084800D01*
X91752000Y-60865200D01*
X91667963Y-60662317D01*
X91512683Y-60507037D01*
X91309800Y-60423000D01*
X91090200Y-60423000D01*
X90887317Y-60507037D01*
X90732037Y-60662317D01*
X90648000Y-60865200D01*
X90648000Y-61084800D01*
X90732037Y-61287683D01*
X90798001Y-61353647D01*
X90798000Y-63158487D01*
X90302000Y-63654487D01*
X90302000Y-63403646D01*
X90367963Y-63337683D01*
X90452000Y-63134800D01*
X90452000Y-62915200D01*
X90367963Y-62712317D01*
X90212683Y-62557037D01*
X90009800Y-62473000D01*
X89790200Y-62473000D01*
X89587317Y-62557037D01*
X89432037Y-62712317D01*
X89348000Y-62915200D01*
X89348000Y-63134800D01*
X89432037Y-63337683D01*
X89498001Y-63403647D01*
X89498001Y-77993043D01*
X89464976Y-77913315D01*
X89091685Y-77540024D01*
X88603957Y-77338000D01*
X88076043Y-77338000D01*
X87588315Y-77540024D01*
X87452000Y-77676339D01*
X87452000Y-58803646D01*
X87517963Y-58737683D01*
X87602000Y-58534800D01*
X87602000Y-58315200D01*
X87517963Y-58112317D01*
X87362683Y-57957037D01*
X87159800Y-57873000D01*
X86940200Y-57873000D01*
X86737317Y-57957037D01*
X86582037Y-58112317D01*
X86498000Y-58315200D01*
X86498000Y-58534800D01*
X86582037Y-58737683D01*
X86648001Y-58803647D01*
X86648000Y-79111417D01*
X86640126Y-79151002D01*
X86648000Y-79190587D01*
X86648000Y-79190591D01*
X86671325Y-79307853D01*
X86760175Y-79440827D01*
X86793738Y-79463253D01*
X86798001Y-79467516D01*
X86798000Y-86962259D01*
X86718380Y-86770039D01*
X86489961Y-86541620D01*
X86191517Y-86418000D01*
X85868483Y-86418000D01*
X85570039Y-86541620D01*
X85341620Y-86770039D01*
X85302000Y-86865690D01*
X85302000Y-86765200D01*
X85217963Y-86562317D01*
X85062683Y-86407037D01*
X84859800Y-86323000D01*
X84640200Y-86323000D01*
X84437317Y-86407037D01*
X84282037Y-86562317D01*
X84198000Y-86765200D01*
X84198000Y-86817406D01*
X84178380Y-86770039D01*
X83949961Y-86541620D01*
X83651517Y-86418000D01*
X83328483Y-86418000D01*
X83030039Y-86541620D01*
X82801620Y-86770039D01*
X82771746Y-86842161D01*
X82717963Y-86712317D01*
X82562683Y-86557037D01*
X82359800Y-86473000D01*
X82140200Y-86473000D01*
X81937317Y-86557037D01*
X81782037Y-86712317D01*
X81698254Y-86914587D01*
X81638380Y-86770039D01*
X81409961Y-86541620D01*
X81111517Y-86418000D01*
X80788483Y-86418000D01*
X80490039Y-86541620D01*
X80261620Y-86770039D01*
X80138000Y-87068483D01*
X80138000Y-87391517D01*
X80261620Y-87689961D01*
X80490039Y-87918380D01*
X80788483Y-88042000D01*
X81111517Y-88042000D01*
X81409961Y-87918380D01*
X81638380Y-87689961D01*
X81762000Y-87391517D01*
X81762000Y-87289309D01*
X81782037Y-87337683D01*
X81848000Y-87403646D01*
X81848001Y-95458486D01*
X81443738Y-95862749D01*
X81410175Y-95885175D01*
X81321325Y-96018149D01*
X81298000Y-96135411D01*
X81298000Y-96135415D01*
X81290126Y-96175000D01*
X81298000Y-96214585D01*
X81298001Y-106708486D01*
X80833487Y-107173000D01*
X80239585Y-107173000D01*
X80200000Y-107165126D01*
X80160415Y-107173000D01*
X80160410Y-107173000D01*
X80043148Y-107196325D01*
X79910175Y-107285175D01*
X79887749Y-107318738D01*
X79743738Y-107462749D01*
X79710175Y-107485175D01*
X79621325Y-107618149D01*
X79598000Y-107735411D01*
X79598000Y-107735415D01*
X79590126Y-107775000D01*
X79598000Y-107814585D01*
X79598000Y-107831864D01*
X79579776Y-107835489D01*
X79382387Y-107967380D01*
X79288327Y-107740301D01*
X79109698Y-107561673D01*
X78876309Y-107465000D01*
X78285750Y-107465000D01*
X78127000Y-107623750D01*
X77873000Y-107623750D01*
X77714250Y-107465000D01*
X77123691Y-107465000D01*
X76890302Y-107561673D01*
X76711673Y-107740301D01*
X76615000Y-107973690D01*
X67902000Y-107973690D01*
X67902000Y-106165200D01*
X67998000Y-106165200D01*
X67998000Y-106384800D01*
X68082037Y-106587683D01*
X68237317Y-106742963D01*
X68440200Y-106827000D01*
X68659800Y-106827000D01*
X68862683Y-106742963D01*
X69017963Y-106587683D01*
X69102000Y-106384800D01*
X69102000Y-106165200D01*
X69017963Y-105962317D01*
X68862683Y-105807037D01*
X68659800Y-105723000D01*
X68440200Y-105723000D01*
X68237317Y-105807037D01*
X68082037Y-105962317D01*
X67998000Y-106165200D01*
X67902000Y-106165200D01*
X67902000Y-100915200D01*
X68048000Y-100915200D01*
X68048000Y-101134800D01*
X68132037Y-101337683D01*
X68287317Y-101492963D01*
X68490200Y-101577000D01*
X68709800Y-101577000D01*
X68912683Y-101492963D01*
X69067963Y-101337683D01*
X69152000Y-101134800D01*
X69152000Y-100915200D01*
X69067963Y-100712317D01*
X68912683Y-100557037D01*
X68709800Y-100473000D01*
X68490200Y-100473000D01*
X68287317Y-100557037D01*
X68132037Y-100712317D01*
X68048000Y-100915200D01*
X67902000Y-100915200D01*
X67902000Y-99115200D01*
X69298000Y-99115200D01*
X69298000Y-99334800D01*
X69382037Y-99537683D01*
X69537317Y-99692963D01*
X69740200Y-99777000D01*
X69959800Y-99777000D01*
X70162683Y-99692963D01*
X70317963Y-99537683D01*
X70402000Y-99334800D01*
X70402000Y-99115200D01*
X70317963Y-98912317D01*
X70162683Y-98757037D01*
X69959800Y-98673000D01*
X69740200Y-98673000D01*
X69537317Y-98757037D01*
X69382037Y-98912317D01*
X69298000Y-99115200D01*
X67902000Y-99115200D01*
X67902000Y-92715200D01*
X75348000Y-92715200D01*
X75348000Y-92934800D01*
X75432037Y-93137683D01*
X75587317Y-93292963D01*
X75790200Y-93377000D01*
X76009800Y-93377000D01*
X76212683Y-93292963D01*
X76367963Y-93137683D01*
X76377275Y-93115200D01*
X77848000Y-93115200D01*
X77848000Y-93334800D01*
X77932037Y-93537683D01*
X78087317Y-93692963D01*
X78290200Y-93777000D01*
X78509800Y-93777000D01*
X78712683Y-93692963D01*
X78867963Y-93537683D01*
X78952000Y-93334800D01*
X78952000Y-93115200D01*
X78867963Y-92912317D01*
X78770846Y-92815200D01*
X80398000Y-92815200D01*
X80398000Y-93034800D01*
X80482037Y-93237683D01*
X80637317Y-93392963D01*
X80840200Y-93477000D01*
X81059800Y-93477000D01*
X81262683Y-93392963D01*
X81417963Y-93237683D01*
X81502000Y-93034800D01*
X81502000Y-92815200D01*
X81417963Y-92612317D01*
X81262683Y-92457037D01*
X81059800Y-92373000D01*
X80840200Y-92373000D01*
X80637317Y-92457037D01*
X80482037Y-92612317D01*
X80398000Y-92815200D01*
X78770846Y-92815200D01*
X78712683Y-92757037D01*
X78509800Y-92673000D01*
X78290200Y-92673000D01*
X78087317Y-92757037D01*
X77932037Y-92912317D01*
X77848000Y-93115200D01*
X76377275Y-93115200D01*
X76452000Y-92934800D01*
X76452000Y-92715200D01*
X76367963Y-92512317D01*
X76212683Y-92357037D01*
X76009800Y-92273000D01*
X75790200Y-92273000D01*
X75587317Y-92357037D01*
X75432037Y-92512317D01*
X75348000Y-92715200D01*
X67902000Y-92715200D01*
X67902000Y-89453324D01*
X68264281Y-90327949D01*
X69172051Y-91235719D01*
X70358110Y-91727000D01*
X71641890Y-91727000D01*
X72827949Y-91235719D01*
X73735719Y-90327949D01*
X74098001Y-89453324D01*
X74098001Y-91246353D01*
X74032037Y-91312317D01*
X73948000Y-91515200D01*
X73948000Y-91734800D01*
X74032037Y-91937683D01*
X74187317Y-92092963D01*
X74390200Y-92177000D01*
X74609800Y-92177000D01*
X74812683Y-92092963D01*
X74967963Y-91937683D01*
X75052000Y-91734800D01*
X75052000Y-91515200D01*
X74967963Y-91312317D01*
X74902000Y-91246354D01*
X74902000Y-87068483D01*
X75058000Y-87068483D01*
X75058000Y-87391517D01*
X75181620Y-87689961D01*
X75410039Y-87918380D01*
X75708483Y-88042000D01*
X76012439Y-88042000D01*
X75923000Y-88257924D01*
X75923000Y-88742076D01*
X76012439Y-88958000D01*
X75708483Y-88958000D01*
X75410039Y-89081620D01*
X75181620Y-89310039D01*
X75058000Y-89608483D01*
X75058000Y-89931517D01*
X75181620Y-90229961D01*
X75410039Y-90458380D01*
X75708483Y-90582000D01*
X76031517Y-90582000D01*
X76329961Y-90458380D01*
X76558380Y-90229961D01*
X76682000Y-89931517D01*
X76682000Y-89627561D01*
X76897924Y-89717000D01*
X77382076Y-89717000D01*
X77598000Y-89627561D01*
X77598000Y-89931517D01*
X77721620Y-90229961D01*
X77950039Y-90458380D01*
X78248483Y-90582000D01*
X78571517Y-90582000D01*
X78869961Y-90458380D01*
X79098380Y-90229961D01*
X79222000Y-89931517D01*
X79222000Y-89608483D01*
X80138000Y-89608483D01*
X80138000Y-89931517D01*
X80261620Y-90229961D01*
X80490039Y-90458380D01*
X80788483Y-90582000D01*
X81111517Y-90582000D01*
X81409961Y-90458380D01*
X81638380Y-90229961D01*
X81762000Y-89931517D01*
X81762000Y-89608483D01*
X81638380Y-89310039D01*
X81409961Y-89081620D01*
X81111517Y-88958000D01*
X80788483Y-88958000D01*
X80490039Y-89081620D01*
X80261620Y-89310039D01*
X80138000Y-89608483D01*
X79222000Y-89608483D01*
X79098380Y-89310039D01*
X78869961Y-89081620D01*
X78571517Y-88958000D01*
X78267561Y-88958000D01*
X78357000Y-88742076D01*
X78357000Y-88257924D01*
X78267561Y-88042000D01*
X78571517Y-88042000D01*
X78869961Y-87918380D01*
X79098380Y-87689961D01*
X79222000Y-87391517D01*
X79222000Y-87068483D01*
X79098380Y-86770039D01*
X78869961Y-86541620D01*
X78571517Y-86418000D01*
X78248483Y-86418000D01*
X77950039Y-86541620D01*
X77721620Y-86770039D01*
X77598000Y-87068483D01*
X77598000Y-87372439D01*
X77382076Y-87283000D01*
X76897924Y-87283000D01*
X76682000Y-87372439D01*
X76682000Y-87068483D01*
X76558380Y-86770039D01*
X76329961Y-86541620D01*
X76031517Y-86418000D01*
X75708483Y-86418000D01*
X75410039Y-86541620D01*
X75181620Y-86770039D01*
X75058000Y-87068483D01*
X74902000Y-87068483D01*
X74902000Y-86414584D01*
X74909874Y-86374999D01*
X74902000Y-86335414D01*
X74902000Y-86335410D01*
X74878675Y-86218148D01*
X74852720Y-86179303D01*
X74812251Y-86118737D01*
X74812249Y-86118735D01*
X74789825Y-86085175D01*
X74756265Y-86062751D01*
X73262250Y-84568737D01*
X73239825Y-84535175D01*
X73106852Y-84446325D01*
X72989590Y-84423000D01*
X72989585Y-84423000D01*
X72950000Y-84415126D01*
X72910415Y-84423000D01*
X69466514Y-84423000D01*
X68308714Y-83265200D01*
X74498000Y-83265200D01*
X74498000Y-83484800D01*
X74582037Y-83687683D01*
X74737317Y-83842963D01*
X74940200Y-83927000D01*
X75159800Y-83927000D01*
X75362683Y-83842963D01*
X75365446Y-83840200D01*
X77858000Y-83840200D01*
X77858000Y-84059800D01*
X77942037Y-84262683D01*
X78097317Y-84417963D01*
X78300200Y-84502000D01*
X78519800Y-84502000D01*
X78722683Y-84417963D01*
X78877963Y-84262683D01*
X78962000Y-84059800D01*
X78962000Y-83840200D01*
X78877963Y-83637317D01*
X78722683Y-83482037D01*
X78519800Y-83398000D01*
X78300200Y-83398000D01*
X78097317Y-83482037D01*
X77942037Y-83637317D01*
X77858000Y-83840200D01*
X75365446Y-83840200D01*
X75517963Y-83687683D01*
X75602000Y-83484800D01*
X75602000Y-83265200D01*
X75517963Y-83062317D01*
X75362683Y-82907037D01*
X75159800Y-82823000D01*
X74940200Y-82823000D01*
X74737317Y-82907037D01*
X74582037Y-83062317D01*
X74498000Y-83265200D01*
X68308714Y-83265200D01*
X68302000Y-83258487D01*
X68302000Y-79427584D01*
X68315325Y-79459753D01*
X69040247Y-80184675D01*
X69987403Y-80577000D01*
X71012597Y-80577000D01*
X71959753Y-80184675D01*
X72684675Y-79459753D01*
X73077000Y-78512597D01*
X73077000Y-78401043D01*
X81933000Y-78401043D01*
X81933000Y-78928957D01*
X82135024Y-79416685D01*
X82508315Y-79789976D01*
X82996043Y-79992000D01*
X83523957Y-79992000D01*
X84011685Y-79789976D01*
X84384976Y-79416685D01*
X84587000Y-78928957D01*
X84587000Y-78401043D01*
X84384976Y-77913315D01*
X84011685Y-77540024D01*
X83523957Y-77338000D01*
X82996043Y-77338000D01*
X82508315Y-77540024D01*
X82135024Y-77913315D01*
X81933000Y-78401043D01*
X73077000Y-78401043D01*
X73077000Y-77487403D01*
X72684675Y-76540247D01*
X72076322Y-75931894D01*
X72716187Y-76182723D01*
X73565387Y-76166497D01*
X74274582Y-75872739D01*
X74434365Y-75553970D01*
X74316982Y-75436587D01*
X75173000Y-75436587D01*
X75173000Y-76163413D01*
X75451144Y-76834912D01*
X75965088Y-77348856D01*
X76636587Y-77627000D01*
X77363413Y-77627000D01*
X78034912Y-77348856D01*
X78548856Y-76834912D01*
X78827000Y-76163413D01*
X78827000Y-75436587D01*
X78548856Y-74765088D01*
X78034912Y-74251144D01*
X77363413Y-73973000D01*
X76636587Y-73973000D01*
X75965088Y-74251144D01*
X75451144Y-74765088D01*
X75173000Y-75436587D01*
X74316982Y-75436587D01*
X73100000Y-74219605D01*
X71765635Y-75553970D01*
X71880102Y-75782332D01*
X71012597Y-75423000D01*
X69987403Y-75423000D01*
X69040247Y-75815325D01*
X68315325Y-76540247D01*
X68302000Y-76572416D01*
X68302000Y-73656187D01*
X70957277Y-73656187D01*
X70973503Y-74505387D01*
X71267261Y-75214582D01*
X71586030Y-75374365D01*
X72920395Y-74040000D01*
X73279605Y-74040000D01*
X74613970Y-75374365D01*
X74932739Y-75214582D01*
X75242723Y-74423813D01*
X75226497Y-73574613D01*
X74932739Y-72865418D01*
X74613970Y-72705635D01*
X73279605Y-74040000D01*
X72920395Y-74040000D01*
X71586030Y-72705635D01*
X71267261Y-72865418D01*
X70957277Y-73656187D01*
X68302000Y-73656187D01*
X68302000Y-72526030D01*
X71765635Y-72526030D01*
X73100000Y-73860395D01*
X74434365Y-72526030D01*
X74274582Y-72207261D01*
X73483813Y-71897277D01*
X72634613Y-71913503D01*
X71925418Y-72207261D01*
X71765635Y-72526030D01*
X68302000Y-72526030D01*
X68302000Y-66427584D01*
X68315325Y-66459753D01*
X69040247Y-67184675D01*
X69987403Y-67577000D01*
X71012597Y-67577000D01*
X71266594Y-67471791D01*
X71266594Y-70460000D01*
X71291973Y-70587589D01*
X71364246Y-70695754D01*
X71472411Y-70768027D01*
X71600000Y-70793406D01*
X74600000Y-70793406D01*
X74727589Y-70768027D01*
X74835754Y-70695754D01*
X74908027Y-70587589D01*
X74933406Y-70460000D01*
X74933406Y-67460000D01*
X74908027Y-67332411D01*
X74835754Y-67224246D01*
X74727589Y-67151973D01*
X74600000Y-67126594D01*
X72017834Y-67126594D01*
X72307841Y-66836587D01*
X75173000Y-66836587D01*
X75173000Y-67563413D01*
X75451144Y-68234912D01*
X75965088Y-68748856D01*
X76636587Y-69027000D01*
X77363413Y-69027000D01*
X78034912Y-68748856D01*
X78548856Y-68234912D01*
X78827000Y-67563413D01*
X78827000Y-66836587D01*
X78548856Y-66165088D01*
X78034912Y-65651144D01*
X77363413Y-65373000D01*
X76636587Y-65373000D01*
X75965088Y-65651144D01*
X75451144Y-66165088D01*
X75173000Y-66836587D01*
X72307841Y-66836587D01*
X72684675Y-66459753D01*
X73077000Y-65512597D01*
X73077000Y-64487403D01*
X72684675Y-63540247D01*
X71959753Y-62815325D01*
X71012597Y-62423000D01*
X69987403Y-62423000D01*
X69040247Y-62815325D01*
X68315325Y-63540247D01*
X68302000Y-63572416D01*
X68302000Y-61941513D01*
X69716514Y-60527000D01*
X71709413Y-60527000D01*
X71748998Y-60534874D01*
X71788583Y-60527000D01*
X71788588Y-60527000D01*
X71905850Y-60503675D01*
X72038823Y-60414825D01*
X72061249Y-60381262D01*
X74706264Y-57736247D01*
X74739825Y-57713823D01*
X74762249Y-57680263D01*
X74762251Y-57680261D01*
X74828675Y-57580851D01*
X74838539Y-57531262D01*
X74852000Y-57463588D01*
X74852000Y-57463585D01*
X74859874Y-57423998D01*
X74852000Y-57384412D01*
X74852000Y-56965200D01*
X91798000Y-56965200D01*
X91798000Y-57184800D01*
X91882037Y-57387683D01*
X91948001Y-57453647D01*
X91948000Y-90496354D01*
X91882037Y-90562317D01*
X91798000Y-90765200D01*
X91798000Y-90984800D01*
X91882037Y-91187683D01*
X92037317Y-91342963D01*
X92240200Y-91427000D01*
X92459800Y-91427000D01*
X92662683Y-91342963D01*
X92817963Y-91187683D01*
X92902000Y-90984800D01*
X92902000Y-90765200D01*
X92817963Y-90562317D01*
X92752000Y-90496354D01*
X92752000Y-89608483D01*
X92838000Y-89608483D01*
X92838000Y-89931517D01*
X92961620Y-90229961D01*
X93190039Y-90458380D01*
X93488483Y-90582000D01*
X93811517Y-90582000D01*
X94109961Y-90458380D01*
X94338380Y-90229961D01*
X94462000Y-89931517D01*
X94462000Y-89608483D01*
X95378000Y-89608483D01*
X95378000Y-89931517D01*
X95501620Y-90229961D01*
X95730039Y-90458380D01*
X96028483Y-90582000D01*
X96351517Y-90582000D01*
X96649961Y-90458380D01*
X96878380Y-90229961D01*
X97002000Y-89931517D01*
X97002000Y-89608483D01*
X96878380Y-89310039D01*
X96649961Y-89081620D01*
X96351517Y-88958000D01*
X96028483Y-88958000D01*
X95730039Y-89081620D01*
X95501620Y-89310039D01*
X95378000Y-89608483D01*
X94462000Y-89608483D01*
X94338380Y-89310039D01*
X94109961Y-89081620D01*
X93811517Y-88958000D01*
X93488483Y-88958000D01*
X93190039Y-89081620D01*
X92961620Y-89310039D01*
X92838000Y-89608483D01*
X92752000Y-89608483D01*
X92752000Y-87068483D01*
X92838000Y-87068483D01*
X92838000Y-87391517D01*
X92961620Y-87689961D01*
X93190039Y-87918380D01*
X93488483Y-88042000D01*
X93811517Y-88042000D01*
X94109961Y-87918380D01*
X94338380Y-87689961D01*
X94462000Y-87391517D01*
X94462000Y-87068483D01*
X95378000Y-87068483D01*
X95378000Y-87391517D01*
X95501620Y-87689961D01*
X95730039Y-87918380D01*
X96028483Y-88042000D01*
X96351517Y-88042000D01*
X96649961Y-87918380D01*
X96878380Y-87689961D01*
X97002000Y-87391517D01*
X97002000Y-87068483D01*
X96878380Y-86770039D01*
X96649961Y-86541620D01*
X96351517Y-86418000D01*
X96028483Y-86418000D01*
X95730039Y-86541620D01*
X95501620Y-86770039D01*
X95378000Y-87068483D01*
X94462000Y-87068483D01*
X94338380Y-86770039D01*
X94109961Y-86541620D01*
X93811517Y-86418000D01*
X93488483Y-86418000D01*
X93190039Y-86541620D01*
X92961620Y-86770039D01*
X92838000Y-87068483D01*
X92752000Y-87068483D01*
X92752000Y-76765200D01*
X99498000Y-76765200D01*
X99498000Y-76984800D01*
X99582037Y-77187683D01*
X99737317Y-77342963D01*
X99940200Y-77427000D01*
X100159800Y-77427000D01*
X100362683Y-77342963D01*
X100517963Y-77187683D01*
X100602000Y-76984800D01*
X100602000Y-76765200D01*
X100581290Y-76715200D01*
X102398000Y-76715200D01*
X102398000Y-76934800D01*
X102482037Y-77137683D01*
X102637317Y-77292963D01*
X102840200Y-77377000D01*
X103059800Y-77377000D01*
X103262683Y-77292963D01*
X103417963Y-77137683D01*
X103502000Y-76934800D01*
X103502000Y-76715200D01*
X103417963Y-76512317D01*
X103262683Y-76357037D01*
X103059800Y-76273000D01*
X102840200Y-76273000D01*
X102637317Y-76357037D01*
X102482037Y-76512317D01*
X102398000Y-76715200D01*
X100581290Y-76715200D01*
X100517963Y-76562317D01*
X100362683Y-76407037D01*
X100159800Y-76323000D01*
X99940200Y-76323000D01*
X99737317Y-76407037D01*
X99582037Y-76562317D01*
X99498000Y-76765200D01*
X92752000Y-76765200D01*
X92752000Y-57453646D01*
X92790446Y-57415200D01*
X95798000Y-57415200D01*
X95798000Y-57634800D01*
X95882037Y-57837683D01*
X96037317Y-57992963D01*
X96240200Y-58077000D01*
X96459800Y-58077000D01*
X96662683Y-57992963D01*
X96817963Y-57837683D01*
X96902000Y-57634800D01*
X96902000Y-57415200D01*
X98048000Y-57415200D01*
X98048000Y-57634800D01*
X98132037Y-57837683D01*
X98287317Y-57992963D01*
X98490200Y-58077000D01*
X98709800Y-58077000D01*
X98912683Y-57992963D01*
X99067963Y-57837683D01*
X99152000Y-57634800D01*
X99152000Y-57415200D01*
X99067963Y-57212317D01*
X98912683Y-57057037D01*
X98709800Y-56973000D01*
X98490200Y-56973000D01*
X98287317Y-57057037D01*
X98132037Y-57212317D01*
X98048000Y-57415200D01*
X96902000Y-57415200D01*
X96817963Y-57212317D01*
X96662683Y-57057037D01*
X96459800Y-56973000D01*
X96240200Y-56973000D01*
X96037317Y-57057037D01*
X95882037Y-57212317D01*
X95798000Y-57415200D01*
X92790446Y-57415200D01*
X92817963Y-57387683D01*
X92902000Y-57184800D01*
X92902000Y-56965200D01*
X92819158Y-56765200D01*
X103498000Y-56765200D01*
X103498000Y-56984800D01*
X103582037Y-57187683D01*
X103737317Y-57342963D01*
X103940200Y-57427000D01*
X104159800Y-57427000D01*
X104362683Y-57342963D01*
X104517963Y-57187683D01*
X104602000Y-56984800D01*
X104602000Y-56765200D01*
X104517963Y-56562317D01*
X104362683Y-56407037D01*
X104159800Y-56323000D01*
X103940200Y-56323000D01*
X103737317Y-56407037D01*
X103582037Y-56562317D01*
X103498000Y-56765200D01*
X92819158Y-56765200D01*
X92817963Y-56762317D01*
X92662683Y-56607037D01*
X92459800Y-56523000D01*
X92240200Y-56523000D01*
X92037317Y-56607037D01*
X91882037Y-56762317D01*
X91798000Y-56965200D01*
X74852000Y-56965200D01*
X74852000Y-54815200D01*
X80598000Y-54815200D01*
X80598000Y-55034800D01*
X80682037Y-55237683D01*
X80837317Y-55392963D01*
X81040200Y-55477000D01*
X81259800Y-55477000D01*
X81462683Y-55392963D01*
X81617963Y-55237683D01*
X81702000Y-55034800D01*
X81702000Y-54815200D01*
X81619158Y-54615200D01*
X104798000Y-54615200D01*
X104798000Y-54834800D01*
X104882037Y-55037683D01*
X104948001Y-55103647D01*
X104948000Y-58596354D01*
X104882037Y-58662317D01*
X104798000Y-58865200D01*
X104798000Y-59084800D01*
X104882037Y-59287683D01*
X105037317Y-59442963D01*
X105240200Y-59527000D01*
X105459800Y-59527000D01*
X105662683Y-59442963D01*
X105817963Y-59287683D01*
X105902000Y-59084800D01*
X105902000Y-58865200D01*
X105817963Y-58662317D01*
X105752000Y-58596354D01*
X105752000Y-55103646D01*
X105817963Y-55037683D01*
X105902000Y-54834800D01*
X105902000Y-54615200D01*
X105817963Y-54412317D01*
X105662683Y-54257037D01*
X105459800Y-54173000D01*
X105240200Y-54173000D01*
X105037317Y-54257037D01*
X104882037Y-54412317D01*
X104798000Y-54615200D01*
X81619158Y-54615200D01*
X81617963Y-54612317D01*
X81462683Y-54457037D01*
X81259800Y-54373000D01*
X81040200Y-54373000D01*
X80837317Y-54457037D01*
X80682037Y-54612317D01*
X80598000Y-54815200D01*
X74852000Y-54815200D01*
X74852000Y-51941513D01*
X74991515Y-51801999D01*
X86742355Y-51801999D01*
X86682037Y-51862317D01*
X86598000Y-52065200D01*
X86598000Y-52284800D01*
X86682037Y-52487683D01*
X86837317Y-52642963D01*
X87040200Y-52727000D01*
X87259800Y-52727000D01*
X87462683Y-52642963D01*
X87617963Y-52487683D01*
X87702000Y-52284800D01*
X87702000Y-52207646D01*
X87787317Y-52292963D01*
X87990200Y-52377000D01*
X88209800Y-52377000D01*
X88412683Y-52292963D01*
X88428646Y-52277000D01*
X101162776Y-52277000D01*
X101448000Y-52562225D01*
X101448000Y-52584800D01*
X101532037Y-52787683D01*
X101687317Y-52942963D01*
X101890200Y-53027000D01*
X102109800Y-53027000D01*
X102312683Y-52942963D01*
X102467963Y-52787683D01*
X102552000Y-52584800D01*
X102552000Y-52365200D01*
X102467963Y-52162317D01*
X102312683Y-52007037D01*
X102109800Y-51923000D01*
X102087225Y-51923000D01*
X101966223Y-51801999D01*
X104992355Y-51801999D01*
X104982037Y-51812317D01*
X104898000Y-52015200D01*
X104898000Y-52234800D01*
X104982037Y-52437683D01*
X105130673Y-52586319D01*
X105098000Y-52665200D01*
X105098000Y-52884800D01*
X105182037Y-53087683D01*
X105337317Y-53242963D01*
X105540200Y-53327000D01*
X105759800Y-53327000D01*
X105807326Y-53307314D01*
X105882037Y-53487683D01*
X106037317Y-53642963D01*
X106240200Y-53727000D01*
X106459800Y-53727000D01*
X106662683Y-53642963D01*
X106750000Y-53555646D01*
X106887317Y-53692963D01*
X107090200Y-53777000D01*
X107309800Y-53777000D01*
X107435359Y-53724992D01*
X107445318Y-53749036D01*
X107382037Y-53812317D01*
X107298000Y-54015200D01*
X107298000Y-54108487D01*
X107093736Y-54312751D01*
X107060176Y-54335175D01*
X107037752Y-54368735D01*
X107037749Y-54368738D01*
X106971326Y-54468148D01*
X106940126Y-54625000D01*
X106948001Y-54664590D01*
X106948000Y-56135587D01*
X106948001Y-56135592D01*
X106948001Y-57530245D01*
X106809800Y-57473000D01*
X106590200Y-57473000D01*
X106387317Y-57557037D01*
X106232037Y-57712317D01*
X106148000Y-57915200D01*
X106148000Y-58134800D01*
X106232037Y-58337683D01*
X106387317Y-58492963D01*
X106590200Y-58577000D01*
X106809800Y-58577000D01*
X106948001Y-58519755D01*
X106948000Y-63396354D01*
X106882037Y-63462317D01*
X106798000Y-63665200D01*
X106798000Y-63884800D01*
X106882037Y-64087683D01*
X107037317Y-64242963D01*
X107240200Y-64327000D01*
X107459800Y-64327000D01*
X107662683Y-64242963D01*
X107817963Y-64087683D01*
X107902000Y-63884800D01*
X107902000Y-63665200D01*
X107817963Y-63462317D01*
X107752000Y-63396354D01*
X107752000Y-61853661D01*
X107908315Y-62009976D01*
X108396043Y-62212000D01*
X108923957Y-62212000D01*
X109411685Y-62009976D01*
X109784976Y-61636685D01*
X109987000Y-61148957D01*
X109987000Y-60621043D01*
X109784976Y-60133315D01*
X109411685Y-59760024D01*
X108923957Y-59558000D01*
X108396043Y-59558000D01*
X107908315Y-59760024D01*
X107752000Y-59916339D01*
X107752000Y-58865200D01*
X111248000Y-58865200D01*
X111248000Y-59084800D01*
X111332037Y-59287683D01*
X111398000Y-59353646D01*
X111398001Y-64335410D01*
X111390126Y-64375000D01*
X111421326Y-64531852D01*
X111487749Y-64631262D01*
X111487752Y-64631265D01*
X111510176Y-64664825D01*
X111543736Y-64687249D01*
X111798001Y-64941514D01*
X111798000Y-82785415D01*
X111790126Y-82825000D01*
X111798000Y-82864585D01*
X111798000Y-82864589D01*
X111821325Y-82981851D01*
X111910175Y-83114825D01*
X111943738Y-83137251D01*
X112148000Y-83341514D01*
X112148000Y-83434800D01*
X112232037Y-83637683D01*
X112387317Y-83792963D01*
X112590200Y-83877000D01*
X112809800Y-83877000D01*
X113012683Y-83792963D01*
X113167963Y-83637683D01*
X113252000Y-83434800D01*
X113252000Y-83215200D01*
X113167963Y-83012317D01*
X113012683Y-82857037D01*
X112809800Y-82773000D01*
X112716514Y-82773000D01*
X112602000Y-82658487D01*
X112602000Y-79385242D01*
X112615024Y-79416685D01*
X112988315Y-79789976D01*
X113476043Y-79992000D01*
X114003957Y-79992000D01*
X114491685Y-79789976D01*
X114848000Y-79433661D01*
X114848000Y-89346354D01*
X114782037Y-89412317D01*
X114741391Y-89510445D01*
X114658380Y-89310039D01*
X114429961Y-89081620D01*
X114131517Y-88958000D01*
X113808483Y-88958000D01*
X113510039Y-89081620D01*
X113281620Y-89310039D01*
X113158000Y-89608483D01*
X113158000Y-89931517D01*
X113281620Y-90229961D01*
X113510039Y-90458380D01*
X113808483Y-90582000D01*
X114131517Y-90582000D01*
X114429961Y-90458380D01*
X114658380Y-90229961D01*
X114760031Y-89984555D01*
X114782037Y-90037683D01*
X114937317Y-90192963D01*
X115140200Y-90277000D01*
X115359800Y-90277000D01*
X115562683Y-90192963D01*
X115717963Y-90037683D01*
X115729969Y-90008697D01*
X115821620Y-90229961D01*
X116050039Y-90458380D01*
X116348483Y-90582000D01*
X116671517Y-90582000D01*
X116969961Y-90458380D01*
X117198380Y-90229961D01*
X117322000Y-89931517D01*
X117322000Y-89608483D01*
X118238000Y-89608483D01*
X118238000Y-89931517D01*
X118361620Y-90229961D01*
X118590039Y-90458380D01*
X118888483Y-90582000D01*
X119211517Y-90582000D01*
X119509961Y-90458380D01*
X119738380Y-90229961D01*
X119862000Y-89931517D01*
X119862000Y-89608483D01*
X119738380Y-89310039D01*
X119509961Y-89081620D01*
X119211517Y-88958000D01*
X118888483Y-88958000D01*
X118590039Y-89081620D01*
X118361620Y-89310039D01*
X118238000Y-89608483D01*
X117322000Y-89608483D01*
X117198380Y-89310039D01*
X116969961Y-89081620D01*
X116671517Y-88958000D01*
X116348483Y-88958000D01*
X116050039Y-89081620D01*
X115821620Y-89310039D01*
X115748609Y-89486303D01*
X115717963Y-89412317D01*
X115652000Y-89346354D01*
X115652000Y-87068483D01*
X115698000Y-87068483D01*
X115698000Y-87391517D01*
X115821620Y-87689961D01*
X116050039Y-87918380D01*
X116348483Y-88042000D01*
X116671517Y-88042000D01*
X116969961Y-87918380D01*
X117198380Y-87689961D01*
X117322000Y-87391517D01*
X117322000Y-87068483D01*
X118238000Y-87068483D01*
X118238000Y-87391517D01*
X118361620Y-87689961D01*
X118590039Y-87918380D01*
X118888483Y-88042000D01*
X119211517Y-88042000D01*
X119509961Y-87918380D01*
X119738380Y-87689961D01*
X119862000Y-87391517D01*
X119862000Y-87068483D01*
X120778000Y-87068483D01*
X120778000Y-87391517D01*
X120901620Y-87689961D01*
X121130039Y-87918380D01*
X121428483Y-88042000D01*
X121732439Y-88042000D01*
X121643000Y-88257924D01*
X121643000Y-88742076D01*
X121732439Y-88958000D01*
X121428483Y-88958000D01*
X121130039Y-89081620D01*
X120901620Y-89310039D01*
X120778000Y-89608483D01*
X120778000Y-89931517D01*
X120901620Y-90229961D01*
X121130039Y-90458380D01*
X121428483Y-90582000D01*
X121751517Y-90582000D01*
X122049961Y-90458380D01*
X122278380Y-90229961D01*
X122402000Y-89931517D01*
X122402000Y-89627561D01*
X122617924Y-89717000D01*
X123102076Y-89717000D01*
X123318000Y-89627561D01*
X123318000Y-89931517D01*
X123441620Y-90229961D01*
X123670039Y-90458380D01*
X123968483Y-90582000D01*
X124291517Y-90582000D01*
X124589961Y-90458380D01*
X124818380Y-90229961D01*
X124942000Y-89931517D01*
X124942000Y-89608483D01*
X124818380Y-89310039D01*
X124589961Y-89081620D01*
X124291517Y-88958000D01*
X123987561Y-88958000D01*
X124077000Y-88742076D01*
X124077000Y-88257924D01*
X123987561Y-88042000D01*
X124291517Y-88042000D01*
X124589961Y-87918380D01*
X124818380Y-87689961D01*
X124942000Y-87391517D01*
X124942000Y-87068483D01*
X124818380Y-86770039D01*
X124589961Y-86541620D01*
X124291517Y-86418000D01*
X123968483Y-86418000D01*
X123670039Y-86541620D01*
X123441620Y-86770039D01*
X123318000Y-87068483D01*
X123318000Y-87372439D01*
X123102076Y-87283000D01*
X122617924Y-87283000D01*
X122402000Y-87372439D01*
X122402000Y-87068483D01*
X122278380Y-86770039D01*
X122049961Y-86541620D01*
X121751517Y-86418000D01*
X121428483Y-86418000D01*
X121130039Y-86541620D01*
X120901620Y-86770039D01*
X120778000Y-87068483D01*
X119862000Y-87068483D01*
X119738380Y-86770039D01*
X119509961Y-86541620D01*
X119211517Y-86418000D01*
X118888483Y-86418000D01*
X118590039Y-86541620D01*
X118361620Y-86770039D01*
X118238000Y-87068483D01*
X117322000Y-87068483D01*
X117198380Y-86770039D01*
X116969961Y-86541620D01*
X116671517Y-86418000D01*
X116348483Y-86418000D01*
X116050039Y-86541620D01*
X115821620Y-86770039D01*
X115698000Y-87068483D01*
X115652000Y-87068483D01*
X115652000Y-64153646D01*
X115717963Y-64087683D01*
X115802000Y-63884800D01*
X115802000Y-63665200D01*
X115717963Y-63462317D01*
X115562683Y-63307037D01*
X115359800Y-63223000D01*
X115140200Y-63223000D01*
X114937317Y-63307037D01*
X114782037Y-63462317D01*
X114698000Y-63665200D01*
X114698000Y-63884800D01*
X114782037Y-64087683D01*
X114848001Y-64153647D01*
X114848000Y-77896339D01*
X114491685Y-77540024D01*
X114003957Y-77338000D01*
X113476043Y-77338000D01*
X112988315Y-77540024D01*
X112615024Y-77913315D01*
X112602000Y-77944758D01*
X112602000Y-64814584D01*
X112609874Y-64774999D01*
X112602000Y-64735414D01*
X112602000Y-64735410D01*
X112578675Y-64618148D01*
X112489825Y-64485175D01*
X112456262Y-64462749D01*
X112202000Y-64208487D01*
X112202000Y-62037532D01*
X112767073Y-62037532D01*
X112865736Y-62304387D01*
X113475461Y-62530908D01*
X114125460Y-62506856D01*
X114614264Y-62304387D01*
X114712927Y-62037532D01*
X113740000Y-61064605D01*
X112767073Y-62037532D01*
X112202000Y-62037532D01*
X112202000Y-61472907D01*
X112320613Y-61759264D01*
X112587468Y-61857927D01*
X113560395Y-60885000D01*
X113919605Y-60885000D01*
X114892532Y-61857927D01*
X115159387Y-61759264D01*
X115385908Y-61149539D01*
X115361856Y-60499540D01*
X115159387Y-60010736D01*
X114892532Y-59912073D01*
X113919605Y-60885000D01*
X113560395Y-60885000D01*
X112587468Y-59912073D01*
X112320613Y-60010736D01*
X112202000Y-60330006D01*
X112202000Y-59353646D01*
X112267963Y-59287683D01*
X112352000Y-59084800D01*
X112352000Y-58865200D01*
X112267963Y-58662317D01*
X112112683Y-58507037D01*
X111909800Y-58423000D01*
X111690200Y-58423000D01*
X111487317Y-58507037D01*
X111332037Y-58662317D01*
X111248000Y-58865200D01*
X107752000Y-58865200D01*
X107752000Y-55215200D01*
X110748000Y-55215200D01*
X110748000Y-55434800D01*
X110832037Y-55637683D01*
X110987317Y-55792963D01*
X111190200Y-55877000D01*
X111409800Y-55877000D01*
X111612683Y-55792963D01*
X111767963Y-55637683D01*
X111852000Y-55434800D01*
X111852000Y-55215200D01*
X111767963Y-55012317D01*
X111612683Y-54857037D01*
X111409800Y-54773000D01*
X111190200Y-54773000D01*
X110987317Y-54857037D01*
X110832037Y-55012317D01*
X110748000Y-55215200D01*
X107752000Y-55215200D01*
X107752000Y-54791513D01*
X107866513Y-54677000D01*
X107959800Y-54677000D01*
X108162683Y-54592963D01*
X108317963Y-54437683D01*
X108402000Y-54234800D01*
X108402000Y-54015200D01*
X108361076Y-53916400D01*
X108425050Y-53903675D01*
X108558023Y-53814825D01*
X108580449Y-53781262D01*
X108634671Y-53727040D01*
X119633527Y-53727040D01*
X120098000Y-54191514D01*
X120098000Y-57604487D01*
X119512251Y-57018738D01*
X119489825Y-56985175D01*
X119356852Y-56896325D01*
X119239590Y-56873000D01*
X119239585Y-56873000D01*
X119200000Y-56865126D01*
X119160415Y-56873000D01*
X115928646Y-56873000D01*
X115862683Y-56807037D01*
X115659800Y-56723000D01*
X115440200Y-56723000D01*
X115237317Y-56807037D01*
X115082037Y-56962317D01*
X114998000Y-57165200D01*
X114998000Y-57384800D01*
X115082037Y-57587683D01*
X115237317Y-57742963D01*
X115440200Y-57827000D01*
X115659800Y-57827000D01*
X115862683Y-57742963D01*
X115928646Y-57677000D01*
X119033487Y-57677000D01*
X119798000Y-58441514D01*
X119798000Y-58504486D01*
X119312250Y-58018737D01*
X119289825Y-57985175D01*
X119156852Y-57896325D01*
X119039590Y-57873000D01*
X119039585Y-57873000D01*
X119000000Y-57865126D01*
X118960415Y-57873000D01*
X113178646Y-57873000D01*
X113112683Y-57807037D01*
X112909800Y-57723000D01*
X112690200Y-57723000D01*
X112487317Y-57807037D01*
X112332037Y-57962317D01*
X112248000Y-58165200D01*
X112248000Y-58384800D01*
X112332037Y-58587683D01*
X112487317Y-58742963D01*
X112690200Y-58827000D01*
X112748000Y-58827000D01*
X112748000Y-58984800D01*
X112832037Y-59187683D01*
X112987317Y-59342963D01*
X113074578Y-59379108D01*
X112865736Y-59465613D01*
X112767073Y-59732468D01*
X113740000Y-60705395D01*
X114712927Y-59732468D01*
X114614264Y-59465613D01*
X114004539Y-59239092D01*
X113705488Y-59250158D01*
X113767963Y-59187683D01*
X113852000Y-58984800D01*
X113852000Y-58765200D01*
X113815466Y-58677000D01*
X116284534Y-58677000D01*
X116248000Y-58765200D01*
X116248000Y-58984800D01*
X116332037Y-59187683D01*
X116398000Y-59253646D01*
X116398001Y-61996353D01*
X116332037Y-62062317D01*
X116248000Y-62265200D01*
X116248000Y-62484800D01*
X116332037Y-62687683D01*
X116487317Y-62842963D01*
X116690200Y-62927000D01*
X116909800Y-62927000D01*
X117112683Y-62842963D01*
X117267963Y-62687683D01*
X117352000Y-62484800D01*
X117352000Y-62265200D01*
X117267963Y-62062317D01*
X117202000Y-61996354D01*
X117202000Y-59253646D01*
X117267963Y-59187683D01*
X117277275Y-59165200D01*
X117798000Y-59165200D01*
X117798000Y-59384800D01*
X117882037Y-59587683D01*
X117948001Y-59653647D01*
X117948000Y-83446354D01*
X117882037Y-83512317D01*
X117798000Y-83715200D01*
X117798000Y-83934800D01*
X117882037Y-84137683D01*
X118037317Y-84292963D01*
X118240200Y-84377000D01*
X118459800Y-84377000D01*
X118662683Y-84292963D01*
X118817963Y-84137683D01*
X118902000Y-83934800D01*
X118902000Y-83715200D01*
X118817963Y-83512317D01*
X118752000Y-83446354D01*
X118752000Y-76635989D01*
X121023000Y-76635989D01*
X121023000Y-77144011D01*
X121217412Y-77613362D01*
X121576638Y-77972588D01*
X122029090Y-78160000D01*
X121576638Y-78347412D01*
X121217412Y-78706638D01*
X121023000Y-79175989D01*
X121023000Y-79684011D01*
X121217412Y-80153362D01*
X121576638Y-80512588D01*
X122045989Y-80707000D01*
X122554011Y-80707000D01*
X123023362Y-80512588D01*
X123382588Y-80153362D01*
X123577000Y-79684011D01*
X123577000Y-79175989D01*
X123382588Y-78706638D01*
X123023362Y-78347412D01*
X122570910Y-78160000D01*
X123023362Y-77972588D01*
X123382588Y-77613362D01*
X123577000Y-77144011D01*
X123577000Y-76635989D01*
X123382588Y-76166638D01*
X123023362Y-75807412D01*
X122987949Y-75792744D01*
X123144208Y-75728019D01*
X123236745Y-75466350D01*
X122300000Y-74529605D01*
X121363255Y-75466350D01*
X121455792Y-75728019D01*
X121621119Y-75788987D01*
X121576638Y-75807412D01*
X121217412Y-76166638D01*
X121023000Y-76635989D01*
X118752000Y-76635989D01*
X118752000Y-74097398D01*
X120703812Y-74097398D01*
X120728648Y-74727461D01*
X120921981Y-75194208D01*
X121183650Y-75286745D01*
X122120395Y-74350000D01*
X122479605Y-74350000D01*
X123416350Y-75286745D01*
X123678019Y-75194208D01*
X123896188Y-74602602D01*
X123871352Y-73972539D01*
X123678019Y-73505792D01*
X123416350Y-73413255D01*
X122479605Y-74350000D01*
X122120395Y-74350000D01*
X121183650Y-73413255D01*
X120921981Y-73505792D01*
X120703812Y-74097398D01*
X118752000Y-74097398D01*
X118752000Y-59653646D01*
X118817963Y-59587683D01*
X118902000Y-59384800D01*
X118902000Y-59165200D01*
X118817963Y-58962317D01*
X118662683Y-58807037D01*
X118459800Y-58723000D01*
X118240200Y-58723000D01*
X118037317Y-58807037D01*
X117882037Y-58962317D01*
X117798000Y-59165200D01*
X117277275Y-59165200D01*
X117352000Y-58984800D01*
X117352000Y-58765200D01*
X117315466Y-58677000D01*
X118833487Y-58677000D01*
X119498000Y-59341514D01*
X119498001Y-71035410D01*
X119490126Y-71075000D01*
X119521326Y-71231852D01*
X119587749Y-71331262D01*
X119587752Y-71331265D01*
X119610176Y-71364825D01*
X119643736Y-71387249D01*
X120322750Y-72066264D01*
X120345175Y-72099825D01*
X120378735Y-72122249D01*
X120378737Y-72122251D01*
X120439303Y-72162720D01*
X120478148Y-72188675D01*
X120595410Y-72212000D01*
X120595415Y-72212000D01*
X120635000Y-72219874D01*
X120674585Y-72212000D01*
X121084299Y-72212000D01*
X121217412Y-72533362D01*
X121576638Y-72892588D01*
X121612051Y-72907256D01*
X121455792Y-72971981D01*
X121363255Y-73233650D01*
X122300000Y-74170395D01*
X123236745Y-73233650D01*
X123144208Y-72971981D01*
X122978881Y-72911013D01*
X123023362Y-72892588D01*
X123382588Y-72533362D01*
X123577000Y-72064011D01*
X123577000Y-71555989D01*
X123382588Y-71086638D01*
X123023362Y-70727412D01*
X122570910Y-70540000D01*
X123023362Y-70352588D01*
X123382588Y-69993362D01*
X123577000Y-69524011D01*
X123577000Y-69015989D01*
X123382588Y-68546638D01*
X123023362Y-68187412D01*
X122570910Y-68000000D01*
X123023362Y-67812588D01*
X123382588Y-67453362D01*
X123515701Y-67132000D01*
X124055415Y-67132000D01*
X124095000Y-67139874D01*
X124134585Y-67132000D01*
X124134590Y-67132000D01*
X124251852Y-67108675D01*
X124384825Y-67019825D01*
X124407251Y-66986262D01*
X125181274Y-66212240D01*
X125214835Y-66189815D01*
X125237259Y-66156255D01*
X125237261Y-66156253D01*
X125303684Y-66056843D01*
X125303685Y-66056842D01*
X125327010Y-65939580D01*
X125327010Y-65939576D01*
X125334884Y-65899991D01*
X125327010Y-65860406D01*
X125327010Y-53384701D01*
X125356262Y-53355449D01*
X125389825Y-53333023D01*
X125478675Y-53200050D01*
X125496821Y-53108825D01*
X125567963Y-53037683D01*
X125652000Y-52834800D01*
X125652000Y-52615200D01*
X125567963Y-52412317D01*
X125412683Y-52257037D01*
X125209800Y-52173000D01*
X125202000Y-52173000D01*
X125202000Y-52015200D01*
X125117963Y-51812317D01*
X124962683Y-51657037D01*
X124759800Y-51573000D01*
X124540200Y-51573000D01*
X124337317Y-51657037D01*
X124182037Y-51812317D01*
X124098000Y-52015200D01*
X124098000Y-52234800D01*
X124182037Y-52437683D01*
X124248000Y-52503646D01*
X124248001Y-58158485D01*
X123698487Y-58708000D01*
X123515701Y-58708000D01*
X123382588Y-58386638D01*
X123023362Y-58027412D01*
X122570910Y-57840000D01*
X123023362Y-57652588D01*
X123382588Y-57293362D01*
X123577000Y-56824011D01*
X123577000Y-56315989D01*
X123382588Y-55846638D01*
X123023362Y-55487412D01*
X122752000Y-55375010D01*
X122752000Y-53269516D01*
X122760855Y-53224999D01*
X122751311Y-53177020D01*
X122725775Y-53048638D01*
X122625874Y-52899126D01*
X122588131Y-52873907D01*
X122151113Y-52436889D01*
X122125894Y-52399146D01*
X121976382Y-52299245D01*
X121844538Y-52273020D01*
X121800020Y-52264165D01*
X121755502Y-52273020D01*
X106844498Y-52273020D01*
X106799980Y-52264165D01*
X106755462Y-52273020D01*
X106623618Y-52299245D01*
X106474106Y-52399146D01*
X106448888Y-52436887D01*
X106262775Y-52623000D01*
X106240200Y-52623000D01*
X106192674Y-52642686D01*
X106117963Y-52462317D01*
X105969327Y-52313681D01*
X106002000Y-52234800D01*
X106002000Y-52015200D01*
X105917963Y-51812317D01*
X105907645Y-51801999D01*
X113997612Y-51801999D01*
X114074950Y-51853675D01*
X114166175Y-51871821D01*
X114237317Y-51942963D01*
X114440200Y-52027000D01*
X114659800Y-52027000D01*
X114862683Y-51942963D01*
X115017963Y-51787683D01*
X115102000Y-51584800D01*
X115102000Y-51402000D01*
X129476648Y-51402000D01*
X130097043Y-51474330D01*
G36*
X84348000Y-87253646D02*
X84348001Y-107808485D01*
X83558487Y-108598000D01*
X83038027Y-108598000D01*
X83014511Y-108479776D01*
X82776473Y-108123527D01*
X82420223Y-107885489D01*
X82000000Y-107801901D01*
X81579776Y-107885489D01*
X81223527Y-108123527D01*
X81015518Y-108434836D01*
X81014511Y-108429776D01*
X80776473Y-108073527D01*
X80632010Y-107977000D01*
X80960415Y-107977000D01*
X81000000Y-107984874D01*
X81039585Y-107977000D01*
X81039590Y-107977000D01*
X81156852Y-107953675D01*
X81289825Y-107864825D01*
X81312251Y-107831262D01*
X81956262Y-107187251D01*
X81989825Y-107164825D01*
X82078675Y-107031852D01*
X82102000Y-106914590D01*
X82102000Y-106914586D01*
X82109874Y-106875001D01*
X82102000Y-106835416D01*
X82102000Y-96341513D01*
X82506262Y-95937251D01*
X82539825Y-95914825D01*
X82628675Y-95781852D01*
X82652000Y-95664590D01*
X82652000Y-95664586D01*
X82659874Y-95625001D01*
X82652000Y-95585416D01*
X82652000Y-92965200D01*
X82948000Y-92965200D01*
X82948000Y-93184800D01*
X83032037Y-93387683D01*
X83098000Y-93453646D01*
X83098001Y-106646353D01*
X83032037Y-106712317D01*
X82948000Y-106915200D01*
X82948000Y-107134800D01*
X83032037Y-107337683D01*
X83187317Y-107492963D01*
X83390200Y-107577000D01*
X83609800Y-107577000D01*
X83812683Y-107492963D01*
X83967963Y-107337683D01*
X84052000Y-107134800D01*
X84052000Y-106915200D01*
X83967963Y-106712317D01*
X83902000Y-106646354D01*
X83902000Y-93453646D01*
X83967963Y-93387683D01*
X84052000Y-93184800D01*
X84052000Y-92965200D01*
X83967963Y-92762317D01*
X83812683Y-92607037D01*
X83609800Y-92523000D01*
X83390200Y-92523000D01*
X83187317Y-92607037D01*
X83032037Y-92762317D01*
X82948000Y-92965200D01*
X82652000Y-92965200D01*
X82652000Y-89608483D01*
X82678000Y-89608483D01*
X82678000Y-89931517D01*
X82801620Y-90229961D01*
X83030039Y-90458380D01*
X83328483Y-90582000D01*
X83651517Y-90582000D01*
X83949961Y-90458380D01*
X84178380Y-90229961D01*
X84302000Y-89931517D01*
X84302000Y-89608483D01*
X84178380Y-89310039D01*
X83949961Y-89081620D01*
X83651517Y-88958000D01*
X83328483Y-88958000D01*
X83030039Y-89081620D01*
X82801620Y-89310039D01*
X82678000Y-89608483D01*
X82652000Y-89608483D01*
X82652000Y-87403646D01*
X82678000Y-87377646D01*
X82678000Y-87391517D01*
X82801620Y-87689961D01*
X83030039Y-87918380D01*
X83328483Y-88042000D01*
X83651517Y-88042000D01*
X83949961Y-87918380D01*
X84178380Y-87689961D01*
X84302000Y-87391517D01*
X84302000Y-87207646D01*
X84348000Y-87253646D01*
X84348000Y-87253646D01*
G37*
X84348000Y-87253646D02*
X84348001Y-107808485D01*
X83558487Y-108598000D01*
X83038027Y-108598000D01*
X83014511Y-108479776D01*
X82776473Y-108123527D01*
X82420223Y-107885489D01*
X82000000Y-107801901D01*
X81579776Y-107885489D01*
X81223527Y-108123527D01*
X81015518Y-108434836D01*
X81014511Y-108429776D01*
X80776473Y-108073527D01*
X80632010Y-107977000D01*
X80960415Y-107977000D01*
X81000000Y-107984874D01*
X81039585Y-107977000D01*
X81039590Y-107977000D01*
X81156852Y-107953675D01*
X81289825Y-107864825D01*
X81312251Y-107831262D01*
X81956262Y-107187251D01*
X81989825Y-107164825D01*
X82078675Y-107031852D01*
X82102000Y-106914590D01*
X82102000Y-106914586D01*
X82109874Y-106875001D01*
X82102000Y-106835416D01*
X82102000Y-96341513D01*
X82506262Y-95937251D01*
X82539825Y-95914825D01*
X82628675Y-95781852D01*
X82652000Y-95664590D01*
X82652000Y-95664586D01*
X82659874Y-95625001D01*
X82652000Y-95585416D01*
X82652000Y-92965200D01*
X82948000Y-92965200D01*
X82948000Y-93184800D01*
X83032037Y-93387683D01*
X83098000Y-93453646D01*
X83098001Y-106646353D01*
X83032037Y-106712317D01*
X82948000Y-106915200D01*
X82948000Y-107134800D01*
X83032037Y-107337683D01*
X83187317Y-107492963D01*
X83390200Y-107577000D01*
X83609800Y-107577000D01*
X83812683Y-107492963D01*
X83967963Y-107337683D01*
X84052000Y-107134800D01*
X84052000Y-106915200D01*
X83967963Y-106712317D01*
X83902000Y-106646354D01*
X83902000Y-93453646D01*
X83967963Y-93387683D01*
X84052000Y-93184800D01*
X84052000Y-92965200D01*
X83967963Y-92762317D01*
X83812683Y-92607037D01*
X83609800Y-92523000D01*
X83390200Y-92523000D01*
X83187317Y-92607037D01*
X83032037Y-92762317D01*
X82948000Y-92965200D01*
X82652000Y-92965200D01*
X82652000Y-89608483D01*
X82678000Y-89608483D01*
X82678000Y-89931517D01*
X82801620Y-90229961D01*
X83030039Y-90458380D01*
X83328483Y-90582000D01*
X83651517Y-90582000D01*
X83949961Y-90458380D01*
X84178380Y-90229961D01*
X84302000Y-89931517D01*
X84302000Y-89608483D01*
X84178380Y-89310039D01*
X83949961Y-89081620D01*
X83651517Y-88958000D01*
X83328483Y-88958000D01*
X83030039Y-89081620D01*
X82801620Y-89310039D01*
X82678000Y-89608483D01*
X82652000Y-89608483D01*
X82652000Y-87403646D01*
X82678000Y-87377646D01*
X82678000Y-87391517D01*
X82801620Y-87689961D01*
X83030039Y-87918380D01*
X83328483Y-88042000D01*
X83651517Y-88042000D01*
X83949961Y-87918380D01*
X84178380Y-87689961D01*
X84302000Y-87391517D01*
X84302000Y-87207646D01*
X84348000Y-87253646D01*
G04 #@! TD*
M02*
