G04 #@! TF.GenerationSoftware,KiCad,Pcbnew,5.0.2-bee76a0~70~ubuntu18.04.1*
G04 #@! TF.CreationDate,2019-10-30T17:39:39-07:00*
G04 #@! TF.ProjectId,piweather,70697765-6174-4686-9572-2e6b69636164,rev?*
G04 #@! TF.SameCoordinates,Original*
G04 #@! TF.FileFunction,Legend,Top*
G04 #@! TF.FilePolarity,Positive*
%FSLAX46Y46*%
G04 Gerber Fmt 4.6, Leading zero omitted, Abs format (unit mm)*
G04 Created by KiCad (PCBNEW 5.0.2-bee76a0~70~ubuntu18.04.1) date Wed 30 Oct 2019 05:39:39 PM PDT*
%MOMM*%
%LPD*%
G01*
G04 APERTURE LIST*
%ADD10C,0.250000*%
%ADD11C,0.200000*%
%ADD12C,0.300000*%
%ADD13C,0.400000*%
%ADD14C,0.150000*%
%ADD15C,0.120000*%
%ADD16C,0.152400*%
%ADD17C,0.100000*%
G04 APERTURE END LIST*
D10*
X122150000Y-104189285D02*
X122150000Y-103617857D01*
X122492857Y-104303571D02*
X121292857Y-103903571D01*
X122492857Y-103503571D01*
X122492857Y-103103571D02*
X121692857Y-103103571D01*
X121292857Y-103103571D02*
X121350000Y-103160714D01*
X121407142Y-103103571D01*
X121350000Y-103046428D01*
X121292857Y-103103571D01*
X121407142Y-103103571D01*
X122492857Y-102532142D02*
X121692857Y-102532142D01*
X121921428Y-102532142D02*
X121807142Y-102475000D01*
X121750000Y-102417857D01*
X121692857Y-102303571D01*
X121692857Y-102189285D01*
X122607142Y-100075000D02*
X122550000Y-100189285D01*
X122435714Y-100303571D01*
X122264285Y-100475000D01*
X122207142Y-100589285D01*
X122207142Y-100703571D01*
X122492857Y-100646428D02*
X122435714Y-100760714D01*
X122321428Y-100875000D01*
X122092857Y-100932142D01*
X121692857Y-100932142D01*
X121464285Y-100875000D01*
X121350000Y-100760714D01*
X121292857Y-100646428D01*
X121292857Y-100417857D01*
X121350000Y-100303571D01*
X121464285Y-100189285D01*
X121692857Y-100132142D01*
X122092857Y-100132142D01*
X122321428Y-100189285D01*
X122435714Y-100303571D01*
X122492857Y-100417857D01*
X122492857Y-100646428D01*
X121692857Y-99103571D02*
X122492857Y-99103571D01*
X121692857Y-99617857D02*
X122321428Y-99617857D01*
X122435714Y-99560714D01*
X122492857Y-99446428D01*
X122492857Y-99275000D01*
X122435714Y-99160714D01*
X122378571Y-99103571D01*
X122492857Y-98017857D02*
X121864285Y-98017857D01*
X121750000Y-98075000D01*
X121692857Y-98189285D01*
X121692857Y-98417857D01*
X121750000Y-98532142D01*
X122435714Y-98017857D02*
X122492857Y-98132142D01*
X122492857Y-98417857D01*
X122435714Y-98532142D01*
X122321428Y-98589285D01*
X122207142Y-98589285D01*
X122092857Y-98532142D01*
X122035714Y-98417857D01*
X122035714Y-98132142D01*
X121978571Y-98017857D01*
X122492857Y-97275000D02*
X122435714Y-97389285D01*
X122321428Y-97446428D01*
X121292857Y-97446428D01*
X122492857Y-96817857D02*
X121692857Y-96817857D01*
X121292857Y-96817857D02*
X121350000Y-96875000D01*
X121407142Y-96817857D01*
X121350000Y-96760714D01*
X121292857Y-96817857D01*
X121407142Y-96817857D01*
X121692857Y-96417857D02*
X121692857Y-95960714D01*
X121292857Y-96246428D02*
X122321428Y-96246428D01*
X122435714Y-96189285D01*
X122492857Y-96075000D01*
X122492857Y-95960714D01*
X121692857Y-95675000D02*
X122492857Y-95389285D01*
X121692857Y-95103571D02*
X122492857Y-95389285D01*
X122778571Y-95503571D01*
X122835714Y-95560714D01*
X122892857Y-95675000D01*
X124542857Y-102703571D02*
X123342857Y-102703571D01*
X124200000Y-102303571D01*
X123342857Y-101903571D01*
X124542857Y-101903571D01*
X124542857Y-101160714D02*
X124485714Y-101275000D01*
X124428571Y-101332142D01*
X124314285Y-101389285D01*
X123971428Y-101389285D01*
X123857142Y-101332142D01*
X123800000Y-101275000D01*
X123742857Y-101160714D01*
X123742857Y-100989285D01*
X123800000Y-100875000D01*
X123857142Y-100817857D01*
X123971428Y-100760714D01*
X124314285Y-100760714D01*
X124428571Y-100817857D01*
X124485714Y-100875000D01*
X124542857Y-100989285D01*
X124542857Y-101160714D01*
X123742857Y-100246428D02*
X124542857Y-100246428D01*
X123857142Y-100246428D02*
X123800000Y-100189285D01*
X123742857Y-100075000D01*
X123742857Y-99903571D01*
X123800000Y-99789285D01*
X123914285Y-99732142D01*
X124542857Y-99732142D01*
X124542857Y-99160714D02*
X123742857Y-99160714D01*
X123342857Y-99160714D02*
X123400000Y-99217857D01*
X123457142Y-99160714D01*
X123400000Y-99103571D01*
X123342857Y-99160714D01*
X123457142Y-99160714D01*
X123742857Y-98760714D02*
X123742857Y-98303571D01*
X123342857Y-98589285D02*
X124371428Y-98589285D01*
X124485714Y-98532142D01*
X124542857Y-98417857D01*
X124542857Y-98303571D01*
X124542857Y-97732142D02*
X124485714Y-97846428D01*
X124428571Y-97903571D01*
X124314285Y-97960714D01*
X123971428Y-97960714D01*
X123857142Y-97903571D01*
X123800000Y-97846428D01*
X123742857Y-97732142D01*
X123742857Y-97560714D01*
X123800000Y-97446428D01*
X123857142Y-97389285D01*
X123971428Y-97332142D01*
X124314285Y-97332142D01*
X124428571Y-97389285D01*
X124485714Y-97446428D01*
X124542857Y-97560714D01*
X124542857Y-97732142D01*
X124542857Y-96817857D02*
X123742857Y-96817857D01*
X123971428Y-96817857D02*
X123857142Y-96760714D01*
X123800000Y-96703571D01*
X123742857Y-96589285D01*
X123742857Y-96475000D01*
X126592857Y-104675000D02*
X125392857Y-104675000D01*
X125964285Y-104675000D02*
X125964285Y-103989285D01*
X126592857Y-103989285D02*
X125392857Y-103989285D01*
X126592857Y-103417857D02*
X125392857Y-103417857D01*
X125392857Y-102960714D01*
X125450000Y-102846428D01*
X125507142Y-102789285D01*
X125621428Y-102732142D01*
X125792857Y-102732142D01*
X125907142Y-102789285D01*
X125964285Y-102846428D01*
X126021428Y-102960714D01*
X126021428Y-103417857D01*
X126592857Y-102217857D02*
X125392857Y-102217857D01*
X126250000Y-101817857D01*
X125392857Y-101417857D01*
X126592857Y-101417857D01*
X126250000Y-100903571D02*
X126250000Y-100332142D01*
X126592857Y-101017857D02*
X125392857Y-100617857D01*
X126592857Y-100217857D01*
X126592857Y-99189285D02*
X126592857Y-99875000D01*
X126592857Y-99532142D02*
X125392857Y-99532142D01*
X125564285Y-99646428D01*
X125678571Y-99760714D01*
X125735714Y-99875000D01*
X126592857Y-98046428D02*
X126592857Y-98732142D01*
X126592857Y-98389285D02*
X125392857Y-98389285D01*
X125564285Y-98503571D01*
X125678571Y-98617857D01*
X125735714Y-98732142D01*
X125392857Y-96960714D02*
X125392857Y-97532142D01*
X125964285Y-97589285D01*
X125907142Y-97532142D01*
X125850000Y-97417857D01*
X125850000Y-97132142D01*
X125907142Y-97017857D01*
X125964285Y-96960714D01*
X126078571Y-96903571D01*
X126364285Y-96903571D01*
X126478571Y-96960714D01*
X126535714Y-97017857D01*
X126592857Y-97132142D01*
X126592857Y-97417857D01*
X126535714Y-97532142D01*
X126478571Y-97589285D01*
X126535714Y-96446428D02*
X126592857Y-96275000D01*
X126592857Y-95989285D01*
X126535714Y-95875000D01*
X126478571Y-95817857D01*
X126364285Y-95760714D01*
X126250000Y-95760714D01*
X126135714Y-95817857D01*
X126078571Y-95875000D01*
X126021428Y-95989285D01*
X125964285Y-96217857D01*
X125907142Y-96332142D01*
X125850000Y-96389285D01*
X125735714Y-96446428D01*
X125621428Y-96446428D01*
X125507142Y-96389285D01*
X125450000Y-96332142D01*
X125392857Y-96217857D01*
X125392857Y-95932142D01*
X125450000Y-95760714D01*
X125392857Y-95017857D02*
X125392857Y-94903571D01*
X125450000Y-94789285D01*
X125507142Y-94732142D01*
X125621428Y-94675000D01*
X125850000Y-94617857D01*
X126135714Y-94617857D01*
X126364285Y-94675000D01*
X126478571Y-94732142D01*
X126535714Y-94789285D01*
X126592857Y-94903571D01*
X126592857Y-95017857D01*
X126535714Y-95132142D01*
X126478571Y-95189285D01*
X126364285Y-95246428D01*
X126135714Y-95303571D01*
X125850000Y-95303571D01*
X125621428Y-95246428D01*
X125507142Y-95189285D01*
X125450000Y-95132142D01*
X125392857Y-95017857D01*
D11*
X80300000Y-95275000D02*
X80300000Y-92975000D01*
X80100000Y-95275000D02*
X80300000Y-95275000D01*
X77200000Y-95275000D02*
X80100000Y-95275000D01*
X77200000Y-98375000D02*
X77200000Y-95275000D01*
X75300000Y-98375000D02*
X77200000Y-98375000D01*
X75300000Y-101875000D02*
X75300000Y-98375000D01*
X72200000Y-101875000D02*
X75300000Y-101875000D01*
X72200000Y-106475000D02*
X72200000Y-101875000D01*
X69700000Y-106475000D02*
X72200000Y-106475000D01*
D12*
X68318809Y-93213095D02*
X69061666Y-93213095D01*
X68690238Y-94513095D02*
X68690238Y-93213095D01*
X69990238Y-94451190D02*
X69866428Y-94513095D01*
X69618809Y-94513095D01*
X69495000Y-94451190D01*
X69433095Y-94327380D01*
X69433095Y-93832142D01*
X69495000Y-93708333D01*
X69618809Y-93646428D01*
X69866428Y-93646428D01*
X69990238Y-93708333D01*
X70052142Y-93832142D01*
X70052142Y-93955952D01*
X69433095Y-94079761D01*
X70609285Y-94513095D02*
X70609285Y-93646428D01*
X70609285Y-93770238D02*
X70671190Y-93708333D01*
X70795000Y-93646428D01*
X70980714Y-93646428D01*
X71104523Y-93708333D01*
X71166428Y-93832142D01*
X71166428Y-94513095D01*
X71166428Y-93832142D02*
X71228333Y-93708333D01*
X71352142Y-93646428D01*
X71537857Y-93646428D01*
X71661666Y-93708333D01*
X71723571Y-93832142D01*
X71723571Y-94513095D01*
X72342619Y-93646428D02*
X72342619Y-94946428D01*
X72342619Y-93708333D02*
X72466428Y-93646428D01*
X72714047Y-93646428D01*
X72837857Y-93708333D01*
X72899761Y-93770238D01*
X72961666Y-93894047D01*
X72961666Y-94265476D01*
X72899761Y-94389285D01*
X72837857Y-94451190D01*
X72714047Y-94513095D01*
X72466428Y-94513095D01*
X72342619Y-94451190D01*
X74014047Y-94451190D02*
X73890238Y-94513095D01*
X73642619Y-94513095D01*
X73518809Y-94451190D01*
X73456904Y-94327380D01*
X73456904Y-93832142D01*
X73518809Y-93708333D01*
X73642619Y-93646428D01*
X73890238Y-93646428D01*
X74014047Y-93708333D01*
X74075952Y-93832142D01*
X74075952Y-93955952D01*
X73456904Y-94079761D01*
X74633095Y-94513095D02*
X74633095Y-93646428D01*
X74633095Y-93894047D02*
X74695000Y-93770238D01*
X74756904Y-93708333D01*
X74880714Y-93646428D01*
X75004523Y-93646428D01*
X75995000Y-94513095D02*
X75995000Y-93832142D01*
X75933095Y-93708333D01*
X75809285Y-93646428D01*
X75561666Y-93646428D01*
X75437857Y-93708333D01*
X75995000Y-94451190D02*
X75871190Y-94513095D01*
X75561666Y-94513095D01*
X75437857Y-94451190D01*
X75375952Y-94327380D01*
X75375952Y-94203571D01*
X75437857Y-94079761D01*
X75561666Y-94017857D01*
X75871190Y-94017857D01*
X75995000Y-93955952D01*
X76428333Y-93646428D02*
X76923571Y-93646428D01*
X76614047Y-93213095D02*
X76614047Y-94327380D01*
X76675952Y-94451190D01*
X76799761Y-94513095D01*
X76923571Y-94513095D01*
X77914047Y-93646428D02*
X77914047Y-94513095D01*
X77356904Y-93646428D02*
X77356904Y-94327380D01*
X77418809Y-94451190D01*
X77542619Y-94513095D01*
X77728333Y-94513095D01*
X77852142Y-94451190D01*
X77914047Y-94389285D01*
X78533095Y-94513095D02*
X78533095Y-93646428D01*
X78533095Y-93894047D02*
X78595000Y-93770238D01*
X78656904Y-93708333D01*
X78780714Y-93646428D01*
X78904523Y-93646428D01*
X79833095Y-94451190D02*
X79709285Y-94513095D01*
X79461666Y-94513095D01*
X79337857Y-94451190D01*
X79275952Y-94327380D01*
X79275952Y-93832142D01*
X79337857Y-93708333D01*
X79461666Y-93646428D01*
X79709285Y-93646428D01*
X79833095Y-93708333D01*
X79895000Y-93832142D01*
X79895000Y-93955952D01*
X79275952Y-94079761D01*
X68504523Y-96763095D02*
X68504523Y-95463095D01*
X68504523Y-96082142D02*
X69247380Y-96082142D01*
X69247380Y-96763095D02*
X69247380Y-95463095D01*
X70423571Y-95896428D02*
X70423571Y-96763095D01*
X69866428Y-95896428D02*
X69866428Y-96577380D01*
X69928333Y-96701190D01*
X70052142Y-96763095D01*
X70237857Y-96763095D01*
X70361666Y-96701190D01*
X70423571Y-96639285D01*
X71042619Y-96763095D02*
X71042619Y-95896428D01*
X71042619Y-96020238D02*
X71104523Y-95958333D01*
X71228333Y-95896428D01*
X71414047Y-95896428D01*
X71537857Y-95958333D01*
X71599761Y-96082142D01*
X71599761Y-96763095D01*
X71599761Y-96082142D02*
X71661666Y-95958333D01*
X71785476Y-95896428D01*
X71971190Y-95896428D01*
X72095000Y-95958333D01*
X72156904Y-96082142D01*
X72156904Y-96763095D01*
X72775952Y-96763095D02*
X72775952Y-95896428D01*
X72775952Y-95463095D02*
X72714047Y-95525000D01*
X72775952Y-95586904D01*
X72837857Y-95525000D01*
X72775952Y-95463095D01*
X72775952Y-95586904D01*
X73952142Y-96763095D02*
X73952142Y-95463095D01*
X73952142Y-96701190D02*
X73828333Y-96763095D01*
X73580714Y-96763095D01*
X73456904Y-96701190D01*
X73395000Y-96639285D01*
X73333095Y-96515476D01*
X73333095Y-96144047D01*
X73395000Y-96020238D01*
X73456904Y-95958333D01*
X73580714Y-95896428D01*
X73828333Y-95896428D01*
X73952142Y-95958333D01*
X74571190Y-96763095D02*
X74571190Y-95896428D01*
X74571190Y-95463095D02*
X74509285Y-95525000D01*
X74571190Y-95586904D01*
X74633095Y-95525000D01*
X74571190Y-95463095D01*
X74571190Y-95586904D01*
X75004523Y-95896428D02*
X75499761Y-95896428D01*
X75190238Y-95463095D02*
X75190238Y-96577380D01*
X75252142Y-96701190D01*
X75375952Y-96763095D01*
X75499761Y-96763095D01*
X75809285Y-95896428D02*
X76118809Y-96763095D01*
X76428333Y-95896428D02*
X76118809Y-96763095D01*
X75995000Y-97072619D01*
X75933095Y-97134523D01*
X75809285Y-97196428D01*
X68442619Y-98951190D02*
X68628333Y-99013095D01*
X68937857Y-99013095D01*
X69061666Y-98951190D01*
X69123571Y-98889285D01*
X69185476Y-98765476D01*
X69185476Y-98641666D01*
X69123571Y-98517857D01*
X69061666Y-98455952D01*
X68937857Y-98394047D01*
X68690238Y-98332142D01*
X68566428Y-98270238D01*
X68504523Y-98208333D01*
X68442619Y-98084523D01*
X68442619Y-97960714D01*
X68504523Y-97836904D01*
X68566428Y-97775000D01*
X68690238Y-97713095D01*
X68999761Y-97713095D01*
X69185476Y-97775000D01*
X70237857Y-98951190D02*
X70114047Y-99013095D01*
X69866428Y-99013095D01*
X69742619Y-98951190D01*
X69680714Y-98827380D01*
X69680714Y-98332142D01*
X69742619Y-98208333D01*
X69866428Y-98146428D01*
X70114047Y-98146428D01*
X70237857Y-98208333D01*
X70299761Y-98332142D01*
X70299761Y-98455952D01*
X69680714Y-98579761D01*
X70856904Y-98146428D02*
X70856904Y-99013095D01*
X70856904Y-98270238D02*
X70918809Y-98208333D01*
X71042619Y-98146428D01*
X71228333Y-98146428D01*
X71352142Y-98208333D01*
X71414047Y-98332142D01*
X71414047Y-99013095D01*
X71971190Y-98951190D02*
X72095000Y-99013095D01*
X72342619Y-99013095D01*
X72466428Y-98951190D01*
X72528333Y-98827380D01*
X72528333Y-98765476D01*
X72466428Y-98641666D01*
X72342619Y-98579761D01*
X72156904Y-98579761D01*
X72033095Y-98517857D01*
X71971190Y-98394047D01*
X71971190Y-98332142D01*
X72033095Y-98208333D01*
X72156904Y-98146428D01*
X72342619Y-98146428D01*
X72466428Y-98208333D01*
X73271190Y-99013095D02*
X73147380Y-98951190D01*
X73085476Y-98889285D01*
X73023571Y-98765476D01*
X73023571Y-98394047D01*
X73085476Y-98270238D01*
X73147380Y-98208333D01*
X73271190Y-98146428D01*
X73456904Y-98146428D01*
X73580714Y-98208333D01*
X73642619Y-98270238D01*
X73704523Y-98394047D01*
X73704523Y-98765476D01*
X73642619Y-98889285D01*
X73580714Y-98951190D01*
X73456904Y-99013095D01*
X73271190Y-99013095D01*
X74261666Y-99013095D02*
X74261666Y-98146428D01*
X74261666Y-98394047D02*
X74323571Y-98270238D01*
X74385476Y-98208333D01*
X74509285Y-98146428D01*
X74633095Y-98146428D01*
D13*
X97390476Y-106253571D02*
X97633333Y-106334523D01*
X97714285Y-106415476D01*
X97795238Y-106577380D01*
X97795238Y-106820238D01*
X97714285Y-106982142D01*
X97633333Y-107063095D01*
X97471428Y-107144047D01*
X96823809Y-107144047D01*
X96823809Y-105444047D01*
X97390476Y-105444047D01*
X97552380Y-105525000D01*
X97633333Y-105605952D01*
X97714285Y-105767857D01*
X97714285Y-105929761D01*
X97633333Y-106091666D01*
X97552380Y-106172619D01*
X97390476Y-106253571D01*
X96823809Y-106253571D01*
X99495238Y-106982142D02*
X99414285Y-107063095D01*
X99171428Y-107144047D01*
X99009523Y-107144047D01*
X98766666Y-107063095D01*
X98604761Y-106901190D01*
X98523809Y-106739285D01*
X98442857Y-106415476D01*
X98442857Y-106172619D01*
X98523809Y-105848809D01*
X98604761Y-105686904D01*
X98766666Y-105525000D01*
X99009523Y-105444047D01*
X99171428Y-105444047D01*
X99414285Y-105525000D01*
X99495238Y-105605952D01*
X100223809Y-107144047D02*
X100223809Y-105444047D01*
X100790476Y-106658333D01*
X101357142Y-105444047D01*
X101357142Y-107144047D01*
X102976190Y-105444047D02*
X102166666Y-105444047D01*
X102085714Y-106253571D01*
X102166666Y-106172619D01*
X102328571Y-106091666D01*
X102733333Y-106091666D01*
X102895238Y-106172619D01*
X102976190Y-106253571D01*
X103057142Y-106415476D01*
X103057142Y-106820238D01*
X102976190Y-106982142D01*
X102895238Y-107063095D01*
X102733333Y-107144047D01*
X102328571Y-107144047D01*
X102166666Y-107063095D01*
X102085714Y-106982142D01*
X87290476Y-106253571D02*
X87533333Y-106334523D01*
X87614285Y-106415476D01*
X87695238Y-106577380D01*
X87695238Y-106820238D01*
X87614285Y-106982142D01*
X87533333Y-107063095D01*
X87371428Y-107144047D01*
X86723809Y-107144047D01*
X86723809Y-105444047D01*
X87290476Y-105444047D01*
X87452380Y-105525000D01*
X87533333Y-105605952D01*
X87614285Y-105767857D01*
X87614285Y-105929761D01*
X87533333Y-106091666D01*
X87452380Y-106172619D01*
X87290476Y-106253571D01*
X86723809Y-106253571D01*
X89395238Y-106982142D02*
X89314285Y-107063095D01*
X89071428Y-107144047D01*
X88909523Y-107144047D01*
X88666666Y-107063095D01*
X88504761Y-106901190D01*
X88423809Y-106739285D01*
X88342857Y-106415476D01*
X88342857Y-106172619D01*
X88423809Y-105848809D01*
X88504761Y-105686904D01*
X88666666Y-105525000D01*
X88909523Y-105444047D01*
X89071428Y-105444047D01*
X89314285Y-105525000D01*
X89395238Y-105605952D01*
X90123809Y-107144047D02*
X90123809Y-105444047D01*
X90690476Y-106658333D01*
X91257142Y-105444047D01*
X91257142Y-107144047D01*
X92795238Y-106010714D02*
X92795238Y-107144047D01*
X92390476Y-105363095D02*
X91985714Y-106577380D01*
X93038095Y-106577380D01*
X76578571Y-105444047D02*
X76578571Y-106820238D01*
X76659523Y-106982142D01*
X76740476Y-107063095D01*
X76902380Y-107144047D01*
X77226190Y-107144047D01*
X77388095Y-107063095D01*
X77469047Y-106982142D01*
X77550000Y-106820238D01*
X77550000Y-105444047D01*
X78278571Y-106658333D02*
X79088095Y-106658333D01*
X78116666Y-107144047D02*
X78683333Y-105444047D01*
X79250000Y-107144047D01*
X80788095Y-107144047D02*
X80221428Y-106334523D01*
X79816666Y-107144047D02*
X79816666Y-105444047D01*
X80464285Y-105444047D01*
X80626190Y-105525000D01*
X80707142Y-105605952D01*
X80788095Y-105767857D01*
X80788095Y-106010714D01*
X80707142Y-106172619D01*
X80626190Y-106253571D01*
X80464285Y-106334523D01*
X79816666Y-106334523D01*
X81273809Y-105444047D02*
X82245238Y-105444047D01*
X81759523Y-107144047D02*
X81759523Y-105444047D01*
X83135714Y-105444047D02*
X83297619Y-105444047D01*
X83459523Y-105525000D01*
X83540476Y-105605952D01*
X83621428Y-105767857D01*
X83702380Y-106091666D01*
X83702380Y-106496428D01*
X83621428Y-106820238D01*
X83540476Y-106982142D01*
X83459523Y-107063095D01*
X83297619Y-107144047D01*
X83135714Y-107144047D01*
X82973809Y-107063095D01*
X82892857Y-106982142D01*
X82811904Y-106820238D01*
X82730952Y-106496428D01*
X82730952Y-106091666D01*
X82811904Y-105767857D01*
X82892857Y-105605952D01*
X82973809Y-105525000D01*
X83135714Y-105444047D01*
D12*
X126196142Y-56504142D02*
X127339000Y-56504142D01*
X126767571Y-57075571D02*
X126767571Y-55932714D01*
X127981857Y-55718428D02*
X128053285Y-55647000D01*
X128196142Y-55575571D01*
X128553285Y-55575571D01*
X128696142Y-55647000D01*
X128767571Y-55718428D01*
X128839000Y-55861285D01*
X128839000Y-56004142D01*
X128767571Y-56218428D01*
X127910428Y-57075571D01*
X128839000Y-57075571D01*
X130124714Y-56075571D02*
X130124714Y-57075571D01*
X129767571Y-55504142D02*
X129410428Y-56575571D01*
X130339000Y-56575571D01*
X130696142Y-55575571D02*
X131196142Y-57075571D01*
X131696142Y-55575571D01*
X126704142Y-59869571D02*
X126704142Y-58369571D01*
X127061285Y-58369571D01*
X127275571Y-58441000D01*
X127418428Y-58583857D01*
X127489857Y-58726714D01*
X127561285Y-59012428D01*
X127561285Y-59226714D01*
X127489857Y-59512428D01*
X127418428Y-59655285D01*
X127275571Y-59798142D01*
X127061285Y-59869571D01*
X126704142Y-59869571D01*
X128489857Y-58369571D02*
X128775571Y-58369571D01*
X128918428Y-58441000D01*
X129061285Y-58583857D01*
X129132714Y-58869571D01*
X129132714Y-59369571D01*
X129061285Y-59655285D01*
X128918428Y-59798142D01*
X128775571Y-59869571D01*
X128489857Y-59869571D01*
X128347000Y-59798142D01*
X128204142Y-59655285D01*
X128132714Y-59369571D01*
X128132714Y-58869571D01*
X128204142Y-58583857D01*
X128347000Y-58441000D01*
X128489857Y-58369571D01*
X129704142Y-58512428D02*
X129775571Y-58441000D01*
X129918428Y-58369571D01*
X130275571Y-58369571D01*
X130418428Y-58441000D01*
X130489857Y-58512428D01*
X130561285Y-58655285D01*
X130561285Y-58798142D01*
X130489857Y-59012428D01*
X129632714Y-59869571D01*
X130561285Y-59869571D01*
X131061285Y-58369571D02*
X132061285Y-58369571D01*
X131418428Y-59869571D01*
X126704142Y-62409571D02*
X126704142Y-60909571D01*
X127061285Y-60909571D01*
X127275571Y-60981000D01*
X127418428Y-61123857D01*
X127489857Y-61266714D01*
X127561285Y-61552428D01*
X127561285Y-61766714D01*
X127489857Y-62052428D01*
X127418428Y-62195285D01*
X127275571Y-62338142D01*
X127061285Y-62409571D01*
X126704142Y-62409571D01*
X128489857Y-60909571D02*
X128775571Y-60909571D01*
X128918428Y-60981000D01*
X129061285Y-61123857D01*
X129132714Y-61409571D01*
X129132714Y-61909571D01*
X129061285Y-62195285D01*
X128918428Y-62338142D01*
X128775571Y-62409571D01*
X128489857Y-62409571D01*
X128347000Y-62338142D01*
X128204142Y-62195285D01*
X128132714Y-61909571D01*
X128132714Y-61409571D01*
X128204142Y-61123857D01*
X128347000Y-60981000D01*
X128489857Y-60909571D01*
X130561285Y-62409571D02*
X129704142Y-62409571D01*
X130132714Y-62409571D02*
X130132714Y-60909571D01*
X129989857Y-61123857D01*
X129847000Y-61266714D01*
X129704142Y-61338142D01*
X131847000Y-60909571D02*
X131561285Y-60909571D01*
X131418428Y-60981000D01*
X131347000Y-61052428D01*
X131204142Y-61266714D01*
X131132714Y-61552428D01*
X131132714Y-62123857D01*
X131204142Y-62266714D01*
X131275571Y-62338142D01*
X131418428Y-62409571D01*
X131704142Y-62409571D01*
X131847000Y-62338142D01*
X131918428Y-62266714D01*
X131989857Y-62123857D01*
X131989857Y-61766714D01*
X131918428Y-61623857D01*
X131847000Y-61552428D01*
X131704142Y-61481000D01*
X131418428Y-61481000D01*
X131275571Y-61552428D01*
X131204142Y-61623857D01*
X131132714Y-61766714D01*
X126704142Y-64949571D02*
X126704142Y-63449571D01*
X127061285Y-63449571D01*
X127275571Y-63521000D01*
X127418428Y-63663857D01*
X127489857Y-63806714D01*
X127561285Y-64092428D01*
X127561285Y-64306714D01*
X127489857Y-64592428D01*
X127418428Y-64735285D01*
X127275571Y-64878142D01*
X127061285Y-64949571D01*
X126704142Y-64949571D01*
X128489857Y-63449571D02*
X128775571Y-63449571D01*
X128918428Y-63521000D01*
X129061285Y-63663857D01*
X129132714Y-63949571D01*
X129132714Y-64449571D01*
X129061285Y-64735285D01*
X128918428Y-64878142D01*
X128775571Y-64949571D01*
X128489857Y-64949571D01*
X128347000Y-64878142D01*
X128204142Y-64735285D01*
X128132714Y-64449571D01*
X128132714Y-63949571D01*
X128204142Y-63663857D01*
X128347000Y-63521000D01*
X128489857Y-63449571D01*
X130561285Y-64949571D02*
X129704142Y-64949571D01*
X130132714Y-64949571D02*
X130132714Y-63449571D01*
X129989857Y-63663857D01*
X129847000Y-63806714D01*
X129704142Y-63878142D01*
X131061285Y-63449571D02*
X131989857Y-63449571D01*
X131489857Y-64021000D01*
X131704142Y-64021000D01*
X131847000Y-64092428D01*
X131918428Y-64163857D01*
X131989857Y-64306714D01*
X131989857Y-64663857D01*
X131918428Y-64806714D01*
X131847000Y-64878142D01*
X131704142Y-64949571D01*
X131275571Y-64949571D01*
X131132714Y-64878142D01*
X131061285Y-64806714D01*
X126704142Y-67489571D02*
X126704142Y-65989571D01*
X127061285Y-65989571D01*
X127275571Y-66061000D01*
X127418428Y-66203857D01*
X127489857Y-66346714D01*
X127561285Y-66632428D01*
X127561285Y-66846714D01*
X127489857Y-67132428D01*
X127418428Y-67275285D01*
X127275571Y-67418142D01*
X127061285Y-67489571D01*
X126704142Y-67489571D01*
X128489857Y-65989571D02*
X128775571Y-65989571D01*
X128918428Y-66061000D01*
X129061285Y-66203857D01*
X129132714Y-66489571D01*
X129132714Y-66989571D01*
X129061285Y-67275285D01*
X128918428Y-67418142D01*
X128775571Y-67489571D01*
X128489857Y-67489571D01*
X128347000Y-67418142D01*
X128204142Y-67275285D01*
X128132714Y-66989571D01*
X128132714Y-66489571D01*
X128204142Y-66203857D01*
X128347000Y-66061000D01*
X128489857Y-65989571D01*
X130561285Y-67489571D02*
X129704142Y-67489571D01*
X130132714Y-67489571D02*
X130132714Y-65989571D01*
X129989857Y-66203857D01*
X129847000Y-66346714D01*
X129704142Y-66418142D01*
X131132714Y-66132428D02*
X131204142Y-66061000D01*
X131347000Y-65989571D01*
X131704142Y-65989571D01*
X131847000Y-66061000D01*
X131918428Y-66132428D01*
X131989857Y-66275285D01*
X131989857Y-66418142D01*
X131918428Y-66632428D01*
X131061285Y-67489571D01*
X131989857Y-67489571D01*
X126704142Y-70029571D02*
X126704142Y-68529571D01*
X127061285Y-68529571D01*
X127275571Y-68601000D01*
X127418428Y-68743857D01*
X127489857Y-68886714D01*
X127561285Y-69172428D01*
X127561285Y-69386714D01*
X127489857Y-69672428D01*
X127418428Y-69815285D01*
X127275571Y-69958142D01*
X127061285Y-70029571D01*
X126704142Y-70029571D01*
X128204142Y-70029571D02*
X128204142Y-68529571D01*
X128847000Y-68672428D02*
X128918428Y-68601000D01*
X129061285Y-68529571D01*
X129418428Y-68529571D01*
X129561285Y-68601000D01*
X129632714Y-68672428D01*
X129704142Y-68815285D01*
X129704142Y-68958142D01*
X129632714Y-69172428D01*
X128775571Y-70029571D01*
X129704142Y-70029571D01*
X130989857Y-68529571D02*
X130704142Y-68529571D01*
X130561285Y-68601000D01*
X130489857Y-68672428D01*
X130347000Y-68886714D01*
X130275571Y-69172428D01*
X130275571Y-69743857D01*
X130347000Y-69886714D01*
X130418428Y-69958142D01*
X130561285Y-70029571D01*
X130847000Y-70029571D01*
X130989857Y-69958142D01*
X131061285Y-69886714D01*
X131132714Y-69743857D01*
X131132714Y-69386714D01*
X131061285Y-69243857D01*
X130989857Y-69172428D01*
X130847000Y-69101000D01*
X130561285Y-69101000D01*
X130418428Y-69172428D01*
X130347000Y-69243857D01*
X130275571Y-69386714D01*
X126704142Y-72569571D02*
X126704142Y-71069571D01*
X127061285Y-71069571D01*
X127275571Y-71141000D01*
X127418428Y-71283857D01*
X127489857Y-71426714D01*
X127561285Y-71712428D01*
X127561285Y-71926714D01*
X127489857Y-72212428D01*
X127418428Y-72355285D01*
X127275571Y-72498142D01*
X127061285Y-72569571D01*
X126704142Y-72569571D01*
X128204142Y-72569571D02*
X128204142Y-71069571D01*
X129704142Y-72569571D02*
X128847000Y-72569571D01*
X129275571Y-72569571D02*
X129275571Y-71069571D01*
X129132714Y-71283857D01*
X128989857Y-71426714D01*
X128847000Y-71498142D01*
X130204142Y-71069571D02*
X131204142Y-71069571D01*
X130561285Y-72569571D01*
X74223571Y-63038095D02*
X73604523Y-63038095D01*
X73604523Y-61738095D01*
X74842619Y-63038095D02*
X74718809Y-62976190D01*
X74656904Y-62914285D01*
X74595000Y-62790476D01*
X74595000Y-62419047D01*
X74656904Y-62295238D01*
X74718809Y-62233333D01*
X74842619Y-62171428D01*
X75028333Y-62171428D01*
X75152142Y-62233333D01*
X75214047Y-62295238D01*
X75275952Y-62419047D01*
X75275952Y-62790476D01*
X75214047Y-62914285D01*
X75152142Y-62976190D01*
X75028333Y-63038095D01*
X74842619Y-63038095D01*
X75709285Y-62171428D02*
X75956904Y-63038095D01*
X76204523Y-62419047D01*
X76452142Y-63038095D01*
X76699761Y-62171428D01*
X77999761Y-61738095D02*
X78433095Y-63038095D01*
X78866428Y-61738095D01*
X79299761Y-63038095D02*
X79299761Y-61738095D01*
X79609285Y-61738095D01*
X79795000Y-61800000D01*
X79918809Y-61923809D01*
X79980714Y-62047619D01*
X80042619Y-62295238D01*
X80042619Y-62480952D01*
X79980714Y-62728571D01*
X79918809Y-62852380D01*
X79795000Y-62976190D01*
X79609285Y-63038095D01*
X79299761Y-63038095D01*
X81342619Y-62914285D02*
X81280714Y-62976190D01*
X81095000Y-63038095D01*
X80971190Y-63038095D01*
X80785476Y-62976190D01*
X80661666Y-62852380D01*
X80599761Y-62728571D01*
X80537857Y-62480952D01*
X80537857Y-62295238D01*
X80599761Y-62047619D01*
X80661666Y-61923809D01*
X80785476Y-61800000D01*
X80971190Y-61738095D01*
X81095000Y-61738095D01*
X81280714Y-61800000D01*
X81342619Y-61861904D01*
X81899761Y-62542857D02*
X82890238Y-62542857D01*
X82395000Y-63038095D02*
X82395000Y-62047619D01*
X73790238Y-64545238D02*
X73666428Y-64483333D01*
X73604523Y-64421428D01*
X73542619Y-64297619D01*
X73542619Y-64235714D01*
X73604523Y-64111904D01*
X73666428Y-64050000D01*
X73790238Y-63988095D01*
X74037857Y-63988095D01*
X74161666Y-64050000D01*
X74223571Y-64111904D01*
X74285476Y-64235714D01*
X74285476Y-64297619D01*
X74223571Y-64421428D01*
X74161666Y-64483333D01*
X74037857Y-64545238D01*
X73790238Y-64545238D01*
X73666428Y-64607142D01*
X73604523Y-64669047D01*
X73542619Y-64792857D01*
X73542619Y-65040476D01*
X73604523Y-65164285D01*
X73666428Y-65226190D01*
X73790238Y-65288095D01*
X74037857Y-65288095D01*
X74161666Y-65226190D01*
X74223571Y-65164285D01*
X74285476Y-65040476D01*
X74285476Y-64792857D01*
X74223571Y-64669047D01*
X74161666Y-64607142D01*
X74037857Y-64545238D01*
X74842619Y-64792857D02*
X75833095Y-64792857D01*
X76328333Y-63988095D02*
X77133095Y-63988095D01*
X76699761Y-64483333D01*
X76885476Y-64483333D01*
X77009285Y-64545238D01*
X77071190Y-64607142D01*
X77133095Y-64730952D01*
X77133095Y-65040476D01*
X77071190Y-65164285D01*
X77009285Y-65226190D01*
X76885476Y-65288095D01*
X76514047Y-65288095D01*
X76390238Y-65226190D01*
X76328333Y-65164285D01*
X78247380Y-63988095D02*
X77999761Y-63988095D01*
X77875952Y-64050000D01*
X77814047Y-64111904D01*
X77690238Y-64297619D01*
X77628333Y-64545238D01*
X77628333Y-65040476D01*
X77690238Y-65164285D01*
X77752142Y-65226190D01*
X77875952Y-65288095D01*
X78123571Y-65288095D01*
X78247380Y-65226190D01*
X78309285Y-65164285D01*
X78371190Y-65040476D01*
X78371190Y-64730952D01*
X78309285Y-64607142D01*
X78247380Y-64545238D01*
X78123571Y-64483333D01*
X77875952Y-64483333D01*
X77752142Y-64545238D01*
X77690238Y-64607142D01*
X77628333Y-64730952D01*
X78742619Y-63988095D02*
X79175952Y-65288095D01*
X79609285Y-63988095D01*
X73885714Y-77953571D02*
X74028571Y-77953571D01*
X74171428Y-78025000D01*
X74242857Y-78096428D01*
X74314285Y-78239285D01*
X74385714Y-78525000D01*
X74385714Y-78882142D01*
X74314285Y-79167857D01*
X74242857Y-79310714D01*
X74171428Y-79382142D01*
X74028571Y-79453571D01*
X73885714Y-79453571D01*
X73742857Y-79382142D01*
X73671428Y-79310714D01*
X73600000Y-79167857D01*
X73528571Y-78882142D01*
X73528571Y-78525000D01*
X73600000Y-78239285D01*
X73671428Y-78096428D01*
X73742857Y-78025000D01*
X73885714Y-77953571D01*
X74814285Y-77953571D02*
X75314285Y-79453571D01*
X75814285Y-77953571D01*
X126696142Y-76863857D02*
X126910428Y-76935285D01*
X126981857Y-77006714D01*
X127053285Y-77149571D01*
X127053285Y-77363857D01*
X126981857Y-77506714D01*
X126910428Y-77578142D01*
X126767571Y-77649571D01*
X126196142Y-77649571D01*
X126196142Y-76149571D01*
X126696142Y-76149571D01*
X126839000Y-76221000D01*
X126910428Y-76292428D01*
X126981857Y-76435285D01*
X126981857Y-76578142D01*
X126910428Y-76721000D01*
X126839000Y-76792428D01*
X126696142Y-76863857D01*
X126196142Y-76863857D01*
X128767571Y-76078142D02*
X127481857Y-78006714D01*
X129267571Y-77649571D02*
X129267571Y-76149571D01*
X129624714Y-76149571D01*
X129839000Y-76221000D01*
X129981857Y-76363857D01*
X130053285Y-76506714D01*
X130124714Y-76792428D01*
X130124714Y-77006714D01*
X130053285Y-77292428D01*
X129981857Y-77435285D01*
X129839000Y-77578142D01*
X129624714Y-77649571D01*
X129267571Y-77649571D01*
X130767571Y-77078142D02*
X131910428Y-77078142D01*
D11*
X128214000Y-74953000D02*
X128714000Y-74953000D01*
X127714000Y-74453000D02*
X129214000Y-74453000D01*
X129524660Y-74203000D02*
G75*
G03X129524660Y-74203000I-1060660J0D01*
G01*
X128464000Y-74453000D02*
X128464000Y-73453000D01*
X127964000Y-74703000D02*
X128964000Y-74703000D01*
D12*
X126124714Y-79761000D02*
X126839000Y-79761000D01*
X125981857Y-80189571D02*
X126481857Y-78689571D01*
X126981857Y-80189571D01*
X128553285Y-78618142D02*
X127267571Y-80546714D01*
X129053285Y-80189571D02*
X129053285Y-78689571D01*
X129410428Y-78689571D01*
X129624714Y-78761000D01*
X129767571Y-78903857D01*
X129839000Y-79046714D01*
X129910428Y-79332428D01*
X129910428Y-79546714D01*
X129839000Y-79832428D01*
X129767571Y-79975285D01*
X129624714Y-80118142D01*
X129410428Y-80189571D01*
X129053285Y-80189571D01*
X130553285Y-79618142D02*
X131696142Y-79618142D01*
X131124714Y-80189571D02*
X131124714Y-79046714D01*
D14*
G04 #@! TO.C,J2*
X132650000Y-93925000D02*
X132650000Y-105675000D01*
X127150000Y-93925000D02*
X127150000Y-105675000D01*
X132650000Y-105675000D02*
X127150000Y-105675000D01*
X132650000Y-93925000D02*
X127150000Y-93925000D01*
D15*
G04 #@! TO.C,J4*
X74975000Y-84940000D02*
X74975000Y-85850000D01*
X74975000Y-85850000D02*
X74490000Y-85850000D01*
X74490000Y-85850000D02*
X74490000Y-91150000D01*
X74490000Y-91150000D02*
X74975000Y-91150000D01*
X125025000Y-85850000D02*
X125510000Y-85850000D01*
X125510000Y-85850000D02*
X125510000Y-91150000D01*
X125510000Y-91150000D02*
X125025000Y-91150000D01*
X76765000Y-85850000D02*
X77515000Y-85850000D01*
X76765000Y-91150000D02*
X77515000Y-91150000D01*
X79305000Y-85850000D02*
X80055000Y-85850000D01*
X79305000Y-91150000D02*
X80055000Y-91150000D01*
X81845000Y-85850000D02*
X82595000Y-85850000D01*
X81845000Y-91150000D02*
X82595000Y-91150000D01*
X84385000Y-85850000D02*
X85135000Y-85850000D01*
X84385000Y-91150000D02*
X85135000Y-91150000D01*
X86925000Y-85850000D02*
X87675000Y-85850000D01*
X86925000Y-91150000D02*
X87675000Y-91150000D01*
X89465000Y-85850000D02*
X90215000Y-85850000D01*
X89465000Y-91150000D02*
X90215000Y-91150000D01*
X92005000Y-85850000D02*
X92755000Y-85850000D01*
X92005000Y-91150000D02*
X92755000Y-91150000D01*
X94545000Y-85850000D02*
X95295000Y-85850000D01*
X94545000Y-91150000D02*
X95295000Y-91150000D01*
X97085000Y-85850000D02*
X97835000Y-85850000D01*
X97085000Y-91150000D02*
X97835000Y-91150000D01*
X99625000Y-85850000D02*
X100375000Y-85850000D01*
X99625000Y-91150000D02*
X100375000Y-91150000D01*
X102165000Y-85850000D02*
X102915000Y-85850000D01*
X102165000Y-91150000D02*
X102915000Y-91150000D01*
X104705000Y-85850000D02*
X105455000Y-85850000D01*
X104705000Y-91150000D02*
X105455000Y-91150000D01*
X107245000Y-85850000D02*
X107995000Y-85850000D01*
X107245000Y-91150000D02*
X107995000Y-91150000D01*
X109785000Y-85850000D02*
X110535000Y-85850000D01*
X109785000Y-91150000D02*
X110535000Y-91150000D01*
X112325000Y-85850000D02*
X113075000Y-85850000D01*
X112325000Y-91150000D02*
X113075000Y-91150000D01*
X114865000Y-85850000D02*
X115615000Y-85850000D01*
X114865000Y-91150000D02*
X115615000Y-91150000D01*
X117405000Y-85850000D02*
X118155000Y-85850000D01*
X117405000Y-91150000D02*
X118155000Y-91150000D01*
X119945000Y-85850000D02*
X120695000Y-85850000D01*
X119945000Y-91150000D02*
X120695000Y-91150000D01*
X122485000Y-85850000D02*
X123235000Y-85850000D01*
X122485000Y-91150000D02*
X123235000Y-91150000D01*
G04 #@! TO.C,U1*
X113600000Y-107809600D02*
X113896985Y-107512615D01*
X108565400Y-102775000D02*
X108862385Y-103071985D01*
X108862385Y-103071985D02*
X107886577Y-104047792D01*
X113600000Y-97740400D02*
X113303015Y-98037385D01*
X118634600Y-102775000D02*
X118337615Y-103071985D01*
X108565400Y-102775000D02*
X108862385Y-102478015D01*
X113600000Y-107809600D02*
X113303015Y-107512615D01*
X118634600Y-102775000D02*
X118337615Y-102478015D01*
X113600000Y-97740400D02*
X113896985Y-98037385D01*
D14*
G04 #@! TO.C,U2*
X80000000Y-82025000D02*
X117000000Y-82025000D01*
X80000000Y-57525000D02*
X117000000Y-57525000D01*
X80000000Y-57525000D02*
X80000000Y-82025000D01*
X117000000Y-57525000D02*
X117000000Y-82025000D01*
G04 #@! TO.C,U3*
X92725000Y-97590000D02*
X91350000Y-97590000D01*
X92725000Y-102475000D02*
X96875000Y-102475000D01*
X92725000Y-97475000D02*
X96875000Y-97475000D01*
X92725000Y-102475000D02*
X92725000Y-102360000D01*
X96875000Y-102475000D02*
X96875000Y-102360000D01*
X96875000Y-97475000D02*
X96875000Y-97590000D01*
X92725000Y-97475000D02*
X92725000Y-97590000D01*
D16*
X90800000Y-98075000D02*
G75*
G03X90800000Y-98075000I-300000J0D01*
G01*
D14*
G04 #@! TO.C,U4*
X89600000Y-74275000D02*
X91000000Y-74275000D01*
X89600000Y-65475000D02*
X91000000Y-65475000D01*
X105400000Y-74275000D02*
X104000000Y-74275000D01*
X105400000Y-65475000D02*
X104000000Y-65475000D01*
X89600000Y-65475000D02*
X89600000Y-74275000D01*
X105400000Y-65475000D02*
X105400000Y-74275000D01*
D15*
G04 #@! TO.C,U5*
X71210000Y-104975000D02*
X71210000Y-101975000D01*
X67990000Y-103475000D02*
X67990000Y-101975000D01*
D14*
G04 #@! TO.C,J1*
X125550000Y-80900000D02*
X125550000Y-55100000D01*
X119050000Y-80900000D02*
X119050000Y-55100000D01*
X119050000Y-55100000D02*
X125550000Y-55100000D01*
X125550000Y-80900000D02*
X119050000Y-80900000D01*
G04 #@! TO.C,J12*
X70500000Y-82500000D02*
X77000000Y-82500000D01*
X77000000Y-60500000D02*
X70500000Y-60500000D01*
D15*
G04 #@! TO.C,J3*
X70560000Y-76580000D02*
X70560000Y-66420000D01*
X69100000Y-76580000D02*
X77100000Y-76580000D01*
X77100000Y-76580000D02*
X77100000Y-66420000D01*
X77100000Y-66420000D02*
X69100000Y-66420000D01*
X69100000Y-66420000D02*
X69100000Y-76580000D01*
G04 #@! TO.C,J6*
X121100000Y-112400000D02*
X122100000Y-112400000D01*
X120600000Y-111400000D02*
X120600000Y-110400000D01*
X120600000Y-110400000D02*
X121600000Y-110400000D01*
G04 #@! TO.C,J7*
X120700000Y-109500000D02*
X121700000Y-109500000D01*
X120200000Y-108500000D02*
X120200000Y-107500000D01*
X120200000Y-107500000D02*
X121200000Y-107500000D01*
G04 #@! TO.C,J8*
X109000000Y-114200000D02*
X110000000Y-114200000D01*
X108500000Y-113200000D02*
X108500000Y-112200000D01*
X108500000Y-112200000D02*
X109500000Y-112200000D01*
G04 #@! TO.C,J9*
X107200000Y-114200000D02*
X108200000Y-114200000D01*
X106700000Y-113200000D02*
X106700000Y-112200000D01*
X106700000Y-112200000D02*
X107700000Y-112200000D01*
D14*
G04 #@! TO.C,C3*
X109130850Y-107598744D02*
X108423744Y-108305850D01*
X107469150Y-107351256D02*
X108176256Y-106644150D01*
D15*
G04 #@! TO.C,C4*
X97260000Y-55127064D02*
X97260000Y-53922936D01*
X95440000Y-55127064D02*
X95440000Y-53922936D01*
D14*
G04 #@! TO.C,C5*
X107330850Y-105798744D02*
X106623744Y-106505850D01*
X105669150Y-105551256D02*
X106376256Y-104844150D01*
G04 #@! TO.C,C6*
X106176256Y-100605850D02*
X105469150Y-99898744D01*
X106423744Y-98944150D02*
X107130850Y-99651256D01*
G04 #@! TO.C,C8*
X96825000Y-95975000D02*
X96825000Y-94975000D01*
X98175000Y-94975000D02*
X98175000Y-95975000D01*
G04 #@! TO.C,C9*
X119430850Y-97598744D02*
X118723744Y-98305850D01*
X117769150Y-97351256D02*
X118476256Y-96644150D01*
G04 #@! TO.C,C10*
X95600000Y-79125000D02*
X96600000Y-79125000D01*
X96600000Y-77425000D02*
X95600000Y-77425000D01*
G04 #@! TO.C,C11*
X117123744Y-108544150D02*
X117830850Y-109251256D01*
X116876256Y-110205850D02*
X116169150Y-109498744D01*
G04 #@! TO.C,C12*
X99450000Y-55275000D02*
X99450000Y-54275000D01*
X97750000Y-54275000D02*
X97750000Y-55275000D01*
G04 #@! TO.C,C13*
X71100000Y-100950000D02*
X70100000Y-100950000D01*
X70100000Y-99600000D02*
X71100000Y-99600000D01*
G04 #@! TO.C,FB1*
X103123744Y-100644150D02*
X103830850Y-101351256D01*
X102876256Y-102305850D02*
X102169150Y-101598744D01*
G04 #@! TO.C,R1*
X110330850Y-108798744D02*
X109623744Y-109505850D01*
X108669150Y-108551256D02*
X109376256Y-107844150D01*
G04 #@! TO.C,R2*
X106130850Y-104598744D02*
X105423744Y-105305850D01*
X104469150Y-104351256D02*
X105176256Y-103644150D01*
G04 #@! TO.C,R3*
X105223744Y-100144150D02*
X105930850Y-100851256D01*
X104976256Y-101805850D02*
X104269150Y-101098744D01*
G04 #@! TO.C,R4*
X106725000Y-73475000D02*
X106725000Y-72475000D01*
X108075000Y-72475000D02*
X108075000Y-73475000D01*
G04 #@! TO.C,R5*
X101925000Y-61975000D02*
X101925000Y-60975000D01*
X103275000Y-60975000D02*
X103275000Y-61975000D01*
G04 #@! TO.C,Y1*
X109580330Y-97044670D02*
G75*
G03X109580330Y-97044670I-250000J0D01*
G01*
X108092893Y-99696320D02*
X107916117Y-99873097D01*
X106678680Y-98282107D02*
X106501903Y-98458883D01*
X110921320Y-96867893D02*
X111098097Y-96691117D01*
X109507107Y-95453680D02*
X109683883Y-95276903D01*
X109860660Y-97928553D02*
X110214214Y-97575000D01*
X108800000Y-98989214D02*
X109153553Y-98635660D01*
X108446447Y-96514340D02*
X108800000Y-96160786D01*
X107385786Y-97575000D02*
X107739340Y-97221447D01*
X106501903Y-98458883D02*
X107916117Y-99873097D01*
X109683883Y-95276903D02*
X111098097Y-96691117D01*
G04 #@! TO.C,C1*
X91600000Y-53375000D02*
X92600000Y-53375000D01*
X92600000Y-51675000D02*
X91600000Y-51675000D01*
D15*
G04 #@! TO.C,L1*
X82500000Y-54075000D02*
X82500000Y-54475000D01*
X85700000Y-54075000D02*
X85700000Y-54475000D01*
D14*
G04 #@! TO.C,R7*
X91775000Y-54525000D02*
X91775000Y-55525000D01*
X90425000Y-55525000D02*
X90425000Y-54525000D01*
G04 #@! TO.C,R8*
X92175000Y-55525000D02*
X92175000Y-54525000D01*
X93525000Y-54525000D02*
X93525000Y-55525000D01*
D15*
G04 #@! TO.C,U6*
X86490000Y-53375000D02*
X86490000Y-55825000D01*
X89710000Y-55175000D02*
X89710000Y-53375000D01*
D14*
G04 #@! TO.C,C2*
X80100000Y-52425000D02*
X79100000Y-52425000D01*
X79100000Y-54125000D02*
X80100000Y-54125000D01*
G04 #@! TO.C,U7*
X82675000Y-97475000D02*
X81325000Y-97475000D01*
X82675000Y-102600000D02*
X87325000Y-102600000D01*
X82675000Y-97350000D02*
X87325000Y-97350000D01*
X82675000Y-102600000D02*
X82675000Y-102375000D01*
X87325000Y-102600000D02*
X87325000Y-102375000D01*
X87325000Y-97350000D02*
X87325000Y-97575000D01*
X82675000Y-97350000D02*
X82675000Y-97475000D01*
D15*
G04 #@! TO.C,Q1*
X114780000Y-54515000D02*
X114780000Y-55975000D01*
X111620000Y-54515000D02*
X111620000Y-56675000D01*
X111620000Y-54515000D02*
X112550000Y-54515000D01*
X114780000Y-54515000D02*
X113850000Y-54515000D01*
G04 #@! TO.C,Q2*
X118380000Y-54515000D02*
X118380000Y-55975000D01*
X115220000Y-54515000D02*
X115220000Y-56675000D01*
X115220000Y-54515000D02*
X116150000Y-54515000D01*
X118380000Y-54515000D02*
X117450000Y-54515000D01*
D14*
G04 #@! TO.C,U8*
X104675000Y-51575000D02*
X103325000Y-51575000D01*
X104675000Y-56700000D02*
X109325000Y-56700000D01*
X104675000Y-51450000D02*
X109325000Y-51450000D01*
X104675000Y-56700000D02*
X104675000Y-56475000D01*
X109325000Y-56700000D02*
X109325000Y-56475000D01*
X109325000Y-51450000D02*
X109325000Y-51675000D01*
X104675000Y-51450000D02*
X104675000Y-51575000D01*
G04 #@! TO.C,C14*
X86825000Y-95575000D02*
X86825000Y-94575000D01*
X88175000Y-94575000D02*
X88175000Y-95575000D01*
G04 #@! TO.C,C15*
X102675000Y-53775000D02*
X102675000Y-54775000D01*
X101325000Y-54775000D02*
X101325000Y-53775000D01*
G04 #@! TO.C,R9*
X114300000Y-52975000D02*
X113300000Y-52975000D01*
X113300000Y-51625000D02*
X114300000Y-51625000D01*
G04 #@! TO.C,R10*
X116300000Y-51625000D02*
X117300000Y-51625000D01*
X117300000Y-52975000D02*
X116300000Y-52975000D01*
G04 #@! TO.C,R11*
X85125000Y-95575000D02*
X85125000Y-94575000D01*
X86475000Y-94575000D02*
X86475000Y-95575000D01*
G04 #@! TO.C,R12*
X84775000Y-94575000D02*
X84775000Y-95575000D01*
X83425000Y-95575000D02*
X83425000Y-94575000D01*
G04 #@! TO.C,C7*
X83075000Y-94575000D02*
X83075000Y-95575000D01*
X81725000Y-95575000D02*
X81725000Y-94575000D01*
G04 #@! TO.C,J5*
X97000000Y-107900000D02*
X97000000Y-110100000D01*
X97000000Y-107900000D02*
X97740000Y-107900000D01*
X99000000Y-110100000D02*
X99000000Y-107900000D01*
X103000000Y-107900000D02*
X103000000Y-110100000D01*
X97740000Y-110100000D02*
X97000000Y-110100000D01*
X99000000Y-110100000D02*
X103000000Y-110100000D01*
X99000000Y-107900000D02*
X103000000Y-107900000D01*
G04 #@! TO.C,J10*
X87000000Y-107900000D02*
X87000000Y-110100000D01*
X87000000Y-107900000D02*
X87740000Y-107900000D01*
X89000000Y-110100000D02*
X89000000Y-107900000D01*
X93000000Y-107900000D02*
X93000000Y-110100000D01*
X87740000Y-110100000D02*
X87000000Y-110100000D01*
X89000000Y-110100000D02*
X93000000Y-110100000D01*
X89000000Y-107900000D02*
X93000000Y-107900000D01*
G04 #@! TO.C,J11*
X77000000Y-107900000D02*
X77000000Y-110100000D01*
X77000000Y-107900000D02*
X77740000Y-107900000D01*
X79000000Y-110100000D02*
X79000000Y-107900000D01*
X83000000Y-107900000D02*
X83000000Y-110100000D01*
X77740000Y-110100000D02*
X77000000Y-110100000D01*
X79000000Y-110100000D02*
X83000000Y-110100000D01*
X79000000Y-107900000D02*
X83000000Y-107900000D01*
G04 #@! TO.C,R6*
X105532753Y-95721967D02*
X106946967Y-94307753D01*
X108467247Y-95828033D02*
X107053033Y-97242247D01*
G04 #@! TO.C,J2*
X129252380Y-100133333D02*
X129966666Y-100133333D01*
X130109523Y-100180952D01*
X130204761Y-100276190D01*
X130252380Y-100419047D01*
X130252380Y-100514285D01*
X129347619Y-99704761D02*
X129300000Y-99657142D01*
X129252380Y-99561904D01*
X129252380Y-99323809D01*
X129300000Y-99228571D01*
X129347619Y-99180952D01*
X129442857Y-99133333D01*
X129538095Y-99133333D01*
X129680952Y-99180952D01*
X130252380Y-99752380D01*
X130252380Y-99133333D01*
G04 #@! TO.C,J4*
X81766666Y-88027380D02*
X81766666Y-88741666D01*
X81719047Y-88884523D01*
X81623809Y-88979761D01*
X81480952Y-89027380D01*
X81385714Y-89027380D01*
X82671428Y-88360714D02*
X82671428Y-89027380D01*
X82433333Y-87979761D02*
X82195238Y-88694047D01*
X82814285Y-88694047D01*
G04 #@! TO.C,U1*
X109174026Y-102826522D02*
X109746446Y-103398942D01*
X109847461Y-103432614D01*
X109914805Y-103432614D01*
X110015820Y-103398942D01*
X110150507Y-103264255D01*
X110184179Y-103163240D01*
X110184179Y-103095896D01*
X110150507Y-102994881D01*
X109578087Y-102422461D01*
X110992301Y-102422461D02*
X110588240Y-102826522D01*
X110790270Y-102624492D02*
X110083164Y-101917385D01*
X110116835Y-102085744D01*
X110116835Y-102220431D01*
X110083164Y-102321446D01*
G04 #@! TO.C,U2*
X82538095Y-80227380D02*
X82538095Y-81036904D01*
X82585714Y-81132142D01*
X82633333Y-81179761D01*
X82728571Y-81227380D01*
X82919047Y-81227380D01*
X83014285Y-81179761D01*
X83061904Y-81132142D01*
X83109523Y-81036904D01*
X83109523Y-80227380D01*
X83538095Y-80322619D02*
X83585714Y-80275000D01*
X83680952Y-80227380D01*
X83919047Y-80227380D01*
X84014285Y-80275000D01*
X84061904Y-80322619D01*
X84109523Y-80417857D01*
X84109523Y-80513095D01*
X84061904Y-80655952D01*
X83490476Y-81227380D01*
X84109523Y-81227380D01*
G04 #@! TO.C,U3*
X94038095Y-96027380D02*
X94038095Y-96836904D01*
X94085714Y-96932142D01*
X94133333Y-96979761D01*
X94228571Y-97027380D01*
X94419047Y-97027380D01*
X94514285Y-96979761D01*
X94561904Y-96932142D01*
X94609523Y-96836904D01*
X94609523Y-96027380D01*
X94990476Y-96027380D02*
X95609523Y-96027380D01*
X95276190Y-96408333D01*
X95419047Y-96408333D01*
X95514285Y-96455952D01*
X95561904Y-96503571D01*
X95609523Y-96598809D01*
X95609523Y-96836904D01*
X95561904Y-96932142D01*
X95514285Y-96979761D01*
X95419047Y-97027380D01*
X95133333Y-97027380D01*
X95038095Y-96979761D01*
X94990476Y-96932142D01*
G04 #@! TO.C,U4*
X89538095Y-75027380D02*
X89538095Y-75836904D01*
X89585714Y-75932142D01*
X89633333Y-75979761D01*
X89728571Y-76027380D01*
X89919047Y-76027380D01*
X90014285Y-75979761D01*
X90061904Y-75932142D01*
X90109523Y-75836904D01*
X90109523Y-75027380D01*
X91014285Y-75360714D02*
X91014285Y-76027380D01*
X90776190Y-74979761D02*
X90538095Y-75694047D01*
X91157142Y-75694047D01*
G04 #@! TO.C,U5*
X67966666Y-105791666D02*
X67966666Y-106358333D01*
X68000000Y-106425000D01*
X68033333Y-106458333D01*
X68100000Y-106491666D01*
X68233333Y-106491666D01*
X68300000Y-106458333D01*
X68333333Y-106425000D01*
X68366666Y-106358333D01*
X68366666Y-105791666D01*
X69033333Y-105791666D02*
X68700000Y-105791666D01*
X68666666Y-106125000D01*
X68700000Y-106091666D01*
X68766666Y-106058333D01*
X68933333Y-106058333D01*
X69000000Y-106091666D01*
X69033333Y-106125000D01*
X69066666Y-106191666D01*
X69066666Y-106358333D01*
X69033333Y-106425000D01*
X69000000Y-106458333D01*
X68933333Y-106491666D01*
X68766666Y-106491666D01*
X68700000Y-106458333D01*
X68666666Y-106425000D01*
G04 #@! TO.C,J1*
X122062666Y-81503380D02*
X122062666Y-82217666D01*
X122015047Y-82360523D01*
X121919809Y-82455761D01*
X121776952Y-82503380D01*
X121681714Y-82503380D01*
X123062666Y-82503380D02*
X122491238Y-82503380D01*
X122776952Y-82503380D02*
X122776952Y-81503380D01*
X122681714Y-81646238D01*
X122586476Y-81741476D01*
X122491238Y-81789095D01*
G04 #@! TO.C,J12*
X69952380Y-72309523D02*
X70666666Y-72309523D01*
X70809523Y-72357142D01*
X70904761Y-72452380D01*
X70952380Y-72595238D01*
X70952380Y-72690476D01*
X70952380Y-71309523D02*
X70952380Y-71880952D01*
X70952380Y-71595238D02*
X69952380Y-71595238D01*
X70095238Y-71690476D01*
X70190476Y-71785714D01*
X70238095Y-71880952D01*
X70047619Y-70928571D02*
X70000000Y-70880952D01*
X69952380Y-70785714D01*
X69952380Y-70547619D01*
X70000000Y-70452380D01*
X70047619Y-70404761D01*
X70142857Y-70357142D01*
X70238095Y-70357142D01*
X70380952Y-70404761D01*
X70952380Y-70976190D01*
X70952380Y-70357142D01*
G04 #@! TO.C,J3*
X77632380Y-71833333D02*
X78346666Y-71833333D01*
X78489523Y-71880952D01*
X78584761Y-71976190D01*
X78632380Y-72119047D01*
X78632380Y-72214285D01*
X77632380Y-71452380D02*
X77632380Y-70833333D01*
X78013333Y-71166666D01*
X78013333Y-71023809D01*
X78060952Y-70928571D01*
X78108571Y-70880952D01*
X78203809Y-70833333D01*
X78441904Y-70833333D01*
X78537142Y-70880952D01*
X78584761Y-70928571D01*
X78632380Y-71023809D01*
X78632380Y-71309523D01*
X78584761Y-71404761D01*
X78537142Y-71452380D01*
G04 #@! TO.C,C3*
X106894280Y-109234272D02*
X106894280Y-109281412D01*
X106847140Y-109375693D01*
X106800000Y-109422834D01*
X106705719Y-109469974D01*
X106611438Y-109469974D01*
X106540727Y-109446404D01*
X106422876Y-109375693D01*
X106352165Y-109304983D01*
X106281455Y-109187132D01*
X106257884Y-109116421D01*
X106257884Y-109022140D01*
X106305025Y-108927859D01*
X106352165Y-108880719D01*
X106446446Y-108833578D01*
X106493587Y-108833578D01*
X106611438Y-108621446D02*
X106917851Y-108315033D01*
X106941421Y-108668587D01*
X107012132Y-108597876D01*
X107082842Y-108574306D01*
X107129983Y-108574306D01*
X107200693Y-108597876D01*
X107318544Y-108715727D01*
X107342115Y-108786438D01*
X107342115Y-108833578D01*
X107318544Y-108904289D01*
X107177123Y-109045710D01*
X107106412Y-109069280D01*
X107059272Y-109069280D01*
G04 #@! TO.C,C4*
X96233333Y-52025000D02*
X96200000Y-52058333D01*
X96100000Y-52091666D01*
X96033333Y-52091666D01*
X95933333Y-52058333D01*
X95866666Y-51991666D01*
X95833333Y-51925000D01*
X95800000Y-51791666D01*
X95800000Y-51691666D01*
X95833333Y-51558333D01*
X95866666Y-51491666D01*
X95933333Y-51425000D01*
X96033333Y-51391666D01*
X96100000Y-51391666D01*
X96200000Y-51425000D01*
X96233333Y-51458333D01*
X96833333Y-51625000D02*
X96833333Y-52091666D01*
X96666666Y-51358333D02*
X96500000Y-51858333D01*
X96933333Y-51858333D01*
G04 #@! TO.C,C5*
X104994280Y-107434272D02*
X104994280Y-107481412D01*
X104947140Y-107575693D01*
X104900000Y-107622834D01*
X104805719Y-107669974D01*
X104711438Y-107669974D01*
X104640727Y-107646404D01*
X104522876Y-107575693D01*
X104452165Y-107504983D01*
X104381455Y-107387132D01*
X104357884Y-107316421D01*
X104357884Y-107222140D01*
X104405025Y-107127859D01*
X104452165Y-107080719D01*
X104546446Y-107033578D01*
X104593587Y-107033578D01*
X104994280Y-106538603D02*
X104758578Y-106774306D01*
X104970710Y-107033578D01*
X104970710Y-106986438D01*
X104994280Y-106915727D01*
X105112132Y-106797876D01*
X105182842Y-106774306D01*
X105229983Y-106774306D01*
X105300693Y-106797876D01*
X105418544Y-106915727D01*
X105442115Y-106986438D01*
X105442115Y-107033578D01*
X105418544Y-107104289D01*
X105300693Y-107222140D01*
X105229983Y-107245710D01*
X105182842Y-107245710D01*
G04 #@! TO.C,C6*
X105094280Y-98734272D02*
X105094280Y-98781412D01*
X105047140Y-98875693D01*
X105000000Y-98922834D01*
X104905719Y-98969974D01*
X104811438Y-98969974D01*
X104740727Y-98946404D01*
X104622876Y-98875693D01*
X104552165Y-98804983D01*
X104481455Y-98687132D01*
X104457884Y-98616421D01*
X104457884Y-98522140D01*
X104505025Y-98427859D01*
X104552165Y-98380719D01*
X104646446Y-98333578D01*
X104693587Y-98333578D01*
X105070710Y-97862174D02*
X104976429Y-97956455D01*
X104952859Y-98027165D01*
X104952859Y-98074306D01*
X104976429Y-98192157D01*
X105047140Y-98310008D01*
X105235702Y-98498570D01*
X105306412Y-98522140D01*
X105353553Y-98522140D01*
X105424264Y-98498570D01*
X105518544Y-98404289D01*
X105542115Y-98333578D01*
X105542115Y-98286438D01*
X105518544Y-98215727D01*
X105400693Y-98097876D01*
X105329983Y-98074306D01*
X105282842Y-98074306D01*
X105212132Y-98097876D01*
X105117851Y-98192157D01*
X105094280Y-98262867D01*
X105094280Y-98310008D01*
X105117851Y-98380719D01*
G04 #@! TO.C,C8*
X97383333Y-93925000D02*
X97350000Y-93958333D01*
X97250000Y-93991666D01*
X97183333Y-93991666D01*
X97083333Y-93958333D01*
X97016666Y-93891666D01*
X96983333Y-93825000D01*
X96950000Y-93691666D01*
X96950000Y-93591666D01*
X96983333Y-93458333D01*
X97016666Y-93391666D01*
X97083333Y-93325000D01*
X97183333Y-93291666D01*
X97250000Y-93291666D01*
X97350000Y-93325000D01*
X97383333Y-93358333D01*
X97783333Y-93591666D02*
X97716666Y-93558333D01*
X97683333Y-93525000D01*
X97650000Y-93458333D01*
X97650000Y-93425000D01*
X97683333Y-93358333D01*
X97716666Y-93325000D01*
X97783333Y-93291666D01*
X97916666Y-93291666D01*
X97983333Y-93325000D01*
X98016666Y-93358333D01*
X98050000Y-93425000D01*
X98050000Y-93458333D01*
X98016666Y-93525000D01*
X97983333Y-93558333D01*
X97916666Y-93591666D01*
X97783333Y-93591666D01*
X97716666Y-93625000D01*
X97683333Y-93658333D01*
X97650000Y-93725000D01*
X97650000Y-93858333D01*
X97683333Y-93925000D01*
X97716666Y-93958333D01*
X97783333Y-93991666D01*
X97916666Y-93991666D01*
X97983333Y-93958333D01*
X98016666Y-93925000D01*
X98050000Y-93858333D01*
X98050000Y-93725000D01*
X98016666Y-93658333D01*
X97983333Y-93625000D01*
X97916666Y-93591666D01*
G04 #@! TO.C,C9*
X120194280Y-96234272D02*
X120194280Y-96281412D01*
X120147140Y-96375693D01*
X120100000Y-96422834D01*
X120005719Y-96469974D01*
X119911438Y-96469974D01*
X119840727Y-96446404D01*
X119722876Y-96375693D01*
X119652165Y-96304983D01*
X119581455Y-96187132D01*
X119557884Y-96116421D01*
X119557884Y-96022140D01*
X119605025Y-95927859D01*
X119652165Y-95880719D01*
X119746446Y-95833578D01*
X119793587Y-95833578D01*
X120477123Y-96045710D02*
X120571404Y-95951429D01*
X120594974Y-95880719D01*
X120594974Y-95833578D01*
X120571404Y-95715727D01*
X120500693Y-95597876D01*
X120312132Y-95409314D01*
X120241421Y-95385744D01*
X120194280Y-95385744D01*
X120123570Y-95409314D01*
X120029289Y-95503595D01*
X120005719Y-95574306D01*
X120005719Y-95621446D01*
X120029289Y-95692157D01*
X120147140Y-95810008D01*
X120217851Y-95833578D01*
X120264991Y-95833578D01*
X120335702Y-95810008D01*
X120429983Y-95715727D01*
X120453553Y-95645016D01*
X120453553Y-95597876D01*
X120429983Y-95527165D01*
G04 #@! TO.C,C10*
X98650000Y-78525000D02*
X98616666Y-78558333D01*
X98516666Y-78591666D01*
X98450000Y-78591666D01*
X98350000Y-78558333D01*
X98283333Y-78491666D01*
X98250000Y-78425000D01*
X98216666Y-78291666D01*
X98216666Y-78191666D01*
X98250000Y-78058333D01*
X98283333Y-77991666D01*
X98350000Y-77925000D01*
X98450000Y-77891666D01*
X98516666Y-77891666D01*
X98616666Y-77925000D01*
X98650000Y-77958333D01*
X99316666Y-78591666D02*
X98916666Y-78591666D01*
X99116666Y-78591666D02*
X99116666Y-77891666D01*
X99050000Y-77991666D01*
X98983333Y-78058333D01*
X98916666Y-78091666D01*
X99750000Y-77891666D02*
X99816666Y-77891666D01*
X99883333Y-77925000D01*
X99916666Y-77958333D01*
X99950000Y-78025000D01*
X99983333Y-78158333D01*
X99983333Y-78325000D01*
X99950000Y-78458333D01*
X99916666Y-78525000D01*
X99883333Y-78558333D01*
X99816666Y-78591666D01*
X99750000Y-78591666D01*
X99683333Y-78558333D01*
X99650000Y-78525000D01*
X99616666Y-78458333D01*
X99583333Y-78325000D01*
X99583333Y-78158333D01*
X99616666Y-78025000D01*
X99650000Y-77958333D01*
X99683333Y-77925000D01*
X99750000Y-77891666D01*
G04 #@! TO.C,C11*
X118205025Y-110933578D02*
X118157884Y-110933578D01*
X118063603Y-110886438D01*
X118016463Y-110839297D01*
X117969322Y-110745016D01*
X117969322Y-110650735D01*
X117992893Y-110580025D01*
X118063603Y-110462174D01*
X118134314Y-110391463D01*
X118252165Y-110320752D01*
X118322876Y-110297182D01*
X118417157Y-110297182D01*
X118511438Y-110344322D01*
X118558578Y-110391463D01*
X118605719Y-110485744D01*
X118605719Y-110532884D01*
X118629289Y-111452123D02*
X118346446Y-111169280D01*
X118487867Y-111310702D02*
X118982842Y-110815727D01*
X118864991Y-110839297D01*
X118770710Y-110839297D01*
X118699999Y-110815727D01*
X119100693Y-111923528D02*
X118817851Y-111640685D01*
X118959272Y-111782106D02*
X119454247Y-111287132D01*
X119336396Y-111310702D01*
X119242115Y-111310702D01*
X119171404Y-111287132D01*
G04 #@! TO.C,C12*
X98150000Y-52525000D02*
X98116666Y-52558333D01*
X98016666Y-52591666D01*
X97950000Y-52591666D01*
X97850000Y-52558333D01*
X97783333Y-52491666D01*
X97750000Y-52425000D01*
X97716666Y-52291666D01*
X97716666Y-52191666D01*
X97750000Y-52058333D01*
X97783333Y-51991666D01*
X97850000Y-51925000D01*
X97950000Y-51891666D01*
X98016666Y-51891666D01*
X98116666Y-51925000D01*
X98150000Y-51958333D01*
X98816666Y-52591666D02*
X98416666Y-52591666D01*
X98616666Y-52591666D02*
X98616666Y-51891666D01*
X98550000Y-51991666D01*
X98483333Y-52058333D01*
X98416666Y-52091666D01*
X99083333Y-51958333D02*
X99116666Y-51925000D01*
X99183333Y-51891666D01*
X99350000Y-51891666D01*
X99416666Y-51925000D01*
X99450000Y-51958333D01*
X99483333Y-52025000D01*
X99483333Y-52091666D01*
X99450000Y-52191666D01*
X99050000Y-52591666D01*
X99483333Y-52591666D01*
G04 #@! TO.C,C13*
X72550000Y-100525000D02*
X72516666Y-100558333D01*
X72416666Y-100591666D01*
X72350000Y-100591666D01*
X72250000Y-100558333D01*
X72183333Y-100491666D01*
X72150000Y-100425000D01*
X72116666Y-100291666D01*
X72116666Y-100191666D01*
X72150000Y-100058333D01*
X72183333Y-99991666D01*
X72250000Y-99925000D01*
X72350000Y-99891666D01*
X72416666Y-99891666D01*
X72516666Y-99925000D01*
X72550000Y-99958333D01*
X73216666Y-100591666D02*
X72816666Y-100591666D01*
X73016666Y-100591666D02*
X73016666Y-99891666D01*
X72950000Y-99991666D01*
X72883333Y-100058333D01*
X72816666Y-100091666D01*
X73450000Y-99891666D02*
X73883333Y-99891666D01*
X73650000Y-100158333D01*
X73750000Y-100158333D01*
X73816666Y-100191666D01*
X73850000Y-100225000D01*
X73883333Y-100291666D01*
X73883333Y-100458333D01*
X73850000Y-100525000D01*
X73816666Y-100558333D01*
X73750000Y-100591666D01*
X73550000Y-100591666D01*
X73483333Y-100558333D01*
X73450000Y-100525000D01*
G04 #@! TO.C,FB1*
X101152165Y-100452123D02*
X100987174Y-100617115D01*
X101246446Y-100876387D02*
X100751471Y-100381412D01*
X100987174Y-100145710D01*
X101576429Y-100027859D02*
X101670710Y-99980719D01*
X101717851Y-99980719D01*
X101788561Y-100004289D01*
X101859272Y-100074999D01*
X101882842Y-100145710D01*
X101882842Y-100192851D01*
X101859272Y-100263561D01*
X101670710Y-100452123D01*
X101175735Y-99957148D01*
X101340727Y-99792157D01*
X101411438Y-99768587D01*
X101458578Y-99768587D01*
X101529289Y-99792157D01*
X101576429Y-99839297D01*
X101600000Y-99910008D01*
X101600000Y-99957148D01*
X101576429Y-100027859D01*
X101411438Y-100192851D01*
X102424957Y-99697876D02*
X102142115Y-99980719D01*
X102283536Y-99839297D02*
X101788561Y-99344322D01*
X101812132Y-99462174D01*
X101812132Y-99556455D01*
X101788561Y-99627165D01*
G04 #@! TO.C,R1*
X108241421Y-110381412D02*
X107840727Y-110310702D01*
X107958578Y-110664255D02*
X107463603Y-110169280D01*
X107652165Y-109980719D01*
X107722876Y-109957148D01*
X107770016Y-109957148D01*
X107840727Y-109980719D01*
X107911438Y-110051429D01*
X107935008Y-110122140D01*
X107935008Y-110169280D01*
X107911438Y-110239991D01*
X107722876Y-110428553D01*
X108712825Y-109910008D02*
X108429983Y-110192851D01*
X108571404Y-110051429D02*
X108076429Y-109556455D01*
X108100000Y-109674306D01*
X108100000Y-109768587D01*
X108076429Y-109839297D01*
G04 #@! TO.C,R2*
X104041421Y-104381412D02*
X103640727Y-104310702D01*
X103758578Y-104664255D02*
X103263603Y-104169280D01*
X103452165Y-103980719D01*
X103522876Y-103957148D01*
X103570016Y-103957148D01*
X103640727Y-103980719D01*
X103711438Y-104051429D01*
X103735008Y-104122140D01*
X103735008Y-104169280D01*
X103711438Y-104239991D01*
X103522876Y-104428553D01*
X103782148Y-103745016D02*
X103782148Y-103697876D01*
X103805719Y-103627165D01*
X103923570Y-103509314D01*
X103994280Y-103485744D01*
X104041421Y-103485744D01*
X104112132Y-103509314D01*
X104159272Y-103556455D01*
X104206412Y-103650735D01*
X104206412Y-104216421D01*
X104512825Y-103910008D01*
G04 #@! TO.C,R3*
X103841421Y-99881412D02*
X103440727Y-99810702D01*
X103558578Y-100164255D02*
X103063603Y-99669280D01*
X103252165Y-99480719D01*
X103322876Y-99457148D01*
X103370016Y-99457148D01*
X103440727Y-99480719D01*
X103511438Y-99551429D01*
X103535008Y-99622140D01*
X103535008Y-99669280D01*
X103511438Y-99739991D01*
X103322876Y-99928553D01*
X103511438Y-99221446D02*
X103817851Y-98915033D01*
X103841421Y-99268587D01*
X103912132Y-99197876D01*
X103982842Y-99174306D01*
X104029983Y-99174306D01*
X104100693Y-99197876D01*
X104218544Y-99315727D01*
X104242115Y-99386438D01*
X104242115Y-99433578D01*
X104218544Y-99504289D01*
X104077123Y-99645710D01*
X104006412Y-99669280D01*
X103959272Y-99669280D01*
G04 #@! TO.C,R4*
X107283333Y-71391666D02*
X107050000Y-71058333D01*
X106883333Y-71391666D02*
X106883333Y-70691666D01*
X107150000Y-70691666D01*
X107216666Y-70725000D01*
X107250000Y-70758333D01*
X107283333Y-70825000D01*
X107283333Y-70925000D01*
X107250000Y-70991666D01*
X107216666Y-71025000D01*
X107150000Y-71058333D01*
X106883333Y-71058333D01*
X107883333Y-70925000D02*
X107883333Y-71391666D01*
X107716666Y-70658333D02*
X107550000Y-71158333D01*
X107983333Y-71158333D01*
G04 #@! TO.C,R5*
X102483333Y-59891666D02*
X102250000Y-59558333D01*
X102083333Y-59891666D02*
X102083333Y-59191666D01*
X102350000Y-59191666D01*
X102416666Y-59225000D01*
X102450000Y-59258333D01*
X102483333Y-59325000D01*
X102483333Y-59425000D01*
X102450000Y-59491666D01*
X102416666Y-59525000D01*
X102350000Y-59558333D01*
X102083333Y-59558333D01*
X103116666Y-59191666D02*
X102783333Y-59191666D01*
X102750000Y-59525000D01*
X102783333Y-59491666D01*
X102850000Y-59458333D01*
X103016666Y-59458333D01*
X103083333Y-59491666D01*
X103116666Y-59525000D01*
X103150000Y-59591666D01*
X103150000Y-59758333D01*
X103116666Y-59825000D01*
X103083333Y-59858333D01*
X103016666Y-59891666D01*
X102850000Y-59891666D01*
X102783333Y-59858333D01*
X102750000Y-59825000D01*
G04 #@! TO.C,Y1*
D17*
X109752512Y-94998917D02*
X109988214Y-95234619D01*
X109328248Y-94904636D02*
X109752512Y-94998917D01*
X109658231Y-94574653D01*
X110577470Y-94645363D02*
X110294627Y-94928206D01*
X110436049Y-94786785D02*
X109941074Y-94291810D01*
X109964644Y-94409661D01*
X109964644Y-94503942D01*
X109941074Y-94574653D01*
G04 #@! TO.C,C1*
D14*
X89483333Y-52025000D02*
X89450000Y-52058333D01*
X89350000Y-52091666D01*
X89283333Y-52091666D01*
X89183333Y-52058333D01*
X89116666Y-51991666D01*
X89083333Y-51925000D01*
X89050000Y-51791666D01*
X89050000Y-51691666D01*
X89083333Y-51558333D01*
X89116666Y-51491666D01*
X89183333Y-51425000D01*
X89283333Y-51391666D01*
X89350000Y-51391666D01*
X89450000Y-51425000D01*
X89483333Y-51458333D01*
X90150000Y-52091666D02*
X89750000Y-52091666D01*
X89950000Y-52091666D02*
X89950000Y-51391666D01*
X89883333Y-51491666D01*
X89816666Y-51558333D01*
X89750000Y-51591666D01*
G04 #@! TO.C,L1*
X81233333Y-56341666D02*
X80900000Y-56341666D01*
X80900000Y-55641666D01*
X81833333Y-56341666D02*
X81433333Y-56341666D01*
X81633333Y-56341666D02*
X81633333Y-55641666D01*
X81566666Y-55741666D01*
X81500000Y-55808333D01*
X81433333Y-55841666D01*
G04 #@! TO.C,R7*
X90983333Y-57341666D02*
X90750000Y-57008333D01*
X90583333Y-57341666D02*
X90583333Y-56641666D01*
X90850000Y-56641666D01*
X90916666Y-56675000D01*
X90950000Y-56708333D01*
X90983333Y-56775000D01*
X90983333Y-56875000D01*
X90950000Y-56941666D01*
X90916666Y-56975000D01*
X90850000Y-57008333D01*
X90583333Y-57008333D01*
X91216666Y-56641666D02*
X91683333Y-56641666D01*
X91383333Y-57341666D01*
G04 #@! TO.C,R8*
X92733333Y-57341666D02*
X92500000Y-57008333D01*
X92333333Y-57341666D02*
X92333333Y-56641666D01*
X92600000Y-56641666D01*
X92666666Y-56675000D01*
X92700000Y-56708333D01*
X92733333Y-56775000D01*
X92733333Y-56875000D01*
X92700000Y-56941666D01*
X92666666Y-56975000D01*
X92600000Y-57008333D01*
X92333333Y-57008333D01*
X93133333Y-56941666D02*
X93066666Y-56908333D01*
X93033333Y-56875000D01*
X93000000Y-56808333D01*
X93000000Y-56775000D01*
X93033333Y-56708333D01*
X93066666Y-56675000D01*
X93133333Y-56641666D01*
X93266666Y-56641666D01*
X93333333Y-56675000D01*
X93366666Y-56708333D01*
X93400000Y-56775000D01*
X93400000Y-56808333D01*
X93366666Y-56875000D01*
X93333333Y-56908333D01*
X93266666Y-56941666D01*
X93133333Y-56941666D01*
X93066666Y-56975000D01*
X93033333Y-57008333D01*
X93000000Y-57075000D01*
X93000000Y-57208333D01*
X93033333Y-57275000D01*
X93066666Y-57308333D01*
X93133333Y-57341666D01*
X93266666Y-57341666D01*
X93333333Y-57308333D01*
X93366666Y-57275000D01*
X93400000Y-57208333D01*
X93400000Y-57075000D01*
X93366666Y-57008333D01*
X93333333Y-56975000D01*
X93266666Y-56941666D01*
G04 #@! TO.C,U6*
X86816666Y-56391666D02*
X86816666Y-56958333D01*
X86850000Y-57025000D01*
X86883333Y-57058333D01*
X86950000Y-57091666D01*
X87083333Y-57091666D01*
X87150000Y-57058333D01*
X87183333Y-57025000D01*
X87216666Y-56958333D01*
X87216666Y-56391666D01*
X87850000Y-56391666D02*
X87716666Y-56391666D01*
X87650000Y-56425000D01*
X87616666Y-56458333D01*
X87550000Y-56558333D01*
X87516666Y-56691666D01*
X87516666Y-56958333D01*
X87550000Y-57025000D01*
X87583333Y-57058333D01*
X87650000Y-57091666D01*
X87783333Y-57091666D01*
X87850000Y-57058333D01*
X87883333Y-57025000D01*
X87916666Y-56958333D01*
X87916666Y-56791666D01*
X87883333Y-56725000D01*
X87850000Y-56691666D01*
X87783333Y-56658333D01*
X87650000Y-56658333D01*
X87583333Y-56691666D01*
X87550000Y-56725000D01*
X87516666Y-56791666D01*
G04 #@! TO.C,C2*
X76733333Y-53525000D02*
X76700000Y-53558333D01*
X76600000Y-53591666D01*
X76533333Y-53591666D01*
X76433333Y-53558333D01*
X76366666Y-53491666D01*
X76333333Y-53425000D01*
X76300000Y-53291666D01*
X76300000Y-53191666D01*
X76333333Y-53058333D01*
X76366666Y-52991666D01*
X76433333Y-52925000D01*
X76533333Y-52891666D01*
X76600000Y-52891666D01*
X76700000Y-52925000D01*
X76733333Y-52958333D01*
X77000000Y-52958333D02*
X77033333Y-52925000D01*
X77100000Y-52891666D01*
X77266666Y-52891666D01*
X77333333Y-52925000D01*
X77366666Y-52958333D01*
X77400000Y-53025000D01*
X77400000Y-53091666D01*
X77366666Y-53191666D01*
X76966666Y-53591666D01*
X77400000Y-53591666D01*
G04 #@! TO.C,U7*
X83138095Y-97827380D02*
X83138095Y-98636904D01*
X83185714Y-98732142D01*
X83233333Y-98779761D01*
X83328571Y-98827380D01*
X83519047Y-98827380D01*
X83614285Y-98779761D01*
X83661904Y-98732142D01*
X83709523Y-98636904D01*
X83709523Y-97827380D01*
X84090476Y-97827380D02*
X84757142Y-97827380D01*
X84328571Y-98827380D01*
G04 #@! TO.C,Q1*
X111833333Y-54358333D02*
X111766666Y-54325000D01*
X111700000Y-54258333D01*
X111600000Y-54158333D01*
X111533333Y-54125000D01*
X111466666Y-54125000D01*
X111500000Y-54291666D02*
X111433333Y-54258333D01*
X111366666Y-54191666D01*
X111333333Y-54058333D01*
X111333333Y-53825000D01*
X111366666Y-53691666D01*
X111433333Y-53625000D01*
X111500000Y-53591666D01*
X111633333Y-53591666D01*
X111700000Y-53625000D01*
X111766666Y-53691666D01*
X111800000Y-53825000D01*
X111800000Y-54058333D01*
X111766666Y-54191666D01*
X111700000Y-54258333D01*
X111633333Y-54291666D01*
X111500000Y-54291666D01*
X112466666Y-54291666D02*
X112066666Y-54291666D01*
X112266666Y-54291666D02*
X112266666Y-53591666D01*
X112200000Y-53691666D01*
X112133333Y-53758333D01*
X112066666Y-53791666D01*
G04 #@! TO.C,Q2*
X118033333Y-54258333D02*
X117966666Y-54225000D01*
X117900000Y-54158333D01*
X117800000Y-54058333D01*
X117733333Y-54025000D01*
X117666666Y-54025000D01*
X117700000Y-54191666D02*
X117633333Y-54158333D01*
X117566666Y-54091666D01*
X117533333Y-53958333D01*
X117533333Y-53725000D01*
X117566666Y-53591666D01*
X117633333Y-53525000D01*
X117700000Y-53491666D01*
X117833333Y-53491666D01*
X117900000Y-53525000D01*
X117966666Y-53591666D01*
X118000000Y-53725000D01*
X118000000Y-53958333D01*
X117966666Y-54091666D01*
X117900000Y-54158333D01*
X117833333Y-54191666D01*
X117700000Y-54191666D01*
X118266666Y-53558333D02*
X118300000Y-53525000D01*
X118366666Y-53491666D01*
X118533333Y-53491666D01*
X118600000Y-53525000D01*
X118633333Y-53558333D01*
X118666666Y-53625000D01*
X118666666Y-53691666D01*
X118633333Y-53791666D01*
X118233333Y-54191666D01*
X118666666Y-54191666D01*
G04 #@! TO.C,U8*
X101238095Y-51277380D02*
X101238095Y-52086904D01*
X101285714Y-52182142D01*
X101333333Y-52229761D01*
X101428571Y-52277380D01*
X101619047Y-52277380D01*
X101714285Y-52229761D01*
X101761904Y-52182142D01*
X101809523Y-52086904D01*
X101809523Y-51277380D01*
X102428571Y-51705952D02*
X102333333Y-51658333D01*
X102285714Y-51610714D01*
X102238095Y-51515476D01*
X102238095Y-51467857D01*
X102285714Y-51372619D01*
X102333333Y-51325000D01*
X102428571Y-51277380D01*
X102619047Y-51277380D01*
X102714285Y-51325000D01*
X102761904Y-51372619D01*
X102809523Y-51467857D01*
X102809523Y-51515476D01*
X102761904Y-51610714D01*
X102714285Y-51658333D01*
X102619047Y-51705952D01*
X102428571Y-51705952D01*
X102333333Y-51753571D01*
X102285714Y-51801190D01*
X102238095Y-51896428D01*
X102238095Y-52086904D01*
X102285714Y-52182142D01*
X102333333Y-52229761D01*
X102428571Y-52277380D01*
X102619047Y-52277380D01*
X102714285Y-52229761D01*
X102761904Y-52182142D01*
X102809523Y-52086904D01*
X102809523Y-51896428D01*
X102761904Y-51801190D01*
X102714285Y-51753571D01*
X102619047Y-51705952D01*
G04 #@! TO.C,C14*
X87850000Y-93525000D02*
X87816666Y-93558333D01*
X87716666Y-93591666D01*
X87650000Y-93591666D01*
X87550000Y-93558333D01*
X87483333Y-93491666D01*
X87450000Y-93425000D01*
X87416666Y-93291666D01*
X87416666Y-93191666D01*
X87450000Y-93058333D01*
X87483333Y-92991666D01*
X87550000Y-92925000D01*
X87650000Y-92891666D01*
X87716666Y-92891666D01*
X87816666Y-92925000D01*
X87850000Y-92958333D01*
X88516666Y-93591666D02*
X88116666Y-93591666D01*
X88316666Y-93591666D02*
X88316666Y-92891666D01*
X88250000Y-92991666D01*
X88183333Y-93058333D01*
X88116666Y-93091666D01*
X89116666Y-93125000D02*
X89116666Y-93591666D01*
X88950000Y-92858333D02*
X88783333Y-93358333D01*
X89216666Y-93358333D01*
G04 #@! TO.C,C15*
X101550000Y-56325000D02*
X101516666Y-56358333D01*
X101416666Y-56391666D01*
X101350000Y-56391666D01*
X101250000Y-56358333D01*
X101183333Y-56291666D01*
X101150000Y-56225000D01*
X101116666Y-56091666D01*
X101116666Y-55991666D01*
X101150000Y-55858333D01*
X101183333Y-55791666D01*
X101250000Y-55725000D01*
X101350000Y-55691666D01*
X101416666Y-55691666D01*
X101516666Y-55725000D01*
X101550000Y-55758333D01*
X102216666Y-56391666D02*
X101816666Y-56391666D01*
X102016666Y-56391666D02*
X102016666Y-55691666D01*
X101950000Y-55791666D01*
X101883333Y-55858333D01*
X101816666Y-55891666D01*
X102850000Y-55691666D02*
X102516666Y-55691666D01*
X102483333Y-56025000D01*
X102516666Y-55991666D01*
X102583333Y-55958333D01*
X102750000Y-55958333D01*
X102816666Y-55991666D01*
X102850000Y-56025000D01*
X102883333Y-56091666D01*
X102883333Y-56258333D01*
X102850000Y-56325000D01*
X102816666Y-56358333D01*
X102750000Y-56391666D01*
X102583333Y-56391666D01*
X102516666Y-56358333D01*
X102483333Y-56325000D01*
G04 #@! TO.C,R9*
X111683333Y-52558666D02*
X111450000Y-52225333D01*
X111283333Y-52558666D02*
X111283333Y-51858666D01*
X111550000Y-51858666D01*
X111616666Y-51892000D01*
X111650000Y-51925333D01*
X111683333Y-51992000D01*
X111683333Y-52092000D01*
X111650000Y-52158666D01*
X111616666Y-52192000D01*
X111550000Y-52225333D01*
X111283333Y-52225333D01*
X112016666Y-52558666D02*
X112150000Y-52558666D01*
X112216666Y-52525333D01*
X112250000Y-52492000D01*
X112316666Y-52392000D01*
X112350000Y-52258666D01*
X112350000Y-51992000D01*
X112316666Y-51925333D01*
X112283333Y-51892000D01*
X112216666Y-51858666D01*
X112083333Y-51858666D01*
X112016666Y-51892000D01*
X111983333Y-51925333D01*
X111950000Y-51992000D01*
X111950000Y-52158666D01*
X111983333Y-52225333D01*
X112016666Y-52258666D01*
X112083333Y-52292000D01*
X112216666Y-52292000D01*
X112283333Y-52258666D01*
X112316666Y-52225333D01*
X112350000Y-52158666D01*
G04 #@! TO.C,R10*
X118750000Y-52616666D02*
X118516666Y-52283333D01*
X118350000Y-52616666D02*
X118350000Y-51916666D01*
X118616666Y-51916666D01*
X118683333Y-51950000D01*
X118716666Y-51983333D01*
X118750000Y-52050000D01*
X118750000Y-52150000D01*
X118716666Y-52216666D01*
X118683333Y-52250000D01*
X118616666Y-52283333D01*
X118350000Y-52283333D01*
X119416666Y-52616666D02*
X119016666Y-52616666D01*
X119216666Y-52616666D02*
X119216666Y-51916666D01*
X119150000Y-52016666D01*
X119083333Y-52083333D01*
X119016666Y-52116666D01*
X119850000Y-51916666D02*
X119916666Y-51916666D01*
X119983333Y-51950000D01*
X120016666Y-51983333D01*
X120050000Y-52050000D01*
X120083333Y-52183333D01*
X120083333Y-52350000D01*
X120050000Y-52483333D01*
X120016666Y-52550000D01*
X119983333Y-52583333D01*
X119916666Y-52616666D01*
X119850000Y-52616666D01*
X119783333Y-52583333D01*
X119750000Y-52550000D01*
X119716666Y-52483333D01*
X119683333Y-52350000D01*
X119683333Y-52183333D01*
X119716666Y-52050000D01*
X119750000Y-51983333D01*
X119783333Y-51950000D01*
X119850000Y-51916666D01*
G04 #@! TO.C,R11*
X85350000Y-93591666D02*
X85116666Y-93258333D01*
X84950000Y-93591666D02*
X84950000Y-92891666D01*
X85216666Y-92891666D01*
X85283333Y-92925000D01*
X85316666Y-92958333D01*
X85350000Y-93025000D01*
X85350000Y-93125000D01*
X85316666Y-93191666D01*
X85283333Y-93225000D01*
X85216666Y-93258333D01*
X84950000Y-93258333D01*
X86016666Y-93591666D02*
X85616666Y-93591666D01*
X85816666Y-93591666D02*
X85816666Y-92891666D01*
X85750000Y-92991666D01*
X85683333Y-93058333D01*
X85616666Y-93091666D01*
X86683333Y-93591666D02*
X86283333Y-93591666D01*
X86483333Y-93591666D02*
X86483333Y-92891666D01*
X86416666Y-92991666D01*
X86350000Y-93058333D01*
X86283333Y-93091666D01*
G04 #@! TO.C,R12*
X82850000Y-93591666D02*
X82616666Y-93258333D01*
X82450000Y-93591666D02*
X82450000Y-92891666D01*
X82716666Y-92891666D01*
X82783333Y-92925000D01*
X82816666Y-92958333D01*
X82850000Y-93025000D01*
X82850000Y-93125000D01*
X82816666Y-93191666D01*
X82783333Y-93225000D01*
X82716666Y-93258333D01*
X82450000Y-93258333D01*
X83516666Y-93591666D02*
X83116666Y-93591666D01*
X83316666Y-93591666D02*
X83316666Y-92891666D01*
X83250000Y-92991666D01*
X83183333Y-93058333D01*
X83116666Y-93091666D01*
X83783333Y-92958333D02*
X83816666Y-92925000D01*
X83883333Y-92891666D01*
X84050000Y-92891666D01*
X84116666Y-92925000D01*
X84150000Y-92958333D01*
X84183333Y-93025000D01*
X84183333Y-93091666D01*
X84150000Y-93191666D01*
X83750000Y-93591666D01*
X84183333Y-93591666D01*
G04 #@! TO.C,C7*
X80683333Y-96825000D02*
X80650000Y-96858333D01*
X80550000Y-96891666D01*
X80483333Y-96891666D01*
X80383333Y-96858333D01*
X80316666Y-96791666D01*
X80283333Y-96725000D01*
X80250000Y-96591666D01*
X80250000Y-96491666D01*
X80283333Y-96358333D01*
X80316666Y-96291666D01*
X80383333Y-96225000D01*
X80483333Y-96191666D01*
X80550000Y-96191666D01*
X80650000Y-96225000D01*
X80683333Y-96258333D01*
X80916666Y-96191666D02*
X81383333Y-96191666D01*
X81083333Y-96891666D01*
G04 #@! TO.C,J5*
X99766666Y-110827380D02*
X99766666Y-111541666D01*
X99719047Y-111684523D01*
X99623809Y-111779761D01*
X99480952Y-111827380D01*
X99385714Y-111827380D01*
X100719047Y-110827380D02*
X100242857Y-110827380D01*
X100195238Y-111303571D01*
X100242857Y-111255952D01*
X100338095Y-111208333D01*
X100576190Y-111208333D01*
X100671428Y-111255952D01*
X100719047Y-111303571D01*
X100766666Y-111398809D01*
X100766666Y-111636904D01*
X100719047Y-111732142D01*
X100671428Y-111779761D01*
X100576190Y-111827380D01*
X100338095Y-111827380D01*
X100242857Y-111779761D01*
X100195238Y-111732142D01*
G04 #@! TO.C,J10*
X89190476Y-111027380D02*
X89190476Y-111741666D01*
X89142857Y-111884523D01*
X89047619Y-111979761D01*
X88904761Y-112027380D01*
X88809523Y-112027380D01*
X90190476Y-112027380D02*
X89619047Y-112027380D01*
X89904761Y-112027380D02*
X89904761Y-111027380D01*
X89809523Y-111170238D01*
X89714285Y-111265476D01*
X89619047Y-111313095D01*
X90809523Y-111027380D02*
X90904761Y-111027380D01*
X91000000Y-111075000D01*
X91047619Y-111122619D01*
X91095238Y-111217857D01*
X91142857Y-111408333D01*
X91142857Y-111646428D01*
X91095238Y-111836904D01*
X91047619Y-111932142D01*
X91000000Y-111979761D01*
X90904761Y-112027380D01*
X90809523Y-112027380D01*
X90714285Y-111979761D01*
X90666666Y-111932142D01*
X90619047Y-111836904D01*
X90571428Y-111646428D01*
X90571428Y-111408333D01*
X90619047Y-111217857D01*
X90666666Y-111122619D01*
X90714285Y-111075000D01*
X90809523Y-111027380D01*
G04 #@! TO.C,J11*
X79190476Y-111027380D02*
X79190476Y-111741666D01*
X79142857Y-111884523D01*
X79047619Y-111979761D01*
X78904761Y-112027380D01*
X78809523Y-112027380D01*
X80190476Y-112027380D02*
X79619047Y-112027380D01*
X79904761Y-112027380D02*
X79904761Y-111027380D01*
X79809523Y-111170238D01*
X79714285Y-111265476D01*
X79619047Y-111313095D01*
X81142857Y-112027380D02*
X80571428Y-112027380D01*
X80857142Y-112027380D02*
X80857142Y-111027380D01*
X80761904Y-111170238D01*
X80666666Y-111265476D01*
X80571428Y-111313095D01*
G04 #@! TO.C,R6*
X107141421Y-96081412D02*
X106740727Y-96010702D01*
X106858578Y-96364255D02*
X106363603Y-95869280D01*
X106552165Y-95680719D01*
X106622876Y-95657148D01*
X106670016Y-95657148D01*
X106740727Y-95680719D01*
X106811438Y-95751429D01*
X106835008Y-95822140D01*
X106835008Y-95869280D01*
X106811438Y-95939991D01*
X106622876Y-96128553D01*
X107070710Y-95162174D02*
X106976429Y-95256455D01*
X106952859Y-95327165D01*
X106952859Y-95374306D01*
X106976429Y-95492157D01*
X107047140Y-95610008D01*
X107235702Y-95798570D01*
X107306412Y-95822140D01*
X107353553Y-95822140D01*
X107424264Y-95798570D01*
X107518544Y-95704289D01*
X107542115Y-95633578D01*
X107542115Y-95586438D01*
X107518544Y-95515727D01*
X107400693Y-95397876D01*
X107329983Y-95374306D01*
X107282842Y-95374306D01*
X107212132Y-95397876D01*
X107117851Y-95492157D01*
X107094280Y-95562867D01*
X107094280Y-95610008D01*
X107117851Y-95680719D01*
G04 #@! TD*
M02*
