G04 #@! TF.GenerationSoftware,KiCad,Pcbnew,5.0.2-bee76a0~70~ubuntu18.04.1*
G04 #@! TF.CreationDate,2019-10-30T17:39:39-07:00*
G04 #@! TF.ProjectId,piweather,70697765-6174-4686-9572-2e6b69636164,rev?*
G04 #@! TF.SameCoordinates,Original*
G04 #@! TF.FileFunction,Copper,L4,Bot*
G04 #@! TF.FilePolarity,Positive*
%FSLAX46Y46*%
G04 Gerber Fmt 4.6, Leading zero omitted, Abs format (unit mm)*
G04 Created by KiCad (PCBNEW 5.0.2-bee76a0~70~ubuntu18.04.1) date Wed 30 Oct 2019 05:39:39 PM PDT*
%MOMM*%
%LPD*%
G01*
G04 APERTURE LIST*
G04 #@! TA.AperFunction,ComponentPad*
%ADD10C,0.800000*%
G04 #@! TD*
G04 #@! TA.AperFunction,ComponentPad*
%ADD11C,2.000000*%
G04 #@! TD*
G04 #@! TA.AperFunction,ComponentPad*
%ADD12C,1.900000*%
G04 #@! TD*
G04 #@! TA.AperFunction,ComponentPad*
%ADD13C,3.000000*%
G04 #@! TD*
G04 #@! TA.AperFunction,WasherPad*
%ADD14C,4.500000*%
G04 #@! TD*
G04 #@! TA.AperFunction,ComponentPad*
%ADD15R,3.000000X3.000000*%
G04 #@! TD*
G04 #@! TA.AperFunction,ComponentPad*
%ADD16C,1.300000*%
G04 #@! TD*
G04 #@! TA.AperFunction,ComponentPad*
%ADD17O,1.500000X1.700000*%
G04 #@! TD*
G04 #@! TA.AperFunction,ComponentPad*
%ADD18O,1.500000X1.800000*%
G04 #@! TD*
G04 #@! TA.AperFunction,ComponentPad*
%ADD19R,1.500000X1.800000*%
G04 #@! TD*
G04 #@! TA.AperFunction,ViaPad*
%ADD20C,0.450000*%
G04 #@! TD*
G04 #@! TA.AperFunction,Conductor*
%ADD21C,0.200000*%
G04 #@! TD*
G04 #@! TA.AperFunction,Conductor*
%ADD22C,0.254000*%
G04 #@! TD*
G04 APERTURE END LIST*
D10*
G04 #@! TO.P,J2,8*
G04 #@! TO.N,GND*
X128200000Y-95425000D03*
G04 #@! TO.P,J2,7*
G04 #@! TO.N,/P1_TXD_HW_RXD*
X128200000Y-96675000D03*
G04 #@! TO.P,J2,6*
G04 #@! TO.N,/P1_RXD_HW_TXD*
X128200000Y-97925000D03*
G04 #@! TO.P,J2,5*
G04 #@! TO.N,N/C*
X128200000Y-99175000D03*
G04 #@! TO.P,J2,4*
X128200000Y-100425000D03*
G04 #@! TO.P,J2,3*
X128200000Y-101675000D03*
G04 #@! TO.P,J2,2*
G04 #@! TO.N,+5V*
X128200000Y-102925000D03*
G04 #@! TO.P,J2,1*
G04 #@! TO.N,/P1_3V3*
X128200000Y-104175000D03*
G04 #@! TD*
D11*
G04 #@! TO.P,U2,16*
G04 #@! TO.N,+5V*
X108660000Y-60885000D03*
G04 #@! TO.P,U2,14*
G04 #@! TO.N,GND*
X113740000Y-60885000D03*
G04 #@! TO.P,U2,13*
G04 #@! TO.N,N/C*
X113740000Y-78665000D03*
G04 #@! TO.P,U2,3*
G04 #@! TO.N,/AC_N*
X88340000Y-78665000D03*
G04 #@! TO.P,U2,1*
G04 #@! TO.N,/AC_L*
X83260000Y-78665000D03*
G04 #@! TD*
D12*
G04 #@! TO.P,J1,10*
G04 #@! TO.N,+24V*
X122300000Y-56570000D03*
G04 #@! TO.P,J1,9*
G04 #@! TO.N,/DO27*
X122300000Y-59110000D03*
G04 #@! TO.P,J1,8*
G04 #@! TO.N,/DO16*
X122300000Y-61650000D03*
G04 #@! TO.P,J1,7*
G04 #@! TO.N,/DO13*
X122300000Y-64190000D03*
G04 #@! TO.P,J1,6*
G04 #@! TO.N,/DO12*
X122300000Y-66730000D03*
G04 #@! TO.P,J1,5*
G04 #@! TO.N,/DI26*
X122300000Y-69270000D03*
G04 #@! TO.P,J1,4*
G04 #@! TO.N,/DI17*
X122300000Y-71810000D03*
G04 #@! TO.P,J1,3*
G04 #@! TO.N,GND*
X122300000Y-74350000D03*
G04 #@! TO.P,J1,2*
G04 #@! TO.N,RS485_B*
X122300000Y-76890000D03*
G04 #@! TO.P,J1,1*
G04 #@! TO.N,RS485_A*
X122300000Y-79430000D03*
G04 #@! TD*
D13*
G04 #@! TO.P,J12,2*
G04 #@! TO.N,/AC_N*
X77000000Y-67200000D03*
G04 #@! TO.P,J12,1*
G04 #@! TO.N,/AC_L*
X77000000Y-75800000D03*
D14*
G04 #@! TO.P,J12,*
G04 #@! TO.N,*
X70500000Y-65000000D03*
X70500000Y-78000000D03*
G04 #@! TD*
D15*
G04 #@! TO.P,J3,1*
G04 #@! TO.N,/IN_24V*
X73100000Y-68960000D03*
D13*
G04 #@! TO.P,J3,2*
G04 #@! TO.N,GND*
X73100000Y-74040000D03*
G04 #@! TD*
D16*
G04 #@! TO.P,J6,1*
G04 #@! TO.N,+5V*
X121600000Y-111400000D03*
G04 #@! TD*
G04 #@! TO.P,J7,1*
G04 #@! TO.N,GND*
X121200000Y-108500000D03*
G04 #@! TD*
G04 #@! TO.P,J8,1*
G04 #@! TO.N,/USBD_P*
X109500000Y-113200000D03*
G04 #@! TD*
G04 #@! TO.P,J9,1*
G04 #@! TO.N,/USBD_N*
X107700000Y-113200000D03*
G04 #@! TD*
D17*
G04 #@! TO.P,J5,3*
G04 #@! TO.N,GND*
X102000000Y-109000000D03*
D18*
G04 #@! TO.P,J5,2*
G04 #@! TO.N,/BCM5_PIN29*
X100000000Y-109000000D03*
D19*
G04 #@! TO.P,J5,1*
G04 #@! TO.N,+3V3*
X98000000Y-109000000D03*
G04 #@! TD*
D17*
G04 #@! TO.P,J10,3*
G04 #@! TO.N,GND*
X92000000Y-109000000D03*
D18*
G04 #@! TO.P,J10,2*
G04 #@! TO.N,/BCM4_PIN7*
X90000000Y-109000000D03*
D19*
G04 #@! TO.P,J10,1*
G04 #@! TO.N,+3V3*
X88000000Y-109000000D03*
G04 #@! TD*
D17*
G04 #@! TO.P,J11,3*
G04 #@! TO.N,/P0_RXD*
X82000000Y-109000000D03*
D18*
G04 #@! TO.P,J11,2*
G04 #@! TO.N,/P0_TXD*
X80000000Y-109000000D03*
D19*
G04 #@! TO.P,J11,1*
G04 #@! TO.N,GND*
X78000000Y-109000000D03*
G04 #@! TD*
D20*
G04 #@! TO.N,GND*
X80950000Y-83925000D03*
X91100000Y-84075000D03*
X98750000Y-83725000D03*
X110950000Y-83725000D03*
X115800000Y-83475000D03*
X124750000Y-93375000D03*
X86050000Y-92925000D03*
X69600000Y-106025000D03*
X72350000Y-101025000D03*
X80650000Y-98025000D03*
X80650000Y-99325000D03*
X80650000Y-100625000D03*
X80650000Y-101925000D03*
X86500000Y-98675000D03*
X84100000Y-96725000D03*
X82400000Y-96675000D03*
X97500000Y-102925000D03*
X105450000Y-93425000D03*
X112400000Y-105975000D03*
X110700000Y-101275000D03*
X117600000Y-106775000D03*
X116400000Y-97075000D03*
X120200000Y-100775000D03*
X106900000Y-95675000D03*
G04 #@! TO.N,+5V*
X110620000Y-103985000D03*
X98680000Y-96255000D03*
X75050000Y-83375000D03*
X78410000Y-83950000D03*
X96350000Y-57525000D03*
X98600000Y-57525000D03*
X87150000Y-52175000D03*
X81150000Y-54925000D03*
X100050000Y-76875000D03*
X102950000Y-76825000D03*
X104050000Y-105725000D03*
X118600000Y-99075000D03*
X101550000Y-100025000D03*
G04 #@! TO.N,/P1_3V3*
X117800000Y-107775000D03*
G04 #@! TO.N,+3V3*
X114550000Y-51475000D03*
X74500000Y-91625000D03*
X75900000Y-92825000D03*
X85800000Y-96775000D03*
X87500000Y-96775000D03*
X86500000Y-98025000D03*
X95800000Y-93075000D03*
X69850000Y-99225000D03*
G04 #@! TO.N,/P1_RXD_HW_TXD*
X126500000Y-104875000D03*
X119200000Y-105175000D03*
G04 #@! TO.N,/P1_TXD_HW_RXD*
X126000000Y-104175000D03*
X119600000Y-103775000D03*
G04 #@! TO.N,/P0_RXD*
X84750000Y-86875000D03*
G04 #@! TO.N,/P0_TXD*
X82250000Y-87025000D03*
G04 #@! TO.N,/SCL*
X80950000Y-92925000D03*
X68600000Y-101025000D03*
G04 #@! TO.N,/SDA*
X78400000Y-93225000D03*
X68550000Y-106275000D03*
G04 #@! TO.N,/USBD_P*
X112383294Y-105108294D03*
G04 #@! TO.N,/USBD_N*
X111976706Y-104701706D03*
G04 #@! TO.N,/~RSTOUT*
X111000000Y-104675000D03*
X109700000Y-109975000D03*
G04 #@! TO.N,/EEDATA*
X106600000Y-103375000D03*
X109800000Y-103375000D03*
G04 #@! TO.N,/P_DE*
X93450000Y-100625000D03*
X115800000Y-101025000D03*
G04 #@! TO.N,/P2_R*
X93450000Y-98075000D03*
X112600000Y-99275000D03*
G04 #@! TO.N,/P2_D*
X93450000Y-101875000D03*
X112800000Y-101375000D03*
G04 #@! TO.N,/P2_~RE*
X93450000Y-99325000D03*
X111950000Y-100075000D03*
G04 #@! TO.N,/VCC_FTDI*
X104500000Y-102575000D03*
X112000000Y-102375000D03*
X107300000Y-104175000D03*
X107300000Y-102575000D03*
G04 #@! TO.N,+24V*
X106350000Y-53175000D03*
X88100000Y-51825000D03*
X102000000Y-52475000D03*
G04 #@! TO.N,RS485_A*
X99400000Y-100075000D03*
X100350000Y-80725000D03*
G04 #@! TO.N,RS485_B*
X99100000Y-98825000D03*
X99700000Y-80025000D03*
G04 #@! TO.N,/BCM5_PIN29*
X100000000Y-93025000D03*
X111450000Y-93125000D03*
G04 #@! TO.N,/BCM4_PIN7*
X83500000Y-93075000D03*
X83500000Y-107025000D03*
G04 #@! TO.N,/DI17*
X112800000Y-58275000D03*
G04 #@! TO.N,/DI26*
X115550000Y-57275000D03*
G04 #@! TO.N,/DO12*
X105650000Y-52775000D03*
X125100000Y-52725000D03*
G04 #@! TO.N,/DO13*
X107950000Y-53525000D03*
G04 #@! TO.N,/DO16*
X107200000Y-53225000D03*
G04 #@! TO.N,/DO27*
X105450000Y-52125000D03*
X124650000Y-52125000D03*
G04 #@! TO.N,BCM16*
X118350000Y-83825000D03*
X118350000Y-59275000D03*
X111300000Y-55325000D03*
G04 #@! TO.N,BCM12*
X112700000Y-83325000D03*
X111800000Y-58975000D03*
X105350000Y-58975000D03*
X105350000Y-54725000D03*
G04 #@! TO.N,/BCM26_PIN37*
X89250000Y-101125000D03*
X89450000Y-93075000D03*
X121600000Y-92925000D03*
G04 #@! TO.N,BCM13*
X115250000Y-89725000D03*
X115250000Y-63775000D03*
X107350000Y-63775000D03*
X107850000Y-54125000D03*
G04 #@! TO.N,BCM27*
X92350000Y-90875000D03*
X92350000Y-57075000D03*
X104050000Y-56875000D03*
G04 #@! TO.N,/BCM17_PIN11*
X88500000Y-102825000D03*
X88500000Y-93225000D03*
G04 #@! TO.N,~BCM17*
X89700000Y-101825000D03*
X113300000Y-58875000D03*
X91200000Y-60975000D03*
G04 #@! TO.N,~BCM26*
X89750000Y-100375000D03*
X89900000Y-63025000D03*
X116800000Y-62375000D03*
X116800000Y-58875000D03*
G04 #@! TO.N,REF3V3*
X87200000Y-93075000D03*
X87050000Y-58425000D03*
X106700000Y-58025000D03*
G04 #@! TD*
D21*
G04 #@! TO.N,/USBD_P*
X112206516Y-105108294D02*
X112383294Y-105108294D01*
X108762500Y-108552310D02*
X112206516Y-105108294D01*
X108762500Y-112462500D02*
X108762500Y-108552310D01*
X109500000Y-113200000D02*
X108762500Y-112462500D01*
G04 #@! TO.N,/USBD_N*
X107700000Y-113200000D02*
X108437500Y-112462500D01*
X108437500Y-112462500D02*
X108437500Y-108417690D01*
X108437500Y-108417690D02*
X111976706Y-104878484D01*
X111976706Y-104878484D02*
X111976706Y-104701706D01*
G04 #@! TD*
D22*
G04 #@! TO.N,+3V3*
G36*
X75410039Y-89081620D02*
X75181620Y-89310039D01*
X75058000Y-89608483D01*
X75058000Y-89931517D01*
X75181620Y-90229961D01*
X75410039Y-90458380D01*
X75708483Y-90582000D01*
X76031517Y-90582000D01*
X76329961Y-90458380D01*
X76558380Y-90229961D01*
X76682000Y-89931517D01*
X76682000Y-89627561D01*
X76897924Y-89717000D01*
X77382076Y-89717000D01*
X77598000Y-89627561D01*
X77598000Y-89931517D01*
X77721620Y-90229961D01*
X77950039Y-90458380D01*
X78248483Y-90582000D01*
X78571517Y-90582000D01*
X78869961Y-90458380D01*
X79098380Y-90229961D01*
X79222000Y-89931517D01*
X79222000Y-89608483D01*
X79098380Y-89310039D01*
X78869961Y-89081620D01*
X78677742Y-89002000D01*
X80682258Y-89002000D01*
X80490039Y-89081620D01*
X80261620Y-89310039D01*
X80138000Y-89608483D01*
X80138000Y-89931517D01*
X80261620Y-90229961D01*
X80490039Y-90458380D01*
X80788483Y-90582000D01*
X81111517Y-90582000D01*
X81409961Y-90458380D01*
X81638380Y-90229961D01*
X81762000Y-89931517D01*
X81762000Y-89608483D01*
X81638380Y-89310039D01*
X81409961Y-89081620D01*
X81217742Y-89002000D01*
X83222258Y-89002000D01*
X83030039Y-89081620D01*
X82801620Y-89310039D01*
X82678000Y-89608483D01*
X82678000Y-89931517D01*
X82801620Y-90229961D01*
X83030039Y-90458380D01*
X83328483Y-90582000D01*
X83651517Y-90582000D01*
X83949961Y-90458380D01*
X84178380Y-90229961D01*
X84302000Y-89931517D01*
X84302000Y-89608483D01*
X84178380Y-89310039D01*
X83949961Y-89081620D01*
X83757742Y-89002000D01*
X85762258Y-89002000D01*
X85570039Y-89081620D01*
X85341620Y-89310039D01*
X85218000Y-89608483D01*
X85218000Y-89931517D01*
X85341620Y-90229961D01*
X85570039Y-90458380D01*
X85868483Y-90582000D01*
X86191517Y-90582000D01*
X86489961Y-90458380D01*
X86718380Y-90229961D01*
X86842000Y-89931517D01*
X86842000Y-89608483D01*
X86718380Y-89310039D01*
X86489961Y-89081620D01*
X86297742Y-89002000D01*
X88302258Y-89002000D01*
X88110039Y-89081620D01*
X87881620Y-89310039D01*
X87758000Y-89608483D01*
X87758000Y-89931517D01*
X87881620Y-90229961D01*
X88110039Y-90458380D01*
X88408483Y-90582000D01*
X88731517Y-90582000D01*
X89029961Y-90458380D01*
X89258380Y-90229961D01*
X89382000Y-89931517D01*
X89382000Y-89608483D01*
X89258380Y-89310039D01*
X89029961Y-89081620D01*
X88837742Y-89002000D01*
X90842258Y-89002000D01*
X90650039Y-89081620D01*
X90421620Y-89310039D01*
X90298000Y-89608483D01*
X90298000Y-89931517D01*
X90421620Y-90229961D01*
X90650039Y-90458380D01*
X90948483Y-90582000D01*
X91271517Y-90582000D01*
X91569961Y-90458380D01*
X91798380Y-90229961D01*
X91922000Y-89931517D01*
X91922000Y-89608483D01*
X91798380Y-89310039D01*
X91569961Y-89081620D01*
X91377742Y-89002000D01*
X93382258Y-89002000D01*
X93190039Y-89081620D01*
X92961620Y-89310039D01*
X92838000Y-89608483D01*
X92838000Y-89931517D01*
X92961620Y-90229961D01*
X93190039Y-90458380D01*
X93488483Y-90582000D01*
X93811517Y-90582000D01*
X94109961Y-90458380D01*
X94338380Y-90229961D01*
X94462000Y-89931517D01*
X94462000Y-89608483D01*
X94338380Y-89310039D01*
X94109961Y-89081620D01*
X93917742Y-89002000D01*
X95873000Y-89002000D01*
X95873000Y-89022403D01*
X95730039Y-89081620D01*
X95501620Y-89310039D01*
X95378000Y-89608483D01*
X95378000Y-89931517D01*
X95501620Y-90229961D01*
X95730039Y-90458380D01*
X95873000Y-90517597D01*
X95873000Y-105475000D01*
X95882667Y-105523601D01*
X95910197Y-105564803D01*
X95951399Y-105592333D01*
X96000000Y-105602000D01*
X99173000Y-105602000D01*
X99173000Y-107624975D01*
X99109698Y-107561673D01*
X98876309Y-107465000D01*
X98285750Y-107465000D01*
X98127000Y-107623750D01*
X98127000Y-108873000D01*
X98147000Y-108873000D01*
X98147000Y-109127000D01*
X98127000Y-109127000D01*
X98127000Y-110376250D01*
X98285750Y-110535000D01*
X98876309Y-110535000D01*
X99109698Y-110438327D01*
X99173000Y-110375025D01*
X99173000Y-114598000D01*
X71953324Y-114598000D01*
X72827949Y-114235719D01*
X73735719Y-113327949D01*
X74227000Y-112141890D01*
X74227000Y-110858110D01*
X73735719Y-109672051D01*
X72827949Y-108764281D01*
X71641890Y-108273000D01*
X70358110Y-108273000D01*
X69172051Y-108764281D01*
X68264281Y-109672051D01*
X67902000Y-110546676D01*
X67902000Y-108100000D01*
X76916594Y-108100000D01*
X76916594Y-109900000D01*
X76941973Y-110027589D01*
X77014246Y-110135754D01*
X77122411Y-110208027D01*
X77250000Y-110233406D01*
X78750000Y-110233406D01*
X78877589Y-110208027D01*
X78985754Y-110135754D01*
X79058027Y-110027589D01*
X79083406Y-109900000D01*
X79083406Y-109716767D01*
X79223528Y-109926473D01*
X79579777Y-110164511D01*
X80000000Y-110248099D01*
X80420224Y-110164511D01*
X80776473Y-109926473D01*
X81014511Y-109570223D01*
X81015517Y-109565164D01*
X81223528Y-109876473D01*
X81579777Y-110114511D01*
X82000000Y-110198099D01*
X82420224Y-110114511D01*
X82776473Y-109876473D01*
X83014511Y-109520223D01*
X83061150Y-109285750D01*
X86615000Y-109285750D01*
X86615000Y-110026310D01*
X86711673Y-110259699D01*
X86890302Y-110438327D01*
X87123691Y-110535000D01*
X87714250Y-110535000D01*
X87873000Y-110376250D01*
X87873000Y-109127000D01*
X86773750Y-109127000D01*
X86615000Y-109285750D01*
X83061150Y-109285750D01*
X83077000Y-109206071D01*
X83077000Y-108793928D01*
X83014511Y-108479776D01*
X82776473Y-108123527D01*
X82552226Y-107973690D01*
X86615000Y-107973690D01*
X86615000Y-108714250D01*
X86773750Y-108873000D01*
X87873000Y-108873000D01*
X87873000Y-107623750D01*
X88127000Y-107623750D01*
X88127000Y-108873000D01*
X88147000Y-108873000D01*
X88147000Y-109127000D01*
X88127000Y-109127000D01*
X88127000Y-110376250D01*
X88285750Y-110535000D01*
X88876309Y-110535000D01*
X89109698Y-110438327D01*
X89288327Y-110259699D01*
X89382387Y-110032619D01*
X89579777Y-110164511D01*
X90000000Y-110248099D01*
X90420224Y-110164511D01*
X90776473Y-109926473D01*
X91014511Y-109570223D01*
X91015517Y-109565164D01*
X91223528Y-109876473D01*
X91579777Y-110114511D01*
X92000000Y-110198099D01*
X92420224Y-110114511D01*
X92776473Y-109876473D01*
X93014511Y-109520223D01*
X93061150Y-109285750D01*
X96615000Y-109285750D01*
X96615000Y-110026310D01*
X96711673Y-110259699D01*
X96890302Y-110438327D01*
X97123691Y-110535000D01*
X97714250Y-110535000D01*
X97873000Y-110376250D01*
X97873000Y-109127000D01*
X96773750Y-109127000D01*
X96615000Y-109285750D01*
X93061150Y-109285750D01*
X93077000Y-109206071D01*
X93077000Y-108793928D01*
X93014511Y-108479776D01*
X92776473Y-108123527D01*
X92552226Y-107973690D01*
X96615000Y-107973690D01*
X96615000Y-108714250D01*
X96773750Y-108873000D01*
X97873000Y-108873000D01*
X97873000Y-107623750D01*
X97714250Y-107465000D01*
X97123691Y-107465000D01*
X96890302Y-107561673D01*
X96711673Y-107740301D01*
X96615000Y-107973690D01*
X92552226Y-107973690D01*
X92420223Y-107885489D01*
X92000000Y-107801901D01*
X91579776Y-107885489D01*
X91223527Y-108123527D01*
X91015518Y-108434836D01*
X91014511Y-108429776D01*
X90776473Y-108073527D01*
X90420223Y-107835489D01*
X90000000Y-107751901D01*
X89579776Y-107835489D01*
X89382387Y-107967380D01*
X89288327Y-107740301D01*
X89109698Y-107561673D01*
X88876309Y-107465000D01*
X88285750Y-107465000D01*
X88127000Y-107623750D01*
X87873000Y-107623750D01*
X87714250Y-107465000D01*
X87123691Y-107465000D01*
X86890302Y-107561673D01*
X86711673Y-107740301D01*
X86615000Y-107973690D01*
X82552226Y-107973690D01*
X82420223Y-107885489D01*
X82000000Y-107801901D01*
X81579776Y-107885489D01*
X81223527Y-108123527D01*
X81015518Y-108434836D01*
X81014511Y-108429776D01*
X80776473Y-108073527D01*
X80420223Y-107835489D01*
X80000000Y-107751901D01*
X79579776Y-107835489D01*
X79223527Y-108073527D01*
X79083406Y-108283233D01*
X79083406Y-108100000D01*
X79058027Y-107972411D01*
X78985754Y-107864246D01*
X78877589Y-107791973D01*
X78750000Y-107766594D01*
X77250000Y-107766594D01*
X77122411Y-107791973D01*
X77014246Y-107864246D01*
X76941973Y-107972411D01*
X76916594Y-108100000D01*
X67902000Y-108100000D01*
X67902000Y-106915200D01*
X82948000Y-106915200D01*
X82948000Y-107134800D01*
X83032037Y-107337683D01*
X83187317Y-107492963D01*
X83390200Y-107577000D01*
X83609800Y-107577000D01*
X83812683Y-107492963D01*
X83967963Y-107337683D01*
X84052000Y-107134800D01*
X84052000Y-106915200D01*
X83967963Y-106712317D01*
X83812683Y-106557037D01*
X83609800Y-106473000D01*
X83390200Y-106473000D01*
X83187317Y-106557037D01*
X83032037Y-106712317D01*
X82948000Y-106915200D01*
X67902000Y-106915200D01*
X67902000Y-106165200D01*
X67998000Y-106165200D01*
X67998000Y-106384800D01*
X68082037Y-106587683D01*
X68237317Y-106742963D01*
X68440200Y-106827000D01*
X68659800Y-106827000D01*
X68862683Y-106742963D01*
X69017963Y-106587683D01*
X69102000Y-106384800D01*
X69102000Y-106265167D01*
X69132037Y-106337683D01*
X69287317Y-106492963D01*
X69490200Y-106577000D01*
X69709800Y-106577000D01*
X69912683Y-106492963D01*
X70067963Y-106337683D01*
X70152000Y-106134800D01*
X70152000Y-105915200D01*
X70067963Y-105712317D01*
X69912683Y-105557037D01*
X69709800Y-105473000D01*
X69490200Y-105473000D01*
X69287317Y-105557037D01*
X69132037Y-105712317D01*
X69048000Y-105915200D01*
X69048000Y-106034833D01*
X69017963Y-105962317D01*
X68862683Y-105807037D01*
X68659800Y-105723000D01*
X68440200Y-105723000D01*
X68237317Y-105807037D01*
X68082037Y-105962317D01*
X67998000Y-106165200D01*
X67902000Y-106165200D01*
X67902000Y-102715200D01*
X87948000Y-102715200D01*
X87948000Y-102934800D01*
X88032037Y-103137683D01*
X88187317Y-103292963D01*
X88390200Y-103377000D01*
X88609800Y-103377000D01*
X88812683Y-103292963D01*
X88967963Y-103137683D01*
X89052000Y-102934800D01*
X89052000Y-102715200D01*
X88967963Y-102512317D01*
X88812683Y-102357037D01*
X88609800Y-102273000D01*
X88390200Y-102273000D01*
X88187317Y-102357037D01*
X88032037Y-102512317D01*
X87948000Y-102715200D01*
X67902000Y-102715200D01*
X67902000Y-101815200D01*
X80098000Y-101815200D01*
X80098000Y-102034800D01*
X80182037Y-102237683D01*
X80337317Y-102392963D01*
X80540200Y-102477000D01*
X80759800Y-102477000D01*
X80962683Y-102392963D01*
X81117963Y-102237683D01*
X81202000Y-102034800D01*
X81202000Y-101815200D01*
X81117963Y-101612317D01*
X80962683Y-101457037D01*
X80759800Y-101373000D01*
X80540200Y-101373000D01*
X80337317Y-101457037D01*
X80182037Y-101612317D01*
X80098000Y-101815200D01*
X67902000Y-101815200D01*
X67902000Y-100915200D01*
X68048000Y-100915200D01*
X68048000Y-101134800D01*
X68132037Y-101337683D01*
X68287317Y-101492963D01*
X68490200Y-101577000D01*
X68709800Y-101577000D01*
X68912683Y-101492963D01*
X69067963Y-101337683D01*
X69152000Y-101134800D01*
X69152000Y-100915200D01*
X71798000Y-100915200D01*
X71798000Y-101134800D01*
X71882037Y-101337683D01*
X72037317Y-101492963D01*
X72240200Y-101577000D01*
X72459800Y-101577000D01*
X72662683Y-101492963D01*
X72817963Y-101337683D01*
X72902000Y-101134800D01*
X72902000Y-100915200D01*
X72817963Y-100712317D01*
X72662683Y-100557037D01*
X72561680Y-100515200D01*
X80098000Y-100515200D01*
X80098000Y-100734800D01*
X80182037Y-100937683D01*
X80337317Y-101092963D01*
X80540200Y-101177000D01*
X80759800Y-101177000D01*
X80962683Y-101092963D01*
X81040446Y-101015200D01*
X88698000Y-101015200D01*
X88698000Y-101234800D01*
X88782037Y-101437683D01*
X88937317Y-101592963D01*
X89140200Y-101677000D01*
X89163823Y-101677000D01*
X89148000Y-101715200D01*
X89148000Y-101934800D01*
X89232037Y-102137683D01*
X89387317Y-102292963D01*
X89590200Y-102377000D01*
X89809800Y-102377000D01*
X90012683Y-102292963D01*
X90167963Y-102137683D01*
X90252000Y-101934800D01*
X90252000Y-101765200D01*
X92898000Y-101765200D01*
X92898000Y-101984800D01*
X92982037Y-102187683D01*
X93137317Y-102342963D01*
X93340200Y-102427000D01*
X93559800Y-102427000D01*
X93762683Y-102342963D01*
X93917963Y-102187683D01*
X94002000Y-101984800D01*
X94002000Y-101765200D01*
X93917963Y-101562317D01*
X93762683Y-101407037D01*
X93559800Y-101323000D01*
X93340200Y-101323000D01*
X93137317Y-101407037D01*
X92982037Y-101562317D01*
X92898000Y-101765200D01*
X90252000Y-101765200D01*
X90252000Y-101715200D01*
X90167963Y-101512317D01*
X90012683Y-101357037D01*
X89809800Y-101273000D01*
X89786177Y-101273000D01*
X89802000Y-101234800D01*
X89802000Y-101015200D01*
X89765466Y-100927000D01*
X89859800Y-100927000D01*
X90062683Y-100842963D01*
X90217963Y-100687683D01*
X90289407Y-100515200D01*
X92898000Y-100515200D01*
X92898000Y-100734800D01*
X92982037Y-100937683D01*
X93137317Y-101092963D01*
X93340200Y-101177000D01*
X93559800Y-101177000D01*
X93762683Y-101092963D01*
X93917963Y-100937683D01*
X94002000Y-100734800D01*
X94002000Y-100515200D01*
X93917963Y-100312317D01*
X93762683Y-100157037D01*
X93559800Y-100073000D01*
X93340200Y-100073000D01*
X93137317Y-100157037D01*
X92982037Y-100312317D01*
X92898000Y-100515200D01*
X90289407Y-100515200D01*
X90302000Y-100484800D01*
X90302000Y-100265200D01*
X90217963Y-100062317D01*
X90062683Y-99907037D01*
X89859800Y-99823000D01*
X89640200Y-99823000D01*
X89437317Y-99907037D01*
X89282037Y-100062317D01*
X89198000Y-100265200D01*
X89198000Y-100484800D01*
X89234534Y-100573000D01*
X89140200Y-100573000D01*
X88937317Y-100657037D01*
X88782037Y-100812317D01*
X88698000Y-101015200D01*
X81040446Y-101015200D01*
X81117963Y-100937683D01*
X81202000Y-100734800D01*
X81202000Y-100515200D01*
X81117963Y-100312317D01*
X80962683Y-100157037D01*
X80759800Y-100073000D01*
X80540200Y-100073000D01*
X80337317Y-100157037D01*
X80182037Y-100312317D01*
X80098000Y-100515200D01*
X72561680Y-100515200D01*
X72459800Y-100473000D01*
X72240200Y-100473000D01*
X72037317Y-100557037D01*
X71882037Y-100712317D01*
X71798000Y-100915200D01*
X69152000Y-100915200D01*
X69067963Y-100712317D01*
X68912683Y-100557037D01*
X68709800Y-100473000D01*
X68490200Y-100473000D01*
X68287317Y-100557037D01*
X68132037Y-100712317D01*
X68048000Y-100915200D01*
X67902000Y-100915200D01*
X67902000Y-99215200D01*
X80098000Y-99215200D01*
X80098000Y-99434800D01*
X80182037Y-99637683D01*
X80337317Y-99792963D01*
X80540200Y-99877000D01*
X80759800Y-99877000D01*
X80962683Y-99792963D01*
X81117963Y-99637683D01*
X81202000Y-99434800D01*
X81202000Y-99215200D01*
X81117963Y-99012317D01*
X80962683Y-98857037D01*
X80759800Y-98773000D01*
X80540200Y-98773000D01*
X80337317Y-98857037D01*
X80182037Y-99012317D01*
X80098000Y-99215200D01*
X67902000Y-99215200D01*
X67902000Y-97915200D01*
X80098000Y-97915200D01*
X80098000Y-98134800D01*
X80182037Y-98337683D01*
X80337317Y-98492963D01*
X80540200Y-98577000D01*
X80759800Y-98577000D01*
X80788287Y-98565200D01*
X85948000Y-98565200D01*
X85948000Y-98784800D01*
X86032037Y-98987683D01*
X86187317Y-99142963D01*
X86390200Y-99227000D01*
X86609800Y-99227000D01*
X86638287Y-99215200D01*
X92898000Y-99215200D01*
X92898000Y-99434800D01*
X92982037Y-99637683D01*
X93137317Y-99792963D01*
X93340200Y-99877000D01*
X93559800Y-99877000D01*
X93762683Y-99792963D01*
X93917963Y-99637683D01*
X94002000Y-99434800D01*
X94002000Y-99215200D01*
X93917963Y-99012317D01*
X93762683Y-98857037D01*
X93559800Y-98773000D01*
X93340200Y-98773000D01*
X93137317Y-98857037D01*
X92982037Y-99012317D01*
X92898000Y-99215200D01*
X86638287Y-99215200D01*
X86812683Y-99142963D01*
X86967963Y-98987683D01*
X87052000Y-98784800D01*
X87052000Y-98565200D01*
X86967963Y-98362317D01*
X86812683Y-98207037D01*
X86609800Y-98123000D01*
X86390200Y-98123000D01*
X86187317Y-98207037D01*
X86032037Y-98362317D01*
X85948000Y-98565200D01*
X80788287Y-98565200D01*
X80962683Y-98492963D01*
X81117963Y-98337683D01*
X81202000Y-98134800D01*
X81202000Y-97965200D01*
X92898000Y-97965200D01*
X92898000Y-98184800D01*
X92982037Y-98387683D01*
X93137317Y-98542963D01*
X93340200Y-98627000D01*
X93559800Y-98627000D01*
X93762683Y-98542963D01*
X93917963Y-98387683D01*
X94002000Y-98184800D01*
X94002000Y-97965200D01*
X93917963Y-97762317D01*
X93762683Y-97607037D01*
X93559800Y-97523000D01*
X93340200Y-97523000D01*
X93137317Y-97607037D01*
X92982037Y-97762317D01*
X92898000Y-97965200D01*
X81202000Y-97965200D01*
X81202000Y-97915200D01*
X81117963Y-97712317D01*
X80962683Y-97557037D01*
X80759800Y-97473000D01*
X80540200Y-97473000D01*
X80337317Y-97557037D01*
X80182037Y-97712317D01*
X80098000Y-97915200D01*
X67902000Y-97915200D01*
X67902000Y-96565200D01*
X81848000Y-96565200D01*
X81848000Y-96784800D01*
X81932037Y-96987683D01*
X82087317Y-97142963D01*
X82290200Y-97227000D01*
X82509800Y-97227000D01*
X82712683Y-97142963D01*
X82867963Y-96987683D01*
X82952000Y-96784800D01*
X82952000Y-96615200D01*
X83548000Y-96615200D01*
X83548000Y-96834800D01*
X83632037Y-97037683D01*
X83787317Y-97192963D01*
X83990200Y-97277000D01*
X84209800Y-97277000D01*
X84412683Y-97192963D01*
X84567963Y-97037683D01*
X84652000Y-96834800D01*
X84652000Y-96615200D01*
X84567963Y-96412317D01*
X84412683Y-96257037D01*
X84209800Y-96173000D01*
X83990200Y-96173000D01*
X83787317Y-96257037D01*
X83632037Y-96412317D01*
X83548000Y-96615200D01*
X82952000Y-96615200D01*
X82952000Y-96565200D01*
X82867963Y-96362317D01*
X82712683Y-96207037D01*
X82509800Y-96123000D01*
X82290200Y-96123000D01*
X82087317Y-96207037D01*
X81932037Y-96362317D01*
X81848000Y-96565200D01*
X67902000Y-96565200D01*
X67902000Y-93115200D01*
X77848000Y-93115200D01*
X77848000Y-93334800D01*
X77932037Y-93537683D01*
X78087317Y-93692963D01*
X78290200Y-93777000D01*
X78509800Y-93777000D01*
X78712683Y-93692963D01*
X78867963Y-93537683D01*
X78952000Y-93334800D01*
X78952000Y-93115200D01*
X78867963Y-92912317D01*
X78770846Y-92815200D01*
X80398000Y-92815200D01*
X80398000Y-93034800D01*
X80482037Y-93237683D01*
X80637317Y-93392963D01*
X80840200Y-93477000D01*
X81059800Y-93477000D01*
X81262683Y-93392963D01*
X81417963Y-93237683D01*
X81502000Y-93034800D01*
X81502000Y-92965200D01*
X82948000Y-92965200D01*
X82948000Y-93184800D01*
X83032037Y-93387683D01*
X83187317Y-93542963D01*
X83390200Y-93627000D01*
X83609800Y-93627000D01*
X83812683Y-93542963D01*
X83967963Y-93387683D01*
X84052000Y-93184800D01*
X84052000Y-92965200D01*
X83989868Y-92815200D01*
X85498000Y-92815200D01*
X85498000Y-93034800D01*
X85582037Y-93237683D01*
X85737317Y-93392963D01*
X85940200Y-93477000D01*
X86159800Y-93477000D01*
X86362683Y-93392963D01*
X86517963Y-93237683D01*
X86602000Y-93034800D01*
X86602000Y-92965200D01*
X86648000Y-92965200D01*
X86648000Y-93184800D01*
X86732037Y-93387683D01*
X86887317Y-93542963D01*
X87090200Y-93627000D01*
X87309800Y-93627000D01*
X87512683Y-93542963D01*
X87667963Y-93387683D01*
X87752000Y-93184800D01*
X87752000Y-93115200D01*
X87948000Y-93115200D01*
X87948000Y-93334800D01*
X88032037Y-93537683D01*
X88187317Y-93692963D01*
X88390200Y-93777000D01*
X88609800Y-93777000D01*
X88812683Y-93692963D01*
X88967963Y-93537683D01*
X89016019Y-93421665D01*
X89137317Y-93542963D01*
X89340200Y-93627000D01*
X89559800Y-93627000D01*
X89762683Y-93542963D01*
X89917963Y-93387683D01*
X90002000Y-93184800D01*
X90002000Y-92965200D01*
X89917963Y-92762317D01*
X89762683Y-92607037D01*
X89559800Y-92523000D01*
X89340200Y-92523000D01*
X89137317Y-92607037D01*
X88982037Y-92762317D01*
X88933981Y-92878335D01*
X88812683Y-92757037D01*
X88609800Y-92673000D01*
X88390200Y-92673000D01*
X88187317Y-92757037D01*
X88032037Y-92912317D01*
X87948000Y-93115200D01*
X87752000Y-93115200D01*
X87752000Y-92965200D01*
X87667963Y-92762317D01*
X87512683Y-92607037D01*
X87309800Y-92523000D01*
X87090200Y-92523000D01*
X86887317Y-92607037D01*
X86732037Y-92762317D01*
X86648000Y-92965200D01*
X86602000Y-92965200D01*
X86602000Y-92815200D01*
X86517963Y-92612317D01*
X86362683Y-92457037D01*
X86159800Y-92373000D01*
X85940200Y-92373000D01*
X85737317Y-92457037D01*
X85582037Y-92612317D01*
X85498000Y-92815200D01*
X83989868Y-92815200D01*
X83967963Y-92762317D01*
X83812683Y-92607037D01*
X83609800Y-92523000D01*
X83390200Y-92523000D01*
X83187317Y-92607037D01*
X83032037Y-92762317D01*
X82948000Y-92965200D01*
X81502000Y-92965200D01*
X81502000Y-92815200D01*
X81417963Y-92612317D01*
X81262683Y-92457037D01*
X81059800Y-92373000D01*
X80840200Y-92373000D01*
X80637317Y-92457037D01*
X80482037Y-92612317D01*
X80398000Y-92815200D01*
X78770846Y-92815200D01*
X78712683Y-92757037D01*
X78509800Y-92673000D01*
X78290200Y-92673000D01*
X78087317Y-92757037D01*
X77932037Y-92912317D01*
X77848000Y-93115200D01*
X67902000Y-93115200D01*
X67902000Y-89453324D01*
X68264281Y-90327949D01*
X69172051Y-91235719D01*
X70358110Y-91727000D01*
X71641890Y-91727000D01*
X72827949Y-91235719D01*
X73298468Y-90765200D01*
X91798000Y-90765200D01*
X91798000Y-90984800D01*
X91882037Y-91187683D01*
X92037317Y-91342963D01*
X92240200Y-91427000D01*
X92459800Y-91427000D01*
X92662683Y-91342963D01*
X92817963Y-91187683D01*
X92902000Y-90984800D01*
X92902000Y-90765200D01*
X92817963Y-90562317D01*
X92662683Y-90407037D01*
X92459800Y-90323000D01*
X92240200Y-90323000D01*
X92037317Y-90407037D01*
X91882037Y-90562317D01*
X91798000Y-90765200D01*
X73298468Y-90765200D01*
X73735719Y-90327949D01*
X74227000Y-89141890D01*
X74227000Y-89002000D01*
X75602258Y-89002000D01*
X75410039Y-89081620D01*
X75410039Y-89081620D01*
G37*
X75410039Y-89081620D02*
X75181620Y-89310039D01*
X75058000Y-89608483D01*
X75058000Y-89931517D01*
X75181620Y-90229961D01*
X75410039Y-90458380D01*
X75708483Y-90582000D01*
X76031517Y-90582000D01*
X76329961Y-90458380D01*
X76558380Y-90229961D01*
X76682000Y-89931517D01*
X76682000Y-89627561D01*
X76897924Y-89717000D01*
X77382076Y-89717000D01*
X77598000Y-89627561D01*
X77598000Y-89931517D01*
X77721620Y-90229961D01*
X77950039Y-90458380D01*
X78248483Y-90582000D01*
X78571517Y-90582000D01*
X78869961Y-90458380D01*
X79098380Y-90229961D01*
X79222000Y-89931517D01*
X79222000Y-89608483D01*
X79098380Y-89310039D01*
X78869961Y-89081620D01*
X78677742Y-89002000D01*
X80682258Y-89002000D01*
X80490039Y-89081620D01*
X80261620Y-89310039D01*
X80138000Y-89608483D01*
X80138000Y-89931517D01*
X80261620Y-90229961D01*
X80490039Y-90458380D01*
X80788483Y-90582000D01*
X81111517Y-90582000D01*
X81409961Y-90458380D01*
X81638380Y-90229961D01*
X81762000Y-89931517D01*
X81762000Y-89608483D01*
X81638380Y-89310039D01*
X81409961Y-89081620D01*
X81217742Y-89002000D01*
X83222258Y-89002000D01*
X83030039Y-89081620D01*
X82801620Y-89310039D01*
X82678000Y-89608483D01*
X82678000Y-89931517D01*
X82801620Y-90229961D01*
X83030039Y-90458380D01*
X83328483Y-90582000D01*
X83651517Y-90582000D01*
X83949961Y-90458380D01*
X84178380Y-90229961D01*
X84302000Y-89931517D01*
X84302000Y-89608483D01*
X84178380Y-89310039D01*
X83949961Y-89081620D01*
X83757742Y-89002000D01*
X85762258Y-89002000D01*
X85570039Y-89081620D01*
X85341620Y-89310039D01*
X85218000Y-89608483D01*
X85218000Y-89931517D01*
X85341620Y-90229961D01*
X85570039Y-90458380D01*
X85868483Y-90582000D01*
X86191517Y-90582000D01*
X86489961Y-90458380D01*
X86718380Y-90229961D01*
X86842000Y-89931517D01*
X86842000Y-89608483D01*
X86718380Y-89310039D01*
X86489961Y-89081620D01*
X86297742Y-89002000D01*
X88302258Y-89002000D01*
X88110039Y-89081620D01*
X87881620Y-89310039D01*
X87758000Y-89608483D01*
X87758000Y-89931517D01*
X87881620Y-90229961D01*
X88110039Y-90458380D01*
X88408483Y-90582000D01*
X88731517Y-90582000D01*
X89029961Y-90458380D01*
X89258380Y-90229961D01*
X89382000Y-89931517D01*
X89382000Y-89608483D01*
X89258380Y-89310039D01*
X89029961Y-89081620D01*
X88837742Y-89002000D01*
X90842258Y-89002000D01*
X90650039Y-89081620D01*
X90421620Y-89310039D01*
X90298000Y-89608483D01*
X90298000Y-89931517D01*
X90421620Y-90229961D01*
X90650039Y-90458380D01*
X90948483Y-90582000D01*
X91271517Y-90582000D01*
X91569961Y-90458380D01*
X91798380Y-90229961D01*
X91922000Y-89931517D01*
X91922000Y-89608483D01*
X91798380Y-89310039D01*
X91569961Y-89081620D01*
X91377742Y-89002000D01*
X93382258Y-89002000D01*
X93190039Y-89081620D01*
X92961620Y-89310039D01*
X92838000Y-89608483D01*
X92838000Y-89931517D01*
X92961620Y-90229961D01*
X93190039Y-90458380D01*
X93488483Y-90582000D01*
X93811517Y-90582000D01*
X94109961Y-90458380D01*
X94338380Y-90229961D01*
X94462000Y-89931517D01*
X94462000Y-89608483D01*
X94338380Y-89310039D01*
X94109961Y-89081620D01*
X93917742Y-89002000D01*
X95873000Y-89002000D01*
X95873000Y-89022403D01*
X95730039Y-89081620D01*
X95501620Y-89310039D01*
X95378000Y-89608483D01*
X95378000Y-89931517D01*
X95501620Y-90229961D01*
X95730039Y-90458380D01*
X95873000Y-90517597D01*
X95873000Y-105475000D01*
X95882667Y-105523601D01*
X95910197Y-105564803D01*
X95951399Y-105592333D01*
X96000000Y-105602000D01*
X99173000Y-105602000D01*
X99173000Y-107624975D01*
X99109698Y-107561673D01*
X98876309Y-107465000D01*
X98285750Y-107465000D01*
X98127000Y-107623750D01*
X98127000Y-108873000D01*
X98147000Y-108873000D01*
X98147000Y-109127000D01*
X98127000Y-109127000D01*
X98127000Y-110376250D01*
X98285750Y-110535000D01*
X98876309Y-110535000D01*
X99109698Y-110438327D01*
X99173000Y-110375025D01*
X99173000Y-114598000D01*
X71953324Y-114598000D01*
X72827949Y-114235719D01*
X73735719Y-113327949D01*
X74227000Y-112141890D01*
X74227000Y-110858110D01*
X73735719Y-109672051D01*
X72827949Y-108764281D01*
X71641890Y-108273000D01*
X70358110Y-108273000D01*
X69172051Y-108764281D01*
X68264281Y-109672051D01*
X67902000Y-110546676D01*
X67902000Y-108100000D01*
X76916594Y-108100000D01*
X76916594Y-109900000D01*
X76941973Y-110027589D01*
X77014246Y-110135754D01*
X77122411Y-110208027D01*
X77250000Y-110233406D01*
X78750000Y-110233406D01*
X78877589Y-110208027D01*
X78985754Y-110135754D01*
X79058027Y-110027589D01*
X79083406Y-109900000D01*
X79083406Y-109716767D01*
X79223528Y-109926473D01*
X79579777Y-110164511D01*
X80000000Y-110248099D01*
X80420224Y-110164511D01*
X80776473Y-109926473D01*
X81014511Y-109570223D01*
X81015517Y-109565164D01*
X81223528Y-109876473D01*
X81579777Y-110114511D01*
X82000000Y-110198099D01*
X82420224Y-110114511D01*
X82776473Y-109876473D01*
X83014511Y-109520223D01*
X83061150Y-109285750D01*
X86615000Y-109285750D01*
X86615000Y-110026310D01*
X86711673Y-110259699D01*
X86890302Y-110438327D01*
X87123691Y-110535000D01*
X87714250Y-110535000D01*
X87873000Y-110376250D01*
X87873000Y-109127000D01*
X86773750Y-109127000D01*
X86615000Y-109285750D01*
X83061150Y-109285750D01*
X83077000Y-109206071D01*
X83077000Y-108793928D01*
X83014511Y-108479776D01*
X82776473Y-108123527D01*
X82552226Y-107973690D01*
X86615000Y-107973690D01*
X86615000Y-108714250D01*
X86773750Y-108873000D01*
X87873000Y-108873000D01*
X87873000Y-107623750D01*
X88127000Y-107623750D01*
X88127000Y-108873000D01*
X88147000Y-108873000D01*
X88147000Y-109127000D01*
X88127000Y-109127000D01*
X88127000Y-110376250D01*
X88285750Y-110535000D01*
X88876309Y-110535000D01*
X89109698Y-110438327D01*
X89288327Y-110259699D01*
X89382387Y-110032619D01*
X89579777Y-110164511D01*
X90000000Y-110248099D01*
X90420224Y-110164511D01*
X90776473Y-109926473D01*
X91014511Y-109570223D01*
X91015517Y-109565164D01*
X91223528Y-109876473D01*
X91579777Y-110114511D01*
X92000000Y-110198099D01*
X92420224Y-110114511D01*
X92776473Y-109876473D01*
X93014511Y-109520223D01*
X93061150Y-109285750D01*
X96615000Y-109285750D01*
X96615000Y-110026310D01*
X96711673Y-110259699D01*
X96890302Y-110438327D01*
X97123691Y-110535000D01*
X97714250Y-110535000D01*
X97873000Y-110376250D01*
X97873000Y-109127000D01*
X96773750Y-109127000D01*
X96615000Y-109285750D01*
X93061150Y-109285750D01*
X93077000Y-109206071D01*
X93077000Y-108793928D01*
X93014511Y-108479776D01*
X92776473Y-108123527D01*
X92552226Y-107973690D01*
X96615000Y-107973690D01*
X96615000Y-108714250D01*
X96773750Y-108873000D01*
X97873000Y-108873000D01*
X97873000Y-107623750D01*
X97714250Y-107465000D01*
X97123691Y-107465000D01*
X96890302Y-107561673D01*
X96711673Y-107740301D01*
X96615000Y-107973690D01*
X92552226Y-107973690D01*
X92420223Y-107885489D01*
X92000000Y-107801901D01*
X91579776Y-107885489D01*
X91223527Y-108123527D01*
X91015518Y-108434836D01*
X91014511Y-108429776D01*
X90776473Y-108073527D01*
X90420223Y-107835489D01*
X90000000Y-107751901D01*
X89579776Y-107835489D01*
X89382387Y-107967380D01*
X89288327Y-107740301D01*
X89109698Y-107561673D01*
X88876309Y-107465000D01*
X88285750Y-107465000D01*
X88127000Y-107623750D01*
X87873000Y-107623750D01*
X87714250Y-107465000D01*
X87123691Y-107465000D01*
X86890302Y-107561673D01*
X86711673Y-107740301D01*
X86615000Y-107973690D01*
X82552226Y-107973690D01*
X82420223Y-107885489D01*
X82000000Y-107801901D01*
X81579776Y-107885489D01*
X81223527Y-108123527D01*
X81015518Y-108434836D01*
X81014511Y-108429776D01*
X80776473Y-108073527D01*
X80420223Y-107835489D01*
X80000000Y-107751901D01*
X79579776Y-107835489D01*
X79223527Y-108073527D01*
X79083406Y-108283233D01*
X79083406Y-108100000D01*
X79058027Y-107972411D01*
X78985754Y-107864246D01*
X78877589Y-107791973D01*
X78750000Y-107766594D01*
X77250000Y-107766594D01*
X77122411Y-107791973D01*
X77014246Y-107864246D01*
X76941973Y-107972411D01*
X76916594Y-108100000D01*
X67902000Y-108100000D01*
X67902000Y-106915200D01*
X82948000Y-106915200D01*
X82948000Y-107134800D01*
X83032037Y-107337683D01*
X83187317Y-107492963D01*
X83390200Y-107577000D01*
X83609800Y-107577000D01*
X83812683Y-107492963D01*
X83967963Y-107337683D01*
X84052000Y-107134800D01*
X84052000Y-106915200D01*
X83967963Y-106712317D01*
X83812683Y-106557037D01*
X83609800Y-106473000D01*
X83390200Y-106473000D01*
X83187317Y-106557037D01*
X83032037Y-106712317D01*
X82948000Y-106915200D01*
X67902000Y-106915200D01*
X67902000Y-106165200D01*
X67998000Y-106165200D01*
X67998000Y-106384800D01*
X68082037Y-106587683D01*
X68237317Y-106742963D01*
X68440200Y-106827000D01*
X68659800Y-106827000D01*
X68862683Y-106742963D01*
X69017963Y-106587683D01*
X69102000Y-106384800D01*
X69102000Y-106265167D01*
X69132037Y-106337683D01*
X69287317Y-106492963D01*
X69490200Y-106577000D01*
X69709800Y-106577000D01*
X69912683Y-106492963D01*
X70067963Y-106337683D01*
X70152000Y-106134800D01*
X70152000Y-105915200D01*
X70067963Y-105712317D01*
X69912683Y-105557037D01*
X69709800Y-105473000D01*
X69490200Y-105473000D01*
X69287317Y-105557037D01*
X69132037Y-105712317D01*
X69048000Y-105915200D01*
X69048000Y-106034833D01*
X69017963Y-105962317D01*
X68862683Y-105807037D01*
X68659800Y-105723000D01*
X68440200Y-105723000D01*
X68237317Y-105807037D01*
X68082037Y-105962317D01*
X67998000Y-106165200D01*
X67902000Y-106165200D01*
X67902000Y-102715200D01*
X87948000Y-102715200D01*
X87948000Y-102934800D01*
X88032037Y-103137683D01*
X88187317Y-103292963D01*
X88390200Y-103377000D01*
X88609800Y-103377000D01*
X88812683Y-103292963D01*
X88967963Y-103137683D01*
X89052000Y-102934800D01*
X89052000Y-102715200D01*
X88967963Y-102512317D01*
X88812683Y-102357037D01*
X88609800Y-102273000D01*
X88390200Y-102273000D01*
X88187317Y-102357037D01*
X88032037Y-102512317D01*
X87948000Y-102715200D01*
X67902000Y-102715200D01*
X67902000Y-101815200D01*
X80098000Y-101815200D01*
X80098000Y-102034800D01*
X80182037Y-102237683D01*
X80337317Y-102392963D01*
X80540200Y-102477000D01*
X80759800Y-102477000D01*
X80962683Y-102392963D01*
X81117963Y-102237683D01*
X81202000Y-102034800D01*
X81202000Y-101815200D01*
X81117963Y-101612317D01*
X80962683Y-101457037D01*
X80759800Y-101373000D01*
X80540200Y-101373000D01*
X80337317Y-101457037D01*
X80182037Y-101612317D01*
X80098000Y-101815200D01*
X67902000Y-101815200D01*
X67902000Y-100915200D01*
X68048000Y-100915200D01*
X68048000Y-101134800D01*
X68132037Y-101337683D01*
X68287317Y-101492963D01*
X68490200Y-101577000D01*
X68709800Y-101577000D01*
X68912683Y-101492963D01*
X69067963Y-101337683D01*
X69152000Y-101134800D01*
X69152000Y-100915200D01*
X71798000Y-100915200D01*
X71798000Y-101134800D01*
X71882037Y-101337683D01*
X72037317Y-101492963D01*
X72240200Y-101577000D01*
X72459800Y-101577000D01*
X72662683Y-101492963D01*
X72817963Y-101337683D01*
X72902000Y-101134800D01*
X72902000Y-100915200D01*
X72817963Y-100712317D01*
X72662683Y-100557037D01*
X72561680Y-100515200D01*
X80098000Y-100515200D01*
X80098000Y-100734800D01*
X80182037Y-100937683D01*
X80337317Y-101092963D01*
X80540200Y-101177000D01*
X80759800Y-101177000D01*
X80962683Y-101092963D01*
X81040446Y-101015200D01*
X88698000Y-101015200D01*
X88698000Y-101234800D01*
X88782037Y-101437683D01*
X88937317Y-101592963D01*
X89140200Y-101677000D01*
X89163823Y-101677000D01*
X89148000Y-101715200D01*
X89148000Y-101934800D01*
X89232037Y-102137683D01*
X89387317Y-102292963D01*
X89590200Y-102377000D01*
X89809800Y-102377000D01*
X90012683Y-102292963D01*
X90167963Y-102137683D01*
X90252000Y-101934800D01*
X90252000Y-101765200D01*
X92898000Y-101765200D01*
X92898000Y-101984800D01*
X92982037Y-102187683D01*
X93137317Y-102342963D01*
X93340200Y-102427000D01*
X93559800Y-102427000D01*
X93762683Y-102342963D01*
X93917963Y-102187683D01*
X94002000Y-101984800D01*
X94002000Y-101765200D01*
X93917963Y-101562317D01*
X93762683Y-101407037D01*
X93559800Y-101323000D01*
X93340200Y-101323000D01*
X93137317Y-101407037D01*
X92982037Y-101562317D01*
X92898000Y-101765200D01*
X90252000Y-101765200D01*
X90252000Y-101715200D01*
X90167963Y-101512317D01*
X90012683Y-101357037D01*
X89809800Y-101273000D01*
X89786177Y-101273000D01*
X89802000Y-101234800D01*
X89802000Y-101015200D01*
X89765466Y-100927000D01*
X89859800Y-100927000D01*
X90062683Y-100842963D01*
X90217963Y-100687683D01*
X90289407Y-100515200D01*
X92898000Y-100515200D01*
X92898000Y-100734800D01*
X92982037Y-100937683D01*
X93137317Y-101092963D01*
X93340200Y-101177000D01*
X93559800Y-101177000D01*
X93762683Y-101092963D01*
X93917963Y-100937683D01*
X94002000Y-100734800D01*
X94002000Y-100515200D01*
X93917963Y-100312317D01*
X93762683Y-100157037D01*
X93559800Y-100073000D01*
X93340200Y-100073000D01*
X93137317Y-100157037D01*
X92982037Y-100312317D01*
X92898000Y-100515200D01*
X90289407Y-100515200D01*
X90302000Y-100484800D01*
X90302000Y-100265200D01*
X90217963Y-100062317D01*
X90062683Y-99907037D01*
X89859800Y-99823000D01*
X89640200Y-99823000D01*
X89437317Y-99907037D01*
X89282037Y-100062317D01*
X89198000Y-100265200D01*
X89198000Y-100484800D01*
X89234534Y-100573000D01*
X89140200Y-100573000D01*
X88937317Y-100657037D01*
X88782037Y-100812317D01*
X88698000Y-101015200D01*
X81040446Y-101015200D01*
X81117963Y-100937683D01*
X81202000Y-100734800D01*
X81202000Y-100515200D01*
X81117963Y-100312317D01*
X80962683Y-100157037D01*
X80759800Y-100073000D01*
X80540200Y-100073000D01*
X80337317Y-100157037D01*
X80182037Y-100312317D01*
X80098000Y-100515200D01*
X72561680Y-100515200D01*
X72459800Y-100473000D01*
X72240200Y-100473000D01*
X72037317Y-100557037D01*
X71882037Y-100712317D01*
X71798000Y-100915200D01*
X69152000Y-100915200D01*
X69067963Y-100712317D01*
X68912683Y-100557037D01*
X68709800Y-100473000D01*
X68490200Y-100473000D01*
X68287317Y-100557037D01*
X68132037Y-100712317D01*
X68048000Y-100915200D01*
X67902000Y-100915200D01*
X67902000Y-99215200D01*
X80098000Y-99215200D01*
X80098000Y-99434800D01*
X80182037Y-99637683D01*
X80337317Y-99792963D01*
X80540200Y-99877000D01*
X80759800Y-99877000D01*
X80962683Y-99792963D01*
X81117963Y-99637683D01*
X81202000Y-99434800D01*
X81202000Y-99215200D01*
X81117963Y-99012317D01*
X80962683Y-98857037D01*
X80759800Y-98773000D01*
X80540200Y-98773000D01*
X80337317Y-98857037D01*
X80182037Y-99012317D01*
X80098000Y-99215200D01*
X67902000Y-99215200D01*
X67902000Y-97915200D01*
X80098000Y-97915200D01*
X80098000Y-98134800D01*
X80182037Y-98337683D01*
X80337317Y-98492963D01*
X80540200Y-98577000D01*
X80759800Y-98577000D01*
X80788287Y-98565200D01*
X85948000Y-98565200D01*
X85948000Y-98784800D01*
X86032037Y-98987683D01*
X86187317Y-99142963D01*
X86390200Y-99227000D01*
X86609800Y-99227000D01*
X86638287Y-99215200D01*
X92898000Y-99215200D01*
X92898000Y-99434800D01*
X92982037Y-99637683D01*
X93137317Y-99792963D01*
X93340200Y-99877000D01*
X93559800Y-99877000D01*
X93762683Y-99792963D01*
X93917963Y-99637683D01*
X94002000Y-99434800D01*
X94002000Y-99215200D01*
X93917963Y-99012317D01*
X93762683Y-98857037D01*
X93559800Y-98773000D01*
X93340200Y-98773000D01*
X93137317Y-98857037D01*
X92982037Y-99012317D01*
X92898000Y-99215200D01*
X86638287Y-99215200D01*
X86812683Y-99142963D01*
X86967963Y-98987683D01*
X87052000Y-98784800D01*
X87052000Y-98565200D01*
X86967963Y-98362317D01*
X86812683Y-98207037D01*
X86609800Y-98123000D01*
X86390200Y-98123000D01*
X86187317Y-98207037D01*
X86032037Y-98362317D01*
X85948000Y-98565200D01*
X80788287Y-98565200D01*
X80962683Y-98492963D01*
X81117963Y-98337683D01*
X81202000Y-98134800D01*
X81202000Y-97965200D01*
X92898000Y-97965200D01*
X92898000Y-98184800D01*
X92982037Y-98387683D01*
X93137317Y-98542963D01*
X93340200Y-98627000D01*
X93559800Y-98627000D01*
X93762683Y-98542963D01*
X93917963Y-98387683D01*
X94002000Y-98184800D01*
X94002000Y-97965200D01*
X93917963Y-97762317D01*
X93762683Y-97607037D01*
X93559800Y-97523000D01*
X93340200Y-97523000D01*
X93137317Y-97607037D01*
X92982037Y-97762317D01*
X92898000Y-97965200D01*
X81202000Y-97965200D01*
X81202000Y-97915200D01*
X81117963Y-97712317D01*
X80962683Y-97557037D01*
X80759800Y-97473000D01*
X80540200Y-97473000D01*
X80337317Y-97557037D01*
X80182037Y-97712317D01*
X80098000Y-97915200D01*
X67902000Y-97915200D01*
X67902000Y-96565200D01*
X81848000Y-96565200D01*
X81848000Y-96784800D01*
X81932037Y-96987683D01*
X82087317Y-97142963D01*
X82290200Y-97227000D01*
X82509800Y-97227000D01*
X82712683Y-97142963D01*
X82867963Y-96987683D01*
X82952000Y-96784800D01*
X82952000Y-96615200D01*
X83548000Y-96615200D01*
X83548000Y-96834800D01*
X83632037Y-97037683D01*
X83787317Y-97192963D01*
X83990200Y-97277000D01*
X84209800Y-97277000D01*
X84412683Y-97192963D01*
X84567963Y-97037683D01*
X84652000Y-96834800D01*
X84652000Y-96615200D01*
X84567963Y-96412317D01*
X84412683Y-96257037D01*
X84209800Y-96173000D01*
X83990200Y-96173000D01*
X83787317Y-96257037D01*
X83632037Y-96412317D01*
X83548000Y-96615200D01*
X82952000Y-96615200D01*
X82952000Y-96565200D01*
X82867963Y-96362317D01*
X82712683Y-96207037D01*
X82509800Y-96123000D01*
X82290200Y-96123000D01*
X82087317Y-96207037D01*
X81932037Y-96362317D01*
X81848000Y-96565200D01*
X67902000Y-96565200D01*
X67902000Y-93115200D01*
X77848000Y-93115200D01*
X77848000Y-93334800D01*
X77932037Y-93537683D01*
X78087317Y-93692963D01*
X78290200Y-93777000D01*
X78509800Y-93777000D01*
X78712683Y-93692963D01*
X78867963Y-93537683D01*
X78952000Y-93334800D01*
X78952000Y-93115200D01*
X78867963Y-92912317D01*
X78770846Y-92815200D01*
X80398000Y-92815200D01*
X80398000Y-93034800D01*
X80482037Y-93237683D01*
X80637317Y-93392963D01*
X80840200Y-93477000D01*
X81059800Y-93477000D01*
X81262683Y-93392963D01*
X81417963Y-93237683D01*
X81502000Y-93034800D01*
X81502000Y-92965200D01*
X82948000Y-92965200D01*
X82948000Y-93184800D01*
X83032037Y-93387683D01*
X83187317Y-93542963D01*
X83390200Y-93627000D01*
X83609800Y-93627000D01*
X83812683Y-93542963D01*
X83967963Y-93387683D01*
X84052000Y-93184800D01*
X84052000Y-92965200D01*
X83989868Y-92815200D01*
X85498000Y-92815200D01*
X85498000Y-93034800D01*
X85582037Y-93237683D01*
X85737317Y-93392963D01*
X85940200Y-93477000D01*
X86159800Y-93477000D01*
X86362683Y-93392963D01*
X86517963Y-93237683D01*
X86602000Y-93034800D01*
X86602000Y-92965200D01*
X86648000Y-92965200D01*
X86648000Y-93184800D01*
X86732037Y-93387683D01*
X86887317Y-93542963D01*
X87090200Y-93627000D01*
X87309800Y-93627000D01*
X87512683Y-93542963D01*
X87667963Y-93387683D01*
X87752000Y-93184800D01*
X87752000Y-93115200D01*
X87948000Y-93115200D01*
X87948000Y-93334800D01*
X88032037Y-93537683D01*
X88187317Y-93692963D01*
X88390200Y-93777000D01*
X88609800Y-93777000D01*
X88812683Y-93692963D01*
X88967963Y-93537683D01*
X89016019Y-93421665D01*
X89137317Y-93542963D01*
X89340200Y-93627000D01*
X89559800Y-93627000D01*
X89762683Y-93542963D01*
X89917963Y-93387683D01*
X90002000Y-93184800D01*
X90002000Y-92965200D01*
X89917963Y-92762317D01*
X89762683Y-92607037D01*
X89559800Y-92523000D01*
X89340200Y-92523000D01*
X89137317Y-92607037D01*
X88982037Y-92762317D01*
X88933981Y-92878335D01*
X88812683Y-92757037D01*
X88609800Y-92673000D01*
X88390200Y-92673000D01*
X88187317Y-92757037D01*
X88032037Y-92912317D01*
X87948000Y-93115200D01*
X87752000Y-93115200D01*
X87752000Y-92965200D01*
X87667963Y-92762317D01*
X87512683Y-92607037D01*
X87309800Y-92523000D01*
X87090200Y-92523000D01*
X86887317Y-92607037D01*
X86732037Y-92762317D01*
X86648000Y-92965200D01*
X86602000Y-92965200D01*
X86602000Y-92815200D01*
X86517963Y-92612317D01*
X86362683Y-92457037D01*
X86159800Y-92373000D01*
X85940200Y-92373000D01*
X85737317Y-92457037D01*
X85582037Y-92612317D01*
X85498000Y-92815200D01*
X83989868Y-92815200D01*
X83967963Y-92762317D01*
X83812683Y-92607037D01*
X83609800Y-92523000D01*
X83390200Y-92523000D01*
X83187317Y-92607037D01*
X83032037Y-92762317D01*
X82948000Y-92965200D01*
X81502000Y-92965200D01*
X81502000Y-92815200D01*
X81417963Y-92612317D01*
X81262683Y-92457037D01*
X81059800Y-92373000D01*
X80840200Y-92373000D01*
X80637317Y-92457037D01*
X80482037Y-92612317D01*
X80398000Y-92815200D01*
X78770846Y-92815200D01*
X78712683Y-92757037D01*
X78509800Y-92673000D01*
X78290200Y-92673000D01*
X78087317Y-92757037D01*
X77932037Y-92912317D01*
X77848000Y-93115200D01*
X67902000Y-93115200D01*
X67902000Y-89453324D01*
X68264281Y-90327949D01*
X69172051Y-91235719D01*
X70358110Y-91727000D01*
X71641890Y-91727000D01*
X72827949Y-91235719D01*
X73298468Y-90765200D01*
X91798000Y-90765200D01*
X91798000Y-90984800D01*
X91882037Y-91187683D01*
X92037317Y-91342963D01*
X92240200Y-91427000D01*
X92459800Y-91427000D01*
X92662683Y-91342963D01*
X92817963Y-91187683D01*
X92902000Y-90984800D01*
X92902000Y-90765200D01*
X92817963Y-90562317D01*
X92662683Y-90407037D01*
X92459800Y-90323000D01*
X92240200Y-90323000D01*
X92037317Y-90407037D01*
X91882037Y-90562317D01*
X91798000Y-90765200D01*
X73298468Y-90765200D01*
X73735719Y-90327949D01*
X74227000Y-89141890D01*
X74227000Y-89002000D01*
X75602258Y-89002000D01*
X75410039Y-89081620D01*
G04 #@! TO.N,+5V*
G36*
X87632037Y-51512317D02*
X87548000Y-51715200D01*
X87548000Y-51934800D01*
X87632037Y-52137683D01*
X87787317Y-52292963D01*
X87990200Y-52377000D01*
X88209800Y-52377000D01*
X88238287Y-52365200D01*
X101448000Y-52365200D01*
X101448000Y-52584800D01*
X101532037Y-52787683D01*
X101687317Y-52942963D01*
X101890200Y-53027000D01*
X102109800Y-53027000D01*
X102312683Y-52942963D01*
X102467963Y-52787683D01*
X102552000Y-52584800D01*
X102552000Y-52365200D01*
X102467963Y-52162317D01*
X102320846Y-52015200D01*
X104898000Y-52015200D01*
X104898000Y-52234800D01*
X104982037Y-52437683D01*
X105130673Y-52586319D01*
X105098000Y-52665200D01*
X105098000Y-52884800D01*
X105182037Y-53087683D01*
X105337317Y-53242963D01*
X105540200Y-53327000D01*
X105759800Y-53327000D01*
X105807326Y-53307314D01*
X105882037Y-53487683D01*
X106037317Y-53642963D01*
X106240200Y-53727000D01*
X106459800Y-53727000D01*
X106662683Y-53642963D01*
X106750000Y-53555646D01*
X106887317Y-53692963D01*
X107090200Y-53777000D01*
X107309800Y-53777000D01*
X107435359Y-53724992D01*
X107445318Y-53749036D01*
X107382037Y-53812317D01*
X107298000Y-54015200D01*
X107298000Y-54234800D01*
X107382037Y-54437683D01*
X107537317Y-54592963D01*
X107740200Y-54677000D01*
X107959800Y-54677000D01*
X108162683Y-54592963D01*
X108317963Y-54437683D01*
X108402000Y-54234800D01*
X108402000Y-54015200D01*
X108354682Y-53900964D01*
X108417963Y-53837683D01*
X108502000Y-53634800D01*
X108502000Y-53415200D01*
X108417963Y-53212317D01*
X108262683Y-53057037D01*
X108059800Y-52973000D01*
X107840200Y-52973000D01*
X107714641Y-53025008D01*
X107667963Y-52912317D01*
X107512683Y-52757037D01*
X107309800Y-52673000D01*
X107090200Y-52673000D01*
X106887317Y-52757037D01*
X106800000Y-52844354D01*
X106662683Y-52707037D01*
X106459800Y-52623000D01*
X106240200Y-52623000D01*
X106192674Y-52642686D01*
X106117963Y-52462317D01*
X105969327Y-52313681D01*
X106002000Y-52234800D01*
X106002000Y-52015200D01*
X105917963Y-51812317D01*
X105762683Y-51657037D01*
X105559800Y-51573000D01*
X105340200Y-51573000D01*
X105137317Y-51657037D01*
X104982037Y-51812317D01*
X104898000Y-52015200D01*
X102320846Y-52015200D01*
X102312683Y-52007037D01*
X102109800Y-51923000D01*
X101890200Y-51923000D01*
X101687317Y-52007037D01*
X101532037Y-52162317D01*
X101448000Y-52365200D01*
X88238287Y-52365200D01*
X88412683Y-52292963D01*
X88567963Y-52137683D01*
X88652000Y-51934800D01*
X88652000Y-51715200D01*
X88567963Y-51512317D01*
X88457646Y-51402000D01*
X113998000Y-51402000D01*
X113998000Y-51584800D01*
X114082037Y-51787683D01*
X114237317Y-51942963D01*
X114440200Y-52027000D01*
X114659800Y-52027000D01*
X114688287Y-52015200D01*
X124098000Y-52015200D01*
X124098000Y-52234800D01*
X124182037Y-52437683D01*
X124337317Y-52592963D01*
X124540200Y-52677000D01*
X124548000Y-52677000D01*
X124548000Y-52834800D01*
X124632037Y-53037683D01*
X124787317Y-53192963D01*
X124990200Y-53277000D01*
X125209800Y-53277000D01*
X125412683Y-53192963D01*
X125567963Y-53037683D01*
X125652000Y-52834800D01*
X125652000Y-52615200D01*
X125567963Y-52412317D01*
X125412683Y-52257037D01*
X125209800Y-52173000D01*
X125202000Y-52173000D01*
X125202000Y-52015200D01*
X125117963Y-51812317D01*
X124962683Y-51657037D01*
X124759800Y-51573000D01*
X124540200Y-51573000D01*
X124337317Y-51657037D01*
X124182037Y-51812317D01*
X124098000Y-52015200D01*
X114688287Y-52015200D01*
X114862683Y-51942963D01*
X115017963Y-51787683D01*
X115102000Y-51584800D01*
X115102000Y-51402000D01*
X129476648Y-51402000D01*
X130097043Y-51474330D01*
X130662057Y-51679421D01*
X131164739Y-52008994D01*
X131578119Y-52445367D01*
X131880024Y-52965134D01*
X132055855Y-53545683D01*
X132098000Y-54017898D01*
X132098001Y-87546676D01*
X131735719Y-86672051D01*
X130827949Y-85764281D01*
X129641890Y-85273000D01*
X128358110Y-85273000D01*
X127172051Y-85764281D01*
X126264281Y-86672051D01*
X125773000Y-87858110D01*
X125773000Y-89141890D01*
X126264281Y-90327949D01*
X127172051Y-91235719D01*
X128358110Y-91727000D01*
X129641890Y-91727000D01*
X130827949Y-91235719D01*
X131735719Y-90327949D01*
X132098001Y-89453324D01*
X132098001Y-110546678D01*
X131735719Y-109672051D01*
X130827949Y-108764281D01*
X129641890Y-108273000D01*
X128358110Y-108273000D01*
X127172051Y-108764281D01*
X126264281Y-109672051D01*
X125773000Y-110858110D01*
X125773000Y-112141890D01*
X126264281Y-113327949D01*
X127172051Y-114235719D01*
X128046676Y-114598000D01*
X100527000Y-114598000D01*
X100527000Y-113005663D01*
X106723000Y-113005663D01*
X106723000Y-113394337D01*
X106871739Y-113753426D01*
X107146574Y-114028261D01*
X107505663Y-114177000D01*
X107894337Y-114177000D01*
X108253426Y-114028261D01*
X108528261Y-113753426D01*
X108600000Y-113580232D01*
X108671739Y-113753426D01*
X108946574Y-114028261D01*
X109305663Y-114177000D01*
X109694337Y-114177000D01*
X110053426Y-114028261D01*
X110328261Y-113753426D01*
X110477000Y-113394337D01*
X110477000Y-113005663D01*
X110328261Y-112646574D01*
X110053426Y-112371739D01*
X109877857Y-112299016D01*
X120880590Y-112299016D01*
X120936271Y-112529611D01*
X121419078Y-112697622D01*
X121929428Y-112668083D01*
X122263729Y-112529611D01*
X122319410Y-112299016D01*
X121600000Y-111579605D01*
X120880590Y-112299016D01*
X109877857Y-112299016D01*
X109694337Y-112223000D01*
X109305663Y-112223000D01*
X109189500Y-112271116D01*
X109189500Y-111219078D01*
X120302378Y-111219078D01*
X120331917Y-111729428D01*
X120470389Y-112063729D01*
X120700984Y-112119410D01*
X121420395Y-111400000D01*
X121779605Y-111400000D01*
X122499016Y-112119410D01*
X122729611Y-112063729D01*
X122897622Y-111580922D01*
X122868083Y-111070572D01*
X122729611Y-110736271D01*
X122499016Y-110680590D01*
X121779605Y-111400000D01*
X121420395Y-111400000D01*
X120700984Y-110680590D01*
X120470389Y-110736271D01*
X120302378Y-111219078D01*
X109189500Y-111219078D01*
X109189500Y-110184990D01*
X109232037Y-110287683D01*
X109387317Y-110442963D01*
X109590200Y-110527000D01*
X109809800Y-110527000D01*
X109872608Y-110500984D01*
X120880590Y-110500984D01*
X121600000Y-111220395D01*
X122319410Y-110500984D01*
X122263729Y-110270389D01*
X121780922Y-110102378D01*
X121270572Y-110131917D01*
X120936271Y-110270389D01*
X120880590Y-110500984D01*
X109872608Y-110500984D01*
X110012683Y-110442963D01*
X110167963Y-110287683D01*
X110252000Y-110084800D01*
X110252000Y-109865200D01*
X110167963Y-109662317D01*
X110012683Y-109507037D01*
X109809800Y-109423000D01*
X109590200Y-109423000D01*
X109387317Y-109507037D01*
X109232037Y-109662317D01*
X109189500Y-109765010D01*
X109189500Y-108729178D01*
X111253479Y-106665200D01*
X117048000Y-106665200D01*
X117048000Y-106884800D01*
X117132037Y-107087683D01*
X117287317Y-107242963D01*
X117474045Y-107320309D01*
X117332037Y-107462317D01*
X117248000Y-107665200D01*
X117248000Y-107884800D01*
X117332037Y-108087683D01*
X117487317Y-108242963D01*
X117690200Y-108327000D01*
X117909800Y-108327000D01*
X117961312Y-108305663D01*
X120223000Y-108305663D01*
X120223000Y-108694337D01*
X120371739Y-109053426D01*
X120646574Y-109328261D01*
X121005663Y-109477000D01*
X121394337Y-109477000D01*
X121753426Y-109328261D01*
X122028261Y-109053426D01*
X122177000Y-108694337D01*
X122177000Y-108305663D01*
X122028261Y-107946574D01*
X121753426Y-107671739D01*
X121394337Y-107523000D01*
X121005663Y-107523000D01*
X120646574Y-107671739D01*
X120371739Y-107946574D01*
X120223000Y-108305663D01*
X117961312Y-108305663D01*
X118112683Y-108242963D01*
X118267963Y-108087683D01*
X118352000Y-107884800D01*
X118352000Y-107665200D01*
X118267963Y-107462317D01*
X118112683Y-107307037D01*
X117925955Y-107229691D01*
X118067963Y-107087683D01*
X118152000Y-106884800D01*
X118152000Y-106665200D01*
X118067963Y-106462317D01*
X117912683Y-106307037D01*
X117709800Y-106223000D01*
X117490200Y-106223000D01*
X117287317Y-106307037D01*
X117132037Y-106462317D01*
X117048000Y-106665200D01*
X111253479Y-106665200D01*
X111848000Y-106070680D01*
X111848000Y-106084800D01*
X111932037Y-106287683D01*
X112087317Y-106442963D01*
X112290200Y-106527000D01*
X112509800Y-106527000D01*
X112712683Y-106442963D01*
X112867963Y-106287683D01*
X112952000Y-106084800D01*
X112952000Y-105865200D01*
X112867963Y-105662317D01*
X112738940Y-105533294D01*
X112851257Y-105420977D01*
X112935294Y-105218094D01*
X112935294Y-105065200D01*
X118648000Y-105065200D01*
X118648000Y-105284800D01*
X118732037Y-105487683D01*
X118887317Y-105642963D01*
X119090200Y-105727000D01*
X119309800Y-105727000D01*
X119512683Y-105642963D01*
X119667963Y-105487683D01*
X119752000Y-105284800D01*
X119752000Y-105065200D01*
X119667963Y-104862317D01*
X119512683Y-104707037D01*
X119309800Y-104623000D01*
X119090200Y-104623000D01*
X118887317Y-104707037D01*
X118732037Y-104862317D01*
X118648000Y-105065200D01*
X112935294Y-105065200D01*
X112935294Y-104998494D01*
X112851257Y-104795611D01*
X112695977Y-104640331D01*
X112518275Y-104566725D01*
X112444669Y-104389023D01*
X112289389Y-104233743D01*
X112086506Y-104149706D01*
X111866906Y-104149706D01*
X111664023Y-104233743D01*
X111508743Y-104389023D01*
X111493884Y-104424896D01*
X111467963Y-104362317D01*
X111312683Y-104207037D01*
X111109800Y-104123000D01*
X110890200Y-104123000D01*
X110687317Y-104207037D01*
X110532037Y-104362317D01*
X110448000Y-104565200D01*
X110448000Y-104784800D01*
X110532037Y-104987683D01*
X110687317Y-105142963D01*
X110890200Y-105227000D01*
X111024320Y-105227000D01*
X108165305Y-108086017D01*
X108129651Y-108109840D01*
X108040702Y-108242963D01*
X108035276Y-108251083D01*
X108002135Y-108417690D01*
X108010501Y-108459748D01*
X108010500Y-112271116D01*
X107894337Y-112223000D01*
X107505663Y-112223000D01*
X107146574Y-112371739D01*
X106871739Y-112646574D01*
X106723000Y-113005663D01*
X100527000Y-113005663D01*
X100527000Y-110093166D01*
X100776473Y-109926473D01*
X101014511Y-109570223D01*
X101015517Y-109565164D01*
X101223528Y-109876473D01*
X101579777Y-110114511D01*
X102000000Y-110198099D01*
X102420224Y-110114511D01*
X102776473Y-109876473D01*
X103014511Y-109520223D01*
X103077000Y-109206071D01*
X103077000Y-108793928D01*
X103014511Y-108479776D01*
X102776473Y-108123527D01*
X102420223Y-107885489D01*
X102000000Y-107801901D01*
X101579776Y-107885489D01*
X101223527Y-108123527D01*
X101015518Y-108434836D01*
X101014511Y-108429776D01*
X100776473Y-108073527D01*
X100527000Y-107906835D01*
X100527000Y-104675000D01*
X100517333Y-104626399D01*
X100489803Y-104585197D01*
X100448601Y-104557667D01*
X100400000Y-104548000D01*
X96827000Y-104548000D01*
X96827000Y-102815200D01*
X96948000Y-102815200D01*
X96948000Y-103034800D01*
X97032037Y-103237683D01*
X97187317Y-103392963D01*
X97390200Y-103477000D01*
X97609800Y-103477000D01*
X97812683Y-103392963D01*
X97940446Y-103265200D01*
X106048000Y-103265200D01*
X106048000Y-103484800D01*
X106132037Y-103687683D01*
X106287317Y-103842963D01*
X106490200Y-103927000D01*
X106709800Y-103927000D01*
X106825012Y-103879278D01*
X106748000Y-104065200D01*
X106748000Y-104284800D01*
X106832037Y-104487683D01*
X106987317Y-104642963D01*
X107190200Y-104727000D01*
X107409800Y-104727000D01*
X107612683Y-104642963D01*
X107767963Y-104487683D01*
X107852000Y-104284800D01*
X107852000Y-104065200D01*
X107767963Y-103862317D01*
X107612683Y-103707037D01*
X107409800Y-103623000D01*
X107190200Y-103623000D01*
X107074988Y-103670722D01*
X107152000Y-103484800D01*
X107152000Y-103265200D01*
X109248000Y-103265200D01*
X109248000Y-103484800D01*
X109332037Y-103687683D01*
X109487317Y-103842963D01*
X109690200Y-103927000D01*
X109909800Y-103927000D01*
X110112683Y-103842963D01*
X110267963Y-103687683D01*
X110277275Y-103665200D01*
X119048000Y-103665200D01*
X119048000Y-103884800D01*
X119132037Y-104087683D01*
X119287317Y-104242963D01*
X119490200Y-104327000D01*
X119709800Y-104327000D01*
X119912683Y-104242963D01*
X120067963Y-104087683D01*
X120077275Y-104065200D01*
X125448000Y-104065200D01*
X125448000Y-104284800D01*
X125532037Y-104487683D01*
X125687317Y-104642963D01*
X125890200Y-104727000D01*
X125963823Y-104727000D01*
X125948000Y-104765200D01*
X125948000Y-104984800D01*
X126032037Y-105187683D01*
X126187317Y-105342963D01*
X126390200Y-105427000D01*
X126609800Y-105427000D01*
X126812683Y-105342963D01*
X126967963Y-105187683D01*
X127052000Y-104984800D01*
X127052000Y-104765200D01*
X126967963Y-104562317D01*
X126812683Y-104407037D01*
X126609800Y-104323000D01*
X126536177Y-104323000D01*
X126552000Y-104284800D01*
X126552000Y-104065200D01*
X126537582Y-104030391D01*
X127473000Y-104030391D01*
X127473000Y-104319609D01*
X127583679Y-104586813D01*
X127788187Y-104791321D01*
X128055391Y-104902000D01*
X128344609Y-104902000D01*
X128611813Y-104791321D01*
X128816321Y-104586813D01*
X128927000Y-104319609D01*
X128927000Y-104030391D01*
X128816321Y-103763187D01*
X128733194Y-103680060D01*
X128737745Y-103642350D01*
X128200000Y-103104605D01*
X127662255Y-103642350D01*
X127666806Y-103680060D01*
X127583679Y-103763187D01*
X127473000Y-104030391D01*
X126537582Y-104030391D01*
X126467963Y-103862317D01*
X126312683Y-103707037D01*
X126109800Y-103623000D01*
X125890200Y-103623000D01*
X125687317Y-103707037D01*
X125532037Y-103862317D01*
X125448000Y-104065200D01*
X120077275Y-104065200D01*
X120152000Y-103884800D01*
X120152000Y-103665200D01*
X120067963Y-103462317D01*
X119912683Y-103307037D01*
X119709800Y-103223000D01*
X119490200Y-103223000D01*
X119287317Y-103307037D01*
X119132037Y-103462317D01*
X119048000Y-103665200D01*
X110277275Y-103665200D01*
X110352000Y-103484800D01*
X110352000Y-103265200D01*
X110267963Y-103062317D01*
X110112683Y-102907037D01*
X109909800Y-102823000D01*
X109690200Y-102823000D01*
X109487317Y-102907037D01*
X109332037Y-103062317D01*
X109248000Y-103265200D01*
X107152000Y-103265200D01*
X107074988Y-103079278D01*
X107190200Y-103127000D01*
X107409800Y-103127000D01*
X107612683Y-103042963D01*
X107767963Y-102887683D01*
X107852000Y-102684800D01*
X107852000Y-102465200D01*
X107769158Y-102265200D01*
X111448000Y-102265200D01*
X111448000Y-102484800D01*
X111532037Y-102687683D01*
X111687317Y-102842963D01*
X111890200Y-102927000D01*
X112109800Y-102927000D01*
X112312683Y-102842963D01*
X112351715Y-102803931D01*
X127151691Y-102803931D01*
X127185158Y-103214318D01*
X127277820Y-103438023D01*
X127482650Y-103462745D01*
X128020395Y-102925000D01*
X128379605Y-102925000D01*
X128917350Y-103462745D01*
X129122180Y-103438023D01*
X129248309Y-103046069D01*
X129214842Y-102635682D01*
X129122180Y-102411977D01*
X128917350Y-102387255D01*
X128379605Y-102925000D01*
X128020395Y-102925000D01*
X127482650Y-102387255D01*
X127277820Y-102411977D01*
X127151691Y-102803931D01*
X112351715Y-102803931D01*
X112467963Y-102687683D01*
X112552000Y-102484800D01*
X112552000Y-102265200D01*
X112467963Y-102062317D01*
X112312683Y-101907037D01*
X112109800Y-101823000D01*
X111890200Y-101823000D01*
X111687317Y-101907037D01*
X111532037Y-102062317D01*
X111448000Y-102265200D01*
X107769158Y-102265200D01*
X107767963Y-102262317D01*
X107612683Y-102107037D01*
X107409800Y-102023000D01*
X107190200Y-102023000D01*
X106987317Y-102107037D01*
X106832037Y-102262317D01*
X106748000Y-102465200D01*
X106748000Y-102684800D01*
X106825012Y-102870722D01*
X106709800Y-102823000D01*
X106490200Y-102823000D01*
X106287317Y-102907037D01*
X106132037Y-103062317D01*
X106048000Y-103265200D01*
X97940446Y-103265200D01*
X97967963Y-103237683D01*
X98052000Y-103034800D01*
X98052000Y-102815200D01*
X97967963Y-102612317D01*
X97820846Y-102465200D01*
X103948000Y-102465200D01*
X103948000Y-102684800D01*
X104032037Y-102887683D01*
X104187317Y-103042963D01*
X104390200Y-103127000D01*
X104609800Y-103127000D01*
X104812683Y-103042963D01*
X104967963Y-102887683D01*
X105052000Y-102684800D01*
X105052000Y-102465200D01*
X104967963Y-102262317D01*
X104812683Y-102107037D01*
X104609800Y-102023000D01*
X104390200Y-102023000D01*
X104187317Y-102107037D01*
X104032037Y-102262317D01*
X103948000Y-102465200D01*
X97820846Y-102465200D01*
X97812683Y-102457037D01*
X97609800Y-102373000D01*
X97390200Y-102373000D01*
X97187317Y-102457037D01*
X97032037Y-102612317D01*
X96948000Y-102815200D01*
X96827000Y-102815200D01*
X96827000Y-101165200D01*
X110148000Y-101165200D01*
X110148000Y-101384800D01*
X110232037Y-101587683D01*
X110387317Y-101742963D01*
X110590200Y-101827000D01*
X110809800Y-101827000D01*
X111012683Y-101742963D01*
X111167963Y-101587683D01*
X111252000Y-101384800D01*
X111252000Y-101265200D01*
X112248000Y-101265200D01*
X112248000Y-101484800D01*
X112332037Y-101687683D01*
X112487317Y-101842963D01*
X112690200Y-101927000D01*
X112909800Y-101927000D01*
X113112683Y-101842963D01*
X113267963Y-101687683D01*
X113352000Y-101484800D01*
X113352000Y-101265200D01*
X113267963Y-101062317D01*
X113120846Y-100915200D01*
X115248000Y-100915200D01*
X115248000Y-101134800D01*
X115332037Y-101337683D01*
X115487317Y-101492963D01*
X115690200Y-101577000D01*
X115909800Y-101577000D01*
X116112683Y-101492963D01*
X116267963Y-101337683D01*
X116352000Y-101134800D01*
X116352000Y-100915200D01*
X116267963Y-100712317D01*
X116220846Y-100665200D01*
X119648000Y-100665200D01*
X119648000Y-100884800D01*
X119732037Y-101087683D01*
X119887317Y-101242963D01*
X120090200Y-101327000D01*
X120309800Y-101327000D01*
X120512683Y-101242963D01*
X120667963Y-101087683D01*
X120752000Y-100884800D01*
X120752000Y-100665200D01*
X120667963Y-100462317D01*
X120512683Y-100307037D01*
X120309800Y-100223000D01*
X120090200Y-100223000D01*
X119887317Y-100307037D01*
X119732037Y-100462317D01*
X119648000Y-100665200D01*
X116220846Y-100665200D01*
X116112683Y-100557037D01*
X115909800Y-100473000D01*
X115690200Y-100473000D01*
X115487317Y-100557037D01*
X115332037Y-100712317D01*
X115248000Y-100915200D01*
X113120846Y-100915200D01*
X113112683Y-100907037D01*
X112909800Y-100823000D01*
X112690200Y-100823000D01*
X112487317Y-100907037D01*
X112332037Y-101062317D01*
X112248000Y-101265200D01*
X111252000Y-101265200D01*
X111252000Y-101165200D01*
X111167963Y-100962317D01*
X111012683Y-100807037D01*
X110809800Y-100723000D01*
X110590200Y-100723000D01*
X110387317Y-100807037D01*
X110232037Y-100962317D01*
X110148000Y-101165200D01*
X96827000Y-101165200D01*
X96827000Y-99965200D01*
X98848000Y-99965200D01*
X98848000Y-100184800D01*
X98932037Y-100387683D01*
X99087317Y-100542963D01*
X99290200Y-100627000D01*
X99509800Y-100627000D01*
X99712683Y-100542963D01*
X99867963Y-100387683D01*
X99952000Y-100184800D01*
X99952000Y-99965200D01*
X111398000Y-99965200D01*
X111398000Y-100184800D01*
X111482037Y-100387683D01*
X111637317Y-100542963D01*
X111840200Y-100627000D01*
X112059800Y-100627000D01*
X112262683Y-100542963D01*
X112417963Y-100387683D01*
X112502000Y-100184800D01*
X112502000Y-99965200D01*
X112435344Y-99804278D01*
X112490200Y-99827000D01*
X112709800Y-99827000D01*
X112912683Y-99742963D01*
X113067963Y-99587683D01*
X113152000Y-99384800D01*
X113152000Y-99165200D01*
X113067963Y-98962317D01*
X112912683Y-98807037D01*
X112709800Y-98723000D01*
X112490200Y-98723000D01*
X112287317Y-98807037D01*
X112132037Y-98962317D01*
X112048000Y-99165200D01*
X112048000Y-99384800D01*
X112114656Y-99545722D01*
X112059800Y-99523000D01*
X111840200Y-99523000D01*
X111637317Y-99607037D01*
X111482037Y-99762317D01*
X111398000Y-99965200D01*
X99952000Y-99965200D01*
X99867963Y-99762317D01*
X99712683Y-99607037D01*
X99509800Y-99523000D01*
X99290200Y-99523000D01*
X99087317Y-99607037D01*
X98932037Y-99762317D01*
X98848000Y-99965200D01*
X96827000Y-99965200D01*
X96827000Y-98715200D01*
X98548000Y-98715200D01*
X98548000Y-98934800D01*
X98632037Y-99137683D01*
X98787317Y-99292963D01*
X98990200Y-99377000D01*
X99209800Y-99377000D01*
X99412683Y-99292963D01*
X99567963Y-99137683D01*
X99652000Y-98934800D01*
X99652000Y-98715200D01*
X99567963Y-98512317D01*
X99412683Y-98357037D01*
X99209800Y-98273000D01*
X98990200Y-98273000D01*
X98787317Y-98357037D01*
X98632037Y-98512317D01*
X98548000Y-98715200D01*
X96827000Y-98715200D01*
X96827000Y-96965200D01*
X115848000Y-96965200D01*
X115848000Y-97184800D01*
X115932037Y-97387683D01*
X116087317Y-97542963D01*
X116290200Y-97627000D01*
X116509800Y-97627000D01*
X116712683Y-97542963D01*
X116867963Y-97387683D01*
X116952000Y-97184800D01*
X116952000Y-96965200D01*
X116867963Y-96762317D01*
X116712683Y-96607037D01*
X116509800Y-96523000D01*
X116290200Y-96523000D01*
X116087317Y-96607037D01*
X115932037Y-96762317D01*
X115848000Y-96965200D01*
X96827000Y-96965200D01*
X96827000Y-95565200D01*
X106348000Y-95565200D01*
X106348000Y-95784800D01*
X106432037Y-95987683D01*
X106587317Y-96142963D01*
X106790200Y-96227000D01*
X107009800Y-96227000D01*
X107212683Y-96142963D01*
X107367963Y-95987683D01*
X107452000Y-95784800D01*
X107452000Y-95565200D01*
X107367963Y-95362317D01*
X107286037Y-95280391D01*
X127473000Y-95280391D01*
X127473000Y-95569609D01*
X127583679Y-95836813D01*
X127788187Y-96041321D01*
X127809140Y-96050000D01*
X127788187Y-96058679D01*
X127583679Y-96263187D01*
X127473000Y-96530391D01*
X127473000Y-96819609D01*
X127583679Y-97086813D01*
X127788187Y-97291321D01*
X127809140Y-97300000D01*
X127788187Y-97308679D01*
X127583679Y-97513187D01*
X127473000Y-97780391D01*
X127473000Y-98069609D01*
X127583679Y-98336813D01*
X127788187Y-98541321D01*
X127809140Y-98550000D01*
X127788187Y-98558679D01*
X127583679Y-98763187D01*
X127473000Y-99030391D01*
X127473000Y-99319609D01*
X127583679Y-99586813D01*
X127788187Y-99791321D01*
X127809140Y-99800000D01*
X127788187Y-99808679D01*
X127583679Y-100013187D01*
X127473000Y-100280391D01*
X127473000Y-100569609D01*
X127583679Y-100836813D01*
X127788187Y-101041321D01*
X127809140Y-101050000D01*
X127788187Y-101058679D01*
X127583679Y-101263187D01*
X127473000Y-101530391D01*
X127473000Y-101819609D01*
X127583679Y-102086813D01*
X127666806Y-102169940D01*
X127662255Y-102207650D01*
X128200000Y-102745395D01*
X128737745Y-102207650D01*
X128733194Y-102169940D01*
X128816321Y-102086813D01*
X128927000Y-101819609D01*
X128927000Y-101530391D01*
X128816321Y-101263187D01*
X128611813Y-101058679D01*
X128590860Y-101050000D01*
X128611813Y-101041321D01*
X128816321Y-100836813D01*
X128927000Y-100569609D01*
X128927000Y-100280391D01*
X128816321Y-100013187D01*
X128611813Y-99808679D01*
X128590860Y-99800000D01*
X128611813Y-99791321D01*
X128816321Y-99586813D01*
X128927000Y-99319609D01*
X128927000Y-99030391D01*
X128816321Y-98763187D01*
X128611813Y-98558679D01*
X128590860Y-98550000D01*
X128611813Y-98541321D01*
X128816321Y-98336813D01*
X128927000Y-98069609D01*
X128927000Y-97780391D01*
X128816321Y-97513187D01*
X128611813Y-97308679D01*
X128590860Y-97300000D01*
X128611813Y-97291321D01*
X128816321Y-97086813D01*
X128927000Y-96819609D01*
X128927000Y-96530391D01*
X128816321Y-96263187D01*
X128611813Y-96058679D01*
X128590860Y-96050000D01*
X128611813Y-96041321D01*
X128816321Y-95836813D01*
X128927000Y-95569609D01*
X128927000Y-95280391D01*
X128816321Y-95013187D01*
X128611813Y-94808679D01*
X128344609Y-94698000D01*
X128055391Y-94698000D01*
X127788187Y-94808679D01*
X127583679Y-95013187D01*
X127473000Y-95280391D01*
X107286037Y-95280391D01*
X107212683Y-95207037D01*
X107009800Y-95123000D01*
X106790200Y-95123000D01*
X106587317Y-95207037D01*
X106432037Y-95362317D01*
X106348000Y-95565200D01*
X96827000Y-95565200D01*
X96827000Y-92915200D01*
X99448000Y-92915200D01*
X99448000Y-93134800D01*
X99532037Y-93337683D01*
X99687317Y-93492963D01*
X99890200Y-93577000D01*
X100109800Y-93577000D01*
X100312683Y-93492963D01*
X100467963Y-93337683D01*
X100477275Y-93315200D01*
X104898000Y-93315200D01*
X104898000Y-93534800D01*
X104982037Y-93737683D01*
X105137317Y-93892963D01*
X105340200Y-93977000D01*
X105559800Y-93977000D01*
X105762683Y-93892963D01*
X105917963Y-93737683D01*
X106002000Y-93534800D01*
X106002000Y-93315200D01*
X105917963Y-93112317D01*
X105820846Y-93015200D01*
X110898000Y-93015200D01*
X110898000Y-93234800D01*
X110982037Y-93437683D01*
X111137317Y-93592963D01*
X111340200Y-93677000D01*
X111559800Y-93677000D01*
X111762683Y-93592963D01*
X111917963Y-93437683D01*
X112002000Y-93234800D01*
X112002000Y-93015200D01*
X111919158Y-92815200D01*
X121048000Y-92815200D01*
X121048000Y-93034800D01*
X121132037Y-93237683D01*
X121287317Y-93392963D01*
X121490200Y-93477000D01*
X121709800Y-93477000D01*
X121912683Y-93392963D01*
X122040446Y-93265200D01*
X124198000Y-93265200D01*
X124198000Y-93484800D01*
X124282037Y-93687683D01*
X124437317Y-93842963D01*
X124640200Y-93927000D01*
X124859800Y-93927000D01*
X125062683Y-93842963D01*
X125217963Y-93687683D01*
X125302000Y-93484800D01*
X125302000Y-93265200D01*
X125217963Y-93062317D01*
X125062683Y-92907037D01*
X124859800Y-92823000D01*
X124640200Y-92823000D01*
X124437317Y-92907037D01*
X124282037Y-93062317D01*
X124198000Y-93265200D01*
X122040446Y-93265200D01*
X122067963Y-93237683D01*
X122152000Y-93034800D01*
X122152000Y-92815200D01*
X122067963Y-92612317D01*
X121912683Y-92457037D01*
X121709800Y-92373000D01*
X121490200Y-92373000D01*
X121287317Y-92457037D01*
X121132037Y-92612317D01*
X121048000Y-92815200D01*
X111919158Y-92815200D01*
X111917963Y-92812317D01*
X111762683Y-92657037D01*
X111559800Y-92573000D01*
X111340200Y-92573000D01*
X111137317Y-92657037D01*
X110982037Y-92812317D01*
X110898000Y-93015200D01*
X105820846Y-93015200D01*
X105762683Y-92957037D01*
X105559800Y-92873000D01*
X105340200Y-92873000D01*
X105137317Y-92957037D01*
X104982037Y-93112317D01*
X104898000Y-93315200D01*
X100477275Y-93315200D01*
X100552000Y-93134800D01*
X100552000Y-92915200D01*
X100467963Y-92712317D01*
X100312683Y-92557037D01*
X100109800Y-92473000D01*
X99890200Y-92473000D01*
X99687317Y-92557037D01*
X99532037Y-92712317D01*
X99448000Y-92915200D01*
X96827000Y-92915200D01*
X96827000Y-90281341D01*
X96878380Y-90229961D01*
X97002000Y-89931517D01*
X97002000Y-89608483D01*
X97918000Y-89608483D01*
X97918000Y-89931517D01*
X98041620Y-90229961D01*
X98270039Y-90458380D01*
X98568483Y-90582000D01*
X98891517Y-90582000D01*
X99189961Y-90458380D01*
X99418380Y-90229961D01*
X99542000Y-89931517D01*
X99542000Y-89608483D01*
X100458000Y-89608483D01*
X100458000Y-89931517D01*
X100581620Y-90229961D01*
X100810039Y-90458380D01*
X101108483Y-90582000D01*
X101431517Y-90582000D01*
X101729961Y-90458380D01*
X101958380Y-90229961D01*
X102082000Y-89931517D01*
X102082000Y-89608483D01*
X102998000Y-89608483D01*
X102998000Y-89931517D01*
X103121620Y-90229961D01*
X103350039Y-90458380D01*
X103648483Y-90582000D01*
X103971517Y-90582000D01*
X104269961Y-90458380D01*
X104498380Y-90229961D01*
X104622000Y-89931517D01*
X104622000Y-89608483D01*
X105538000Y-89608483D01*
X105538000Y-89931517D01*
X105661620Y-90229961D01*
X105890039Y-90458380D01*
X106188483Y-90582000D01*
X106511517Y-90582000D01*
X106809961Y-90458380D01*
X107038380Y-90229961D01*
X107162000Y-89931517D01*
X107162000Y-89608483D01*
X108078000Y-89608483D01*
X108078000Y-89931517D01*
X108201620Y-90229961D01*
X108430039Y-90458380D01*
X108728483Y-90582000D01*
X109051517Y-90582000D01*
X109349961Y-90458380D01*
X109578380Y-90229961D01*
X109702000Y-89931517D01*
X109702000Y-89608483D01*
X110618000Y-89608483D01*
X110618000Y-89931517D01*
X110741620Y-90229961D01*
X110970039Y-90458380D01*
X111268483Y-90582000D01*
X111591517Y-90582000D01*
X111889961Y-90458380D01*
X112118380Y-90229961D01*
X112242000Y-89931517D01*
X112242000Y-89608483D01*
X113158000Y-89608483D01*
X113158000Y-89931517D01*
X113281620Y-90229961D01*
X113510039Y-90458380D01*
X113808483Y-90582000D01*
X114131517Y-90582000D01*
X114429961Y-90458380D01*
X114658380Y-90229961D01*
X114760031Y-89984555D01*
X114782037Y-90037683D01*
X114937317Y-90192963D01*
X115140200Y-90277000D01*
X115359800Y-90277000D01*
X115562683Y-90192963D01*
X115717963Y-90037683D01*
X115729969Y-90008697D01*
X115821620Y-90229961D01*
X116050039Y-90458380D01*
X116348483Y-90582000D01*
X116671517Y-90582000D01*
X116969961Y-90458380D01*
X117198380Y-90229961D01*
X117322000Y-89931517D01*
X117322000Y-89608483D01*
X118238000Y-89608483D01*
X118238000Y-89931517D01*
X118361620Y-90229961D01*
X118590039Y-90458380D01*
X118888483Y-90582000D01*
X119211517Y-90582000D01*
X119509961Y-90458380D01*
X119738380Y-90229961D01*
X119862000Y-89931517D01*
X119862000Y-89608483D01*
X119738380Y-89310039D01*
X119509961Y-89081620D01*
X119211517Y-88958000D01*
X118888483Y-88958000D01*
X118590039Y-89081620D01*
X118361620Y-89310039D01*
X118238000Y-89608483D01*
X117322000Y-89608483D01*
X117198380Y-89310039D01*
X116969961Y-89081620D01*
X116671517Y-88958000D01*
X116348483Y-88958000D01*
X116050039Y-89081620D01*
X115821620Y-89310039D01*
X115748609Y-89486303D01*
X115717963Y-89412317D01*
X115562683Y-89257037D01*
X115359800Y-89173000D01*
X115140200Y-89173000D01*
X114937317Y-89257037D01*
X114782037Y-89412317D01*
X114741391Y-89510445D01*
X114658380Y-89310039D01*
X114429961Y-89081620D01*
X114131517Y-88958000D01*
X113808483Y-88958000D01*
X113510039Y-89081620D01*
X113281620Y-89310039D01*
X113158000Y-89608483D01*
X112242000Y-89608483D01*
X112118380Y-89310039D01*
X111889961Y-89081620D01*
X111591517Y-88958000D01*
X111268483Y-88958000D01*
X110970039Y-89081620D01*
X110741620Y-89310039D01*
X110618000Y-89608483D01*
X109702000Y-89608483D01*
X109578380Y-89310039D01*
X109349961Y-89081620D01*
X109051517Y-88958000D01*
X108728483Y-88958000D01*
X108430039Y-89081620D01*
X108201620Y-89310039D01*
X108078000Y-89608483D01*
X107162000Y-89608483D01*
X107038380Y-89310039D01*
X106809961Y-89081620D01*
X106511517Y-88958000D01*
X106188483Y-88958000D01*
X105890039Y-89081620D01*
X105661620Y-89310039D01*
X105538000Y-89608483D01*
X104622000Y-89608483D01*
X104498380Y-89310039D01*
X104269961Y-89081620D01*
X103971517Y-88958000D01*
X103648483Y-88958000D01*
X103350039Y-89081620D01*
X103121620Y-89310039D01*
X102998000Y-89608483D01*
X102082000Y-89608483D01*
X101958380Y-89310039D01*
X101729961Y-89081620D01*
X101431517Y-88958000D01*
X101108483Y-88958000D01*
X100810039Y-89081620D01*
X100581620Y-89310039D01*
X100458000Y-89608483D01*
X99542000Y-89608483D01*
X99418380Y-89310039D01*
X99189961Y-89081620D01*
X98891517Y-88958000D01*
X98568483Y-88958000D01*
X98270039Y-89081620D01*
X98041620Y-89310039D01*
X97918000Y-89608483D01*
X97002000Y-89608483D01*
X96878380Y-89310039D01*
X96827000Y-89258659D01*
X96827000Y-87975000D01*
X96817333Y-87926399D01*
X96789803Y-87885197D01*
X96748601Y-87857667D01*
X96716966Y-87851375D01*
X96878380Y-87689961D01*
X97002000Y-87391517D01*
X97002000Y-87068483D01*
X97918000Y-87068483D01*
X97918000Y-87391517D01*
X98041620Y-87689961D01*
X98270039Y-87918380D01*
X98568483Y-88042000D01*
X98891517Y-88042000D01*
X99189961Y-87918380D01*
X99418380Y-87689961D01*
X99542000Y-87391517D01*
X99542000Y-87068483D01*
X100458000Y-87068483D01*
X100458000Y-87391517D01*
X100581620Y-87689961D01*
X100810039Y-87918380D01*
X101108483Y-88042000D01*
X101431517Y-88042000D01*
X101729961Y-87918380D01*
X101958380Y-87689961D01*
X102082000Y-87391517D01*
X102082000Y-87068483D01*
X102998000Y-87068483D01*
X102998000Y-87391517D01*
X103121620Y-87689961D01*
X103350039Y-87918380D01*
X103648483Y-88042000D01*
X103971517Y-88042000D01*
X104269961Y-87918380D01*
X104498380Y-87689961D01*
X104622000Y-87391517D01*
X104622000Y-87068483D01*
X105538000Y-87068483D01*
X105538000Y-87391517D01*
X105661620Y-87689961D01*
X105890039Y-87918380D01*
X106188483Y-88042000D01*
X106511517Y-88042000D01*
X106809961Y-87918380D01*
X107038380Y-87689961D01*
X107162000Y-87391517D01*
X107162000Y-87068483D01*
X108078000Y-87068483D01*
X108078000Y-87391517D01*
X108201620Y-87689961D01*
X108430039Y-87918380D01*
X108728483Y-88042000D01*
X109051517Y-88042000D01*
X109349961Y-87918380D01*
X109578380Y-87689961D01*
X109702000Y-87391517D01*
X109702000Y-87068483D01*
X110618000Y-87068483D01*
X110618000Y-87391517D01*
X110741620Y-87689961D01*
X110970039Y-87918380D01*
X111268483Y-88042000D01*
X111591517Y-88042000D01*
X111889961Y-87918380D01*
X112118380Y-87689961D01*
X112242000Y-87391517D01*
X112242000Y-87068483D01*
X113158000Y-87068483D01*
X113158000Y-87391517D01*
X113281620Y-87689961D01*
X113510039Y-87918380D01*
X113808483Y-88042000D01*
X114131517Y-88042000D01*
X114429961Y-87918380D01*
X114658380Y-87689961D01*
X114782000Y-87391517D01*
X114782000Y-87068483D01*
X115698000Y-87068483D01*
X115698000Y-87391517D01*
X115821620Y-87689961D01*
X116050039Y-87918380D01*
X116348483Y-88042000D01*
X116671517Y-88042000D01*
X116969961Y-87918380D01*
X117198380Y-87689961D01*
X117322000Y-87391517D01*
X117322000Y-87068483D01*
X118238000Y-87068483D01*
X118238000Y-87391517D01*
X118361620Y-87689961D01*
X118590039Y-87918380D01*
X118888483Y-88042000D01*
X119211517Y-88042000D01*
X119509961Y-87918380D01*
X119738380Y-87689961D01*
X119862000Y-87391517D01*
X119862000Y-87068483D01*
X120778000Y-87068483D01*
X120778000Y-87391517D01*
X120901620Y-87689961D01*
X121130039Y-87918380D01*
X121428483Y-88042000D01*
X121732439Y-88042000D01*
X121643000Y-88257924D01*
X121643000Y-88742076D01*
X121732439Y-88958000D01*
X121428483Y-88958000D01*
X121130039Y-89081620D01*
X120901620Y-89310039D01*
X120778000Y-89608483D01*
X120778000Y-89931517D01*
X120901620Y-90229961D01*
X121130039Y-90458380D01*
X121428483Y-90582000D01*
X121751517Y-90582000D01*
X122049961Y-90458380D01*
X122278380Y-90229961D01*
X122402000Y-89931517D01*
X122402000Y-89627561D01*
X122617924Y-89717000D01*
X123102076Y-89717000D01*
X123318000Y-89627561D01*
X123318000Y-89931517D01*
X123441620Y-90229961D01*
X123670039Y-90458380D01*
X123968483Y-90582000D01*
X124291517Y-90582000D01*
X124589961Y-90458380D01*
X124818380Y-90229961D01*
X124942000Y-89931517D01*
X124942000Y-89608483D01*
X124818380Y-89310039D01*
X124589961Y-89081620D01*
X124291517Y-88958000D01*
X123987561Y-88958000D01*
X124077000Y-88742076D01*
X124077000Y-88257924D01*
X123987561Y-88042000D01*
X124291517Y-88042000D01*
X124589961Y-87918380D01*
X124818380Y-87689961D01*
X124942000Y-87391517D01*
X124942000Y-87068483D01*
X124818380Y-86770039D01*
X124589961Y-86541620D01*
X124291517Y-86418000D01*
X123968483Y-86418000D01*
X123670039Y-86541620D01*
X123441620Y-86770039D01*
X123318000Y-87068483D01*
X123318000Y-87372439D01*
X123102076Y-87283000D01*
X122617924Y-87283000D01*
X122402000Y-87372439D01*
X122402000Y-87068483D01*
X122278380Y-86770039D01*
X122049961Y-86541620D01*
X121751517Y-86418000D01*
X121428483Y-86418000D01*
X121130039Y-86541620D01*
X120901620Y-86770039D01*
X120778000Y-87068483D01*
X119862000Y-87068483D01*
X119738380Y-86770039D01*
X119509961Y-86541620D01*
X119211517Y-86418000D01*
X118888483Y-86418000D01*
X118590039Y-86541620D01*
X118361620Y-86770039D01*
X118238000Y-87068483D01*
X117322000Y-87068483D01*
X117198380Y-86770039D01*
X116969961Y-86541620D01*
X116671517Y-86418000D01*
X116348483Y-86418000D01*
X116050039Y-86541620D01*
X115821620Y-86770039D01*
X115698000Y-87068483D01*
X114782000Y-87068483D01*
X114658380Y-86770039D01*
X114429961Y-86541620D01*
X114131517Y-86418000D01*
X113808483Y-86418000D01*
X113510039Y-86541620D01*
X113281620Y-86770039D01*
X113158000Y-87068483D01*
X112242000Y-87068483D01*
X112118380Y-86770039D01*
X111889961Y-86541620D01*
X111591517Y-86418000D01*
X111268483Y-86418000D01*
X110970039Y-86541620D01*
X110741620Y-86770039D01*
X110618000Y-87068483D01*
X109702000Y-87068483D01*
X109578380Y-86770039D01*
X109349961Y-86541620D01*
X109051517Y-86418000D01*
X108728483Y-86418000D01*
X108430039Y-86541620D01*
X108201620Y-86770039D01*
X108078000Y-87068483D01*
X107162000Y-87068483D01*
X107038380Y-86770039D01*
X106809961Y-86541620D01*
X106511517Y-86418000D01*
X106188483Y-86418000D01*
X105890039Y-86541620D01*
X105661620Y-86770039D01*
X105538000Y-87068483D01*
X104622000Y-87068483D01*
X104498380Y-86770039D01*
X104269961Y-86541620D01*
X103971517Y-86418000D01*
X103648483Y-86418000D01*
X103350039Y-86541620D01*
X103121620Y-86770039D01*
X102998000Y-87068483D01*
X102082000Y-87068483D01*
X101958380Y-86770039D01*
X101729961Y-86541620D01*
X101431517Y-86418000D01*
X101108483Y-86418000D01*
X100810039Y-86541620D01*
X100581620Y-86770039D01*
X100458000Y-87068483D01*
X99542000Y-87068483D01*
X99418380Y-86770039D01*
X99189961Y-86541620D01*
X98891517Y-86418000D01*
X98568483Y-86418000D01*
X98270039Y-86541620D01*
X98041620Y-86770039D01*
X97918000Y-87068483D01*
X97002000Y-87068483D01*
X96878380Y-86770039D01*
X96649961Y-86541620D01*
X96351517Y-86418000D01*
X96028483Y-86418000D01*
X95730039Y-86541620D01*
X95501620Y-86770039D01*
X95378000Y-87068483D01*
X95378000Y-87391517D01*
X95501620Y-87689961D01*
X95659659Y-87848000D01*
X94180341Y-87848000D01*
X94338380Y-87689961D01*
X94462000Y-87391517D01*
X94462000Y-87068483D01*
X94338380Y-86770039D01*
X94109961Y-86541620D01*
X93811517Y-86418000D01*
X93488483Y-86418000D01*
X93190039Y-86541620D01*
X92961620Y-86770039D01*
X92838000Y-87068483D01*
X92838000Y-87391517D01*
X92961620Y-87689961D01*
X93119659Y-87848000D01*
X91640341Y-87848000D01*
X91798380Y-87689961D01*
X91922000Y-87391517D01*
X91922000Y-87068483D01*
X91798380Y-86770039D01*
X91569961Y-86541620D01*
X91271517Y-86418000D01*
X90948483Y-86418000D01*
X90650039Y-86541620D01*
X90421620Y-86770039D01*
X90298000Y-87068483D01*
X90298000Y-87391517D01*
X90421620Y-87689961D01*
X90579659Y-87848000D01*
X89100341Y-87848000D01*
X89258380Y-87689961D01*
X89382000Y-87391517D01*
X89382000Y-87068483D01*
X89258380Y-86770039D01*
X89029961Y-86541620D01*
X88731517Y-86418000D01*
X88408483Y-86418000D01*
X88110039Y-86541620D01*
X87881620Y-86770039D01*
X87758000Y-87068483D01*
X87758000Y-87391517D01*
X87881620Y-87689961D01*
X88039659Y-87848000D01*
X86560341Y-87848000D01*
X86718380Y-87689961D01*
X86842000Y-87391517D01*
X86842000Y-87068483D01*
X86718380Y-86770039D01*
X86489961Y-86541620D01*
X86191517Y-86418000D01*
X85868483Y-86418000D01*
X85570039Y-86541620D01*
X85341620Y-86770039D01*
X85302000Y-86865690D01*
X85302000Y-86765200D01*
X85217963Y-86562317D01*
X85062683Y-86407037D01*
X84859800Y-86323000D01*
X84640200Y-86323000D01*
X84437317Y-86407037D01*
X84282037Y-86562317D01*
X84198000Y-86765200D01*
X84198000Y-86817406D01*
X84178380Y-86770039D01*
X83949961Y-86541620D01*
X83651517Y-86418000D01*
X83328483Y-86418000D01*
X83030039Y-86541620D01*
X82801620Y-86770039D01*
X82771746Y-86842161D01*
X82717963Y-86712317D01*
X82562683Y-86557037D01*
X82359800Y-86473000D01*
X82140200Y-86473000D01*
X81937317Y-86557037D01*
X81782037Y-86712317D01*
X81698254Y-86914587D01*
X81638380Y-86770039D01*
X81409961Y-86541620D01*
X81111517Y-86418000D01*
X80788483Y-86418000D01*
X80490039Y-86541620D01*
X80261620Y-86770039D01*
X80138000Y-87068483D01*
X80138000Y-87391517D01*
X80261620Y-87689961D01*
X80419659Y-87848000D01*
X78940341Y-87848000D01*
X79098380Y-87689961D01*
X79222000Y-87391517D01*
X79222000Y-87068483D01*
X79098380Y-86770039D01*
X78869961Y-86541620D01*
X78571517Y-86418000D01*
X78248483Y-86418000D01*
X77950039Y-86541620D01*
X77721620Y-86770039D01*
X77598000Y-87068483D01*
X77598000Y-87372439D01*
X77382076Y-87283000D01*
X76897924Y-87283000D01*
X76682000Y-87372439D01*
X76682000Y-87068483D01*
X76558380Y-86770039D01*
X76329961Y-86541620D01*
X76031517Y-86418000D01*
X75708483Y-86418000D01*
X75410039Y-86541620D01*
X75181620Y-86770039D01*
X75058000Y-87068483D01*
X75058000Y-87391517D01*
X75181620Y-87689961D01*
X75339659Y-87848000D01*
X74222812Y-87848000D01*
X73735719Y-86672051D01*
X72827949Y-85764281D01*
X71641890Y-85273000D01*
X70358110Y-85273000D01*
X69172051Y-85764281D01*
X68264281Y-86672051D01*
X67902000Y-87546676D01*
X67902000Y-83815200D01*
X80398000Y-83815200D01*
X80398000Y-84034800D01*
X80482037Y-84237683D01*
X80637317Y-84392963D01*
X80840200Y-84477000D01*
X81059800Y-84477000D01*
X81262683Y-84392963D01*
X81417963Y-84237683D01*
X81502000Y-84034800D01*
X81502000Y-83965200D01*
X90548000Y-83965200D01*
X90548000Y-84184800D01*
X90632037Y-84387683D01*
X90787317Y-84542963D01*
X90990200Y-84627000D01*
X91209800Y-84627000D01*
X91412683Y-84542963D01*
X91567963Y-84387683D01*
X91652000Y-84184800D01*
X91652000Y-83965200D01*
X91567963Y-83762317D01*
X91420846Y-83615200D01*
X98198000Y-83615200D01*
X98198000Y-83834800D01*
X98282037Y-84037683D01*
X98437317Y-84192963D01*
X98640200Y-84277000D01*
X98859800Y-84277000D01*
X99062683Y-84192963D01*
X99217963Y-84037683D01*
X99302000Y-83834800D01*
X99302000Y-83615200D01*
X110398000Y-83615200D01*
X110398000Y-83834800D01*
X110482037Y-84037683D01*
X110637317Y-84192963D01*
X110840200Y-84277000D01*
X111059800Y-84277000D01*
X111262683Y-84192963D01*
X111417963Y-84037683D01*
X111502000Y-83834800D01*
X111502000Y-83615200D01*
X111417963Y-83412317D01*
X111262683Y-83257037D01*
X111161680Y-83215200D01*
X112148000Y-83215200D01*
X112148000Y-83434800D01*
X112232037Y-83637683D01*
X112387317Y-83792963D01*
X112590200Y-83877000D01*
X112809800Y-83877000D01*
X113012683Y-83792963D01*
X113167963Y-83637683D01*
X113252000Y-83434800D01*
X113252000Y-83365200D01*
X115248000Y-83365200D01*
X115248000Y-83584800D01*
X115332037Y-83787683D01*
X115487317Y-83942963D01*
X115690200Y-84027000D01*
X115909800Y-84027000D01*
X116112683Y-83942963D01*
X116267963Y-83787683D01*
X116297986Y-83715200D01*
X117798000Y-83715200D01*
X117798000Y-83934800D01*
X117882037Y-84137683D01*
X118037317Y-84292963D01*
X118240200Y-84377000D01*
X118459800Y-84377000D01*
X118662683Y-84292963D01*
X118817963Y-84137683D01*
X118902000Y-83934800D01*
X118902000Y-83715200D01*
X118817963Y-83512317D01*
X118662683Y-83357037D01*
X118459800Y-83273000D01*
X118240200Y-83273000D01*
X118037317Y-83357037D01*
X117882037Y-83512317D01*
X117798000Y-83715200D01*
X116297986Y-83715200D01*
X116352000Y-83584800D01*
X116352000Y-83365200D01*
X116267963Y-83162317D01*
X116112683Y-83007037D01*
X115909800Y-82923000D01*
X115690200Y-82923000D01*
X115487317Y-83007037D01*
X115332037Y-83162317D01*
X115248000Y-83365200D01*
X113252000Y-83365200D01*
X113252000Y-83215200D01*
X113167963Y-83012317D01*
X113012683Y-82857037D01*
X112809800Y-82773000D01*
X112590200Y-82773000D01*
X112387317Y-82857037D01*
X112232037Y-83012317D01*
X112148000Y-83215200D01*
X111161680Y-83215200D01*
X111059800Y-83173000D01*
X110840200Y-83173000D01*
X110637317Y-83257037D01*
X110482037Y-83412317D01*
X110398000Y-83615200D01*
X99302000Y-83615200D01*
X99217963Y-83412317D01*
X99062683Y-83257037D01*
X98859800Y-83173000D01*
X98640200Y-83173000D01*
X98437317Y-83257037D01*
X98282037Y-83412317D01*
X98198000Y-83615200D01*
X91420846Y-83615200D01*
X91412683Y-83607037D01*
X91209800Y-83523000D01*
X90990200Y-83523000D01*
X90787317Y-83607037D01*
X90632037Y-83762317D01*
X90548000Y-83965200D01*
X81502000Y-83965200D01*
X81502000Y-83815200D01*
X81417963Y-83612317D01*
X81262683Y-83457037D01*
X81059800Y-83373000D01*
X80840200Y-83373000D01*
X80637317Y-83457037D01*
X80482037Y-83612317D01*
X80398000Y-83815200D01*
X67902000Y-83815200D01*
X67902000Y-77487403D01*
X67923000Y-77487403D01*
X67923000Y-78512597D01*
X68315325Y-79459753D01*
X69040247Y-80184675D01*
X69987403Y-80577000D01*
X71012597Y-80577000D01*
X71959753Y-80184675D01*
X72684675Y-79459753D01*
X73077000Y-78512597D01*
X73077000Y-78401043D01*
X81933000Y-78401043D01*
X81933000Y-78928957D01*
X82135024Y-79416685D01*
X82508315Y-79789976D01*
X82996043Y-79992000D01*
X83523957Y-79992000D01*
X84011685Y-79789976D01*
X84384976Y-79416685D01*
X84587000Y-78928957D01*
X84587000Y-78401043D01*
X87013000Y-78401043D01*
X87013000Y-78928957D01*
X87215024Y-79416685D01*
X87588315Y-79789976D01*
X88076043Y-79992000D01*
X88603957Y-79992000D01*
X88789368Y-79915200D01*
X99148000Y-79915200D01*
X99148000Y-80134800D01*
X99232037Y-80337683D01*
X99387317Y-80492963D01*
X99590200Y-80577000D01*
X99809800Y-80577000D01*
X99814656Y-80574989D01*
X99798000Y-80615200D01*
X99798000Y-80834800D01*
X99882037Y-81037683D01*
X100037317Y-81192963D01*
X100240200Y-81277000D01*
X100459800Y-81277000D01*
X100662683Y-81192963D01*
X100817963Y-81037683D01*
X100902000Y-80834800D01*
X100902000Y-80615200D01*
X100817963Y-80412317D01*
X100662683Y-80257037D01*
X100459800Y-80173000D01*
X100240200Y-80173000D01*
X100235344Y-80175011D01*
X100252000Y-80134800D01*
X100252000Y-79915200D01*
X100167963Y-79712317D01*
X100012683Y-79557037D01*
X99809800Y-79473000D01*
X99590200Y-79473000D01*
X99387317Y-79557037D01*
X99232037Y-79712317D01*
X99148000Y-79915200D01*
X88789368Y-79915200D01*
X89091685Y-79789976D01*
X89464976Y-79416685D01*
X89667000Y-78928957D01*
X89667000Y-78401043D01*
X112413000Y-78401043D01*
X112413000Y-78928957D01*
X112615024Y-79416685D01*
X112988315Y-79789976D01*
X113476043Y-79992000D01*
X114003957Y-79992000D01*
X114491685Y-79789976D01*
X114864976Y-79416685D01*
X115067000Y-78928957D01*
X115067000Y-78401043D01*
X114864976Y-77913315D01*
X114491685Y-77540024D01*
X114003957Y-77338000D01*
X113476043Y-77338000D01*
X112988315Y-77540024D01*
X112615024Y-77913315D01*
X112413000Y-78401043D01*
X89667000Y-78401043D01*
X89464976Y-77913315D01*
X89091685Y-77540024D01*
X88603957Y-77338000D01*
X88076043Y-77338000D01*
X87588315Y-77540024D01*
X87215024Y-77913315D01*
X87013000Y-78401043D01*
X84587000Y-78401043D01*
X84384976Y-77913315D01*
X84011685Y-77540024D01*
X83523957Y-77338000D01*
X82996043Y-77338000D01*
X82508315Y-77540024D01*
X82135024Y-77913315D01*
X81933000Y-78401043D01*
X73077000Y-78401043D01*
X73077000Y-77487403D01*
X72684675Y-76540247D01*
X71959753Y-75815325D01*
X71012597Y-75423000D01*
X69987403Y-75423000D01*
X69040247Y-75815325D01*
X68315325Y-76540247D01*
X67923000Y-77487403D01*
X67902000Y-77487403D01*
X67902000Y-73676587D01*
X71273000Y-73676587D01*
X71273000Y-74403413D01*
X71551144Y-75074912D01*
X72065088Y-75588856D01*
X72736587Y-75867000D01*
X73463413Y-75867000D01*
X74134912Y-75588856D01*
X74287181Y-75436587D01*
X75173000Y-75436587D01*
X75173000Y-76163413D01*
X75451144Y-76834912D01*
X75965088Y-77348856D01*
X76636587Y-77627000D01*
X77363413Y-77627000D01*
X78034912Y-77348856D01*
X78548856Y-76834912D01*
X78827000Y-76163413D01*
X78827000Y-75436587D01*
X78548856Y-74765088D01*
X78034912Y-74251144D01*
X77363413Y-73973000D01*
X76636587Y-73973000D01*
X75965088Y-74251144D01*
X75451144Y-74765088D01*
X75173000Y-75436587D01*
X74287181Y-75436587D01*
X74648856Y-75074912D01*
X74927000Y-74403413D01*
X74927000Y-73676587D01*
X74648856Y-73005088D01*
X74134912Y-72491144D01*
X73463413Y-72213000D01*
X72736587Y-72213000D01*
X72065088Y-72491144D01*
X71551144Y-73005088D01*
X71273000Y-73676587D01*
X67902000Y-73676587D01*
X67902000Y-64487403D01*
X67923000Y-64487403D01*
X67923000Y-65512597D01*
X68315325Y-66459753D01*
X69040247Y-67184675D01*
X69987403Y-67577000D01*
X71012597Y-67577000D01*
X71266594Y-67471791D01*
X71266594Y-70460000D01*
X71291973Y-70587589D01*
X71364246Y-70695754D01*
X71472411Y-70768027D01*
X71600000Y-70793406D01*
X74600000Y-70793406D01*
X74727589Y-70768027D01*
X74835754Y-70695754D01*
X74908027Y-70587589D01*
X74933406Y-70460000D01*
X74933406Y-67460000D01*
X74908027Y-67332411D01*
X74835754Y-67224246D01*
X74727589Y-67151973D01*
X74600000Y-67126594D01*
X72017834Y-67126594D01*
X72307841Y-66836587D01*
X75173000Y-66836587D01*
X75173000Y-67563413D01*
X75451144Y-68234912D01*
X75965088Y-68748856D01*
X76636587Y-69027000D01*
X77363413Y-69027000D01*
X78034912Y-68748856D01*
X78548856Y-68234912D01*
X78827000Y-67563413D01*
X78827000Y-66836587D01*
X78548856Y-66165088D01*
X78034912Y-65651144D01*
X77363413Y-65373000D01*
X76636587Y-65373000D01*
X75965088Y-65651144D01*
X75451144Y-66165088D01*
X75173000Y-66836587D01*
X72307841Y-66836587D01*
X72684675Y-66459753D01*
X73077000Y-65512597D01*
X73077000Y-64487403D01*
X72736433Y-63665200D01*
X106798000Y-63665200D01*
X106798000Y-63884800D01*
X106882037Y-64087683D01*
X107037317Y-64242963D01*
X107240200Y-64327000D01*
X107459800Y-64327000D01*
X107662683Y-64242963D01*
X107817963Y-64087683D01*
X107902000Y-63884800D01*
X107902000Y-63665200D01*
X114698000Y-63665200D01*
X114698000Y-63884800D01*
X114782037Y-64087683D01*
X114937317Y-64242963D01*
X115140200Y-64327000D01*
X115359800Y-64327000D01*
X115562683Y-64242963D01*
X115717963Y-64087683D01*
X115802000Y-63884800D01*
X115802000Y-63665200D01*
X115717963Y-63462317D01*
X115562683Y-63307037D01*
X115359800Y-63223000D01*
X115140200Y-63223000D01*
X114937317Y-63307037D01*
X114782037Y-63462317D01*
X114698000Y-63665200D01*
X107902000Y-63665200D01*
X107817963Y-63462317D01*
X107662683Y-63307037D01*
X107459800Y-63223000D01*
X107240200Y-63223000D01*
X107037317Y-63307037D01*
X106882037Y-63462317D01*
X106798000Y-63665200D01*
X72736433Y-63665200D01*
X72684675Y-63540247D01*
X72059628Y-62915200D01*
X89348000Y-62915200D01*
X89348000Y-63134800D01*
X89432037Y-63337683D01*
X89587317Y-63492963D01*
X89790200Y-63577000D01*
X90009800Y-63577000D01*
X90212683Y-63492963D01*
X90367963Y-63337683D01*
X90452000Y-63134800D01*
X90452000Y-62915200D01*
X90367963Y-62712317D01*
X90212683Y-62557037D01*
X90009800Y-62473000D01*
X89790200Y-62473000D01*
X89587317Y-62557037D01*
X89432037Y-62712317D01*
X89348000Y-62915200D01*
X72059628Y-62915200D01*
X71959753Y-62815325D01*
X71012597Y-62423000D01*
X69987403Y-62423000D01*
X69040247Y-62815325D01*
X68315325Y-63540247D01*
X67923000Y-64487403D01*
X67902000Y-64487403D01*
X67902000Y-62037532D01*
X107687073Y-62037532D01*
X107785736Y-62304387D01*
X108395461Y-62530908D01*
X109045460Y-62506856D01*
X109534264Y-62304387D01*
X109548752Y-62265200D01*
X116248000Y-62265200D01*
X116248000Y-62484800D01*
X116332037Y-62687683D01*
X116487317Y-62842963D01*
X116690200Y-62927000D01*
X116909800Y-62927000D01*
X117112683Y-62842963D01*
X117267963Y-62687683D01*
X117352000Y-62484800D01*
X117352000Y-62265200D01*
X117267963Y-62062317D01*
X117112683Y-61907037D01*
X116909800Y-61823000D01*
X116690200Y-61823000D01*
X116487317Y-61907037D01*
X116332037Y-62062317D01*
X116248000Y-62265200D01*
X109548752Y-62265200D01*
X109632927Y-62037532D01*
X108660000Y-61064605D01*
X107687073Y-62037532D01*
X67902000Y-62037532D01*
X67902000Y-60865200D01*
X90648000Y-60865200D01*
X90648000Y-61084800D01*
X90732037Y-61287683D01*
X90887317Y-61442963D01*
X91090200Y-61527000D01*
X91309800Y-61527000D01*
X91512683Y-61442963D01*
X91667963Y-61287683D01*
X91752000Y-61084800D01*
X91752000Y-60865200D01*
X91667963Y-60662317D01*
X91626107Y-60620461D01*
X107014092Y-60620461D01*
X107038144Y-61270460D01*
X107240613Y-61759264D01*
X107507468Y-61857927D01*
X108480395Y-60885000D01*
X108839605Y-60885000D01*
X109812532Y-61857927D01*
X110079387Y-61759264D01*
X110305908Y-61149539D01*
X110286352Y-60621043D01*
X112413000Y-60621043D01*
X112413000Y-61148957D01*
X112615024Y-61636685D01*
X112988315Y-62009976D01*
X113476043Y-62212000D01*
X114003957Y-62212000D01*
X114491685Y-62009976D01*
X114864976Y-61636685D01*
X115067000Y-61148957D01*
X115067000Y-60621043D01*
X114864976Y-60133315D01*
X114491685Y-59760024D01*
X114003957Y-59558000D01*
X113476043Y-59558000D01*
X112988315Y-59760024D01*
X112615024Y-60133315D01*
X112413000Y-60621043D01*
X110286352Y-60621043D01*
X110281856Y-60499540D01*
X110079387Y-60010736D01*
X109812532Y-59912073D01*
X108839605Y-60885000D01*
X108480395Y-60885000D01*
X107507468Y-59912073D01*
X107240613Y-60010736D01*
X107014092Y-60620461D01*
X91626107Y-60620461D01*
X91512683Y-60507037D01*
X91309800Y-60423000D01*
X91090200Y-60423000D01*
X90887317Y-60507037D01*
X90732037Y-60662317D01*
X90648000Y-60865200D01*
X67902000Y-60865200D01*
X67902000Y-59732468D01*
X107687073Y-59732468D01*
X108660000Y-60705395D01*
X109632927Y-59732468D01*
X109534264Y-59465613D01*
X108924539Y-59239092D01*
X108274540Y-59263144D01*
X107785736Y-59465613D01*
X107687073Y-59732468D01*
X67902000Y-59732468D01*
X67902000Y-58315200D01*
X86498000Y-58315200D01*
X86498000Y-58534800D01*
X86582037Y-58737683D01*
X86737317Y-58892963D01*
X86940200Y-58977000D01*
X87159800Y-58977000D01*
X87362683Y-58892963D01*
X87390446Y-58865200D01*
X104798000Y-58865200D01*
X104798000Y-59084800D01*
X104882037Y-59287683D01*
X105037317Y-59442963D01*
X105240200Y-59527000D01*
X105459800Y-59527000D01*
X105662683Y-59442963D01*
X105817963Y-59287683D01*
X105902000Y-59084800D01*
X105902000Y-58865200D01*
X111248000Y-58865200D01*
X111248000Y-59084800D01*
X111332037Y-59287683D01*
X111487317Y-59442963D01*
X111690200Y-59527000D01*
X111909800Y-59527000D01*
X112112683Y-59442963D01*
X112267963Y-59287683D01*
X112352000Y-59084800D01*
X112352000Y-58865200D01*
X112267963Y-58662317D01*
X112112683Y-58507037D01*
X111909800Y-58423000D01*
X111690200Y-58423000D01*
X111487317Y-58507037D01*
X111332037Y-58662317D01*
X111248000Y-58865200D01*
X105902000Y-58865200D01*
X105817963Y-58662317D01*
X105662683Y-58507037D01*
X105459800Y-58423000D01*
X105240200Y-58423000D01*
X105037317Y-58507037D01*
X104882037Y-58662317D01*
X104798000Y-58865200D01*
X87390446Y-58865200D01*
X87517963Y-58737683D01*
X87602000Y-58534800D01*
X87602000Y-58315200D01*
X87517963Y-58112317D01*
X87362683Y-57957037D01*
X87261680Y-57915200D01*
X106148000Y-57915200D01*
X106148000Y-58134800D01*
X106232037Y-58337683D01*
X106387317Y-58492963D01*
X106590200Y-58577000D01*
X106809800Y-58577000D01*
X107012683Y-58492963D01*
X107167963Y-58337683D01*
X107239407Y-58165200D01*
X112248000Y-58165200D01*
X112248000Y-58384800D01*
X112332037Y-58587683D01*
X112487317Y-58742963D01*
X112690200Y-58827000D01*
X112748000Y-58827000D01*
X112748000Y-58984800D01*
X112832037Y-59187683D01*
X112987317Y-59342963D01*
X113190200Y-59427000D01*
X113409800Y-59427000D01*
X113612683Y-59342963D01*
X113767963Y-59187683D01*
X113852000Y-58984800D01*
X113852000Y-58765200D01*
X116248000Y-58765200D01*
X116248000Y-58984800D01*
X116332037Y-59187683D01*
X116487317Y-59342963D01*
X116690200Y-59427000D01*
X116909800Y-59427000D01*
X117112683Y-59342963D01*
X117267963Y-59187683D01*
X117277275Y-59165200D01*
X117798000Y-59165200D01*
X117798000Y-59384800D01*
X117882037Y-59587683D01*
X118037317Y-59742963D01*
X118240200Y-59827000D01*
X118459800Y-59827000D01*
X118662683Y-59742963D01*
X118817963Y-59587683D01*
X118902000Y-59384800D01*
X118902000Y-59165200D01*
X118817963Y-58962317D01*
X118662683Y-58807037D01*
X118459800Y-58723000D01*
X118240200Y-58723000D01*
X118037317Y-58807037D01*
X117882037Y-58962317D01*
X117798000Y-59165200D01*
X117277275Y-59165200D01*
X117352000Y-58984800D01*
X117352000Y-58765200D01*
X117267963Y-58562317D01*
X117112683Y-58407037D01*
X116909800Y-58323000D01*
X116690200Y-58323000D01*
X116487317Y-58407037D01*
X116332037Y-58562317D01*
X116248000Y-58765200D01*
X113852000Y-58765200D01*
X113767963Y-58562317D01*
X113612683Y-58407037D01*
X113409800Y-58323000D01*
X113352000Y-58323000D01*
X113352000Y-58165200D01*
X113267963Y-57962317D01*
X113112683Y-57807037D01*
X112909800Y-57723000D01*
X112690200Y-57723000D01*
X112487317Y-57807037D01*
X112332037Y-57962317D01*
X112248000Y-58165200D01*
X107239407Y-58165200D01*
X107252000Y-58134800D01*
X107252000Y-57915200D01*
X107167963Y-57712317D01*
X107012683Y-57557037D01*
X106809800Y-57473000D01*
X106590200Y-57473000D01*
X106387317Y-57557037D01*
X106232037Y-57712317D01*
X106148000Y-57915200D01*
X87261680Y-57915200D01*
X87159800Y-57873000D01*
X86940200Y-57873000D01*
X86737317Y-57957037D01*
X86582037Y-58112317D01*
X86498000Y-58315200D01*
X67902000Y-58315200D01*
X67902000Y-55453324D01*
X68264281Y-56327949D01*
X69172051Y-57235719D01*
X70358110Y-57727000D01*
X71641890Y-57727000D01*
X72827949Y-57235719D01*
X73098468Y-56965200D01*
X91798000Y-56965200D01*
X91798000Y-57184800D01*
X91882037Y-57387683D01*
X92037317Y-57542963D01*
X92240200Y-57627000D01*
X92459800Y-57627000D01*
X92662683Y-57542963D01*
X92817963Y-57387683D01*
X92902000Y-57184800D01*
X92902000Y-56965200D01*
X92819158Y-56765200D01*
X103498000Y-56765200D01*
X103498000Y-56984800D01*
X103582037Y-57187683D01*
X103737317Y-57342963D01*
X103940200Y-57427000D01*
X104159800Y-57427000D01*
X104362683Y-57342963D01*
X104517963Y-57187683D01*
X104527275Y-57165200D01*
X114998000Y-57165200D01*
X114998000Y-57384800D01*
X115082037Y-57587683D01*
X115237317Y-57742963D01*
X115440200Y-57827000D01*
X115659800Y-57827000D01*
X115862683Y-57742963D01*
X116017963Y-57587683D01*
X116102000Y-57384800D01*
X116102000Y-57165200D01*
X116017963Y-56962317D01*
X115862683Y-56807037D01*
X115659800Y-56723000D01*
X115440200Y-56723000D01*
X115237317Y-56807037D01*
X115082037Y-56962317D01*
X114998000Y-57165200D01*
X104527275Y-57165200D01*
X104602000Y-56984800D01*
X104602000Y-56765200D01*
X104517963Y-56562317D01*
X104362683Y-56407037D01*
X104159800Y-56323000D01*
X103940200Y-56323000D01*
X103737317Y-56407037D01*
X103582037Y-56562317D01*
X103498000Y-56765200D01*
X92819158Y-56765200D01*
X92817963Y-56762317D01*
X92662683Y-56607037D01*
X92459800Y-56523000D01*
X92240200Y-56523000D01*
X92037317Y-56607037D01*
X91882037Y-56762317D01*
X91798000Y-56965200D01*
X73098468Y-56965200D01*
X73735719Y-56327949D01*
X73740672Y-56315989D01*
X121023000Y-56315989D01*
X121023000Y-56824011D01*
X121217412Y-57293362D01*
X121576638Y-57652588D01*
X122029090Y-57840000D01*
X121576638Y-58027412D01*
X121217412Y-58386638D01*
X121023000Y-58855989D01*
X121023000Y-59364011D01*
X121217412Y-59833362D01*
X121576638Y-60192588D01*
X122029090Y-60380000D01*
X121576638Y-60567412D01*
X121217412Y-60926638D01*
X121023000Y-61395989D01*
X121023000Y-61904011D01*
X121217412Y-62373362D01*
X121576638Y-62732588D01*
X122029090Y-62920000D01*
X121576638Y-63107412D01*
X121217412Y-63466638D01*
X121023000Y-63935989D01*
X121023000Y-64444011D01*
X121217412Y-64913362D01*
X121576638Y-65272588D01*
X122029090Y-65460000D01*
X121576638Y-65647412D01*
X121217412Y-66006638D01*
X121023000Y-66475989D01*
X121023000Y-66984011D01*
X121217412Y-67453362D01*
X121576638Y-67812588D01*
X122029090Y-68000000D01*
X121576638Y-68187412D01*
X121217412Y-68546638D01*
X121023000Y-69015989D01*
X121023000Y-69524011D01*
X121217412Y-69993362D01*
X121576638Y-70352588D01*
X122029090Y-70540000D01*
X121576638Y-70727412D01*
X121217412Y-71086638D01*
X121023000Y-71555989D01*
X121023000Y-72064011D01*
X121217412Y-72533362D01*
X121576638Y-72892588D01*
X122029090Y-73080000D01*
X121576638Y-73267412D01*
X121217412Y-73626638D01*
X121023000Y-74095989D01*
X121023000Y-74604011D01*
X121217412Y-75073362D01*
X121576638Y-75432588D01*
X122029090Y-75620000D01*
X121576638Y-75807412D01*
X121217412Y-76166638D01*
X121023000Y-76635989D01*
X121023000Y-77144011D01*
X121217412Y-77613362D01*
X121576638Y-77972588D01*
X122029090Y-78160000D01*
X121576638Y-78347412D01*
X121217412Y-78706638D01*
X121023000Y-79175989D01*
X121023000Y-79684011D01*
X121217412Y-80153362D01*
X121576638Y-80512588D01*
X122045989Y-80707000D01*
X122554011Y-80707000D01*
X123023362Y-80512588D01*
X123382588Y-80153362D01*
X123577000Y-79684011D01*
X123577000Y-79175989D01*
X123382588Y-78706638D01*
X123023362Y-78347412D01*
X122570910Y-78160000D01*
X123023362Y-77972588D01*
X123382588Y-77613362D01*
X123577000Y-77144011D01*
X123577000Y-76635989D01*
X123382588Y-76166638D01*
X123023362Y-75807412D01*
X122570910Y-75620000D01*
X123023362Y-75432588D01*
X123382588Y-75073362D01*
X123577000Y-74604011D01*
X123577000Y-74095989D01*
X123382588Y-73626638D01*
X123023362Y-73267412D01*
X122570910Y-73080000D01*
X123023362Y-72892588D01*
X123382588Y-72533362D01*
X123577000Y-72064011D01*
X123577000Y-71555989D01*
X123382588Y-71086638D01*
X123023362Y-70727412D01*
X122570910Y-70540000D01*
X123023362Y-70352588D01*
X123382588Y-69993362D01*
X123577000Y-69524011D01*
X123577000Y-69015989D01*
X123382588Y-68546638D01*
X123023362Y-68187412D01*
X122570910Y-68000000D01*
X123023362Y-67812588D01*
X123382588Y-67453362D01*
X123577000Y-66984011D01*
X123577000Y-66475989D01*
X123382588Y-66006638D01*
X123023362Y-65647412D01*
X122570910Y-65460000D01*
X123023362Y-65272588D01*
X123382588Y-64913362D01*
X123577000Y-64444011D01*
X123577000Y-63935989D01*
X123382588Y-63466638D01*
X123023362Y-63107412D01*
X122570910Y-62920000D01*
X123023362Y-62732588D01*
X123382588Y-62373362D01*
X123577000Y-61904011D01*
X123577000Y-61395989D01*
X123382588Y-60926638D01*
X123023362Y-60567412D01*
X122570910Y-60380000D01*
X123023362Y-60192588D01*
X123382588Y-59833362D01*
X123577000Y-59364011D01*
X123577000Y-58855989D01*
X123382588Y-58386638D01*
X123023362Y-58027412D01*
X122570910Y-57840000D01*
X123023362Y-57652588D01*
X123382588Y-57293362D01*
X123577000Y-56824011D01*
X123577000Y-56315989D01*
X123382588Y-55846638D01*
X123023362Y-55487412D01*
X122554011Y-55293000D01*
X122045989Y-55293000D01*
X121576638Y-55487412D01*
X121217412Y-55846638D01*
X121023000Y-56315989D01*
X73740672Y-56315989D01*
X74227000Y-55141890D01*
X74227000Y-54615200D01*
X104798000Y-54615200D01*
X104798000Y-54834800D01*
X104882037Y-55037683D01*
X105037317Y-55192963D01*
X105240200Y-55277000D01*
X105459800Y-55277000D01*
X105608998Y-55215200D01*
X110748000Y-55215200D01*
X110748000Y-55434800D01*
X110832037Y-55637683D01*
X110987317Y-55792963D01*
X111190200Y-55877000D01*
X111409800Y-55877000D01*
X111612683Y-55792963D01*
X111767963Y-55637683D01*
X111852000Y-55434800D01*
X111852000Y-55215200D01*
X111767963Y-55012317D01*
X111612683Y-54857037D01*
X111409800Y-54773000D01*
X111190200Y-54773000D01*
X110987317Y-54857037D01*
X110832037Y-55012317D01*
X110748000Y-55215200D01*
X105608998Y-55215200D01*
X105662683Y-55192963D01*
X105817963Y-55037683D01*
X105902000Y-54834800D01*
X105902000Y-54615200D01*
X105817963Y-54412317D01*
X105662683Y-54257037D01*
X105459800Y-54173000D01*
X105240200Y-54173000D01*
X105037317Y-54257037D01*
X104882037Y-54412317D01*
X104798000Y-54615200D01*
X74227000Y-54615200D01*
X74227000Y-53858110D01*
X73735719Y-52672051D01*
X72827949Y-51764281D01*
X71953324Y-51402000D01*
X87742354Y-51402000D01*
X87632037Y-51512317D01*
X87632037Y-51512317D01*
G37*
X87632037Y-51512317D02*
X87548000Y-51715200D01*
X87548000Y-51934800D01*
X87632037Y-52137683D01*
X87787317Y-52292963D01*
X87990200Y-52377000D01*
X88209800Y-52377000D01*
X88238287Y-52365200D01*
X101448000Y-52365200D01*
X101448000Y-52584800D01*
X101532037Y-52787683D01*
X101687317Y-52942963D01*
X101890200Y-53027000D01*
X102109800Y-53027000D01*
X102312683Y-52942963D01*
X102467963Y-52787683D01*
X102552000Y-52584800D01*
X102552000Y-52365200D01*
X102467963Y-52162317D01*
X102320846Y-52015200D01*
X104898000Y-52015200D01*
X104898000Y-52234800D01*
X104982037Y-52437683D01*
X105130673Y-52586319D01*
X105098000Y-52665200D01*
X105098000Y-52884800D01*
X105182037Y-53087683D01*
X105337317Y-53242963D01*
X105540200Y-53327000D01*
X105759800Y-53327000D01*
X105807326Y-53307314D01*
X105882037Y-53487683D01*
X106037317Y-53642963D01*
X106240200Y-53727000D01*
X106459800Y-53727000D01*
X106662683Y-53642963D01*
X106750000Y-53555646D01*
X106887317Y-53692963D01*
X107090200Y-53777000D01*
X107309800Y-53777000D01*
X107435359Y-53724992D01*
X107445318Y-53749036D01*
X107382037Y-53812317D01*
X107298000Y-54015200D01*
X107298000Y-54234800D01*
X107382037Y-54437683D01*
X107537317Y-54592963D01*
X107740200Y-54677000D01*
X107959800Y-54677000D01*
X108162683Y-54592963D01*
X108317963Y-54437683D01*
X108402000Y-54234800D01*
X108402000Y-54015200D01*
X108354682Y-53900964D01*
X108417963Y-53837683D01*
X108502000Y-53634800D01*
X108502000Y-53415200D01*
X108417963Y-53212317D01*
X108262683Y-53057037D01*
X108059800Y-52973000D01*
X107840200Y-52973000D01*
X107714641Y-53025008D01*
X107667963Y-52912317D01*
X107512683Y-52757037D01*
X107309800Y-52673000D01*
X107090200Y-52673000D01*
X106887317Y-52757037D01*
X106800000Y-52844354D01*
X106662683Y-52707037D01*
X106459800Y-52623000D01*
X106240200Y-52623000D01*
X106192674Y-52642686D01*
X106117963Y-52462317D01*
X105969327Y-52313681D01*
X106002000Y-52234800D01*
X106002000Y-52015200D01*
X105917963Y-51812317D01*
X105762683Y-51657037D01*
X105559800Y-51573000D01*
X105340200Y-51573000D01*
X105137317Y-51657037D01*
X104982037Y-51812317D01*
X104898000Y-52015200D01*
X102320846Y-52015200D01*
X102312683Y-52007037D01*
X102109800Y-51923000D01*
X101890200Y-51923000D01*
X101687317Y-52007037D01*
X101532037Y-52162317D01*
X101448000Y-52365200D01*
X88238287Y-52365200D01*
X88412683Y-52292963D01*
X88567963Y-52137683D01*
X88652000Y-51934800D01*
X88652000Y-51715200D01*
X88567963Y-51512317D01*
X88457646Y-51402000D01*
X113998000Y-51402000D01*
X113998000Y-51584800D01*
X114082037Y-51787683D01*
X114237317Y-51942963D01*
X114440200Y-52027000D01*
X114659800Y-52027000D01*
X114688287Y-52015200D01*
X124098000Y-52015200D01*
X124098000Y-52234800D01*
X124182037Y-52437683D01*
X124337317Y-52592963D01*
X124540200Y-52677000D01*
X124548000Y-52677000D01*
X124548000Y-52834800D01*
X124632037Y-53037683D01*
X124787317Y-53192963D01*
X124990200Y-53277000D01*
X125209800Y-53277000D01*
X125412683Y-53192963D01*
X125567963Y-53037683D01*
X125652000Y-52834800D01*
X125652000Y-52615200D01*
X125567963Y-52412317D01*
X125412683Y-52257037D01*
X125209800Y-52173000D01*
X125202000Y-52173000D01*
X125202000Y-52015200D01*
X125117963Y-51812317D01*
X124962683Y-51657037D01*
X124759800Y-51573000D01*
X124540200Y-51573000D01*
X124337317Y-51657037D01*
X124182037Y-51812317D01*
X124098000Y-52015200D01*
X114688287Y-52015200D01*
X114862683Y-51942963D01*
X115017963Y-51787683D01*
X115102000Y-51584800D01*
X115102000Y-51402000D01*
X129476648Y-51402000D01*
X130097043Y-51474330D01*
X130662057Y-51679421D01*
X131164739Y-52008994D01*
X131578119Y-52445367D01*
X131880024Y-52965134D01*
X132055855Y-53545683D01*
X132098000Y-54017898D01*
X132098001Y-87546676D01*
X131735719Y-86672051D01*
X130827949Y-85764281D01*
X129641890Y-85273000D01*
X128358110Y-85273000D01*
X127172051Y-85764281D01*
X126264281Y-86672051D01*
X125773000Y-87858110D01*
X125773000Y-89141890D01*
X126264281Y-90327949D01*
X127172051Y-91235719D01*
X128358110Y-91727000D01*
X129641890Y-91727000D01*
X130827949Y-91235719D01*
X131735719Y-90327949D01*
X132098001Y-89453324D01*
X132098001Y-110546678D01*
X131735719Y-109672051D01*
X130827949Y-108764281D01*
X129641890Y-108273000D01*
X128358110Y-108273000D01*
X127172051Y-108764281D01*
X126264281Y-109672051D01*
X125773000Y-110858110D01*
X125773000Y-112141890D01*
X126264281Y-113327949D01*
X127172051Y-114235719D01*
X128046676Y-114598000D01*
X100527000Y-114598000D01*
X100527000Y-113005663D01*
X106723000Y-113005663D01*
X106723000Y-113394337D01*
X106871739Y-113753426D01*
X107146574Y-114028261D01*
X107505663Y-114177000D01*
X107894337Y-114177000D01*
X108253426Y-114028261D01*
X108528261Y-113753426D01*
X108600000Y-113580232D01*
X108671739Y-113753426D01*
X108946574Y-114028261D01*
X109305663Y-114177000D01*
X109694337Y-114177000D01*
X110053426Y-114028261D01*
X110328261Y-113753426D01*
X110477000Y-113394337D01*
X110477000Y-113005663D01*
X110328261Y-112646574D01*
X110053426Y-112371739D01*
X109877857Y-112299016D01*
X120880590Y-112299016D01*
X120936271Y-112529611D01*
X121419078Y-112697622D01*
X121929428Y-112668083D01*
X122263729Y-112529611D01*
X122319410Y-112299016D01*
X121600000Y-111579605D01*
X120880590Y-112299016D01*
X109877857Y-112299016D01*
X109694337Y-112223000D01*
X109305663Y-112223000D01*
X109189500Y-112271116D01*
X109189500Y-111219078D01*
X120302378Y-111219078D01*
X120331917Y-111729428D01*
X120470389Y-112063729D01*
X120700984Y-112119410D01*
X121420395Y-111400000D01*
X121779605Y-111400000D01*
X122499016Y-112119410D01*
X122729611Y-112063729D01*
X122897622Y-111580922D01*
X122868083Y-111070572D01*
X122729611Y-110736271D01*
X122499016Y-110680590D01*
X121779605Y-111400000D01*
X121420395Y-111400000D01*
X120700984Y-110680590D01*
X120470389Y-110736271D01*
X120302378Y-111219078D01*
X109189500Y-111219078D01*
X109189500Y-110184990D01*
X109232037Y-110287683D01*
X109387317Y-110442963D01*
X109590200Y-110527000D01*
X109809800Y-110527000D01*
X109872608Y-110500984D01*
X120880590Y-110500984D01*
X121600000Y-111220395D01*
X122319410Y-110500984D01*
X122263729Y-110270389D01*
X121780922Y-110102378D01*
X121270572Y-110131917D01*
X120936271Y-110270389D01*
X120880590Y-110500984D01*
X109872608Y-110500984D01*
X110012683Y-110442963D01*
X110167963Y-110287683D01*
X110252000Y-110084800D01*
X110252000Y-109865200D01*
X110167963Y-109662317D01*
X110012683Y-109507037D01*
X109809800Y-109423000D01*
X109590200Y-109423000D01*
X109387317Y-109507037D01*
X109232037Y-109662317D01*
X109189500Y-109765010D01*
X109189500Y-108729178D01*
X111253479Y-106665200D01*
X117048000Y-106665200D01*
X117048000Y-106884800D01*
X117132037Y-107087683D01*
X117287317Y-107242963D01*
X117474045Y-107320309D01*
X117332037Y-107462317D01*
X117248000Y-107665200D01*
X117248000Y-107884800D01*
X117332037Y-108087683D01*
X117487317Y-108242963D01*
X117690200Y-108327000D01*
X117909800Y-108327000D01*
X117961312Y-108305663D01*
X120223000Y-108305663D01*
X120223000Y-108694337D01*
X120371739Y-109053426D01*
X120646574Y-109328261D01*
X121005663Y-109477000D01*
X121394337Y-109477000D01*
X121753426Y-109328261D01*
X122028261Y-109053426D01*
X122177000Y-108694337D01*
X122177000Y-108305663D01*
X122028261Y-107946574D01*
X121753426Y-107671739D01*
X121394337Y-107523000D01*
X121005663Y-107523000D01*
X120646574Y-107671739D01*
X120371739Y-107946574D01*
X120223000Y-108305663D01*
X117961312Y-108305663D01*
X118112683Y-108242963D01*
X118267963Y-108087683D01*
X118352000Y-107884800D01*
X118352000Y-107665200D01*
X118267963Y-107462317D01*
X118112683Y-107307037D01*
X117925955Y-107229691D01*
X118067963Y-107087683D01*
X118152000Y-106884800D01*
X118152000Y-106665200D01*
X118067963Y-106462317D01*
X117912683Y-106307037D01*
X117709800Y-106223000D01*
X117490200Y-106223000D01*
X117287317Y-106307037D01*
X117132037Y-106462317D01*
X117048000Y-106665200D01*
X111253479Y-106665200D01*
X111848000Y-106070680D01*
X111848000Y-106084800D01*
X111932037Y-106287683D01*
X112087317Y-106442963D01*
X112290200Y-106527000D01*
X112509800Y-106527000D01*
X112712683Y-106442963D01*
X112867963Y-106287683D01*
X112952000Y-106084800D01*
X112952000Y-105865200D01*
X112867963Y-105662317D01*
X112738940Y-105533294D01*
X112851257Y-105420977D01*
X112935294Y-105218094D01*
X112935294Y-105065200D01*
X118648000Y-105065200D01*
X118648000Y-105284800D01*
X118732037Y-105487683D01*
X118887317Y-105642963D01*
X119090200Y-105727000D01*
X119309800Y-105727000D01*
X119512683Y-105642963D01*
X119667963Y-105487683D01*
X119752000Y-105284800D01*
X119752000Y-105065200D01*
X119667963Y-104862317D01*
X119512683Y-104707037D01*
X119309800Y-104623000D01*
X119090200Y-104623000D01*
X118887317Y-104707037D01*
X118732037Y-104862317D01*
X118648000Y-105065200D01*
X112935294Y-105065200D01*
X112935294Y-104998494D01*
X112851257Y-104795611D01*
X112695977Y-104640331D01*
X112518275Y-104566725D01*
X112444669Y-104389023D01*
X112289389Y-104233743D01*
X112086506Y-104149706D01*
X111866906Y-104149706D01*
X111664023Y-104233743D01*
X111508743Y-104389023D01*
X111493884Y-104424896D01*
X111467963Y-104362317D01*
X111312683Y-104207037D01*
X111109800Y-104123000D01*
X110890200Y-104123000D01*
X110687317Y-104207037D01*
X110532037Y-104362317D01*
X110448000Y-104565200D01*
X110448000Y-104784800D01*
X110532037Y-104987683D01*
X110687317Y-105142963D01*
X110890200Y-105227000D01*
X111024320Y-105227000D01*
X108165305Y-108086017D01*
X108129651Y-108109840D01*
X108040702Y-108242963D01*
X108035276Y-108251083D01*
X108002135Y-108417690D01*
X108010501Y-108459748D01*
X108010500Y-112271116D01*
X107894337Y-112223000D01*
X107505663Y-112223000D01*
X107146574Y-112371739D01*
X106871739Y-112646574D01*
X106723000Y-113005663D01*
X100527000Y-113005663D01*
X100527000Y-110093166D01*
X100776473Y-109926473D01*
X101014511Y-109570223D01*
X101015517Y-109565164D01*
X101223528Y-109876473D01*
X101579777Y-110114511D01*
X102000000Y-110198099D01*
X102420224Y-110114511D01*
X102776473Y-109876473D01*
X103014511Y-109520223D01*
X103077000Y-109206071D01*
X103077000Y-108793928D01*
X103014511Y-108479776D01*
X102776473Y-108123527D01*
X102420223Y-107885489D01*
X102000000Y-107801901D01*
X101579776Y-107885489D01*
X101223527Y-108123527D01*
X101015518Y-108434836D01*
X101014511Y-108429776D01*
X100776473Y-108073527D01*
X100527000Y-107906835D01*
X100527000Y-104675000D01*
X100517333Y-104626399D01*
X100489803Y-104585197D01*
X100448601Y-104557667D01*
X100400000Y-104548000D01*
X96827000Y-104548000D01*
X96827000Y-102815200D01*
X96948000Y-102815200D01*
X96948000Y-103034800D01*
X97032037Y-103237683D01*
X97187317Y-103392963D01*
X97390200Y-103477000D01*
X97609800Y-103477000D01*
X97812683Y-103392963D01*
X97940446Y-103265200D01*
X106048000Y-103265200D01*
X106048000Y-103484800D01*
X106132037Y-103687683D01*
X106287317Y-103842963D01*
X106490200Y-103927000D01*
X106709800Y-103927000D01*
X106825012Y-103879278D01*
X106748000Y-104065200D01*
X106748000Y-104284800D01*
X106832037Y-104487683D01*
X106987317Y-104642963D01*
X107190200Y-104727000D01*
X107409800Y-104727000D01*
X107612683Y-104642963D01*
X107767963Y-104487683D01*
X107852000Y-104284800D01*
X107852000Y-104065200D01*
X107767963Y-103862317D01*
X107612683Y-103707037D01*
X107409800Y-103623000D01*
X107190200Y-103623000D01*
X107074988Y-103670722D01*
X107152000Y-103484800D01*
X107152000Y-103265200D01*
X109248000Y-103265200D01*
X109248000Y-103484800D01*
X109332037Y-103687683D01*
X109487317Y-103842963D01*
X109690200Y-103927000D01*
X109909800Y-103927000D01*
X110112683Y-103842963D01*
X110267963Y-103687683D01*
X110277275Y-103665200D01*
X119048000Y-103665200D01*
X119048000Y-103884800D01*
X119132037Y-104087683D01*
X119287317Y-104242963D01*
X119490200Y-104327000D01*
X119709800Y-104327000D01*
X119912683Y-104242963D01*
X120067963Y-104087683D01*
X120077275Y-104065200D01*
X125448000Y-104065200D01*
X125448000Y-104284800D01*
X125532037Y-104487683D01*
X125687317Y-104642963D01*
X125890200Y-104727000D01*
X125963823Y-104727000D01*
X125948000Y-104765200D01*
X125948000Y-104984800D01*
X126032037Y-105187683D01*
X126187317Y-105342963D01*
X126390200Y-105427000D01*
X126609800Y-105427000D01*
X126812683Y-105342963D01*
X126967963Y-105187683D01*
X127052000Y-104984800D01*
X127052000Y-104765200D01*
X126967963Y-104562317D01*
X126812683Y-104407037D01*
X126609800Y-104323000D01*
X126536177Y-104323000D01*
X126552000Y-104284800D01*
X126552000Y-104065200D01*
X126537582Y-104030391D01*
X127473000Y-104030391D01*
X127473000Y-104319609D01*
X127583679Y-104586813D01*
X127788187Y-104791321D01*
X128055391Y-104902000D01*
X128344609Y-104902000D01*
X128611813Y-104791321D01*
X128816321Y-104586813D01*
X128927000Y-104319609D01*
X128927000Y-104030391D01*
X128816321Y-103763187D01*
X128733194Y-103680060D01*
X128737745Y-103642350D01*
X128200000Y-103104605D01*
X127662255Y-103642350D01*
X127666806Y-103680060D01*
X127583679Y-103763187D01*
X127473000Y-104030391D01*
X126537582Y-104030391D01*
X126467963Y-103862317D01*
X126312683Y-103707037D01*
X126109800Y-103623000D01*
X125890200Y-103623000D01*
X125687317Y-103707037D01*
X125532037Y-103862317D01*
X125448000Y-104065200D01*
X120077275Y-104065200D01*
X120152000Y-103884800D01*
X120152000Y-103665200D01*
X120067963Y-103462317D01*
X119912683Y-103307037D01*
X119709800Y-103223000D01*
X119490200Y-103223000D01*
X119287317Y-103307037D01*
X119132037Y-103462317D01*
X119048000Y-103665200D01*
X110277275Y-103665200D01*
X110352000Y-103484800D01*
X110352000Y-103265200D01*
X110267963Y-103062317D01*
X110112683Y-102907037D01*
X109909800Y-102823000D01*
X109690200Y-102823000D01*
X109487317Y-102907037D01*
X109332037Y-103062317D01*
X109248000Y-103265200D01*
X107152000Y-103265200D01*
X107074988Y-103079278D01*
X107190200Y-103127000D01*
X107409800Y-103127000D01*
X107612683Y-103042963D01*
X107767963Y-102887683D01*
X107852000Y-102684800D01*
X107852000Y-102465200D01*
X107769158Y-102265200D01*
X111448000Y-102265200D01*
X111448000Y-102484800D01*
X111532037Y-102687683D01*
X111687317Y-102842963D01*
X111890200Y-102927000D01*
X112109800Y-102927000D01*
X112312683Y-102842963D01*
X112351715Y-102803931D01*
X127151691Y-102803931D01*
X127185158Y-103214318D01*
X127277820Y-103438023D01*
X127482650Y-103462745D01*
X128020395Y-102925000D01*
X128379605Y-102925000D01*
X128917350Y-103462745D01*
X129122180Y-103438023D01*
X129248309Y-103046069D01*
X129214842Y-102635682D01*
X129122180Y-102411977D01*
X128917350Y-102387255D01*
X128379605Y-102925000D01*
X128020395Y-102925000D01*
X127482650Y-102387255D01*
X127277820Y-102411977D01*
X127151691Y-102803931D01*
X112351715Y-102803931D01*
X112467963Y-102687683D01*
X112552000Y-102484800D01*
X112552000Y-102265200D01*
X112467963Y-102062317D01*
X112312683Y-101907037D01*
X112109800Y-101823000D01*
X111890200Y-101823000D01*
X111687317Y-101907037D01*
X111532037Y-102062317D01*
X111448000Y-102265200D01*
X107769158Y-102265200D01*
X107767963Y-102262317D01*
X107612683Y-102107037D01*
X107409800Y-102023000D01*
X107190200Y-102023000D01*
X106987317Y-102107037D01*
X106832037Y-102262317D01*
X106748000Y-102465200D01*
X106748000Y-102684800D01*
X106825012Y-102870722D01*
X106709800Y-102823000D01*
X106490200Y-102823000D01*
X106287317Y-102907037D01*
X106132037Y-103062317D01*
X106048000Y-103265200D01*
X97940446Y-103265200D01*
X97967963Y-103237683D01*
X98052000Y-103034800D01*
X98052000Y-102815200D01*
X97967963Y-102612317D01*
X97820846Y-102465200D01*
X103948000Y-102465200D01*
X103948000Y-102684800D01*
X104032037Y-102887683D01*
X104187317Y-103042963D01*
X104390200Y-103127000D01*
X104609800Y-103127000D01*
X104812683Y-103042963D01*
X104967963Y-102887683D01*
X105052000Y-102684800D01*
X105052000Y-102465200D01*
X104967963Y-102262317D01*
X104812683Y-102107037D01*
X104609800Y-102023000D01*
X104390200Y-102023000D01*
X104187317Y-102107037D01*
X104032037Y-102262317D01*
X103948000Y-102465200D01*
X97820846Y-102465200D01*
X97812683Y-102457037D01*
X97609800Y-102373000D01*
X97390200Y-102373000D01*
X97187317Y-102457037D01*
X97032037Y-102612317D01*
X96948000Y-102815200D01*
X96827000Y-102815200D01*
X96827000Y-101165200D01*
X110148000Y-101165200D01*
X110148000Y-101384800D01*
X110232037Y-101587683D01*
X110387317Y-101742963D01*
X110590200Y-101827000D01*
X110809800Y-101827000D01*
X111012683Y-101742963D01*
X111167963Y-101587683D01*
X111252000Y-101384800D01*
X111252000Y-101265200D01*
X112248000Y-101265200D01*
X112248000Y-101484800D01*
X112332037Y-101687683D01*
X112487317Y-101842963D01*
X112690200Y-101927000D01*
X112909800Y-101927000D01*
X113112683Y-101842963D01*
X113267963Y-101687683D01*
X113352000Y-101484800D01*
X113352000Y-101265200D01*
X113267963Y-101062317D01*
X113120846Y-100915200D01*
X115248000Y-100915200D01*
X115248000Y-101134800D01*
X115332037Y-101337683D01*
X115487317Y-101492963D01*
X115690200Y-101577000D01*
X115909800Y-101577000D01*
X116112683Y-101492963D01*
X116267963Y-101337683D01*
X116352000Y-101134800D01*
X116352000Y-100915200D01*
X116267963Y-100712317D01*
X116220846Y-100665200D01*
X119648000Y-100665200D01*
X119648000Y-100884800D01*
X119732037Y-101087683D01*
X119887317Y-101242963D01*
X120090200Y-101327000D01*
X120309800Y-101327000D01*
X120512683Y-101242963D01*
X120667963Y-101087683D01*
X120752000Y-100884800D01*
X120752000Y-100665200D01*
X120667963Y-100462317D01*
X120512683Y-100307037D01*
X120309800Y-100223000D01*
X120090200Y-100223000D01*
X119887317Y-100307037D01*
X119732037Y-100462317D01*
X119648000Y-100665200D01*
X116220846Y-100665200D01*
X116112683Y-100557037D01*
X115909800Y-100473000D01*
X115690200Y-100473000D01*
X115487317Y-100557037D01*
X115332037Y-100712317D01*
X115248000Y-100915200D01*
X113120846Y-100915200D01*
X113112683Y-100907037D01*
X112909800Y-100823000D01*
X112690200Y-100823000D01*
X112487317Y-100907037D01*
X112332037Y-101062317D01*
X112248000Y-101265200D01*
X111252000Y-101265200D01*
X111252000Y-101165200D01*
X111167963Y-100962317D01*
X111012683Y-100807037D01*
X110809800Y-100723000D01*
X110590200Y-100723000D01*
X110387317Y-100807037D01*
X110232037Y-100962317D01*
X110148000Y-101165200D01*
X96827000Y-101165200D01*
X96827000Y-99965200D01*
X98848000Y-99965200D01*
X98848000Y-100184800D01*
X98932037Y-100387683D01*
X99087317Y-100542963D01*
X99290200Y-100627000D01*
X99509800Y-100627000D01*
X99712683Y-100542963D01*
X99867963Y-100387683D01*
X99952000Y-100184800D01*
X99952000Y-99965200D01*
X111398000Y-99965200D01*
X111398000Y-100184800D01*
X111482037Y-100387683D01*
X111637317Y-100542963D01*
X111840200Y-100627000D01*
X112059800Y-100627000D01*
X112262683Y-100542963D01*
X112417963Y-100387683D01*
X112502000Y-100184800D01*
X112502000Y-99965200D01*
X112435344Y-99804278D01*
X112490200Y-99827000D01*
X112709800Y-99827000D01*
X112912683Y-99742963D01*
X113067963Y-99587683D01*
X113152000Y-99384800D01*
X113152000Y-99165200D01*
X113067963Y-98962317D01*
X112912683Y-98807037D01*
X112709800Y-98723000D01*
X112490200Y-98723000D01*
X112287317Y-98807037D01*
X112132037Y-98962317D01*
X112048000Y-99165200D01*
X112048000Y-99384800D01*
X112114656Y-99545722D01*
X112059800Y-99523000D01*
X111840200Y-99523000D01*
X111637317Y-99607037D01*
X111482037Y-99762317D01*
X111398000Y-99965200D01*
X99952000Y-99965200D01*
X99867963Y-99762317D01*
X99712683Y-99607037D01*
X99509800Y-99523000D01*
X99290200Y-99523000D01*
X99087317Y-99607037D01*
X98932037Y-99762317D01*
X98848000Y-99965200D01*
X96827000Y-99965200D01*
X96827000Y-98715200D01*
X98548000Y-98715200D01*
X98548000Y-98934800D01*
X98632037Y-99137683D01*
X98787317Y-99292963D01*
X98990200Y-99377000D01*
X99209800Y-99377000D01*
X99412683Y-99292963D01*
X99567963Y-99137683D01*
X99652000Y-98934800D01*
X99652000Y-98715200D01*
X99567963Y-98512317D01*
X99412683Y-98357037D01*
X99209800Y-98273000D01*
X98990200Y-98273000D01*
X98787317Y-98357037D01*
X98632037Y-98512317D01*
X98548000Y-98715200D01*
X96827000Y-98715200D01*
X96827000Y-96965200D01*
X115848000Y-96965200D01*
X115848000Y-97184800D01*
X115932037Y-97387683D01*
X116087317Y-97542963D01*
X116290200Y-97627000D01*
X116509800Y-97627000D01*
X116712683Y-97542963D01*
X116867963Y-97387683D01*
X116952000Y-97184800D01*
X116952000Y-96965200D01*
X116867963Y-96762317D01*
X116712683Y-96607037D01*
X116509800Y-96523000D01*
X116290200Y-96523000D01*
X116087317Y-96607037D01*
X115932037Y-96762317D01*
X115848000Y-96965200D01*
X96827000Y-96965200D01*
X96827000Y-95565200D01*
X106348000Y-95565200D01*
X106348000Y-95784800D01*
X106432037Y-95987683D01*
X106587317Y-96142963D01*
X106790200Y-96227000D01*
X107009800Y-96227000D01*
X107212683Y-96142963D01*
X107367963Y-95987683D01*
X107452000Y-95784800D01*
X107452000Y-95565200D01*
X107367963Y-95362317D01*
X107286037Y-95280391D01*
X127473000Y-95280391D01*
X127473000Y-95569609D01*
X127583679Y-95836813D01*
X127788187Y-96041321D01*
X127809140Y-96050000D01*
X127788187Y-96058679D01*
X127583679Y-96263187D01*
X127473000Y-96530391D01*
X127473000Y-96819609D01*
X127583679Y-97086813D01*
X127788187Y-97291321D01*
X127809140Y-97300000D01*
X127788187Y-97308679D01*
X127583679Y-97513187D01*
X127473000Y-97780391D01*
X127473000Y-98069609D01*
X127583679Y-98336813D01*
X127788187Y-98541321D01*
X127809140Y-98550000D01*
X127788187Y-98558679D01*
X127583679Y-98763187D01*
X127473000Y-99030391D01*
X127473000Y-99319609D01*
X127583679Y-99586813D01*
X127788187Y-99791321D01*
X127809140Y-99800000D01*
X127788187Y-99808679D01*
X127583679Y-100013187D01*
X127473000Y-100280391D01*
X127473000Y-100569609D01*
X127583679Y-100836813D01*
X127788187Y-101041321D01*
X127809140Y-101050000D01*
X127788187Y-101058679D01*
X127583679Y-101263187D01*
X127473000Y-101530391D01*
X127473000Y-101819609D01*
X127583679Y-102086813D01*
X127666806Y-102169940D01*
X127662255Y-102207650D01*
X128200000Y-102745395D01*
X128737745Y-102207650D01*
X128733194Y-102169940D01*
X128816321Y-102086813D01*
X128927000Y-101819609D01*
X128927000Y-101530391D01*
X128816321Y-101263187D01*
X128611813Y-101058679D01*
X128590860Y-101050000D01*
X128611813Y-101041321D01*
X128816321Y-100836813D01*
X128927000Y-100569609D01*
X128927000Y-100280391D01*
X128816321Y-100013187D01*
X128611813Y-99808679D01*
X128590860Y-99800000D01*
X128611813Y-99791321D01*
X128816321Y-99586813D01*
X128927000Y-99319609D01*
X128927000Y-99030391D01*
X128816321Y-98763187D01*
X128611813Y-98558679D01*
X128590860Y-98550000D01*
X128611813Y-98541321D01*
X128816321Y-98336813D01*
X128927000Y-98069609D01*
X128927000Y-97780391D01*
X128816321Y-97513187D01*
X128611813Y-97308679D01*
X128590860Y-97300000D01*
X128611813Y-97291321D01*
X128816321Y-97086813D01*
X128927000Y-96819609D01*
X128927000Y-96530391D01*
X128816321Y-96263187D01*
X128611813Y-96058679D01*
X128590860Y-96050000D01*
X128611813Y-96041321D01*
X128816321Y-95836813D01*
X128927000Y-95569609D01*
X128927000Y-95280391D01*
X128816321Y-95013187D01*
X128611813Y-94808679D01*
X128344609Y-94698000D01*
X128055391Y-94698000D01*
X127788187Y-94808679D01*
X127583679Y-95013187D01*
X127473000Y-95280391D01*
X107286037Y-95280391D01*
X107212683Y-95207037D01*
X107009800Y-95123000D01*
X106790200Y-95123000D01*
X106587317Y-95207037D01*
X106432037Y-95362317D01*
X106348000Y-95565200D01*
X96827000Y-95565200D01*
X96827000Y-92915200D01*
X99448000Y-92915200D01*
X99448000Y-93134800D01*
X99532037Y-93337683D01*
X99687317Y-93492963D01*
X99890200Y-93577000D01*
X100109800Y-93577000D01*
X100312683Y-93492963D01*
X100467963Y-93337683D01*
X100477275Y-93315200D01*
X104898000Y-93315200D01*
X104898000Y-93534800D01*
X104982037Y-93737683D01*
X105137317Y-93892963D01*
X105340200Y-93977000D01*
X105559800Y-93977000D01*
X105762683Y-93892963D01*
X105917963Y-93737683D01*
X106002000Y-93534800D01*
X106002000Y-93315200D01*
X105917963Y-93112317D01*
X105820846Y-93015200D01*
X110898000Y-93015200D01*
X110898000Y-93234800D01*
X110982037Y-93437683D01*
X111137317Y-93592963D01*
X111340200Y-93677000D01*
X111559800Y-93677000D01*
X111762683Y-93592963D01*
X111917963Y-93437683D01*
X112002000Y-93234800D01*
X112002000Y-93015200D01*
X111919158Y-92815200D01*
X121048000Y-92815200D01*
X121048000Y-93034800D01*
X121132037Y-93237683D01*
X121287317Y-93392963D01*
X121490200Y-93477000D01*
X121709800Y-93477000D01*
X121912683Y-93392963D01*
X122040446Y-93265200D01*
X124198000Y-93265200D01*
X124198000Y-93484800D01*
X124282037Y-93687683D01*
X124437317Y-93842963D01*
X124640200Y-93927000D01*
X124859800Y-93927000D01*
X125062683Y-93842963D01*
X125217963Y-93687683D01*
X125302000Y-93484800D01*
X125302000Y-93265200D01*
X125217963Y-93062317D01*
X125062683Y-92907037D01*
X124859800Y-92823000D01*
X124640200Y-92823000D01*
X124437317Y-92907037D01*
X124282037Y-93062317D01*
X124198000Y-93265200D01*
X122040446Y-93265200D01*
X122067963Y-93237683D01*
X122152000Y-93034800D01*
X122152000Y-92815200D01*
X122067963Y-92612317D01*
X121912683Y-92457037D01*
X121709800Y-92373000D01*
X121490200Y-92373000D01*
X121287317Y-92457037D01*
X121132037Y-92612317D01*
X121048000Y-92815200D01*
X111919158Y-92815200D01*
X111917963Y-92812317D01*
X111762683Y-92657037D01*
X111559800Y-92573000D01*
X111340200Y-92573000D01*
X111137317Y-92657037D01*
X110982037Y-92812317D01*
X110898000Y-93015200D01*
X105820846Y-93015200D01*
X105762683Y-92957037D01*
X105559800Y-92873000D01*
X105340200Y-92873000D01*
X105137317Y-92957037D01*
X104982037Y-93112317D01*
X104898000Y-93315200D01*
X100477275Y-93315200D01*
X100552000Y-93134800D01*
X100552000Y-92915200D01*
X100467963Y-92712317D01*
X100312683Y-92557037D01*
X100109800Y-92473000D01*
X99890200Y-92473000D01*
X99687317Y-92557037D01*
X99532037Y-92712317D01*
X99448000Y-92915200D01*
X96827000Y-92915200D01*
X96827000Y-90281341D01*
X96878380Y-90229961D01*
X97002000Y-89931517D01*
X97002000Y-89608483D01*
X97918000Y-89608483D01*
X97918000Y-89931517D01*
X98041620Y-90229961D01*
X98270039Y-90458380D01*
X98568483Y-90582000D01*
X98891517Y-90582000D01*
X99189961Y-90458380D01*
X99418380Y-90229961D01*
X99542000Y-89931517D01*
X99542000Y-89608483D01*
X100458000Y-89608483D01*
X100458000Y-89931517D01*
X100581620Y-90229961D01*
X100810039Y-90458380D01*
X101108483Y-90582000D01*
X101431517Y-90582000D01*
X101729961Y-90458380D01*
X101958380Y-90229961D01*
X102082000Y-89931517D01*
X102082000Y-89608483D01*
X102998000Y-89608483D01*
X102998000Y-89931517D01*
X103121620Y-90229961D01*
X103350039Y-90458380D01*
X103648483Y-90582000D01*
X103971517Y-90582000D01*
X104269961Y-90458380D01*
X104498380Y-90229961D01*
X104622000Y-89931517D01*
X104622000Y-89608483D01*
X105538000Y-89608483D01*
X105538000Y-89931517D01*
X105661620Y-90229961D01*
X105890039Y-90458380D01*
X106188483Y-90582000D01*
X106511517Y-90582000D01*
X106809961Y-90458380D01*
X107038380Y-90229961D01*
X107162000Y-89931517D01*
X107162000Y-89608483D01*
X108078000Y-89608483D01*
X108078000Y-89931517D01*
X108201620Y-90229961D01*
X108430039Y-90458380D01*
X108728483Y-90582000D01*
X109051517Y-90582000D01*
X109349961Y-90458380D01*
X109578380Y-90229961D01*
X109702000Y-89931517D01*
X109702000Y-89608483D01*
X110618000Y-89608483D01*
X110618000Y-89931517D01*
X110741620Y-90229961D01*
X110970039Y-90458380D01*
X111268483Y-90582000D01*
X111591517Y-90582000D01*
X111889961Y-90458380D01*
X112118380Y-90229961D01*
X112242000Y-89931517D01*
X112242000Y-89608483D01*
X113158000Y-89608483D01*
X113158000Y-89931517D01*
X113281620Y-90229961D01*
X113510039Y-90458380D01*
X113808483Y-90582000D01*
X114131517Y-90582000D01*
X114429961Y-90458380D01*
X114658380Y-90229961D01*
X114760031Y-89984555D01*
X114782037Y-90037683D01*
X114937317Y-90192963D01*
X115140200Y-90277000D01*
X115359800Y-90277000D01*
X115562683Y-90192963D01*
X115717963Y-90037683D01*
X115729969Y-90008697D01*
X115821620Y-90229961D01*
X116050039Y-90458380D01*
X116348483Y-90582000D01*
X116671517Y-90582000D01*
X116969961Y-90458380D01*
X117198380Y-90229961D01*
X117322000Y-89931517D01*
X117322000Y-89608483D01*
X118238000Y-89608483D01*
X118238000Y-89931517D01*
X118361620Y-90229961D01*
X118590039Y-90458380D01*
X118888483Y-90582000D01*
X119211517Y-90582000D01*
X119509961Y-90458380D01*
X119738380Y-90229961D01*
X119862000Y-89931517D01*
X119862000Y-89608483D01*
X119738380Y-89310039D01*
X119509961Y-89081620D01*
X119211517Y-88958000D01*
X118888483Y-88958000D01*
X118590039Y-89081620D01*
X118361620Y-89310039D01*
X118238000Y-89608483D01*
X117322000Y-89608483D01*
X117198380Y-89310039D01*
X116969961Y-89081620D01*
X116671517Y-88958000D01*
X116348483Y-88958000D01*
X116050039Y-89081620D01*
X115821620Y-89310039D01*
X115748609Y-89486303D01*
X115717963Y-89412317D01*
X115562683Y-89257037D01*
X115359800Y-89173000D01*
X115140200Y-89173000D01*
X114937317Y-89257037D01*
X114782037Y-89412317D01*
X114741391Y-89510445D01*
X114658380Y-89310039D01*
X114429961Y-89081620D01*
X114131517Y-88958000D01*
X113808483Y-88958000D01*
X113510039Y-89081620D01*
X113281620Y-89310039D01*
X113158000Y-89608483D01*
X112242000Y-89608483D01*
X112118380Y-89310039D01*
X111889961Y-89081620D01*
X111591517Y-88958000D01*
X111268483Y-88958000D01*
X110970039Y-89081620D01*
X110741620Y-89310039D01*
X110618000Y-89608483D01*
X109702000Y-89608483D01*
X109578380Y-89310039D01*
X109349961Y-89081620D01*
X109051517Y-88958000D01*
X108728483Y-88958000D01*
X108430039Y-89081620D01*
X108201620Y-89310039D01*
X108078000Y-89608483D01*
X107162000Y-89608483D01*
X107038380Y-89310039D01*
X106809961Y-89081620D01*
X106511517Y-88958000D01*
X106188483Y-88958000D01*
X105890039Y-89081620D01*
X105661620Y-89310039D01*
X105538000Y-89608483D01*
X104622000Y-89608483D01*
X104498380Y-89310039D01*
X104269961Y-89081620D01*
X103971517Y-88958000D01*
X103648483Y-88958000D01*
X103350039Y-89081620D01*
X103121620Y-89310039D01*
X102998000Y-89608483D01*
X102082000Y-89608483D01*
X101958380Y-89310039D01*
X101729961Y-89081620D01*
X101431517Y-88958000D01*
X101108483Y-88958000D01*
X100810039Y-89081620D01*
X100581620Y-89310039D01*
X100458000Y-89608483D01*
X99542000Y-89608483D01*
X99418380Y-89310039D01*
X99189961Y-89081620D01*
X98891517Y-88958000D01*
X98568483Y-88958000D01*
X98270039Y-89081620D01*
X98041620Y-89310039D01*
X97918000Y-89608483D01*
X97002000Y-89608483D01*
X96878380Y-89310039D01*
X96827000Y-89258659D01*
X96827000Y-87975000D01*
X96817333Y-87926399D01*
X96789803Y-87885197D01*
X96748601Y-87857667D01*
X96716966Y-87851375D01*
X96878380Y-87689961D01*
X97002000Y-87391517D01*
X97002000Y-87068483D01*
X97918000Y-87068483D01*
X97918000Y-87391517D01*
X98041620Y-87689961D01*
X98270039Y-87918380D01*
X98568483Y-88042000D01*
X98891517Y-88042000D01*
X99189961Y-87918380D01*
X99418380Y-87689961D01*
X99542000Y-87391517D01*
X99542000Y-87068483D01*
X100458000Y-87068483D01*
X100458000Y-87391517D01*
X100581620Y-87689961D01*
X100810039Y-87918380D01*
X101108483Y-88042000D01*
X101431517Y-88042000D01*
X101729961Y-87918380D01*
X101958380Y-87689961D01*
X102082000Y-87391517D01*
X102082000Y-87068483D01*
X102998000Y-87068483D01*
X102998000Y-87391517D01*
X103121620Y-87689961D01*
X103350039Y-87918380D01*
X103648483Y-88042000D01*
X103971517Y-88042000D01*
X104269961Y-87918380D01*
X104498380Y-87689961D01*
X104622000Y-87391517D01*
X104622000Y-87068483D01*
X105538000Y-87068483D01*
X105538000Y-87391517D01*
X105661620Y-87689961D01*
X105890039Y-87918380D01*
X106188483Y-88042000D01*
X106511517Y-88042000D01*
X106809961Y-87918380D01*
X107038380Y-87689961D01*
X107162000Y-87391517D01*
X107162000Y-87068483D01*
X108078000Y-87068483D01*
X108078000Y-87391517D01*
X108201620Y-87689961D01*
X108430039Y-87918380D01*
X108728483Y-88042000D01*
X109051517Y-88042000D01*
X109349961Y-87918380D01*
X109578380Y-87689961D01*
X109702000Y-87391517D01*
X109702000Y-87068483D01*
X110618000Y-87068483D01*
X110618000Y-87391517D01*
X110741620Y-87689961D01*
X110970039Y-87918380D01*
X111268483Y-88042000D01*
X111591517Y-88042000D01*
X111889961Y-87918380D01*
X112118380Y-87689961D01*
X112242000Y-87391517D01*
X112242000Y-87068483D01*
X113158000Y-87068483D01*
X113158000Y-87391517D01*
X113281620Y-87689961D01*
X113510039Y-87918380D01*
X113808483Y-88042000D01*
X114131517Y-88042000D01*
X114429961Y-87918380D01*
X114658380Y-87689961D01*
X114782000Y-87391517D01*
X114782000Y-87068483D01*
X115698000Y-87068483D01*
X115698000Y-87391517D01*
X115821620Y-87689961D01*
X116050039Y-87918380D01*
X116348483Y-88042000D01*
X116671517Y-88042000D01*
X116969961Y-87918380D01*
X117198380Y-87689961D01*
X117322000Y-87391517D01*
X117322000Y-87068483D01*
X118238000Y-87068483D01*
X118238000Y-87391517D01*
X118361620Y-87689961D01*
X118590039Y-87918380D01*
X118888483Y-88042000D01*
X119211517Y-88042000D01*
X119509961Y-87918380D01*
X119738380Y-87689961D01*
X119862000Y-87391517D01*
X119862000Y-87068483D01*
X120778000Y-87068483D01*
X120778000Y-87391517D01*
X120901620Y-87689961D01*
X121130039Y-87918380D01*
X121428483Y-88042000D01*
X121732439Y-88042000D01*
X121643000Y-88257924D01*
X121643000Y-88742076D01*
X121732439Y-88958000D01*
X121428483Y-88958000D01*
X121130039Y-89081620D01*
X120901620Y-89310039D01*
X120778000Y-89608483D01*
X120778000Y-89931517D01*
X120901620Y-90229961D01*
X121130039Y-90458380D01*
X121428483Y-90582000D01*
X121751517Y-90582000D01*
X122049961Y-90458380D01*
X122278380Y-90229961D01*
X122402000Y-89931517D01*
X122402000Y-89627561D01*
X122617924Y-89717000D01*
X123102076Y-89717000D01*
X123318000Y-89627561D01*
X123318000Y-89931517D01*
X123441620Y-90229961D01*
X123670039Y-90458380D01*
X123968483Y-90582000D01*
X124291517Y-90582000D01*
X124589961Y-90458380D01*
X124818380Y-90229961D01*
X124942000Y-89931517D01*
X124942000Y-89608483D01*
X124818380Y-89310039D01*
X124589961Y-89081620D01*
X124291517Y-88958000D01*
X123987561Y-88958000D01*
X124077000Y-88742076D01*
X124077000Y-88257924D01*
X123987561Y-88042000D01*
X124291517Y-88042000D01*
X124589961Y-87918380D01*
X124818380Y-87689961D01*
X124942000Y-87391517D01*
X124942000Y-87068483D01*
X124818380Y-86770039D01*
X124589961Y-86541620D01*
X124291517Y-86418000D01*
X123968483Y-86418000D01*
X123670039Y-86541620D01*
X123441620Y-86770039D01*
X123318000Y-87068483D01*
X123318000Y-87372439D01*
X123102076Y-87283000D01*
X122617924Y-87283000D01*
X122402000Y-87372439D01*
X122402000Y-87068483D01*
X122278380Y-86770039D01*
X122049961Y-86541620D01*
X121751517Y-86418000D01*
X121428483Y-86418000D01*
X121130039Y-86541620D01*
X120901620Y-86770039D01*
X120778000Y-87068483D01*
X119862000Y-87068483D01*
X119738380Y-86770039D01*
X119509961Y-86541620D01*
X119211517Y-86418000D01*
X118888483Y-86418000D01*
X118590039Y-86541620D01*
X118361620Y-86770039D01*
X118238000Y-87068483D01*
X117322000Y-87068483D01*
X117198380Y-86770039D01*
X116969961Y-86541620D01*
X116671517Y-86418000D01*
X116348483Y-86418000D01*
X116050039Y-86541620D01*
X115821620Y-86770039D01*
X115698000Y-87068483D01*
X114782000Y-87068483D01*
X114658380Y-86770039D01*
X114429961Y-86541620D01*
X114131517Y-86418000D01*
X113808483Y-86418000D01*
X113510039Y-86541620D01*
X113281620Y-86770039D01*
X113158000Y-87068483D01*
X112242000Y-87068483D01*
X112118380Y-86770039D01*
X111889961Y-86541620D01*
X111591517Y-86418000D01*
X111268483Y-86418000D01*
X110970039Y-86541620D01*
X110741620Y-86770039D01*
X110618000Y-87068483D01*
X109702000Y-87068483D01*
X109578380Y-86770039D01*
X109349961Y-86541620D01*
X109051517Y-86418000D01*
X108728483Y-86418000D01*
X108430039Y-86541620D01*
X108201620Y-86770039D01*
X108078000Y-87068483D01*
X107162000Y-87068483D01*
X107038380Y-86770039D01*
X106809961Y-86541620D01*
X106511517Y-86418000D01*
X106188483Y-86418000D01*
X105890039Y-86541620D01*
X105661620Y-86770039D01*
X105538000Y-87068483D01*
X104622000Y-87068483D01*
X104498380Y-86770039D01*
X104269961Y-86541620D01*
X103971517Y-86418000D01*
X103648483Y-86418000D01*
X103350039Y-86541620D01*
X103121620Y-86770039D01*
X102998000Y-87068483D01*
X102082000Y-87068483D01*
X101958380Y-86770039D01*
X101729961Y-86541620D01*
X101431517Y-86418000D01*
X101108483Y-86418000D01*
X100810039Y-86541620D01*
X100581620Y-86770039D01*
X100458000Y-87068483D01*
X99542000Y-87068483D01*
X99418380Y-86770039D01*
X99189961Y-86541620D01*
X98891517Y-86418000D01*
X98568483Y-86418000D01*
X98270039Y-86541620D01*
X98041620Y-86770039D01*
X97918000Y-87068483D01*
X97002000Y-87068483D01*
X96878380Y-86770039D01*
X96649961Y-86541620D01*
X96351517Y-86418000D01*
X96028483Y-86418000D01*
X95730039Y-86541620D01*
X95501620Y-86770039D01*
X95378000Y-87068483D01*
X95378000Y-87391517D01*
X95501620Y-87689961D01*
X95659659Y-87848000D01*
X94180341Y-87848000D01*
X94338380Y-87689961D01*
X94462000Y-87391517D01*
X94462000Y-87068483D01*
X94338380Y-86770039D01*
X94109961Y-86541620D01*
X93811517Y-86418000D01*
X93488483Y-86418000D01*
X93190039Y-86541620D01*
X92961620Y-86770039D01*
X92838000Y-87068483D01*
X92838000Y-87391517D01*
X92961620Y-87689961D01*
X93119659Y-87848000D01*
X91640341Y-87848000D01*
X91798380Y-87689961D01*
X91922000Y-87391517D01*
X91922000Y-87068483D01*
X91798380Y-86770039D01*
X91569961Y-86541620D01*
X91271517Y-86418000D01*
X90948483Y-86418000D01*
X90650039Y-86541620D01*
X90421620Y-86770039D01*
X90298000Y-87068483D01*
X90298000Y-87391517D01*
X90421620Y-87689961D01*
X90579659Y-87848000D01*
X89100341Y-87848000D01*
X89258380Y-87689961D01*
X89382000Y-87391517D01*
X89382000Y-87068483D01*
X89258380Y-86770039D01*
X89029961Y-86541620D01*
X88731517Y-86418000D01*
X88408483Y-86418000D01*
X88110039Y-86541620D01*
X87881620Y-86770039D01*
X87758000Y-87068483D01*
X87758000Y-87391517D01*
X87881620Y-87689961D01*
X88039659Y-87848000D01*
X86560341Y-87848000D01*
X86718380Y-87689961D01*
X86842000Y-87391517D01*
X86842000Y-87068483D01*
X86718380Y-86770039D01*
X86489961Y-86541620D01*
X86191517Y-86418000D01*
X85868483Y-86418000D01*
X85570039Y-86541620D01*
X85341620Y-86770039D01*
X85302000Y-86865690D01*
X85302000Y-86765200D01*
X85217963Y-86562317D01*
X85062683Y-86407037D01*
X84859800Y-86323000D01*
X84640200Y-86323000D01*
X84437317Y-86407037D01*
X84282037Y-86562317D01*
X84198000Y-86765200D01*
X84198000Y-86817406D01*
X84178380Y-86770039D01*
X83949961Y-86541620D01*
X83651517Y-86418000D01*
X83328483Y-86418000D01*
X83030039Y-86541620D01*
X82801620Y-86770039D01*
X82771746Y-86842161D01*
X82717963Y-86712317D01*
X82562683Y-86557037D01*
X82359800Y-86473000D01*
X82140200Y-86473000D01*
X81937317Y-86557037D01*
X81782037Y-86712317D01*
X81698254Y-86914587D01*
X81638380Y-86770039D01*
X81409961Y-86541620D01*
X81111517Y-86418000D01*
X80788483Y-86418000D01*
X80490039Y-86541620D01*
X80261620Y-86770039D01*
X80138000Y-87068483D01*
X80138000Y-87391517D01*
X80261620Y-87689961D01*
X80419659Y-87848000D01*
X78940341Y-87848000D01*
X79098380Y-87689961D01*
X79222000Y-87391517D01*
X79222000Y-87068483D01*
X79098380Y-86770039D01*
X78869961Y-86541620D01*
X78571517Y-86418000D01*
X78248483Y-86418000D01*
X77950039Y-86541620D01*
X77721620Y-86770039D01*
X77598000Y-87068483D01*
X77598000Y-87372439D01*
X77382076Y-87283000D01*
X76897924Y-87283000D01*
X76682000Y-87372439D01*
X76682000Y-87068483D01*
X76558380Y-86770039D01*
X76329961Y-86541620D01*
X76031517Y-86418000D01*
X75708483Y-86418000D01*
X75410039Y-86541620D01*
X75181620Y-86770039D01*
X75058000Y-87068483D01*
X75058000Y-87391517D01*
X75181620Y-87689961D01*
X75339659Y-87848000D01*
X74222812Y-87848000D01*
X73735719Y-86672051D01*
X72827949Y-85764281D01*
X71641890Y-85273000D01*
X70358110Y-85273000D01*
X69172051Y-85764281D01*
X68264281Y-86672051D01*
X67902000Y-87546676D01*
X67902000Y-83815200D01*
X80398000Y-83815200D01*
X80398000Y-84034800D01*
X80482037Y-84237683D01*
X80637317Y-84392963D01*
X80840200Y-84477000D01*
X81059800Y-84477000D01*
X81262683Y-84392963D01*
X81417963Y-84237683D01*
X81502000Y-84034800D01*
X81502000Y-83965200D01*
X90548000Y-83965200D01*
X90548000Y-84184800D01*
X90632037Y-84387683D01*
X90787317Y-84542963D01*
X90990200Y-84627000D01*
X91209800Y-84627000D01*
X91412683Y-84542963D01*
X91567963Y-84387683D01*
X91652000Y-84184800D01*
X91652000Y-83965200D01*
X91567963Y-83762317D01*
X91420846Y-83615200D01*
X98198000Y-83615200D01*
X98198000Y-83834800D01*
X98282037Y-84037683D01*
X98437317Y-84192963D01*
X98640200Y-84277000D01*
X98859800Y-84277000D01*
X99062683Y-84192963D01*
X99217963Y-84037683D01*
X99302000Y-83834800D01*
X99302000Y-83615200D01*
X110398000Y-83615200D01*
X110398000Y-83834800D01*
X110482037Y-84037683D01*
X110637317Y-84192963D01*
X110840200Y-84277000D01*
X111059800Y-84277000D01*
X111262683Y-84192963D01*
X111417963Y-84037683D01*
X111502000Y-83834800D01*
X111502000Y-83615200D01*
X111417963Y-83412317D01*
X111262683Y-83257037D01*
X111161680Y-83215200D01*
X112148000Y-83215200D01*
X112148000Y-83434800D01*
X112232037Y-83637683D01*
X112387317Y-83792963D01*
X112590200Y-83877000D01*
X112809800Y-83877000D01*
X113012683Y-83792963D01*
X113167963Y-83637683D01*
X113252000Y-83434800D01*
X113252000Y-83365200D01*
X115248000Y-83365200D01*
X115248000Y-83584800D01*
X115332037Y-83787683D01*
X115487317Y-83942963D01*
X115690200Y-84027000D01*
X115909800Y-84027000D01*
X116112683Y-83942963D01*
X116267963Y-83787683D01*
X116297986Y-83715200D01*
X117798000Y-83715200D01*
X117798000Y-83934800D01*
X117882037Y-84137683D01*
X118037317Y-84292963D01*
X118240200Y-84377000D01*
X118459800Y-84377000D01*
X118662683Y-84292963D01*
X118817963Y-84137683D01*
X118902000Y-83934800D01*
X118902000Y-83715200D01*
X118817963Y-83512317D01*
X118662683Y-83357037D01*
X118459800Y-83273000D01*
X118240200Y-83273000D01*
X118037317Y-83357037D01*
X117882037Y-83512317D01*
X117798000Y-83715200D01*
X116297986Y-83715200D01*
X116352000Y-83584800D01*
X116352000Y-83365200D01*
X116267963Y-83162317D01*
X116112683Y-83007037D01*
X115909800Y-82923000D01*
X115690200Y-82923000D01*
X115487317Y-83007037D01*
X115332037Y-83162317D01*
X115248000Y-83365200D01*
X113252000Y-83365200D01*
X113252000Y-83215200D01*
X113167963Y-83012317D01*
X113012683Y-82857037D01*
X112809800Y-82773000D01*
X112590200Y-82773000D01*
X112387317Y-82857037D01*
X112232037Y-83012317D01*
X112148000Y-83215200D01*
X111161680Y-83215200D01*
X111059800Y-83173000D01*
X110840200Y-83173000D01*
X110637317Y-83257037D01*
X110482037Y-83412317D01*
X110398000Y-83615200D01*
X99302000Y-83615200D01*
X99217963Y-83412317D01*
X99062683Y-83257037D01*
X98859800Y-83173000D01*
X98640200Y-83173000D01*
X98437317Y-83257037D01*
X98282037Y-83412317D01*
X98198000Y-83615200D01*
X91420846Y-83615200D01*
X91412683Y-83607037D01*
X91209800Y-83523000D01*
X90990200Y-83523000D01*
X90787317Y-83607037D01*
X90632037Y-83762317D01*
X90548000Y-83965200D01*
X81502000Y-83965200D01*
X81502000Y-83815200D01*
X81417963Y-83612317D01*
X81262683Y-83457037D01*
X81059800Y-83373000D01*
X80840200Y-83373000D01*
X80637317Y-83457037D01*
X80482037Y-83612317D01*
X80398000Y-83815200D01*
X67902000Y-83815200D01*
X67902000Y-77487403D01*
X67923000Y-77487403D01*
X67923000Y-78512597D01*
X68315325Y-79459753D01*
X69040247Y-80184675D01*
X69987403Y-80577000D01*
X71012597Y-80577000D01*
X71959753Y-80184675D01*
X72684675Y-79459753D01*
X73077000Y-78512597D01*
X73077000Y-78401043D01*
X81933000Y-78401043D01*
X81933000Y-78928957D01*
X82135024Y-79416685D01*
X82508315Y-79789976D01*
X82996043Y-79992000D01*
X83523957Y-79992000D01*
X84011685Y-79789976D01*
X84384976Y-79416685D01*
X84587000Y-78928957D01*
X84587000Y-78401043D01*
X87013000Y-78401043D01*
X87013000Y-78928957D01*
X87215024Y-79416685D01*
X87588315Y-79789976D01*
X88076043Y-79992000D01*
X88603957Y-79992000D01*
X88789368Y-79915200D01*
X99148000Y-79915200D01*
X99148000Y-80134800D01*
X99232037Y-80337683D01*
X99387317Y-80492963D01*
X99590200Y-80577000D01*
X99809800Y-80577000D01*
X99814656Y-80574989D01*
X99798000Y-80615200D01*
X99798000Y-80834800D01*
X99882037Y-81037683D01*
X100037317Y-81192963D01*
X100240200Y-81277000D01*
X100459800Y-81277000D01*
X100662683Y-81192963D01*
X100817963Y-81037683D01*
X100902000Y-80834800D01*
X100902000Y-80615200D01*
X100817963Y-80412317D01*
X100662683Y-80257037D01*
X100459800Y-80173000D01*
X100240200Y-80173000D01*
X100235344Y-80175011D01*
X100252000Y-80134800D01*
X100252000Y-79915200D01*
X100167963Y-79712317D01*
X100012683Y-79557037D01*
X99809800Y-79473000D01*
X99590200Y-79473000D01*
X99387317Y-79557037D01*
X99232037Y-79712317D01*
X99148000Y-79915200D01*
X88789368Y-79915200D01*
X89091685Y-79789976D01*
X89464976Y-79416685D01*
X89667000Y-78928957D01*
X89667000Y-78401043D01*
X112413000Y-78401043D01*
X112413000Y-78928957D01*
X112615024Y-79416685D01*
X112988315Y-79789976D01*
X113476043Y-79992000D01*
X114003957Y-79992000D01*
X114491685Y-79789976D01*
X114864976Y-79416685D01*
X115067000Y-78928957D01*
X115067000Y-78401043D01*
X114864976Y-77913315D01*
X114491685Y-77540024D01*
X114003957Y-77338000D01*
X113476043Y-77338000D01*
X112988315Y-77540024D01*
X112615024Y-77913315D01*
X112413000Y-78401043D01*
X89667000Y-78401043D01*
X89464976Y-77913315D01*
X89091685Y-77540024D01*
X88603957Y-77338000D01*
X88076043Y-77338000D01*
X87588315Y-77540024D01*
X87215024Y-77913315D01*
X87013000Y-78401043D01*
X84587000Y-78401043D01*
X84384976Y-77913315D01*
X84011685Y-77540024D01*
X83523957Y-77338000D01*
X82996043Y-77338000D01*
X82508315Y-77540024D01*
X82135024Y-77913315D01*
X81933000Y-78401043D01*
X73077000Y-78401043D01*
X73077000Y-77487403D01*
X72684675Y-76540247D01*
X71959753Y-75815325D01*
X71012597Y-75423000D01*
X69987403Y-75423000D01*
X69040247Y-75815325D01*
X68315325Y-76540247D01*
X67923000Y-77487403D01*
X67902000Y-77487403D01*
X67902000Y-73676587D01*
X71273000Y-73676587D01*
X71273000Y-74403413D01*
X71551144Y-75074912D01*
X72065088Y-75588856D01*
X72736587Y-75867000D01*
X73463413Y-75867000D01*
X74134912Y-75588856D01*
X74287181Y-75436587D01*
X75173000Y-75436587D01*
X75173000Y-76163413D01*
X75451144Y-76834912D01*
X75965088Y-77348856D01*
X76636587Y-77627000D01*
X77363413Y-77627000D01*
X78034912Y-77348856D01*
X78548856Y-76834912D01*
X78827000Y-76163413D01*
X78827000Y-75436587D01*
X78548856Y-74765088D01*
X78034912Y-74251144D01*
X77363413Y-73973000D01*
X76636587Y-73973000D01*
X75965088Y-74251144D01*
X75451144Y-74765088D01*
X75173000Y-75436587D01*
X74287181Y-75436587D01*
X74648856Y-75074912D01*
X74927000Y-74403413D01*
X74927000Y-73676587D01*
X74648856Y-73005088D01*
X74134912Y-72491144D01*
X73463413Y-72213000D01*
X72736587Y-72213000D01*
X72065088Y-72491144D01*
X71551144Y-73005088D01*
X71273000Y-73676587D01*
X67902000Y-73676587D01*
X67902000Y-64487403D01*
X67923000Y-64487403D01*
X67923000Y-65512597D01*
X68315325Y-66459753D01*
X69040247Y-67184675D01*
X69987403Y-67577000D01*
X71012597Y-67577000D01*
X71266594Y-67471791D01*
X71266594Y-70460000D01*
X71291973Y-70587589D01*
X71364246Y-70695754D01*
X71472411Y-70768027D01*
X71600000Y-70793406D01*
X74600000Y-70793406D01*
X74727589Y-70768027D01*
X74835754Y-70695754D01*
X74908027Y-70587589D01*
X74933406Y-70460000D01*
X74933406Y-67460000D01*
X74908027Y-67332411D01*
X74835754Y-67224246D01*
X74727589Y-67151973D01*
X74600000Y-67126594D01*
X72017834Y-67126594D01*
X72307841Y-66836587D01*
X75173000Y-66836587D01*
X75173000Y-67563413D01*
X75451144Y-68234912D01*
X75965088Y-68748856D01*
X76636587Y-69027000D01*
X77363413Y-69027000D01*
X78034912Y-68748856D01*
X78548856Y-68234912D01*
X78827000Y-67563413D01*
X78827000Y-66836587D01*
X78548856Y-66165088D01*
X78034912Y-65651144D01*
X77363413Y-65373000D01*
X76636587Y-65373000D01*
X75965088Y-65651144D01*
X75451144Y-66165088D01*
X75173000Y-66836587D01*
X72307841Y-66836587D01*
X72684675Y-66459753D01*
X73077000Y-65512597D01*
X73077000Y-64487403D01*
X72736433Y-63665200D01*
X106798000Y-63665200D01*
X106798000Y-63884800D01*
X106882037Y-64087683D01*
X107037317Y-64242963D01*
X107240200Y-64327000D01*
X107459800Y-64327000D01*
X107662683Y-64242963D01*
X107817963Y-64087683D01*
X107902000Y-63884800D01*
X107902000Y-63665200D01*
X114698000Y-63665200D01*
X114698000Y-63884800D01*
X114782037Y-64087683D01*
X114937317Y-64242963D01*
X115140200Y-64327000D01*
X115359800Y-64327000D01*
X115562683Y-64242963D01*
X115717963Y-64087683D01*
X115802000Y-63884800D01*
X115802000Y-63665200D01*
X115717963Y-63462317D01*
X115562683Y-63307037D01*
X115359800Y-63223000D01*
X115140200Y-63223000D01*
X114937317Y-63307037D01*
X114782037Y-63462317D01*
X114698000Y-63665200D01*
X107902000Y-63665200D01*
X107817963Y-63462317D01*
X107662683Y-63307037D01*
X107459800Y-63223000D01*
X107240200Y-63223000D01*
X107037317Y-63307037D01*
X106882037Y-63462317D01*
X106798000Y-63665200D01*
X72736433Y-63665200D01*
X72684675Y-63540247D01*
X72059628Y-62915200D01*
X89348000Y-62915200D01*
X89348000Y-63134800D01*
X89432037Y-63337683D01*
X89587317Y-63492963D01*
X89790200Y-63577000D01*
X90009800Y-63577000D01*
X90212683Y-63492963D01*
X90367963Y-63337683D01*
X90452000Y-63134800D01*
X90452000Y-62915200D01*
X90367963Y-62712317D01*
X90212683Y-62557037D01*
X90009800Y-62473000D01*
X89790200Y-62473000D01*
X89587317Y-62557037D01*
X89432037Y-62712317D01*
X89348000Y-62915200D01*
X72059628Y-62915200D01*
X71959753Y-62815325D01*
X71012597Y-62423000D01*
X69987403Y-62423000D01*
X69040247Y-62815325D01*
X68315325Y-63540247D01*
X67923000Y-64487403D01*
X67902000Y-64487403D01*
X67902000Y-62037532D01*
X107687073Y-62037532D01*
X107785736Y-62304387D01*
X108395461Y-62530908D01*
X109045460Y-62506856D01*
X109534264Y-62304387D01*
X109548752Y-62265200D01*
X116248000Y-62265200D01*
X116248000Y-62484800D01*
X116332037Y-62687683D01*
X116487317Y-62842963D01*
X116690200Y-62927000D01*
X116909800Y-62927000D01*
X117112683Y-62842963D01*
X117267963Y-62687683D01*
X117352000Y-62484800D01*
X117352000Y-62265200D01*
X117267963Y-62062317D01*
X117112683Y-61907037D01*
X116909800Y-61823000D01*
X116690200Y-61823000D01*
X116487317Y-61907037D01*
X116332037Y-62062317D01*
X116248000Y-62265200D01*
X109548752Y-62265200D01*
X109632927Y-62037532D01*
X108660000Y-61064605D01*
X107687073Y-62037532D01*
X67902000Y-62037532D01*
X67902000Y-60865200D01*
X90648000Y-60865200D01*
X90648000Y-61084800D01*
X90732037Y-61287683D01*
X90887317Y-61442963D01*
X91090200Y-61527000D01*
X91309800Y-61527000D01*
X91512683Y-61442963D01*
X91667963Y-61287683D01*
X91752000Y-61084800D01*
X91752000Y-60865200D01*
X91667963Y-60662317D01*
X91626107Y-60620461D01*
X107014092Y-60620461D01*
X107038144Y-61270460D01*
X107240613Y-61759264D01*
X107507468Y-61857927D01*
X108480395Y-60885000D01*
X108839605Y-60885000D01*
X109812532Y-61857927D01*
X110079387Y-61759264D01*
X110305908Y-61149539D01*
X110286352Y-60621043D01*
X112413000Y-60621043D01*
X112413000Y-61148957D01*
X112615024Y-61636685D01*
X112988315Y-62009976D01*
X113476043Y-62212000D01*
X114003957Y-62212000D01*
X114491685Y-62009976D01*
X114864976Y-61636685D01*
X115067000Y-61148957D01*
X115067000Y-60621043D01*
X114864976Y-60133315D01*
X114491685Y-59760024D01*
X114003957Y-59558000D01*
X113476043Y-59558000D01*
X112988315Y-59760024D01*
X112615024Y-60133315D01*
X112413000Y-60621043D01*
X110286352Y-60621043D01*
X110281856Y-60499540D01*
X110079387Y-60010736D01*
X109812532Y-59912073D01*
X108839605Y-60885000D01*
X108480395Y-60885000D01*
X107507468Y-59912073D01*
X107240613Y-60010736D01*
X107014092Y-60620461D01*
X91626107Y-60620461D01*
X91512683Y-60507037D01*
X91309800Y-60423000D01*
X91090200Y-60423000D01*
X90887317Y-60507037D01*
X90732037Y-60662317D01*
X90648000Y-60865200D01*
X67902000Y-60865200D01*
X67902000Y-59732468D01*
X107687073Y-59732468D01*
X108660000Y-60705395D01*
X109632927Y-59732468D01*
X109534264Y-59465613D01*
X108924539Y-59239092D01*
X108274540Y-59263144D01*
X107785736Y-59465613D01*
X107687073Y-59732468D01*
X67902000Y-59732468D01*
X67902000Y-58315200D01*
X86498000Y-58315200D01*
X86498000Y-58534800D01*
X86582037Y-58737683D01*
X86737317Y-58892963D01*
X86940200Y-58977000D01*
X87159800Y-58977000D01*
X87362683Y-58892963D01*
X87390446Y-58865200D01*
X104798000Y-58865200D01*
X104798000Y-59084800D01*
X104882037Y-59287683D01*
X105037317Y-59442963D01*
X105240200Y-59527000D01*
X105459800Y-59527000D01*
X105662683Y-59442963D01*
X105817963Y-59287683D01*
X105902000Y-59084800D01*
X105902000Y-58865200D01*
X111248000Y-58865200D01*
X111248000Y-59084800D01*
X111332037Y-59287683D01*
X111487317Y-59442963D01*
X111690200Y-59527000D01*
X111909800Y-59527000D01*
X112112683Y-59442963D01*
X112267963Y-59287683D01*
X112352000Y-59084800D01*
X112352000Y-58865200D01*
X112267963Y-58662317D01*
X112112683Y-58507037D01*
X111909800Y-58423000D01*
X111690200Y-58423000D01*
X111487317Y-58507037D01*
X111332037Y-58662317D01*
X111248000Y-58865200D01*
X105902000Y-58865200D01*
X105817963Y-58662317D01*
X105662683Y-58507037D01*
X105459800Y-58423000D01*
X105240200Y-58423000D01*
X105037317Y-58507037D01*
X104882037Y-58662317D01*
X104798000Y-58865200D01*
X87390446Y-58865200D01*
X87517963Y-58737683D01*
X87602000Y-58534800D01*
X87602000Y-58315200D01*
X87517963Y-58112317D01*
X87362683Y-57957037D01*
X87261680Y-57915200D01*
X106148000Y-57915200D01*
X106148000Y-58134800D01*
X106232037Y-58337683D01*
X106387317Y-58492963D01*
X106590200Y-58577000D01*
X106809800Y-58577000D01*
X107012683Y-58492963D01*
X107167963Y-58337683D01*
X107239407Y-58165200D01*
X112248000Y-58165200D01*
X112248000Y-58384800D01*
X112332037Y-58587683D01*
X112487317Y-58742963D01*
X112690200Y-58827000D01*
X112748000Y-58827000D01*
X112748000Y-58984800D01*
X112832037Y-59187683D01*
X112987317Y-59342963D01*
X113190200Y-59427000D01*
X113409800Y-59427000D01*
X113612683Y-59342963D01*
X113767963Y-59187683D01*
X113852000Y-58984800D01*
X113852000Y-58765200D01*
X116248000Y-58765200D01*
X116248000Y-58984800D01*
X116332037Y-59187683D01*
X116487317Y-59342963D01*
X116690200Y-59427000D01*
X116909800Y-59427000D01*
X117112683Y-59342963D01*
X117267963Y-59187683D01*
X117277275Y-59165200D01*
X117798000Y-59165200D01*
X117798000Y-59384800D01*
X117882037Y-59587683D01*
X118037317Y-59742963D01*
X118240200Y-59827000D01*
X118459800Y-59827000D01*
X118662683Y-59742963D01*
X118817963Y-59587683D01*
X118902000Y-59384800D01*
X118902000Y-59165200D01*
X118817963Y-58962317D01*
X118662683Y-58807037D01*
X118459800Y-58723000D01*
X118240200Y-58723000D01*
X118037317Y-58807037D01*
X117882037Y-58962317D01*
X117798000Y-59165200D01*
X117277275Y-59165200D01*
X117352000Y-58984800D01*
X117352000Y-58765200D01*
X117267963Y-58562317D01*
X117112683Y-58407037D01*
X116909800Y-58323000D01*
X116690200Y-58323000D01*
X116487317Y-58407037D01*
X116332037Y-58562317D01*
X116248000Y-58765200D01*
X113852000Y-58765200D01*
X113767963Y-58562317D01*
X113612683Y-58407037D01*
X113409800Y-58323000D01*
X113352000Y-58323000D01*
X113352000Y-58165200D01*
X113267963Y-57962317D01*
X113112683Y-57807037D01*
X112909800Y-57723000D01*
X112690200Y-57723000D01*
X112487317Y-57807037D01*
X112332037Y-57962317D01*
X112248000Y-58165200D01*
X107239407Y-58165200D01*
X107252000Y-58134800D01*
X107252000Y-57915200D01*
X107167963Y-57712317D01*
X107012683Y-57557037D01*
X106809800Y-57473000D01*
X106590200Y-57473000D01*
X106387317Y-57557037D01*
X106232037Y-57712317D01*
X106148000Y-57915200D01*
X87261680Y-57915200D01*
X87159800Y-57873000D01*
X86940200Y-57873000D01*
X86737317Y-57957037D01*
X86582037Y-58112317D01*
X86498000Y-58315200D01*
X67902000Y-58315200D01*
X67902000Y-55453324D01*
X68264281Y-56327949D01*
X69172051Y-57235719D01*
X70358110Y-57727000D01*
X71641890Y-57727000D01*
X72827949Y-57235719D01*
X73098468Y-56965200D01*
X91798000Y-56965200D01*
X91798000Y-57184800D01*
X91882037Y-57387683D01*
X92037317Y-57542963D01*
X92240200Y-57627000D01*
X92459800Y-57627000D01*
X92662683Y-57542963D01*
X92817963Y-57387683D01*
X92902000Y-57184800D01*
X92902000Y-56965200D01*
X92819158Y-56765200D01*
X103498000Y-56765200D01*
X103498000Y-56984800D01*
X103582037Y-57187683D01*
X103737317Y-57342963D01*
X103940200Y-57427000D01*
X104159800Y-57427000D01*
X104362683Y-57342963D01*
X104517963Y-57187683D01*
X104527275Y-57165200D01*
X114998000Y-57165200D01*
X114998000Y-57384800D01*
X115082037Y-57587683D01*
X115237317Y-57742963D01*
X115440200Y-57827000D01*
X115659800Y-57827000D01*
X115862683Y-57742963D01*
X116017963Y-57587683D01*
X116102000Y-57384800D01*
X116102000Y-57165200D01*
X116017963Y-56962317D01*
X115862683Y-56807037D01*
X115659800Y-56723000D01*
X115440200Y-56723000D01*
X115237317Y-56807037D01*
X115082037Y-56962317D01*
X114998000Y-57165200D01*
X104527275Y-57165200D01*
X104602000Y-56984800D01*
X104602000Y-56765200D01*
X104517963Y-56562317D01*
X104362683Y-56407037D01*
X104159800Y-56323000D01*
X103940200Y-56323000D01*
X103737317Y-56407037D01*
X103582037Y-56562317D01*
X103498000Y-56765200D01*
X92819158Y-56765200D01*
X92817963Y-56762317D01*
X92662683Y-56607037D01*
X92459800Y-56523000D01*
X92240200Y-56523000D01*
X92037317Y-56607037D01*
X91882037Y-56762317D01*
X91798000Y-56965200D01*
X73098468Y-56965200D01*
X73735719Y-56327949D01*
X73740672Y-56315989D01*
X121023000Y-56315989D01*
X121023000Y-56824011D01*
X121217412Y-57293362D01*
X121576638Y-57652588D01*
X122029090Y-57840000D01*
X121576638Y-58027412D01*
X121217412Y-58386638D01*
X121023000Y-58855989D01*
X121023000Y-59364011D01*
X121217412Y-59833362D01*
X121576638Y-60192588D01*
X122029090Y-60380000D01*
X121576638Y-60567412D01*
X121217412Y-60926638D01*
X121023000Y-61395989D01*
X121023000Y-61904011D01*
X121217412Y-62373362D01*
X121576638Y-62732588D01*
X122029090Y-62920000D01*
X121576638Y-63107412D01*
X121217412Y-63466638D01*
X121023000Y-63935989D01*
X121023000Y-64444011D01*
X121217412Y-64913362D01*
X121576638Y-65272588D01*
X122029090Y-65460000D01*
X121576638Y-65647412D01*
X121217412Y-66006638D01*
X121023000Y-66475989D01*
X121023000Y-66984011D01*
X121217412Y-67453362D01*
X121576638Y-67812588D01*
X122029090Y-68000000D01*
X121576638Y-68187412D01*
X121217412Y-68546638D01*
X121023000Y-69015989D01*
X121023000Y-69524011D01*
X121217412Y-69993362D01*
X121576638Y-70352588D01*
X122029090Y-70540000D01*
X121576638Y-70727412D01*
X121217412Y-71086638D01*
X121023000Y-71555989D01*
X121023000Y-72064011D01*
X121217412Y-72533362D01*
X121576638Y-72892588D01*
X122029090Y-73080000D01*
X121576638Y-73267412D01*
X121217412Y-73626638D01*
X121023000Y-74095989D01*
X121023000Y-74604011D01*
X121217412Y-75073362D01*
X121576638Y-75432588D01*
X122029090Y-75620000D01*
X121576638Y-75807412D01*
X121217412Y-76166638D01*
X121023000Y-76635989D01*
X121023000Y-77144011D01*
X121217412Y-77613362D01*
X121576638Y-77972588D01*
X122029090Y-78160000D01*
X121576638Y-78347412D01*
X121217412Y-78706638D01*
X121023000Y-79175989D01*
X121023000Y-79684011D01*
X121217412Y-80153362D01*
X121576638Y-80512588D01*
X122045989Y-80707000D01*
X122554011Y-80707000D01*
X123023362Y-80512588D01*
X123382588Y-80153362D01*
X123577000Y-79684011D01*
X123577000Y-79175989D01*
X123382588Y-78706638D01*
X123023362Y-78347412D01*
X122570910Y-78160000D01*
X123023362Y-77972588D01*
X123382588Y-77613362D01*
X123577000Y-77144011D01*
X123577000Y-76635989D01*
X123382588Y-76166638D01*
X123023362Y-75807412D01*
X122570910Y-75620000D01*
X123023362Y-75432588D01*
X123382588Y-75073362D01*
X123577000Y-74604011D01*
X123577000Y-74095989D01*
X123382588Y-73626638D01*
X123023362Y-73267412D01*
X122570910Y-73080000D01*
X123023362Y-72892588D01*
X123382588Y-72533362D01*
X123577000Y-72064011D01*
X123577000Y-71555989D01*
X123382588Y-71086638D01*
X123023362Y-70727412D01*
X122570910Y-70540000D01*
X123023362Y-70352588D01*
X123382588Y-69993362D01*
X123577000Y-69524011D01*
X123577000Y-69015989D01*
X123382588Y-68546638D01*
X123023362Y-68187412D01*
X122570910Y-68000000D01*
X123023362Y-67812588D01*
X123382588Y-67453362D01*
X123577000Y-66984011D01*
X123577000Y-66475989D01*
X123382588Y-66006638D01*
X123023362Y-65647412D01*
X122570910Y-65460000D01*
X123023362Y-65272588D01*
X123382588Y-64913362D01*
X123577000Y-64444011D01*
X123577000Y-63935989D01*
X123382588Y-63466638D01*
X123023362Y-63107412D01*
X122570910Y-62920000D01*
X123023362Y-62732588D01*
X123382588Y-62373362D01*
X123577000Y-61904011D01*
X123577000Y-61395989D01*
X123382588Y-60926638D01*
X123023362Y-60567412D01*
X122570910Y-60380000D01*
X123023362Y-60192588D01*
X123382588Y-59833362D01*
X123577000Y-59364011D01*
X123577000Y-58855989D01*
X123382588Y-58386638D01*
X123023362Y-58027412D01*
X122570910Y-57840000D01*
X123023362Y-57652588D01*
X123382588Y-57293362D01*
X123577000Y-56824011D01*
X123577000Y-56315989D01*
X123382588Y-55846638D01*
X123023362Y-55487412D01*
X122554011Y-55293000D01*
X122045989Y-55293000D01*
X121576638Y-55487412D01*
X121217412Y-55846638D01*
X121023000Y-56315989D01*
X73740672Y-56315989D01*
X74227000Y-55141890D01*
X74227000Y-54615200D01*
X104798000Y-54615200D01*
X104798000Y-54834800D01*
X104882037Y-55037683D01*
X105037317Y-55192963D01*
X105240200Y-55277000D01*
X105459800Y-55277000D01*
X105608998Y-55215200D01*
X110748000Y-55215200D01*
X110748000Y-55434800D01*
X110832037Y-55637683D01*
X110987317Y-55792963D01*
X111190200Y-55877000D01*
X111409800Y-55877000D01*
X111612683Y-55792963D01*
X111767963Y-55637683D01*
X111852000Y-55434800D01*
X111852000Y-55215200D01*
X111767963Y-55012317D01*
X111612683Y-54857037D01*
X111409800Y-54773000D01*
X111190200Y-54773000D01*
X110987317Y-54857037D01*
X110832037Y-55012317D01*
X110748000Y-55215200D01*
X105608998Y-55215200D01*
X105662683Y-55192963D01*
X105817963Y-55037683D01*
X105902000Y-54834800D01*
X105902000Y-54615200D01*
X105817963Y-54412317D01*
X105662683Y-54257037D01*
X105459800Y-54173000D01*
X105240200Y-54173000D01*
X105037317Y-54257037D01*
X104882037Y-54412317D01*
X104798000Y-54615200D01*
X74227000Y-54615200D01*
X74227000Y-53858110D01*
X73735719Y-52672051D01*
X72827949Y-51764281D01*
X71953324Y-51402000D01*
X87742354Y-51402000D01*
X87632037Y-51512317D01*
G04 #@! TD*
M02*
