M48
;DRILL file {KiCad 5.0.2-bee76a0~70~ubuntu18.04.1} date Wed 30 Oct 2019 05:39:42 PM PDT
;FORMAT={-:-/ absolute / inch / decimal}
FMAT,2
INCH,TZ
T1C0.0079
T2C0.0197
T3C0.0335
T4C0.0374
T5C0.0400
T6C0.0433
T7C0.0512
T8C0.0598
T9C0.0787
%
G90
G05
T1
X2.6988Y-4.1841
X2.7008Y-3.9774
X2.7402Y-4.1742
X2.75Y-3.9065
X2.8484Y-3.9774
X2.9331Y-3.6073
X2.9547Y-3.2825
X2.9882Y-3.6545
X3.0866Y-3.6703
X3.087Y-3.3051
X3.1752Y-3.8593
X3.1752Y-3.9104
X3.1752Y-3.9616
X3.1752Y-4.0128
X3.187Y-3.3041
X3.187Y-3.6585
X3.1949Y-2.1624
X3.2382Y-3.4262
X3.2441Y-3.8061
X3.2874Y-3.6644
X3.2874Y-4.2136
X3.311Y-3.8081
X3.3366Y-3.4203
X3.378Y-3.81
X3.3878Y-3.6585
X3.4055Y-3.8593
X3.4055Y-3.8848
X3.4272Y-2.3002
X3.4311Y-2.0541
X3.4331Y-3.6644
X3.4449Y-3.81
X3.4685Y-2.0404
X3.4843Y-3.6703
X3.4843Y-4.0482
X3.5138Y-3.9813
X3.5217Y-3.6644
X3.5315Y-4.0089
X3.5335Y-3.9518
X3.5394Y-2.4813
X3.5866Y-3.31
X3.5906Y-2.4006
X3.6358Y-2.247
X3.6358Y-3.5778
X3.6791Y-3.8612
X3.6791Y-3.9104
X3.6791Y-3.9616
X3.6791Y-4.0108
X3.7717Y-3.6644
X3.7933Y-2.2648
X3.8386Y-4.0522
X3.8819Y-2.2648
X3.885Y-3.7896
X3.8878Y-3.2963
X3.9016Y-3.8907
X3.9134Y-3.94
X3.9252Y-3.1506
X3.937Y-3.6624
X3.939Y-3.0266
X3.9508Y-3.1781
X3.998Y-3.938
X4.0157Y-2.0659
X4.0531Y-3.0246
X4.0965Y-2.2392
X4.0965Y-4.1624
X4.1142Y-4.0384
X4.1476Y-2.1545
X4.1476Y-2.3219
X4.1516Y-2.0522
X4.1516Y-3.6781
X4.1594Y-2.0778
X4.187Y-2.0935
X4.1969Y-4.0699
X4.2008Y-2.2844
X4.2087Y-3.7667
X4.2205Y-2.0955
X4.2244Y-4.0384
X4.2244Y-4.1014
X4.2264Y-2.5108
X4.2461Y-2.1309
X4.25Y-2.1073
X4.3189Y-4.3297
X4.3228Y-4.0699
X4.3551Y-4.0939
X4.3583Y-3.9872
X4.3681Y-3.2963
X4.3701Y-4.1211
X4.3819Y-2.1781
X4.3878Y-3.6663
X4.4016Y-2.3219
X4.4075Y-3.94
X4.4085Y-4.1221
X4.4094Y-4.0305
X4.4245Y-4.1381
X4.4252Y-4.1722
X4.4331Y-3.9085
X4.437Y-3.2805
X4.4409Y-2.2943
X4.4409Y-3.9911
X4.4606Y-2.3179
X4.5098Y-2.0266
X4.5374Y-2.5108
X4.5374Y-3.5325
X4.5492Y-2.2549
X4.5591Y-3.2864
X4.5591Y-3.9774
X4.5827Y-3.8219
X4.5984Y-2.3179
X4.5984Y-2.4557
X4.6299Y-4.2037
X4.6378Y-4.2431
X4.6594Y-2.3337
X4.6594Y-3.3002
X4.6693Y-3.9006
X4.6929Y-4.1407
X4.7087Y-4.0856
X4.7323Y-3.9675
X4.7874Y-3.6585
X4.9075Y-2.0522
X4.9114Y-3.6762
X4.9252Y-2.0758
X4.9606Y-4.1014
X4.9803Y-4.1289
T2
X5.0472Y-3.7569
X5.0472Y-3.8061
X5.0472Y-3.8553
X5.0472Y-3.9045
X5.0472Y-3.9537
X5.0472Y-4.003
X5.0472Y-4.0522
X5.0472Y-4.1014
T3
X3.8583Y-4.2913
X3.937Y-4.2913
X3.4646Y-4.2913
X3.5433Y-4.2913
X3.0709Y-4.2913
X3.1496Y-4.2913
T4
X4.7717Y-4.2717
X4.2402Y-4.4567
X4.311Y-4.4567
X4.7874Y-4.3858
T5
X4.0157Y-4.2913
X3.622Y-4.2913
X3.2283Y-4.2913
T6
X3.278Y-3.097
X3.478Y-3.097
X4.278Y-2.397
X4.478Y-2.397
X4.478Y-3.097
T7
X4.815Y-2.2272
X4.815Y-2.3272
X4.815Y-2.4272
X4.815Y-2.5272
X4.815Y-2.6272
X4.815Y-2.7272
X4.815Y-2.8272
X4.815Y-2.9272
X4.815Y-3.0272
X4.815Y-3.1272
T8
X2.878Y-2.715
X2.878Y-2.915
T9
X3.0315Y-2.6457
X3.0315Y-2.9843
T0
M30
