M48
;DRILL file {KiCad 5.0.2-bee76a0~70~ubuntu18.04.1} date Wed 30 Oct 2019 05:39:42 PM PDT
;FORMAT={-:-/ absolute / inch / decimal}
FMAT,2
INCH,TZ
T1C0.0382
T2C0.0701
T3C0.1083
T4C0.1181
%
G90
G05
T1
X2.987Y-3.4343
X2.987Y-3.5343
X3.087Y-3.4343
X3.087Y-3.5343
X3.187Y-3.4343
X3.187Y-3.5343
X3.287Y-3.4343
X3.287Y-3.5343
X3.387Y-3.4343
X3.387Y-3.5343
X3.487Y-3.4343
X3.487Y-3.5343
X3.587Y-3.4343
X3.587Y-3.5343
X3.687Y-3.4343
X3.687Y-3.5343
X3.787Y-3.4343
X3.787Y-3.5343
X3.887Y-3.4343
X3.887Y-3.5343
X3.987Y-3.4343
X3.987Y-3.5343
X4.087Y-3.4343
X4.087Y-3.5343
X4.187Y-3.4343
X4.187Y-3.5343
X4.287Y-3.4343
X4.287Y-3.5343
X4.387Y-3.4343
X4.387Y-3.5343
X4.487Y-3.4343
X4.487Y-3.5343
X4.587Y-3.4343
X4.587Y-3.5343
X4.687Y-3.4343
X4.687Y-3.5343
X4.787Y-3.4343
X4.787Y-3.5343
X4.887Y-3.4343
X4.887Y-3.5343
T2
X3.037Y-3.4843
X4.837Y-3.4843
T3
X5.0787Y-3.4843
X2.7953Y-4.3898
X5.0787Y-4.3898
X2.7953Y-3.4843
X2.7953Y-2.1457
T4
X2.7756Y-2.5591
X2.7756Y-3.0709
T0
M30
