G04 #@! TF.GenerationSoftware,KiCad,Pcbnew,5.0.2-bee76a0~70~ubuntu18.04.1*
G04 #@! TF.CreationDate,2019-10-30T17:39:39-07:00*
G04 #@! TF.ProjectId,piweather,70697765-6174-4686-9572-2e6b69636164,rev?*
G04 #@! TF.SameCoordinates,Original*
G04 #@! TF.FileFunction,Soldermask,Bot*
G04 #@! TF.FilePolarity,Negative*
%FSLAX46Y46*%
G04 Gerber Fmt 4.6, Leading zero omitted, Abs format (unit mm)*
G04 Created by KiCad (PCBNEW 5.0.2-bee76a0~70~ubuntu18.04.1) date Wed 30 Oct 2019 05:39:39 PM PDT*
%MOMM*%
%LPD*%
G01*
G04 APERTURE LIST*
%ADD10C,0.100000*%
G04 APERTURE END LIST*
D10*
G36*
X129904235Y-108519130D02*
X130032043Y-108572070D01*
X130468401Y-108752815D01*
X130976135Y-109092072D01*
X131407928Y-109523865D01*
X131747185Y-110031599D01*
X131927930Y-110467957D01*
X131980870Y-110595765D01*
X132100000Y-111194675D01*
X132100000Y-111805325D01*
X131980870Y-112404235D01*
X131980869Y-112404237D01*
X131747185Y-112968401D01*
X131407928Y-113476135D01*
X130976135Y-113907928D01*
X130468401Y-114247185D01*
X130032043Y-114427930D01*
X129904235Y-114480870D01*
X129305325Y-114600000D01*
X128694675Y-114600000D01*
X128095765Y-114480870D01*
X127967957Y-114427930D01*
X127531599Y-114247185D01*
X127023865Y-113907928D01*
X126592072Y-113476135D01*
X126252815Y-112968401D01*
X126019131Y-112404237D01*
X126019130Y-112404235D01*
X125900000Y-111805325D01*
X125900000Y-111194675D01*
X126019130Y-110595765D01*
X126072070Y-110467957D01*
X126252815Y-110031599D01*
X126592072Y-109523865D01*
X127023865Y-109092072D01*
X127531599Y-108752815D01*
X127967957Y-108572070D01*
X128095765Y-108519130D01*
X128694675Y-108400000D01*
X129305325Y-108400000D01*
X129904235Y-108519130D01*
X129904235Y-108519130D01*
G37*
G36*
X71904235Y-108519130D02*
X72032043Y-108572070D01*
X72468401Y-108752815D01*
X72976135Y-109092072D01*
X73407928Y-109523865D01*
X73747185Y-110031599D01*
X73927930Y-110467957D01*
X73980870Y-110595765D01*
X74100000Y-111194675D01*
X74100000Y-111805325D01*
X73980870Y-112404235D01*
X73980869Y-112404237D01*
X73747185Y-112968401D01*
X73407928Y-113476135D01*
X72976135Y-113907928D01*
X72468401Y-114247185D01*
X72032043Y-114427930D01*
X71904235Y-114480870D01*
X71305325Y-114600000D01*
X70694675Y-114600000D01*
X70095765Y-114480870D01*
X69967957Y-114427930D01*
X69531599Y-114247185D01*
X69023865Y-113907928D01*
X68592072Y-113476135D01*
X68252815Y-112968401D01*
X68019131Y-112404237D01*
X68019130Y-112404235D01*
X67900000Y-111805325D01*
X67900000Y-111194675D01*
X68019130Y-110595765D01*
X68072070Y-110467957D01*
X68252815Y-110031599D01*
X68592072Y-109523865D01*
X69023865Y-109092072D01*
X69531599Y-108752815D01*
X69967957Y-108572070D01*
X70095765Y-108519130D01*
X70694675Y-108400000D01*
X71305325Y-108400000D01*
X71904235Y-108519130D01*
X71904235Y-108519130D01*
G37*
G36*
X107918765Y-112478821D02*
X108055261Y-112535360D01*
X108178096Y-112617435D01*
X108282565Y-112721904D01*
X108364640Y-112844739D01*
X108421179Y-112981235D01*
X108450000Y-113126130D01*
X108450000Y-113273870D01*
X108421179Y-113418765D01*
X108364640Y-113555261D01*
X108282565Y-113678096D01*
X108178096Y-113782565D01*
X108055261Y-113864640D01*
X107918765Y-113921179D01*
X107773870Y-113950000D01*
X107626130Y-113950000D01*
X107481235Y-113921179D01*
X107344739Y-113864640D01*
X107221904Y-113782565D01*
X107117435Y-113678096D01*
X107035360Y-113555261D01*
X106978821Y-113418765D01*
X106950000Y-113273870D01*
X106950000Y-113126130D01*
X106978821Y-112981235D01*
X107035360Y-112844739D01*
X107117435Y-112721904D01*
X107221904Y-112617435D01*
X107344739Y-112535360D01*
X107481235Y-112478821D01*
X107626130Y-112450000D01*
X107773870Y-112450000D01*
X107918765Y-112478821D01*
X107918765Y-112478821D01*
G37*
G36*
X109718765Y-112478821D02*
X109855261Y-112535360D01*
X109978096Y-112617435D01*
X110082565Y-112721904D01*
X110164640Y-112844739D01*
X110221179Y-112981235D01*
X110250000Y-113126130D01*
X110250000Y-113273870D01*
X110221179Y-113418765D01*
X110164640Y-113555261D01*
X110082565Y-113678096D01*
X109978096Y-113782565D01*
X109855261Y-113864640D01*
X109718765Y-113921179D01*
X109573870Y-113950000D01*
X109426130Y-113950000D01*
X109281235Y-113921179D01*
X109144739Y-113864640D01*
X109021904Y-113782565D01*
X108917435Y-113678096D01*
X108835360Y-113555261D01*
X108778821Y-113418765D01*
X108750000Y-113273870D01*
X108750000Y-113126130D01*
X108778821Y-112981235D01*
X108835360Y-112844739D01*
X108917435Y-112721904D01*
X109021904Y-112617435D01*
X109144739Y-112535360D01*
X109281235Y-112478821D01*
X109426130Y-112450000D01*
X109573870Y-112450000D01*
X109718765Y-112478821D01*
X109718765Y-112478821D01*
G37*
G36*
X121818765Y-110678821D02*
X121955261Y-110735360D01*
X122078096Y-110817435D01*
X122182565Y-110921904D01*
X122264640Y-111044739D01*
X122321179Y-111181235D01*
X122350000Y-111326130D01*
X122350000Y-111473870D01*
X122321179Y-111618765D01*
X122264640Y-111755261D01*
X122182565Y-111878096D01*
X122078096Y-111982565D01*
X121955261Y-112064640D01*
X121818765Y-112121179D01*
X121673870Y-112150000D01*
X121526130Y-112150000D01*
X121381235Y-112121179D01*
X121244739Y-112064640D01*
X121121904Y-111982565D01*
X121017435Y-111878096D01*
X120935360Y-111755261D01*
X120878821Y-111618765D01*
X120850000Y-111473870D01*
X120850000Y-111326130D01*
X120878821Y-111181235D01*
X120935360Y-111044739D01*
X121017435Y-110921904D01*
X121121904Y-110817435D01*
X121244739Y-110735360D01*
X121381235Y-110678821D01*
X121526130Y-110650000D01*
X121673870Y-110650000D01*
X121818765Y-110678821D01*
X121818765Y-110678821D01*
G37*
G36*
X80166628Y-108012299D02*
X80277355Y-108045888D01*
X80326854Y-108060903D01*
X80400686Y-108100367D01*
X80474519Y-108139832D01*
X80603946Y-108246049D01*
X80710170Y-108375483D01*
X80760309Y-108469288D01*
X80789097Y-108523145D01*
X80800409Y-108560437D01*
X80837701Y-108683371D01*
X80850000Y-108808247D01*
X80850000Y-109191752D01*
X80837701Y-109316628D01*
X80804264Y-109426854D01*
X80789097Y-109476855D01*
X80763970Y-109523864D01*
X80710170Y-109624517D01*
X80603948Y-109753948D01*
X80474517Y-109860170D01*
X80380712Y-109910309D01*
X80326855Y-109939097D01*
X80289563Y-109950409D01*
X80166629Y-109987701D01*
X80000000Y-110004112D01*
X79833372Y-109987701D01*
X79710438Y-109950409D01*
X79673146Y-109939097D01*
X79599314Y-109899633D01*
X79525481Y-109860168D01*
X79396054Y-109753951D01*
X79289830Y-109624517D01*
X79236030Y-109523864D01*
X79210903Y-109476855D01*
X79195736Y-109426854D01*
X79162299Y-109316629D01*
X79150000Y-109191753D01*
X79150000Y-108808248D01*
X79162299Y-108683372D01*
X79210903Y-108523147D01*
X79210903Y-108523146D01*
X79262760Y-108426130D01*
X79289832Y-108375481D01*
X79396049Y-108246054D01*
X79525483Y-108139830D01*
X79619288Y-108089691D01*
X79673145Y-108060903D01*
X79722644Y-108045888D01*
X79833371Y-108012299D01*
X80000000Y-107995888D01*
X80166628Y-108012299D01*
X80166628Y-108012299D01*
G37*
G36*
X90166628Y-108012299D02*
X90277355Y-108045888D01*
X90326854Y-108060903D01*
X90400686Y-108100367D01*
X90474519Y-108139832D01*
X90603946Y-108246049D01*
X90710170Y-108375483D01*
X90760309Y-108469288D01*
X90789097Y-108523145D01*
X90800409Y-108560437D01*
X90837701Y-108683371D01*
X90850000Y-108808247D01*
X90850000Y-109191752D01*
X90837701Y-109316628D01*
X90804264Y-109426854D01*
X90789097Y-109476855D01*
X90763970Y-109523864D01*
X90710170Y-109624517D01*
X90603948Y-109753948D01*
X90474517Y-109860170D01*
X90380712Y-109910309D01*
X90326855Y-109939097D01*
X90289563Y-109950409D01*
X90166629Y-109987701D01*
X90000000Y-110004112D01*
X89833372Y-109987701D01*
X89710438Y-109950409D01*
X89673146Y-109939097D01*
X89599314Y-109899633D01*
X89525481Y-109860168D01*
X89396054Y-109753951D01*
X89289830Y-109624517D01*
X89236030Y-109523864D01*
X89210903Y-109476855D01*
X89195736Y-109426854D01*
X89162299Y-109316629D01*
X89150000Y-109191753D01*
X89150000Y-108808248D01*
X89162299Y-108683372D01*
X89210903Y-108523147D01*
X89210903Y-108523146D01*
X89262760Y-108426130D01*
X89289832Y-108375481D01*
X89396049Y-108246054D01*
X89525483Y-108139830D01*
X89619288Y-108089691D01*
X89673145Y-108060903D01*
X89722644Y-108045888D01*
X89833371Y-108012299D01*
X90000000Y-107995888D01*
X90166628Y-108012299D01*
X90166628Y-108012299D01*
G37*
G36*
X100166628Y-108012299D02*
X100277355Y-108045888D01*
X100326854Y-108060903D01*
X100400686Y-108100367D01*
X100474519Y-108139832D01*
X100603946Y-108246049D01*
X100710170Y-108375483D01*
X100760309Y-108469288D01*
X100789097Y-108523145D01*
X100800409Y-108560437D01*
X100837701Y-108683371D01*
X100850000Y-108808247D01*
X100850000Y-109191752D01*
X100837701Y-109316628D01*
X100804264Y-109426854D01*
X100789097Y-109476855D01*
X100763970Y-109523864D01*
X100710170Y-109624517D01*
X100603948Y-109753948D01*
X100474517Y-109860170D01*
X100380712Y-109910309D01*
X100326855Y-109939097D01*
X100289563Y-109950409D01*
X100166629Y-109987701D01*
X100000000Y-110004112D01*
X99833372Y-109987701D01*
X99710438Y-109950409D01*
X99673146Y-109939097D01*
X99599314Y-109899633D01*
X99525481Y-109860168D01*
X99396054Y-109753951D01*
X99289830Y-109624517D01*
X99236030Y-109523864D01*
X99210903Y-109476855D01*
X99195736Y-109426854D01*
X99162299Y-109316629D01*
X99150000Y-109191753D01*
X99150000Y-108808248D01*
X99162299Y-108683372D01*
X99210903Y-108523147D01*
X99210903Y-108523146D01*
X99262760Y-108426130D01*
X99289832Y-108375481D01*
X99396049Y-108246054D01*
X99525483Y-108139830D01*
X99619288Y-108089691D01*
X99673145Y-108060903D01*
X99722644Y-108045888D01*
X99833371Y-108012299D01*
X100000000Y-107995888D01*
X100166628Y-108012299D01*
X100166628Y-108012299D01*
G37*
G36*
X88850000Y-110000000D02*
X87150000Y-110000000D01*
X87150000Y-108000000D01*
X88850000Y-108000000D01*
X88850000Y-110000000D01*
X88850000Y-110000000D01*
G37*
G36*
X98850000Y-110000000D02*
X97150000Y-110000000D01*
X97150000Y-108000000D01*
X98850000Y-108000000D01*
X98850000Y-110000000D01*
X98850000Y-110000000D01*
G37*
G36*
X78850000Y-110000000D02*
X77150000Y-110000000D01*
X77150000Y-108000000D01*
X78850000Y-108000000D01*
X78850000Y-110000000D01*
X78850000Y-110000000D01*
G37*
G36*
X102166628Y-108062299D02*
X102289562Y-108099591D01*
X102326854Y-108110903D01*
X102400686Y-108150367D01*
X102474519Y-108189832D01*
X102603946Y-108296049D01*
X102710170Y-108425483D01*
X102760225Y-108519130D01*
X102789097Y-108573145D01*
X102789317Y-108573870D01*
X102837701Y-108733371D01*
X102850000Y-108858247D01*
X102850000Y-109141752D01*
X102837701Y-109266628D01*
X102822533Y-109316629D01*
X102789097Y-109426855D01*
X102762372Y-109476854D01*
X102710170Y-109574517D01*
X102603948Y-109703948D01*
X102474517Y-109810170D01*
X102380977Y-109860168D01*
X102326855Y-109889097D01*
X102289563Y-109900409D01*
X102166629Y-109937701D01*
X102000000Y-109954112D01*
X101833372Y-109937701D01*
X101710438Y-109900409D01*
X101673146Y-109889097D01*
X101599314Y-109849633D01*
X101525481Y-109810168D01*
X101396054Y-109703951D01*
X101289830Y-109574517D01*
X101237628Y-109476854D01*
X101210903Y-109426855D01*
X101199591Y-109389563D01*
X101162299Y-109266629D01*
X101150000Y-109141753D01*
X101150000Y-108858248D01*
X101162299Y-108733372D01*
X101199591Y-108610438D01*
X101210903Y-108573146D01*
X101289485Y-108426131D01*
X101289832Y-108425481D01*
X101396049Y-108296054D01*
X101525483Y-108189830D01*
X101619288Y-108139691D01*
X101673145Y-108110903D01*
X101710437Y-108099591D01*
X101833371Y-108062299D01*
X102000000Y-108045888D01*
X102166628Y-108062299D01*
X102166628Y-108062299D01*
G37*
G36*
X92166628Y-108062299D02*
X92289562Y-108099591D01*
X92326854Y-108110903D01*
X92400686Y-108150367D01*
X92474519Y-108189832D01*
X92603946Y-108296049D01*
X92710170Y-108425483D01*
X92760225Y-108519130D01*
X92789097Y-108573145D01*
X92789317Y-108573870D01*
X92837701Y-108733371D01*
X92850000Y-108858247D01*
X92850000Y-109141752D01*
X92837701Y-109266628D01*
X92822533Y-109316629D01*
X92789097Y-109426855D01*
X92762372Y-109476854D01*
X92710170Y-109574517D01*
X92603948Y-109703948D01*
X92474517Y-109810170D01*
X92380977Y-109860168D01*
X92326855Y-109889097D01*
X92289563Y-109900409D01*
X92166629Y-109937701D01*
X92000000Y-109954112D01*
X91833372Y-109937701D01*
X91710438Y-109900409D01*
X91673146Y-109889097D01*
X91599314Y-109849633D01*
X91525481Y-109810168D01*
X91396054Y-109703951D01*
X91289830Y-109574517D01*
X91237628Y-109476854D01*
X91210903Y-109426855D01*
X91199591Y-109389563D01*
X91162299Y-109266629D01*
X91150000Y-109141753D01*
X91150000Y-108858248D01*
X91162299Y-108733372D01*
X91199591Y-108610438D01*
X91210903Y-108573146D01*
X91289485Y-108426131D01*
X91289832Y-108425481D01*
X91396049Y-108296054D01*
X91525483Y-108189830D01*
X91619288Y-108139691D01*
X91673145Y-108110903D01*
X91710437Y-108099591D01*
X91833371Y-108062299D01*
X92000000Y-108045888D01*
X92166628Y-108062299D01*
X92166628Y-108062299D01*
G37*
G36*
X82166628Y-108062299D02*
X82289562Y-108099591D01*
X82326854Y-108110903D01*
X82400686Y-108150367D01*
X82474519Y-108189832D01*
X82603946Y-108296049D01*
X82710170Y-108425483D01*
X82760225Y-108519130D01*
X82789097Y-108573145D01*
X82789317Y-108573870D01*
X82837701Y-108733371D01*
X82850000Y-108858247D01*
X82850000Y-109141752D01*
X82837701Y-109266628D01*
X82822533Y-109316629D01*
X82789097Y-109426855D01*
X82762372Y-109476854D01*
X82710170Y-109574517D01*
X82603948Y-109703948D01*
X82474517Y-109810170D01*
X82380977Y-109860168D01*
X82326855Y-109889097D01*
X82289563Y-109900409D01*
X82166629Y-109937701D01*
X82000000Y-109954112D01*
X81833372Y-109937701D01*
X81710438Y-109900409D01*
X81673146Y-109889097D01*
X81599314Y-109849633D01*
X81525481Y-109810168D01*
X81396054Y-109703951D01*
X81289830Y-109574517D01*
X81237628Y-109476854D01*
X81210903Y-109426855D01*
X81199591Y-109389563D01*
X81162299Y-109266629D01*
X81150000Y-109141753D01*
X81150000Y-108858248D01*
X81162299Y-108733372D01*
X81199591Y-108610438D01*
X81210903Y-108573146D01*
X81289485Y-108426131D01*
X81289832Y-108425481D01*
X81396049Y-108296054D01*
X81525483Y-108189830D01*
X81619288Y-108139691D01*
X81673145Y-108110903D01*
X81710437Y-108099591D01*
X81833371Y-108062299D01*
X82000000Y-108045888D01*
X82166628Y-108062299D01*
X82166628Y-108062299D01*
G37*
G36*
X121418765Y-107778821D02*
X121555261Y-107835360D01*
X121678096Y-107917435D01*
X121782565Y-108021904D01*
X121864640Y-108144739D01*
X121921179Y-108281235D01*
X121950000Y-108426130D01*
X121950000Y-108573870D01*
X121921179Y-108718765D01*
X121864640Y-108855261D01*
X121782565Y-108978096D01*
X121678096Y-109082565D01*
X121555261Y-109164640D01*
X121418765Y-109221179D01*
X121273870Y-109250000D01*
X121126130Y-109250000D01*
X120981235Y-109221179D01*
X120844739Y-109164640D01*
X120721904Y-109082565D01*
X120617435Y-108978096D01*
X120535360Y-108855261D01*
X120478821Y-108718765D01*
X120450000Y-108573870D01*
X120450000Y-108426130D01*
X120478821Y-108281235D01*
X120535360Y-108144739D01*
X120617435Y-108021904D01*
X120721904Y-107917435D01*
X120844739Y-107835360D01*
X120981235Y-107778821D01*
X121126130Y-107750000D01*
X121273870Y-107750000D01*
X121418765Y-107778821D01*
X121418765Y-107778821D01*
G37*
G36*
X128345843Y-103694214D02*
X128345846Y-103694215D01*
X128345845Y-103694215D01*
X128436839Y-103731906D01*
X128491311Y-103768303D01*
X128518733Y-103786626D01*
X128588374Y-103856267D01*
X128588375Y-103856269D01*
X128643094Y-103938161D01*
X128643094Y-103938162D01*
X128680786Y-104029157D01*
X128700000Y-104125753D01*
X128700000Y-104224247D01*
X128680786Y-104320843D01*
X128680785Y-104320845D01*
X128643094Y-104411839D01*
X128606697Y-104466311D01*
X128588374Y-104493733D01*
X128518733Y-104563374D01*
X128491311Y-104581697D01*
X128436839Y-104618094D01*
X128372495Y-104644746D01*
X128345843Y-104655786D01*
X128249247Y-104675000D01*
X128150753Y-104675000D01*
X128054157Y-104655786D01*
X128027505Y-104644746D01*
X127963161Y-104618094D01*
X127908689Y-104581697D01*
X127881267Y-104563374D01*
X127811626Y-104493733D01*
X127793303Y-104466311D01*
X127756906Y-104411839D01*
X127719215Y-104320845D01*
X127719214Y-104320843D01*
X127700000Y-104224247D01*
X127700000Y-104125753D01*
X127719214Y-104029157D01*
X127756906Y-103938162D01*
X127756906Y-103938161D01*
X127811625Y-103856269D01*
X127811626Y-103856267D01*
X127881267Y-103786626D01*
X127908689Y-103768303D01*
X127963161Y-103731906D01*
X128054155Y-103694215D01*
X128054154Y-103694215D01*
X128054157Y-103694214D01*
X128150753Y-103675000D01*
X128249247Y-103675000D01*
X128345843Y-103694214D01*
X128345843Y-103694214D01*
G37*
G36*
X128345843Y-102444214D02*
X128345846Y-102444215D01*
X128345845Y-102444215D01*
X128436839Y-102481906D01*
X128491311Y-102518303D01*
X128518733Y-102536626D01*
X128588374Y-102606267D01*
X128588375Y-102606269D01*
X128643094Y-102688161D01*
X128643094Y-102688162D01*
X128680786Y-102779157D01*
X128700000Y-102875753D01*
X128700000Y-102974247D01*
X128680786Y-103070843D01*
X128680785Y-103070845D01*
X128643094Y-103161839D01*
X128606697Y-103216311D01*
X128588374Y-103243733D01*
X128518733Y-103313374D01*
X128491311Y-103331697D01*
X128436839Y-103368094D01*
X128372495Y-103394746D01*
X128345843Y-103405786D01*
X128249247Y-103425000D01*
X128150753Y-103425000D01*
X128054157Y-103405786D01*
X128027505Y-103394746D01*
X127963161Y-103368094D01*
X127908689Y-103331697D01*
X127881267Y-103313374D01*
X127811626Y-103243733D01*
X127793303Y-103216311D01*
X127756906Y-103161839D01*
X127719215Y-103070845D01*
X127719214Y-103070843D01*
X127700000Y-102974247D01*
X127700000Y-102875753D01*
X127719214Y-102779157D01*
X127756906Y-102688162D01*
X127756906Y-102688161D01*
X127811625Y-102606269D01*
X127811626Y-102606267D01*
X127881267Y-102536626D01*
X127908689Y-102518303D01*
X127963161Y-102481906D01*
X128054155Y-102444215D01*
X128054154Y-102444215D01*
X128054157Y-102444214D01*
X128150753Y-102425000D01*
X128249247Y-102425000D01*
X128345843Y-102444214D01*
X128345843Y-102444214D01*
G37*
G36*
X128345843Y-101194214D02*
X128345846Y-101194215D01*
X128345845Y-101194215D01*
X128436839Y-101231906D01*
X128491311Y-101268303D01*
X128518733Y-101286626D01*
X128588374Y-101356267D01*
X128588375Y-101356269D01*
X128643094Y-101438161D01*
X128643094Y-101438162D01*
X128680786Y-101529157D01*
X128700000Y-101625753D01*
X128700000Y-101724247D01*
X128680786Y-101820843D01*
X128680785Y-101820845D01*
X128643094Y-101911839D01*
X128606697Y-101966311D01*
X128588374Y-101993733D01*
X128518733Y-102063374D01*
X128491311Y-102081697D01*
X128436839Y-102118094D01*
X128372495Y-102144746D01*
X128345843Y-102155786D01*
X128249247Y-102175000D01*
X128150753Y-102175000D01*
X128054157Y-102155786D01*
X128027505Y-102144746D01*
X127963161Y-102118094D01*
X127908689Y-102081697D01*
X127881267Y-102063374D01*
X127811626Y-101993733D01*
X127793303Y-101966311D01*
X127756906Y-101911839D01*
X127719215Y-101820845D01*
X127719214Y-101820843D01*
X127700000Y-101724247D01*
X127700000Y-101625753D01*
X127719214Y-101529157D01*
X127756906Y-101438162D01*
X127756906Y-101438161D01*
X127811625Y-101356269D01*
X127811626Y-101356267D01*
X127881267Y-101286626D01*
X127908689Y-101268303D01*
X127963161Y-101231906D01*
X128054155Y-101194215D01*
X128054154Y-101194215D01*
X128054157Y-101194214D01*
X128150753Y-101175000D01*
X128249247Y-101175000D01*
X128345843Y-101194214D01*
X128345843Y-101194214D01*
G37*
G36*
X128345843Y-99944214D02*
X128345846Y-99944215D01*
X128345845Y-99944215D01*
X128436839Y-99981906D01*
X128491311Y-100018303D01*
X128518733Y-100036626D01*
X128588374Y-100106267D01*
X128588375Y-100106269D01*
X128643094Y-100188161D01*
X128643094Y-100188162D01*
X128680786Y-100279157D01*
X128700000Y-100375753D01*
X128700000Y-100474247D01*
X128680786Y-100570843D01*
X128680785Y-100570845D01*
X128643094Y-100661839D01*
X128606697Y-100716311D01*
X128588374Y-100743733D01*
X128518733Y-100813374D01*
X128491311Y-100831697D01*
X128436839Y-100868094D01*
X128372495Y-100894746D01*
X128345843Y-100905786D01*
X128249247Y-100925000D01*
X128150753Y-100925000D01*
X128054157Y-100905786D01*
X128027505Y-100894746D01*
X127963161Y-100868094D01*
X127908689Y-100831697D01*
X127881267Y-100813374D01*
X127811626Y-100743733D01*
X127793303Y-100716311D01*
X127756906Y-100661839D01*
X127719215Y-100570845D01*
X127719214Y-100570843D01*
X127700000Y-100474247D01*
X127700000Y-100375753D01*
X127719214Y-100279157D01*
X127756906Y-100188162D01*
X127756906Y-100188161D01*
X127811625Y-100106269D01*
X127811626Y-100106267D01*
X127881267Y-100036626D01*
X127908689Y-100018303D01*
X127963161Y-99981906D01*
X128054155Y-99944215D01*
X128054154Y-99944215D01*
X128054157Y-99944214D01*
X128150753Y-99925000D01*
X128249247Y-99925000D01*
X128345843Y-99944214D01*
X128345843Y-99944214D01*
G37*
G36*
X128345843Y-98694214D02*
X128345846Y-98694215D01*
X128345845Y-98694215D01*
X128436839Y-98731906D01*
X128491311Y-98768303D01*
X128518733Y-98786626D01*
X128588374Y-98856267D01*
X128588375Y-98856269D01*
X128643094Y-98938161D01*
X128643094Y-98938162D01*
X128680786Y-99029157D01*
X128700000Y-99125753D01*
X128700000Y-99224247D01*
X128680786Y-99320843D01*
X128680785Y-99320845D01*
X128643094Y-99411839D01*
X128606697Y-99466311D01*
X128588374Y-99493733D01*
X128518733Y-99563374D01*
X128491311Y-99581697D01*
X128436839Y-99618094D01*
X128372495Y-99644746D01*
X128345843Y-99655786D01*
X128249247Y-99675000D01*
X128150753Y-99675000D01*
X128054157Y-99655786D01*
X128027505Y-99644746D01*
X127963161Y-99618094D01*
X127908689Y-99581697D01*
X127881267Y-99563374D01*
X127811626Y-99493733D01*
X127793303Y-99466311D01*
X127756906Y-99411839D01*
X127719215Y-99320845D01*
X127719214Y-99320843D01*
X127700000Y-99224247D01*
X127700000Y-99125753D01*
X127719214Y-99029157D01*
X127756906Y-98938162D01*
X127756906Y-98938161D01*
X127811625Y-98856269D01*
X127811626Y-98856267D01*
X127881267Y-98786626D01*
X127908689Y-98768303D01*
X127963161Y-98731906D01*
X128054155Y-98694215D01*
X128054154Y-98694215D01*
X128054157Y-98694214D01*
X128150753Y-98675000D01*
X128249247Y-98675000D01*
X128345843Y-98694214D01*
X128345843Y-98694214D01*
G37*
G36*
X128345843Y-97444214D02*
X128345846Y-97444215D01*
X128345845Y-97444215D01*
X128436839Y-97481906D01*
X128491311Y-97518303D01*
X128518733Y-97536626D01*
X128588374Y-97606267D01*
X128588375Y-97606269D01*
X128643094Y-97688161D01*
X128643094Y-97688162D01*
X128680786Y-97779157D01*
X128700000Y-97875753D01*
X128700000Y-97974247D01*
X128680786Y-98070843D01*
X128680785Y-98070845D01*
X128643094Y-98161839D01*
X128606697Y-98216311D01*
X128588374Y-98243733D01*
X128518733Y-98313374D01*
X128491311Y-98331697D01*
X128436839Y-98368094D01*
X128372495Y-98394746D01*
X128345843Y-98405786D01*
X128249247Y-98425000D01*
X128150753Y-98425000D01*
X128054157Y-98405786D01*
X128027505Y-98394746D01*
X127963161Y-98368094D01*
X127908689Y-98331697D01*
X127881267Y-98313374D01*
X127811626Y-98243733D01*
X127793303Y-98216311D01*
X127756906Y-98161839D01*
X127719215Y-98070845D01*
X127719214Y-98070843D01*
X127700000Y-97974247D01*
X127700000Y-97875753D01*
X127719214Y-97779157D01*
X127756906Y-97688162D01*
X127756906Y-97688161D01*
X127811625Y-97606269D01*
X127811626Y-97606267D01*
X127881267Y-97536626D01*
X127908689Y-97518303D01*
X127963161Y-97481906D01*
X128054155Y-97444215D01*
X128054154Y-97444215D01*
X128054157Y-97444214D01*
X128150753Y-97425000D01*
X128249247Y-97425000D01*
X128345843Y-97444214D01*
X128345843Y-97444214D01*
G37*
G36*
X128345843Y-96194214D02*
X128345846Y-96194215D01*
X128345845Y-96194215D01*
X128436839Y-96231906D01*
X128491311Y-96268303D01*
X128518733Y-96286626D01*
X128588374Y-96356267D01*
X128588375Y-96356269D01*
X128643094Y-96438161D01*
X128643094Y-96438162D01*
X128680786Y-96529157D01*
X128700000Y-96625753D01*
X128700000Y-96724247D01*
X128680786Y-96820843D01*
X128680785Y-96820845D01*
X128643094Y-96911839D01*
X128606697Y-96966311D01*
X128588374Y-96993733D01*
X128518733Y-97063374D01*
X128491311Y-97081697D01*
X128436839Y-97118094D01*
X128372495Y-97144746D01*
X128345843Y-97155786D01*
X128249247Y-97175000D01*
X128150753Y-97175000D01*
X128054157Y-97155786D01*
X128027505Y-97144746D01*
X127963161Y-97118094D01*
X127908689Y-97081697D01*
X127881267Y-97063374D01*
X127811626Y-96993733D01*
X127793303Y-96966311D01*
X127756906Y-96911839D01*
X127719215Y-96820845D01*
X127719214Y-96820843D01*
X127700000Y-96724247D01*
X127700000Y-96625753D01*
X127719214Y-96529157D01*
X127756906Y-96438162D01*
X127756906Y-96438161D01*
X127811625Y-96356269D01*
X127811626Y-96356267D01*
X127881267Y-96286626D01*
X127908689Y-96268303D01*
X127963161Y-96231906D01*
X128054155Y-96194215D01*
X128054154Y-96194215D01*
X128054157Y-96194214D01*
X128150753Y-96175000D01*
X128249247Y-96175000D01*
X128345843Y-96194214D01*
X128345843Y-96194214D01*
G37*
G36*
X128345843Y-94944214D02*
X128345846Y-94944215D01*
X128345845Y-94944215D01*
X128436839Y-94981906D01*
X128491311Y-95018303D01*
X128518733Y-95036626D01*
X128588374Y-95106267D01*
X128588375Y-95106269D01*
X128643094Y-95188161D01*
X128643094Y-95188162D01*
X128680786Y-95279157D01*
X128700000Y-95375753D01*
X128700000Y-95474247D01*
X128680786Y-95570843D01*
X128680785Y-95570845D01*
X128643094Y-95661839D01*
X128606697Y-95716311D01*
X128588374Y-95743733D01*
X128518733Y-95813374D01*
X128491311Y-95831697D01*
X128436839Y-95868094D01*
X128372495Y-95894746D01*
X128345843Y-95905786D01*
X128249247Y-95925000D01*
X128150753Y-95925000D01*
X128054157Y-95905786D01*
X128027505Y-95894746D01*
X127963161Y-95868094D01*
X127908689Y-95831697D01*
X127881267Y-95813374D01*
X127811626Y-95743733D01*
X127793303Y-95716311D01*
X127756906Y-95661839D01*
X127719215Y-95570845D01*
X127719214Y-95570843D01*
X127700000Y-95474247D01*
X127700000Y-95375753D01*
X127719214Y-95279157D01*
X127756906Y-95188162D01*
X127756906Y-95188161D01*
X127811625Y-95106269D01*
X127811626Y-95106267D01*
X127881267Y-95036626D01*
X127908689Y-95018303D01*
X127963161Y-94981906D01*
X128054155Y-94944215D01*
X128054154Y-94944215D01*
X128054157Y-94944214D01*
X128150753Y-94925000D01*
X128249247Y-94925000D01*
X128345843Y-94944214D01*
X128345843Y-94944214D01*
G37*
G36*
X71904235Y-85519130D02*
X71904238Y-85519131D01*
X71904237Y-85519131D01*
X72468401Y-85752815D01*
X72976135Y-86092072D01*
X73407928Y-86523865D01*
X73747185Y-87031599D01*
X73805499Y-87172382D01*
X73980870Y-87595765D01*
X74100000Y-88194675D01*
X74100000Y-88805325D01*
X73980870Y-89404235D01*
X73944144Y-89492900D01*
X73747185Y-89968401D01*
X73407928Y-90476135D01*
X72976135Y-90907928D01*
X72468401Y-91247185D01*
X72032043Y-91427930D01*
X71904235Y-91480870D01*
X71305325Y-91600000D01*
X70694675Y-91600000D01*
X70095765Y-91480870D01*
X69967957Y-91427930D01*
X69531599Y-91247185D01*
X69023865Y-90907928D01*
X68592072Y-90476135D01*
X68252815Y-89968401D01*
X68055856Y-89492900D01*
X68019130Y-89404235D01*
X67900000Y-88805325D01*
X67900000Y-88194675D01*
X68019130Y-87595765D01*
X68194501Y-87172382D01*
X68252815Y-87031599D01*
X68592072Y-86523865D01*
X69023865Y-86092072D01*
X69531599Y-85752815D01*
X70095763Y-85519131D01*
X70095762Y-85519131D01*
X70095765Y-85519130D01*
X70694675Y-85400000D01*
X71305325Y-85400000D01*
X71904235Y-85519130D01*
X71904235Y-85519130D01*
G37*
G36*
X129904235Y-85519130D02*
X129904238Y-85519131D01*
X129904237Y-85519131D01*
X130468401Y-85752815D01*
X130976135Y-86092072D01*
X131407928Y-86523865D01*
X131747185Y-87031599D01*
X131805499Y-87172382D01*
X131980870Y-87595765D01*
X132100000Y-88194675D01*
X132100000Y-88805325D01*
X131980870Y-89404235D01*
X131944144Y-89492900D01*
X131747185Y-89968401D01*
X131407928Y-90476135D01*
X130976135Y-90907928D01*
X130468401Y-91247185D01*
X130032043Y-91427930D01*
X129904235Y-91480870D01*
X129305325Y-91600000D01*
X128694675Y-91600000D01*
X128095765Y-91480870D01*
X127967957Y-91427930D01*
X127531599Y-91247185D01*
X127023865Y-90907928D01*
X126592072Y-90476135D01*
X126252815Y-89968401D01*
X126055856Y-89492900D01*
X126019130Y-89404235D01*
X125900000Y-88805325D01*
X125900000Y-88194675D01*
X126019130Y-87595765D01*
X126194501Y-87172382D01*
X126252815Y-87031599D01*
X126592072Y-86523865D01*
X127023865Y-86092072D01*
X127531599Y-85752815D01*
X128095763Y-85519131D01*
X128095762Y-85519131D01*
X128095765Y-85519130D01*
X128694675Y-85400000D01*
X129305325Y-85400000D01*
X129904235Y-85519130D01*
X129904235Y-85519130D01*
G37*
G36*
X119220638Y-89207481D02*
X119327102Y-89251579D01*
X119422916Y-89315600D01*
X119504400Y-89397084D01*
X119568421Y-89492898D01*
X119612519Y-89599362D01*
X119635000Y-89712382D01*
X119635000Y-89827618D01*
X119612519Y-89940638D01*
X119568421Y-90047102D01*
X119504400Y-90142916D01*
X119422916Y-90224400D01*
X119327102Y-90288421D01*
X119220638Y-90332519D01*
X119107618Y-90355000D01*
X118992382Y-90355000D01*
X118879362Y-90332519D01*
X118772898Y-90288421D01*
X118677084Y-90224400D01*
X118595600Y-90142916D01*
X118531579Y-90047102D01*
X118487481Y-89940638D01*
X118465000Y-89827618D01*
X118465000Y-89712382D01*
X118487481Y-89599362D01*
X118531579Y-89492898D01*
X118595600Y-89397084D01*
X118677084Y-89315600D01*
X118772898Y-89251579D01*
X118879362Y-89207481D01*
X118992382Y-89185000D01*
X119107618Y-89185000D01*
X119220638Y-89207481D01*
X119220638Y-89207481D01*
G37*
G36*
X121760638Y-89207481D02*
X121867102Y-89251579D01*
X121962916Y-89315600D01*
X122044400Y-89397084D01*
X122108421Y-89492898D01*
X122152519Y-89599362D01*
X122175000Y-89712382D01*
X122175000Y-89827618D01*
X122152519Y-89940638D01*
X122108421Y-90047102D01*
X122044400Y-90142916D01*
X121962916Y-90224400D01*
X121867102Y-90288421D01*
X121760638Y-90332519D01*
X121647618Y-90355000D01*
X121532382Y-90355000D01*
X121419362Y-90332519D01*
X121312898Y-90288421D01*
X121217084Y-90224400D01*
X121135600Y-90142916D01*
X121071579Y-90047102D01*
X121027481Y-89940638D01*
X121005000Y-89827618D01*
X121005000Y-89712382D01*
X121027481Y-89599362D01*
X121071579Y-89492898D01*
X121135600Y-89397084D01*
X121217084Y-89315600D01*
X121312898Y-89251579D01*
X121419362Y-89207481D01*
X121532382Y-89185000D01*
X121647618Y-89185000D01*
X121760638Y-89207481D01*
X121760638Y-89207481D01*
G37*
G36*
X124300638Y-89207481D02*
X124407102Y-89251579D01*
X124502916Y-89315600D01*
X124584400Y-89397084D01*
X124648421Y-89492898D01*
X124692519Y-89599362D01*
X124715000Y-89712382D01*
X124715000Y-89827618D01*
X124692519Y-89940638D01*
X124648421Y-90047102D01*
X124584400Y-90142916D01*
X124502916Y-90224400D01*
X124407102Y-90288421D01*
X124300638Y-90332519D01*
X124187618Y-90355000D01*
X124072382Y-90355000D01*
X123959362Y-90332519D01*
X123852898Y-90288421D01*
X123757084Y-90224400D01*
X123675600Y-90142916D01*
X123611579Y-90047102D01*
X123567481Y-89940638D01*
X123545000Y-89827618D01*
X123545000Y-89712382D01*
X123567481Y-89599362D01*
X123611579Y-89492898D01*
X123675600Y-89397084D01*
X123757084Y-89315600D01*
X123852898Y-89251579D01*
X123959362Y-89207481D01*
X124072382Y-89185000D01*
X124187618Y-89185000D01*
X124300638Y-89207481D01*
X124300638Y-89207481D01*
G37*
G36*
X98900638Y-89207481D02*
X99007102Y-89251579D01*
X99102916Y-89315600D01*
X99184400Y-89397084D01*
X99248421Y-89492898D01*
X99292519Y-89599362D01*
X99315000Y-89712382D01*
X99315000Y-89827618D01*
X99292519Y-89940638D01*
X99248421Y-90047102D01*
X99184400Y-90142916D01*
X99102916Y-90224400D01*
X99007102Y-90288421D01*
X98900638Y-90332519D01*
X98787618Y-90355000D01*
X98672382Y-90355000D01*
X98559362Y-90332519D01*
X98452898Y-90288421D01*
X98357084Y-90224400D01*
X98275600Y-90142916D01*
X98211579Y-90047102D01*
X98167481Y-89940638D01*
X98145000Y-89827618D01*
X98145000Y-89712382D01*
X98167481Y-89599362D01*
X98211579Y-89492898D01*
X98275600Y-89397084D01*
X98357084Y-89315600D01*
X98452898Y-89251579D01*
X98559362Y-89207481D01*
X98672382Y-89185000D01*
X98787618Y-89185000D01*
X98900638Y-89207481D01*
X98900638Y-89207481D01*
G37*
G36*
X93820638Y-89207481D02*
X93927102Y-89251579D01*
X94022916Y-89315600D01*
X94104400Y-89397084D01*
X94168421Y-89492898D01*
X94212519Y-89599362D01*
X94235000Y-89712382D01*
X94235000Y-89827618D01*
X94212519Y-89940638D01*
X94168421Y-90047102D01*
X94104400Y-90142916D01*
X94022916Y-90224400D01*
X93927102Y-90288421D01*
X93820638Y-90332519D01*
X93707618Y-90355000D01*
X93592382Y-90355000D01*
X93479362Y-90332519D01*
X93372898Y-90288421D01*
X93277084Y-90224400D01*
X93195600Y-90142916D01*
X93131579Y-90047102D01*
X93087481Y-89940638D01*
X93065000Y-89827618D01*
X93065000Y-89712382D01*
X93087481Y-89599362D01*
X93131579Y-89492898D01*
X93195600Y-89397084D01*
X93277084Y-89315600D01*
X93372898Y-89251579D01*
X93479362Y-89207481D01*
X93592382Y-89185000D01*
X93707618Y-89185000D01*
X93820638Y-89207481D01*
X93820638Y-89207481D01*
G37*
G36*
X106520638Y-89207481D02*
X106627102Y-89251579D01*
X106722916Y-89315600D01*
X106804400Y-89397084D01*
X106868421Y-89492898D01*
X106912519Y-89599362D01*
X106935000Y-89712382D01*
X106935000Y-89827618D01*
X106912519Y-89940638D01*
X106868421Y-90047102D01*
X106804400Y-90142916D01*
X106722916Y-90224400D01*
X106627102Y-90288421D01*
X106520638Y-90332519D01*
X106407618Y-90355000D01*
X106292382Y-90355000D01*
X106179362Y-90332519D01*
X106072898Y-90288421D01*
X105977084Y-90224400D01*
X105895600Y-90142916D01*
X105831579Y-90047102D01*
X105787481Y-89940638D01*
X105765000Y-89827618D01*
X105765000Y-89712382D01*
X105787481Y-89599362D01*
X105831579Y-89492898D01*
X105895600Y-89397084D01*
X105977084Y-89315600D01*
X106072898Y-89251579D01*
X106179362Y-89207481D01*
X106292382Y-89185000D01*
X106407618Y-89185000D01*
X106520638Y-89207481D01*
X106520638Y-89207481D01*
G37*
G36*
X109060638Y-89207481D02*
X109167102Y-89251579D01*
X109262916Y-89315600D01*
X109344400Y-89397084D01*
X109408421Y-89492898D01*
X109452519Y-89599362D01*
X109475000Y-89712382D01*
X109475000Y-89827618D01*
X109452519Y-89940638D01*
X109408421Y-90047102D01*
X109344400Y-90142916D01*
X109262916Y-90224400D01*
X109167102Y-90288421D01*
X109060638Y-90332519D01*
X108947618Y-90355000D01*
X108832382Y-90355000D01*
X108719362Y-90332519D01*
X108612898Y-90288421D01*
X108517084Y-90224400D01*
X108435600Y-90142916D01*
X108371579Y-90047102D01*
X108327481Y-89940638D01*
X108305000Y-89827618D01*
X108305000Y-89712382D01*
X108327481Y-89599362D01*
X108371579Y-89492898D01*
X108435600Y-89397084D01*
X108517084Y-89315600D01*
X108612898Y-89251579D01*
X108719362Y-89207481D01*
X108832382Y-89185000D01*
X108947618Y-89185000D01*
X109060638Y-89207481D01*
X109060638Y-89207481D01*
G37*
G36*
X96360638Y-89207481D02*
X96467102Y-89251579D01*
X96562916Y-89315600D01*
X96644400Y-89397084D01*
X96708421Y-89492898D01*
X96752519Y-89599362D01*
X96775000Y-89712382D01*
X96775000Y-89827618D01*
X96752519Y-89940638D01*
X96708421Y-90047102D01*
X96644400Y-90142916D01*
X96562916Y-90224400D01*
X96467102Y-90288421D01*
X96360638Y-90332519D01*
X96247618Y-90355000D01*
X96132382Y-90355000D01*
X96019362Y-90332519D01*
X95912898Y-90288421D01*
X95817084Y-90224400D01*
X95735600Y-90142916D01*
X95671579Y-90047102D01*
X95627481Y-89940638D01*
X95605000Y-89827618D01*
X95605000Y-89712382D01*
X95627481Y-89599362D01*
X95671579Y-89492898D01*
X95735600Y-89397084D01*
X95817084Y-89315600D01*
X95912898Y-89251579D01*
X96019362Y-89207481D01*
X96132382Y-89185000D01*
X96247618Y-89185000D01*
X96360638Y-89207481D01*
X96360638Y-89207481D01*
G37*
G36*
X91280638Y-89207481D02*
X91387102Y-89251579D01*
X91482916Y-89315600D01*
X91564400Y-89397084D01*
X91628421Y-89492898D01*
X91672519Y-89599362D01*
X91695000Y-89712382D01*
X91695000Y-89827618D01*
X91672519Y-89940638D01*
X91628421Y-90047102D01*
X91564400Y-90142916D01*
X91482916Y-90224400D01*
X91387102Y-90288421D01*
X91280638Y-90332519D01*
X91167618Y-90355000D01*
X91052382Y-90355000D01*
X90939362Y-90332519D01*
X90832898Y-90288421D01*
X90737084Y-90224400D01*
X90655600Y-90142916D01*
X90591579Y-90047102D01*
X90547481Y-89940638D01*
X90525000Y-89827618D01*
X90525000Y-89712382D01*
X90547481Y-89599362D01*
X90591579Y-89492898D01*
X90655600Y-89397084D01*
X90737084Y-89315600D01*
X90832898Y-89251579D01*
X90939362Y-89207481D01*
X91052382Y-89185000D01*
X91167618Y-89185000D01*
X91280638Y-89207481D01*
X91280638Y-89207481D01*
G37*
G36*
X88740638Y-89207481D02*
X88847102Y-89251579D01*
X88942916Y-89315600D01*
X89024400Y-89397084D01*
X89088421Y-89492898D01*
X89132519Y-89599362D01*
X89155000Y-89712382D01*
X89155000Y-89827618D01*
X89132519Y-89940638D01*
X89088421Y-90047102D01*
X89024400Y-90142916D01*
X88942916Y-90224400D01*
X88847102Y-90288421D01*
X88740638Y-90332519D01*
X88627618Y-90355000D01*
X88512382Y-90355000D01*
X88399362Y-90332519D01*
X88292898Y-90288421D01*
X88197084Y-90224400D01*
X88115600Y-90142916D01*
X88051579Y-90047102D01*
X88007481Y-89940638D01*
X87985000Y-89827618D01*
X87985000Y-89712382D01*
X88007481Y-89599362D01*
X88051579Y-89492898D01*
X88115600Y-89397084D01*
X88197084Y-89315600D01*
X88292898Y-89251579D01*
X88399362Y-89207481D01*
X88512382Y-89185000D01*
X88627618Y-89185000D01*
X88740638Y-89207481D01*
X88740638Y-89207481D01*
G37*
G36*
X114140638Y-89207481D02*
X114247102Y-89251579D01*
X114342916Y-89315600D01*
X114424400Y-89397084D01*
X114488421Y-89492898D01*
X114532519Y-89599362D01*
X114555000Y-89712382D01*
X114555000Y-89827618D01*
X114532519Y-89940638D01*
X114488421Y-90047102D01*
X114424400Y-90142916D01*
X114342916Y-90224400D01*
X114247102Y-90288421D01*
X114140638Y-90332519D01*
X114027618Y-90355000D01*
X113912382Y-90355000D01*
X113799362Y-90332519D01*
X113692898Y-90288421D01*
X113597084Y-90224400D01*
X113515600Y-90142916D01*
X113451579Y-90047102D01*
X113407481Y-89940638D01*
X113385000Y-89827618D01*
X113385000Y-89712382D01*
X113407481Y-89599362D01*
X113451579Y-89492898D01*
X113515600Y-89397084D01*
X113597084Y-89315600D01*
X113692898Y-89251579D01*
X113799362Y-89207481D01*
X113912382Y-89185000D01*
X114027618Y-89185000D01*
X114140638Y-89207481D01*
X114140638Y-89207481D01*
G37*
G36*
X111600638Y-89207481D02*
X111707102Y-89251579D01*
X111802916Y-89315600D01*
X111884400Y-89397084D01*
X111948421Y-89492898D01*
X111992519Y-89599362D01*
X112015000Y-89712382D01*
X112015000Y-89827618D01*
X111992519Y-89940638D01*
X111948421Y-90047102D01*
X111884400Y-90142916D01*
X111802916Y-90224400D01*
X111707102Y-90288421D01*
X111600638Y-90332519D01*
X111487618Y-90355000D01*
X111372382Y-90355000D01*
X111259362Y-90332519D01*
X111152898Y-90288421D01*
X111057084Y-90224400D01*
X110975600Y-90142916D01*
X110911579Y-90047102D01*
X110867481Y-89940638D01*
X110845000Y-89827618D01*
X110845000Y-89712382D01*
X110867481Y-89599362D01*
X110911579Y-89492898D01*
X110975600Y-89397084D01*
X111057084Y-89315600D01*
X111152898Y-89251579D01*
X111259362Y-89207481D01*
X111372382Y-89185000D01*
X111487618Y-89185000D01*
X111600638Y-89207481D01*
X111600638Y-89207481D01*
G37*
G36*
X101440638Y-89207481D02*
X101547102Y-89251579D01*
X101642916Y-89315600D01*
X101724400Y-89397084D01*
X101788421Y-89492898D01*
X101832519Y-89599362D01*
X101855000Y-89712382D01*
X101855000Y-89827618D01*
X101832519Y-89940638D01*
X101788421Y-90047102D01*
X101724400Y-90142916D01*
X101642916Y-90224400D01*
X101547102Y-90288421D01*
X101440638Y-90332519D01*
X101327618Y-90355000D01*
X101212382Y-90355000D01*
X101099362Y-90332519D01*
X100992898Y-90288421D01*
X100897084Y-90224400D01*
X100815600Y-90142916D01*
X100751579Y-90047102D01*
X100707481Y-89940638D01*
X100685000Y-89827618D01*
X100685000Y-89712382D01*
X100707481Y-89599362D01*
X100751579Y-89492898D01*
X100815600Y-89397084D01*
X100897084Y-89315600D01*
X100992898Y-89251579D01*
X101099362Y-89207481D01*
X101212382Y-89185000D01*
X101327618Y-89185000D01*
X101440638Y-89207481D01*
X101440638Y-89207481D01*
G37*
G36*
X103980638Y-89207481D02*
X104087102Y-89251579D01*
X104182916Y-89315600D01*
X104264400Y-89397084D01*
X104328421Y-89492898D01*
X104372519Y-89599362D01*
X104395000Y-89712382D01*
X104395000Y-89827618D01*
X104372519Y-89940638D01*
X104328421Y-90047102D01*
X104264400Y-90142916D01*
X104182916Y-90224400D01*
X104087102Y-90288421D01*
X103980638Y-90332519D01*
X103867618Y-90355000D01*
X103752382Y-90355000D01*
X103639362Y-90332519D01*
X103532898Y-90288421D01*
X103437084Y-90224400D01*
X103355600Y-90142916D01*
X103291579Y-90047102D01*
X103247481Y-89940638D01*
X103225000Y-89827618D01*
X103225000Y-89712382D01*
X103247481Y-89599362D01*
X103291579Y-89492898D01*
X103355600Y-89397084D01*
X103437084Y-89315600D01*
X103532898Y-89251579D01*
X103639362Y-89207481D01*
X103752382Y-89185000D01*
X103867618Y-89185000D01*
X103980638Y-89207481D01*
X103980638Y-89207481D01*
G37*
G36*
X76040638Y-89207481D02*
X76147102Y-89251579D01*
X76242916Y-89315600D01*
X76324400Y-89397084D01*
X76388421Y-89492898D01*
X76432519Y-89599362D01*
X76455000Y-89712382D01*
X76455000Y-89827618D01*
X76432519Y-89940638D01*
X76388421Y-90047102D01*
X76324400Y-90142916D01*
X76242916Y-90224400D01*
X76147102Y-90288421D01*
X76040638Y-90332519D01*
X75927618Y-90355000D01*
X75812382Y-90355000D01*
X75699362Y-90332519D01*
X75592898Y-90288421D01*
X75497084Y-90224400D01*
X75415600Y-90142916D01*
X75351579Y-90047102D01*
X75307481Y-89940638D01*
X75285000Y-89827618D01*
X75285000Y-89712382D01*
X75307481Y-89599362D01*
X75351579Y-89492898D01*
X75415600Y-89397084D01*
X75497084Y-89315600D01*
X75592898Y-89251579D01*
X75699362Y-89207481D01*
X75812382Y-89185000D01*
X75927618Y-89185000D01*
X76040638Y-89207481D01*
X76040638Y-89207481D01*
G37*
G36*
X78580638Y-89207481D02*
X78687102Y-89251579D01*
X78782916Y-89315600D01*
X78864400Y-89397084D01*
X78928421Y-89492898D01*
X78972519Y-89599362D01*
X78995000Y-89712382D01*
X78995000Y-89827618D01*
X78972519Y-89940638D01*
X78928421Y-90047102D01*
X78864400Y-90142916D01*
X78782916Y-90224400D01*
X78687102Y-90288421D01*
X78580638Y-90332519D01*
X78467618Y-90355000D01*
X78352382Y-90355000D01*
X78239362Y-90332519D01*
X78132898Y-90288421D01*
X78037084Y-90224400D01*
X77955600Y-90142916D01*
X77891579Y-90047102D01*
X77847481Y-89940638D01*
X77825000Y-89827618D01*
X77825000Y-89712382D01*
X77847481Y-89599362D01*
X77891579Y-89492898D01*
X77955600Y-89397084D01*
X78037084Y-89315600D01*
X78132898Y-89251579D01*
X78239362Y-89207481D01*
X78352382Y-89185000D01*
X78467618Y-89185000D01*
X78580638Y-89207481D01*
X78580638Y-89207481D01*
G37*
G36*
X81120638Y-89207481D02*
X81227102Y-89251579D01*
X81322916Y-89315600D01*
X81404400Y-89397084D01*
X81468421Y-89492898D01*
X81512519Y-89599362D01*
X81535000Y-89712382D01*
X81535000Y-89827618D01*
X81512519Y-89940638D01*
X81468421Y-90047102D01*
X81404400Y-90142916D01*
X81322916Y-90224400D01*
X81227102Y-90288421D01*
X81120638Y-90332519D01*
X81007618Y-90355000D01*
X80892382Y-90355000D01*
X80779362Y-90332519D01*
X80672898Y-90288421D01*
X80577084Y-90224400D01*
X80495600Y-90142916D01*
X80431579Y-90047102D01*
X80387481Y-89940638D01*
X80365000Y-89827618D01*
X80365000Y-89712382D01*
X80387481Y-89599362D01*
X80431579Y-89492898D01*
X80495600Y-89397084D01*
X80577084Y-89315600D01*
X80672898Y-89251579D01*
X80779362Y-89207481D01*
X80892382Y-89185000D01*
X81007618Y-89185000D01*
X81120638Y-89207481D01*
X81120638Y-89207481D01*
G37*
G36*
X83660638Y-89207481D02*
X83767102Y-89251579D01*
X83862916Y-89315600D01*
X83944400Y-89397084D01*
X84008421Y-89492898D01*
X84052519Y-89599362D01*
X84075000Y-89712382D01*
X84075000Y-89827618D01*
X84052519Y-89940638D01*
X84008421Y-90047102D01*
X83944400Y-90142916D01*
X83862916Y-90224400D01*
X83767102Y-90288421D01*
X83660638Y-90332519D01*
X83547618Y-90355000D01*
X83432382Y-90355000D01*
X83319362Y-90332519D01*
X83212898Y-90288421D01*
X83117084Y-90224400D01*
X83035600Y-90142916D01*
X82971579Y-90047102D01*
X82927481Y-89940638D01*
X82905000Y-89827618D01*
X82905000Y-89712382D01*
X82927481Y-89599362D01*
X82971579Y-89492898D01*
X83035600Y-89397084D01*
X83117084Y-89315600D01*
X83212898Y-89251579D01*
X83319362Y-89207481D01*
X83432382Y-89185000D01*
X83547618Y-89185000D01*
X83660638Y-89207481D01*
X83660638Y-89207481D01*
G37*
G36*
X116680638Y-89207481D02*
X116787102Y-89251579D01*
X116882916Y-89315600D01*
X116964400Y-89397084D01*
X117028421Y-89492898D01*
X117072519Y-89599362D01*
X117095000Y-89712382D01*
X117095000Y-89827618D01*
X117072519Y-89940638D01*
X117028421Y-90047102D01*
X116964400Y-90142916D01*
X116882916Y-90224400D01*
X116787102Y-90288421D01*
X116680638Y-90332519D01*
X116567618Y-90355000D01*
X116452382Y-90355000D01*
X116339362Y-90332519D01*
X116232898Y-90288421D01*
X116137084Y-90224400D01*
X116055600Y-90142916D01*
X115991579Y-90047102D01*
X115947481Y-89940638D01*
X115925000Y-89827618D01*
X115925000Y-89712382D01*
X115947481Y-89599362D01*
X115991579Y-89492898D01*
X116055600Y-89397084D01*
X116137084Y-89315600D01*
X116232898Y-89251579D01*
X116339362Y-89207481D01*
X116452382Y-89185000D01*
X116567618Y-89185000D01*
X116680638Y-89207481D01*
X116680638Y-89207481D01*
G37*
G36*
X86200638Y-89207481D02*
X86307102Y-89251579D01*
X86402916Y-89315600D01*
X86484400Y-89397084D01*
X86548421Y-89492898D01*
X86592519Y-89599362D01*
X86615000Y-89712382D01*
X86615000Y-89827618D01*
X86592519Y-89940638D01*
X86548421Y-90047102D01*
X86484400Y-90142916D01*
X86402916Y-90224400D01*
X86307102Y-90288421D01*
X86200638Y-90332519D01*
X86087618Y-90355000D01*
X85972382Y-90355000D01*
X85859362Y-90332519D01*
X85752898Y-90288421D01*
X85657084Y-90224400D01*
X85575600Y-90142916D01*
X85511579Y-90047102D01*
X85467481Y-89940638D01*
X85445000Y-89827618D01*
X85445000Y-89712382D01*
X85467481Y-89599362D01*
X85511579Y-89492898D01*
X85575600Y-89397084D01*
X85657084Y-89315600D01*
X85752898Y-89251579D01*
X85859362Y-89207481D01*
X85972382Y-89185000D01*
X86087618Y-89185000D01*
X86200638Y-89207481D01*
X86200638Y-89207481D01*
G37*
G36*
X123148772Y-87548045D02*
X123328942Y-87622674D01*
X123491089Y-87731017D01*
X123628983Y-87868911D01*
X123737326Y-88031058D01*
X123811955Y-88211228D01*
X123850000Y-88402493D01*
X123850000Y-88597507D01*
X123811955Y-88788772D01*
X123737326Y-88968942D01*
X123628983Y-89131089D01*
X123491089Y-89268983D01*
X123328942Y-89377326D01*
X123148772Y-89451955D01*
X122957507Y-89490000D01*
X122762493Y-89490000D01*
X122571228Y-89451955D01*
X122391058Y-89377326D01*
X122228911Y-89268983D01*
X122091017Y-89131089D01*
X121982674Y-88968942D01*
X121908045Y-88788772D01*
X121870000Y-88597507D01*
X121870000Y-88402493D01*
X121908045Y-88211228D01*
X121982674Y-88031058D01*
X122091017Y-87868911D01*
X122228911Y-87731017D01*
X122391058Y-87622674D01*
X122571228Y-87548045D01*
X122762493Y-87510000D01*
X122957507Y-87510000D01*
X123148772Y-87548045D01*
X123148772Y-87548045D01*
G37*
G36*
X77428772Y-87548045D02*
X77608942Y-87622674D01*
X77771089Y-87731017D01*
X77908983Y-87868911D01*
X78017326Y-88031058D01*
X78091955Y-88211228D01*
X78130000Y-88402493D01*
X78130000Y-88597507D01*
X78091955Y-88788772D01*
X78017326Y-88968942D01*
X77908983Y-89131089D01*
X77771089Y-89268983D01*
X77608942Y-89377326D01*
X77428772Y-89451955D01*
X77237507Y-89490000D01*
X77042493Y-89490000D01*
X76851228Y-89451955D01*
X76671058Y-89377326D01*
X76508911Y-89268983D01*
X76371017Y-89131089D01*
X76262674Y-88968942D01*
X76188045Y-88788772D01*
X76150000Y-88597507D01*
X76150000Y-88402493D01*
X76188045Y-88211228D01*
X76262674Y-88031058D01*
X76371017Y-87868911D01*
X76508911Y-87731017D01*
X76671058Y-87622674D01*
X76851228Y-87548045D01*
X77042493Y-87510000D01*
X77237507Y-87510000D01*
X77428772Y-87548045D01*
X77428772Y-87548045D01*
G37*
G36*
X86200638Y-86667481D02*
X86307102Y-86711579D01*
X86402916Y-86775600D01*
X86484400Y-86857084D01*
X86548421Y-86952898D01*
X86592519Y-87059362D01*
X86615000Y-87172382D01*
X86615000Y-87287618D01*
X86592519Y-87400638D01*
X86548421Y-87507102D01*
X86484400Y-87602916D01*
X86402916Y-87684400D01*
X86307102Y-87748421D01*
X86200638Y-87792519D01*
X86087618Y-87815000D01*
X85972382Y-87815000D01*
X85859362Y-87792519D01*
X85752898Y-87748421D01*
X85657084Y-87684400D01*
X85575600Y-87602916D01*
X85511579Y-87507102D01*
X85467481Y-87400638D01*
X85445000Y-87287618D01*
X85445000Y-87172382D01*
X85467481Y-87059362D01*
X85511579Y-86952898D01*
X85575600Y-86857084D01*
X85657084Y-86775600D01*
X85752898Y-86711579D01*
X85859362Y-86667481D01*
X85972382Y-86645000D01*
X86087618Y-86645000D01*
X86200638Y-86667481D01*
X86200638Y-86667481D01*
G37*
G36*
X83660638Y-86667481D02*
X83767102Y-86711579D01*
X83862916Y-86775600D01*
X83944400Y-86857084D01*
X84008421Y-86952898D01*
X84052519Y-87059362D01*
X84075000Y-87172382D01*
X84075000Y-87287618D01*
X84052519Y-87400638D01*
X84008421Y-87507102D01*
X83944400Y-87602916D01*
X83862916Y-87684400D01*
X83767102Y-87748421D01*
X83660638Y-87792519D01*
X83547618Y-87815000D01*
X83432382Y-87815000D01*
X83319362Y-87792519D01*
X83212898Y-87748421D01*
X83117084Y-87684400D01*
X83035600Y-87602916D01*
X82971579Y-87507102D01*
X82927481Y-87400638D01*
X82905000Y-87287618D01*
X82905000Y-87172382D01*
X82927481Y-87059362D01*
X82971579Y-86952898D01*
X83035600Y-86857084D01*
X83117084Y-86775600D01*
X83212898Y-86711579D01*
X83319362Y-86667481D01*
X83432382Y-86645000D01*
X83547618Y-86645000D01*
X83660638Y-86667481D01*
X83660638Y-86667481D01*
G37*
G36*
X81120638Y-86667481D02*
X81227102Y-86711579D01*
X81322916Y-86775600D01*
X81404400Y-86857084D01*
X81468421Y-86952898D01*
X81512519Y-87059362D01*
X81535000Y-87172382D01*
X81535000Y-87287618D01*
X81512519Y-87400638D01*
X81468421Y-87507102D01*
X81404400Y-87602916D01*
X81322916Y-87684400D01*
X81227102Y-87748421D01*
X81120638Y-87792519D01*
X81007618Y-87815000D01*
X80892382Y-87815000D01*
X80779362Y-87792519D01*
X80672898Y-87748421D01*
X80577084Y-87684400D01*
X80495600Y-87602916D01*
X80431579Y-87507102D01*
X80387481Y-87400638D01*
X80365000Y-87287618D01*
X80365000Y-87172382D01*
X80387481Y-87059362D01*
X80431579Y-86952898D01*
X80495600Y-86857084D01*
X80577084Y-86775600D01*
X80672898Y-86711579D01*
X80779362Y-86667481D01*
X80892382Y-86645000D01*
X81007618Y-86645000D01*
X81120638Y-86667481D01*
X81120638Y-86667481D01*
G37*
G36*
X78580638Y-86667481D02*
X78687102Y-86711579D01*
X78782916Y-86775600D01*
X78864400Y-86857084D01*
X78928421Y-86952898D01*
X78972519Y-87059362D01*
X78995000Y-87172382D01*
X78995000Y-87287618D01*
X78972519Y-87400638D01*
X78928421Y-87507102D01*
X78864400Y-87602916D01*
X78782916Y-87684400D01*
X78687102Y-87748421D01*
X78580638Y-87792519D01*
X78467618Y-87815000D01*
X78352382Y-87815000D01*
X78239362Y-87792519D01*
X78132898Y-87748421D01*
X78037084Y-87684400D01*
X77955600Y-87602916D01*
X77891579Y-87507102D01*
X77847481Y-87400638D01*
X77825000Y-87287618D01*
X77825000Y-87172382D01*
X77847481Y-87059362D01*
X77891579Y-86952898D01*
X77955600Y-86857084D01*
X78037084Y-86775600D01*
X78132898Y-86711579D01*
X78239362Y-86667481D01*
X78352382Y-86645000D01*
X78467618Y-86645000D01*
X78580638Y-86667481D01*
X78580638Y-86667481D01*
G37*
G36*
X76040638Y-86667481D02*
X76147102Y-86711579D01*
X76242916Y-86775600D01*
X76324400Y-86857084D01*
X76388421Y-86952898D01*
X76432519Y-87059362D01*
X76455000Y-87172382D01*
X76455000Y-87287618D01*
X76432519Y-87400638D01*
X76388421Y-87507102D01*
X76324400Y-87602916D01*
X76242916Y-87684400D01*
X76147102Y-87748421D01*
X76040638Y-87792519D01*
X75927618Y-87815000D01*
X75812382Y-87815000D01*
X75699362Y-87792519D01*
X75592898Y-87748421D01*
X75497084Y-87684400D01*
X75415600Y-87602916D01*
X75351579Y-87507102D01*
X75307481Y-87400638D01*
X75285000Y-87287618D01*
X75285000Y-87172382D01*
X75307481Y-87059362D01*
X75351579Y-86952898D01*
X75415600Y-86857084D01*
X75497084Y-86775600D01*
X75592898Y-86711579D01*
X75699362Y-86667481D01*
X75812382Y-86645000D01*
X75927618Y-86645000D01*
X76040638Y-86667481D01*
X76040638Y-86667481D01*
G37*
G36*
X124300638Y-86667481D02*
X124407102Y-86711579D01*
X124502916Y-86775600D01*
X124584400Y-86857084D01*
X124648421Y-86952898D01*
X124692519Y-87059362D01*
X124715000Y-87172382D01*
X124715000Y-87287618D01*
X124692519Y-87400638D01*
X124648421Y-87507102D01*
X124584400Y-87602916D01*
X124502916Y-87684400D01*
X124407102Y-87748421D01*
X124300638Y-87792519D01*
X124187618Y-87815000D01*
X124072382Y-87815000D01*
X123959362Y-87792519D01*
X123852898Y-87748421D01*
X123757084Y-87684400D01*
X123675600Y-87602916D01*
X123611579Y-87507102D01*
X123567481Y-87400638D01*
X123545000Y-87287618D01*
X123545000Y-87172382D01*
X123567481Y-87059362D01*
X123611579Y-86952898D01*
X123675600Y-86857084D01*
X123757084Y-86775600D01*
X123852898Y-86711579D01*
X123959362Y-86667481D01*
X124072382Y-86645000D01*
X124187618Y-86645000D01*
X124300638Y-86667481D01*
X124300638Y-86667481D01*
G37*
G36*
X121760638Y-86667481D02*
X121867102Y-86711579D01*
X121962916Y-86775600D01*
X122044400Y-86857084D01*
X122108421Y-86952898D01*
X122152519Y-87059362D01*
X122175000Y-87172382D01*
X122175000Y-87287618D01*
X122152519Y-87400638D01*
X122108421Y-87507102D01*
X122044400Y-87602916D01*
X121962916Y-87684400D01*
X121867102Y-87748421D01*
X121760638Y-87792519D01*
X121647618Y-87815000D01*
X121532382Y-87815000D01*
X121419362Y-87792519D01*
X121312898Y-87748421D01*
X121217084Y-87684400D01*
X121135600Y-87602916D01*
X121071579Y-87507102D01*
X121027481Y-87400638D01*
X121005000Y-87287618D01*
X121005000Y-87172382D01*
X121027481Y-87059362D01*
X121071579Y-86952898D01*
X121135600Y-86857084D01*
X121217084Y-86775600D01*
X121312898Y-86711579D01*
X121419362Y-86667481D01*
X121532382Y-86645000D01*
X121647618Y-86645000D01*
X121760638Y-86667481D01*
X121760638Y-86667481D01*
G37*
G36*
X119220638Y-86667481D02*
X119327102Y-86711579D01*
X119422916Y-86775600D01*
X119504400Y-86857084D01*
X119568421Y-86952898D01*
X119612519Y-87059362D01*
X119635000Y-87172382D01*
X119635000Y-87287618D01*
X119612519Y-87400638D01*
X119568421Y-87507102D01*
X119504400Y-87602916D01*
X119422916Y-87684400D01*
X119327102Y-87748421D01*
X119220638Y-87792519D01*
X119107618Y-87815000D01*
X118992382Y-87815000D01*
X118879362Y-87792519D01*
X118772898Y-87748421D01*
X118677084Y-87684400D01*
X118595600Y-87602916D01*
X118531579Y-87507102D01*
X118487481Y-87400638D01*
X118465000Y-87287618D01*
X118465000Y-87172382D01*
X118487481Y-87059362D01*
X118531579Y-86952898D01*
X118595600Y-86857084D01*
X118677084Y-86775600D01*
X118772898Y-86711579D01*
X118879362Y-86667481D01*
X118992382Y-86645000D01*
X119107618Y-86645000D01*
X119220638Y-86667481D01*
X119220638Y-86667481D01*
G37*
G36*
X116680638Y-86667481D02*
X116787102Y-86711579D01*
X116882916Y-86775600D01*
X116964400Y-86857084D01*
X117028421Y-86952898D01*
X117072519Y-87059362D01*
X117095000Y-87172382D01*
X117095000Y-87287618D01*
X117072519Y-87400638D01*
X117028421Y-87507102D01*
X116964400Y-87602916D01*
X116882916Y-87684400D01*
X116787102Y-87748421D01*
X116680638Y-87792519D01*
X116567618Y-87815000D01*
X116452382Y-87815000D01*
X116339362Y-87792519D01*
X116232898Y-87748421D01*
X116137084Y-87684400D01*
X116055600Y-87602916D01*
X115991579Y-87507102D01*
X115947481Y-87400638D01*
X115925000Y-87287618D01*
X115925000Y-87172382D01*
X115947481Y-87059362D01*
X115991579Y-86952898D01*
X116055600Y-86857084D01*
X116137084Y-86775600D01*
X116232898Y-86711579D01*
X116339362Y-86667481D01*
X116452382Y-86645000D01*
X116567618Y-86645000D01*
X116680638Y-86667481D01*
X116680638Y-86667481D01*
G37*
G36*
X114140638Y-86667481D02*
X114247102Y-86711579D01*
X114342916Y-86775600D01*
X114424400Y-86857084D01*
X114488421Y-86952898D01*
X114532519Y-87059362D01*
X114555000Y-87172382D01*
X114555000Y-87287618D01*
X114532519Y-87400638D01*
X114488421Y-87507102D01*
X114424400Y-87602916D01*
X114342916Y-87684400D01*
X114247102Y-87748421D01*
X114140638Y-87792519D01*
X114027618Y-87815000D01*
X113912382Y-87815000D01*
X113799362Y-87792519D01*
X113692898Y-87748421D01*
X113597084Y-87684400D01*
X113515600Y-87602916D01*
X113451579Y-87507102D01*
X113407481Y-87400638D01*
X113385000Y-87287618D01*
X113385000Y-87172382D01*
X113407481Y-87059362D01*
X113451579Y-86952898D01*
X113515600Y-86857084D01*
X113597084Y-86775600D01*
X113692898Y-86711579D01*
X113799362Y-86667481D01*
X113912382Y-86645000D01*
X114027618Y-86645000D01*
X114140638Y-86667481D01*
X114140638Y-86667481D01*
G37*
G36*
X88740638Y-86667481D02*
X88847102Y-86711579D01*
X88942916Y-86775600D01*
X89024400Y-86857084D01*
X89088421Y-86952898D01*
X89132519Y-87059362D01*
X89155000Y-87172382D01*
X89155000Y-87287618D01*
X89132519Y-87400638D01*
X89088421Y-87507102D01*
X89024400Y-87602916D01*
X88942916Y-87684400D01*
X88847102Y-87748421D01*
X88740638Y-87792519D01*
X88627618Y-87815000D01*
X88512382Y-87815000D01*
X88399362Y-87792519D01*
X88292898Y-87748421D01*
X88197084Y-87684400D01*
X88115600Y-87602916D01*
X88051579Y-87507102D01*
X88007481Y-87400638D01*
X87985000Y-87287618D01*
X87985000Y-87172382D01*
X88007481Y-87059362D01*
X88051579Y-86952898D01*
X88115600Y-86857084D01*
X88197084Y-86775600D01*
X88292898Y-86711579D01*
X88399362Y-86667481D01*
X88512382Y-86645000D01*
X88627618Y-86645000D01*
X88740638Y-86667481D01*
X88740638Y-86667481D01*
G37*
G36*
X111600638Y-86667481D02*
X111707102Y-86711579D01*
X111802916Y-86775600D01*
X111884400Y-86857084D01*
X111948421Y-86952898D01*
X111992519Y-87059362D01*
X112015000Y-87172382D01*
X112015000Y-87287618D01*
X111992519Y-87400638D01*
X111948421Y-87507102D01*
X111884400Y-87602916D01*
X111802916Y-87684400D01*
X111707102Y-87748421D01*
X111600638Y-87792519D01*
X111487618Y-87815000D01*
X111372382Y-87815000D01*
X111259362Y-87792519D01*
X111152898Y-87748421D01*
X111057084Y-87684400D01*
X110975600Y-87602916D01*
X110911579Y-87507102D01*
X110867481Y-87400638D01*
X110845000Y-87287618D01*
X110845000Y-87172382D01*
X110867481Y-87059362D01*
X110911579Y-86952898D01*
X110975600Y-86857084D01*
X111057084Y-86775600D01*
X111152898Y-86711579D01*
X111259362Y-86667481D01*
X111372382Y-86645000D01*
X111487618Y-86645000D01*
X111600638Y-86667481D01*
X111600638Y-86667481D01*
G37*
G36*
X106520638Y-86667481D02*
X106627102Y-86711579D01*
X106722916Y-86775600D01*
X106804400Y-86857084D01*
X106868421Y-86952898D01*
X106912519Y-87059362D01*
X106935000Y-87172382D01*
X106935000Y-87287618D01*
X106912519Y-87400638D01*
X106868421Y-87507102D01*
X106804400Y-87602916D01*
X106722916Y-87684400D01*
X106627102Y-87748421D01*
X106520638Y-87792519D01*
X106407618Y-87815000D01*
X106292382Y-87815000D01*
X106179362Y-87792519D01*
X106072898Y-87748421D01*
X105977084Y-87684400D01*
X105895600Y-87602916D01*
X105831579Y-87507102D01*
X105787481Y-87400638D01*
X105765000Y-87287618D01*
X105765000Y-87172382D01*
X105787481Y-87059362D01*
X105831579Y-86952898D01*
X105895600Y-86857084D01*
X105977084Y-86775600D01*
X106072898Y-86711579D01*
X106179362Y-86667481D01*
X106292382Y-86645000D01*
X106407618Y-86645000D01*
X106520638Y-86667481D01*
X106520638Y-86667481D01*
G37*
G36*
X98900638Y-86667481D02*
X99007102Y-86711579D01*
X99102916Y-86775600D01*
X99184400Y-86857084D01*
X99248421Y-86952898D01*
X99292519Y-87059362D01*
X99315000Y-87172382D01*
X99315000Y-87287618D01*
X99292519Y-87400638D01*
X99248421Y-87507102D01*
X99184400Y-87602916D01*
X99102916Y-87684400D01*
X99007102Y-87748421D01*
X98900638Y-87792519D01*
X98787618Y-87815000D01*
X98672382Y-87815000D01*
X98559362Y-87792519D01*
X98452898Y-87748421D01*
X98357084Y-87684400D01*
X98275600Y-87602916D01*
X98211579Y-87507102D01*
X98167481Y-87400638D01*
X98145000Y-87287618D01*
X98145000Y-87172382D01*
X98167481Y-87059362D01*
X98211579Y-86952898D01*
X98275600Y-86857084D01*
X98357084Y-86775600D01*
X98452898Y-86711579D01*
X98559362Y-86667481D01*
X98672382Y-86645000D01*
X98787618Y-86645000D01*
X98900638Y-86667481D01*
X98900638Y-86667481D01*
G37*
G36*
X91280638Y-86667481D02*
X91387102Y-86711579D01*
X91482916Y-86775600D01*
X91564400Y-86857084D01*
X91628421Y-86952898D01*
X91672519Y-87059362D01*
X91695000Y-87172382D01*
X91695000Y-87287618D01*
X91672519Y-87400638D01*
X91628421Y-87507102D01*
X91564400Y-87602916D01*
X91482916Y-87684400D01*
X91387102Y-87748421D01*
X91280638Y-87792519D01*
X91167618Y-87815000D01*
X91052382Y-87815000D01*
X90939362Y-87792519D01*
X90832898Y-87748421D01*
X90737084Y-87684400D01*
X90655600Y-87602916D01*
X90591579Y-87507102D01*
X90547481Y-87400638D01*
X90525000Y-87287618D01*
X90525000Y-87172382D01*
X90547481Y-87059362D01*
X90591579Y-86952898D01*
X90655600Y-86857084D01*
X90737084Y-86775600D01*
X90832898Y-86711579D01*
X90939362Y-86667481D01*
X91052382Y-86645000D01*
X91167618Y-86645000D01*
X91280638Y-86667481D01*
X91280638Y-86667481D01*
G37*
G36*
X101440638Y-86667481D02*
X101547102Y-86711579D01*
X101642916Y-86775600D01*
X101724400Y-86857084D01*
X101788421Y-86952898D01*
X101832519Y-87059362D01*
X101855000Y-87172382D01*
X101855000Y-87287618D01*
X101832519Y-87400638D01*
X101788421Y-87507102D01*
X101724400Y-87602916D01*
X101642916Y-87684400D01*
X101547102Y-87748421D01*
X101440638Y-87792519D01*
X101327618Y-87815000D01*
X101212382Y-87815000D01*
X101099362Y-87792519D01*
X100992898Y-87748421D01*
X100897084Y-87684400D01*
X100815600Y-87602916D01*
X100751579Y-87507102D01*
X100707481Y-87400638D01*
X100685000Y-87287618D01*
X100685000Y-87172382D01*
X100707481Y-87059362D01*
X100751579Y-86952898D01*
X100815600Y-86857084D01*
X100897084Y-86775600D01*
X100992898Y-86711579D01*
X101099362Y-86667481D01*
X101212382Y-86645000D01*
X101327618Y-86645000D01*
X101440638Y-86667481D01*
X101440638Y-86667481D01*
G37*
G36*
X93820638Y-86667481D02*
X93927102Y-86711579D01*
X94022916Y-86775600D01*
X94104400Y-86857084D01*
X94168421Y-86952898D01*
X94212519Y-87059362D01*
X94235000Y-87172382D01*
X94235000Y-87287618D01*
X94212519Y-87400638D01*
X94168421Y-87507102D01*
X94104400Y-87602916D01*
X94022916Y-87684400D01*
X93927102Y-87748421D01*
X93820638Y-87792519D01*
X93707618Y-87815000D01*
X93592382Y-87815000D01*
X93479362Y-87792519D01*
X93372898Y-87748421D01*
X93277084Y-87684400D01*
X93195600Y-87602916D01*
X93131579Y-87507102D01*
X93087481Y-87400638D01*
X93065000Y-87287618D01*
X93065000Y-87172382D01*
X93087481Y-87059362D01*
X93131579Y-86952898D01*
X93195600Y-86857084D01*
X93277084Y-86775600D01*
X93372898Y-86711579D01*
X93479362Y-86667481D01*
X93592382Y-86645000D01*
X93707618Y-86645000D01*
X93820638Y-86667481D01*
X93820638Y-86667481D01*
G37*
G36*
X103980638Y-86667481D02*
X104087102Y-86711579D01*
X104182916Y-86775600D01*
X104264400Y-86857084D01*
X104328421Y-86952898D01*
X104372519Y-87059362D01*
X104395000Y-87172382D01*
X104395000Y-87287618D01*
X104372519Y-87400638D01*
X104328421Y-87507102D01*
X104264400Y-87602916D01*
X104182916Y-87684400D01*
X104087102Y-87748421D01*
X103980638Y-87792519D01*
X103867618Y-87815000D01*
X103752382Y-87815000D01*
X103639362Y-87792519D01*
X103532898Y-87748421D01*
X103437084Y-87684400D01*
X103355600Y-87602916D01*
X103291579Y-87507102D01*
X103247481Y-87400638D01*
X103225000Y-87287618D01*
X103225000Y-87172382D01*
X103247481Y-87059362D01*
X103291579Y-86952898D01*
X103355600Y-86857084D01*
X103437084Y-86775600D01*
X103532898Y-86711579D01*
X103639362Y-86667481D01*
X103752382Y-86645000D01*
X103867618Y-86645000D01*
X103980638Y-86667481D01*
X103980638Y-86667481D01*
G37*
G36*
X96360638Y-86667481D02*
X96467102Y-86711579D01*
X96562916Y-86775600D01*
X96644400Y-86857084D01*
X96708421Y-86952898D01*
X96752519Y-87059362D01*
X96775000Y-87172382D01*
X96775000Y-87287618D01*
X96752519Y-87400638D01*
X96708421Y-87507102D01*
X96644400Y-87602916D01*
X96562916Y-87684400D01*
X96467102Y-87748421D01*
X96360638Y-87792519D01*
X96247618Y-87815000D01*
X96132382Y-87815000D01*
X96019362Y-87792519D01*
X95912898Y-87748421D01*
X95817084Y-87684400D01*
X95735600Y-87602916D01*
X95671579Y-87507102D01*
X95627481Y-87400638D01*
X95605000Y-87287618D01*
X95605000Y-87172382D01*
X95627481Y-87059362D01*
X95671579Y-86952898D01*
X95735600Y-86857084D01*
X95817084Y-86775600D01*
X95912898Y-86711579D01*
X96019362Y-86667481D01*
X96132382Y-86645000D01*
X96247618Y-86645000D01*
X96360638Y-86667481D01*
X96360638Y-86667481D01*
G37*
G36*
X109060638Y-86667481D02*
X109167102Y-86711579D01*
X109262916Y-86775600D01*
X109344400Y-86857084D01*
X109408421Y-86952898D01*
X109452519Y-87059362D01*
X109475000Y-87172382D01*
X109475000Y-87287618D01*
X109452519Y-87400638D01*
X109408421Y-87507102D01*
X109344400Y-87602916D01*
X109262916Y-87684400D01*
X109167102Y-87748421D01*
X109060638Y-87792519D01*
X108947618Y-87815000D01*
X108832382Y-87815000D01*
X108719362Y-87792519D01*
X108612898Y-87748421D01*
X108517084Y-87684400D01*
X108435600Y-87602916D01*
X108371579Y-87507102D01*
X108327481Y-87400638D01*
X108305000Y-87287618D01*
X108305000Y-87172382D01*
X108327481Y-87059362D01*
X108371579Y-86952898D01*
X108435600Y-86857084D01*
X108517084Y-86775600D01*
X108612898Y-86711579D01*
X108719362Y-86667481D01*
X108832382Y-86645000D01*
X108947618Y-86645000D01*
X109060638Y-86667481D01*
X109060638Y-86667481D01*
G37*
G36*
X122432283Y-78385742D02*
X122606274Y-78420350D01*
X122797362Y-78499502D01*
X122969336Y-78614411D01*
X123115589Y-78760664D01*
X123230498Y-78932638D01*
X123309650Y-79123726D01*
X123350000Y-79326584D01*
X123350000Y-79533416D01*
X123309650Y-79736274D01*
X123230498Y-79927362D01*
X123115589Y-80099336D01*
X122969336Y-80245589D01*
X122797362Y-80360498D01*
X122606274Y-80439650D01*
X122432283Y-80474258D01*
X122403417Y-80480000D01*
X122196583Y-80480000D01*
X122167717Y-80474258D01*
X121993726Y-80439650D01*
X121802638Y-80360498D01*
X121630664Y-80245589D01*
X121484411Y-80099336D01*
X121369502Y-79927362D01*
X121290350Y-79736274D01*
X121250000Y-79533416D01*
X121250000Y-79326584D01*
X121290350Y-79123726D01*
X121369502Y-78932638D01*
X121484411Y-78760664D01*
X121630664Y-78614411D01*
X121802638Y-78499502D01*
X121993726Y-78420350D01*
X122167717Y-78385742D01*
X122196583Y-78380000D01*
X122403417Y-78380000D01*
X122432283Y-78385742D01*
X122432283Y-78385742D01*
G37*
G36*
X71185468Y-75740308D02*
X71613143Y-75917457D01*
X71998039Y-76174636D01*
X72325364Y-76501961D01*
X72582543Y-76886857D01*
X72759692Y-77314532D01*
X72850000Y-77768544D01*
X72850000Y-78231456D01*
X72759692Y-78685468D01*
X72582543Y-79113143D01*
X72325364Y-79498039D01*
X71998039Y-79825364D01*
X71613143Y-80082543D01*
X71185468Y-80259692D01*
X70731456Y-80350000D01*
X70268544Y-80350000D01*
X69814532Y-80259692D01*
X69386857Y-80082543D01*
X69001961Y-79825364D01*
X68674636Y-79498039D01*
X68417457Y-79113143D01*
X68240308Y-78685468D01*
X68150000Y-78231456D01*
X68150000Y-77768544D01*
X68240308Y-77314532D01*
X68417457Y-76886857D01*
X68674636Y-76501961D01*
X69001961Y-76174636D01*
X69386857Y-75917457D01*
X69814532Y-75740308D01*
X70268544Y-75650000D01*
X70731456Y-75650000D01*
X71185468Y-75740308D01*
X71185468Y-75740308D01*
G37*
G36*
X83580858Y-77607272D02*
X83722411Y-77665906D01*
X83781045Y-77690193D01*
X83898305Y-77768544D01*
X83961211Y-77810576D01*
X84114424Y-77963789D01*
X84114425Y-77963791D01*
X84234807Y-78143955D01*
X84234807Y-78143956D01*
X84317728Y-78344142D01*
X84360000Y-78556659D01*
X84360000Y-78773341D01*
X84317728Y-78985858D01*
X84265004Y-79113143D01*
X84234807Y-79186045D01*
X84154733Y-79305884D01*
X84114424Y-79366211D01*
X83961211Y-79519424D01*
X83940270Y-79533416D01*
X83781045Y-79639807D01*
X83722411Y-79664094D01*
X83580858Y-79722728D01*
X83368341Y-79765000D01*
X83151659Y-79765000D01*
X82939142Y-79722728D01*
X82797589Y-79664094D01*
X82738955Y-79639807D01*
X82579730Y-79533416D01*
X82558789Y-79519424D01*
X82405576Y-79366211D01*
X82365267Y-79305884D01*
X82285193Y-79186045D01*
X82254996Y-79113143D01*
X82202272Y-78985858D01*
X82160000Y-78773341D01*
X82160000Y-78556659D01*
X82202272Y-78344142D01*
X82285193Y-78143956D01*
X82285193Y-78143955D01*
X82405575Y-77963791D01*
X82405576Y-77963789D01*
X82558789Y-77810576D01*
X82621695Y-77768544D01*
X82738955Y-77690193D01*
X82797589Y-77665906D01*
X82939142Y-77607272D01*
X83151659Y-77565000D01*
X83368341Y-77565000D01*
X83580858Y-77607272D01*
X83580858Y-77607272D01*
G37*
G36*
X88660858Y-77607272D02*
X88802411Y-77665906D01*
X88861045Y-77690193D01*
X88978305Y-77768544D01*
X89041211Y-77810576D01*
X89194424Y-77963789D01*
X89194425Y-77963791D01*
X89314807Y-78143955D01*
X89314807Y-78143956D01*
X89397728Y-78344142D01*
X89440000Y-78556659D01*
X89440000Y-78773341D01*
X89397728Y-78985858D01*
X89345004Y-79113143D01*
X89314807Y-79186045D01*
X89234733Y-79305884D01*
X89194424Y-79366211D01*
X89041211Y-79519424D01*
X89020270Y-79533416D01*
X88861045Y-79639807D01*
X88802411Y-79664094D01*
X88660858Y-79722728D01*
X88448341Y-79765000D01*
X88231659Y-79765000D01*
X88019142Y-79722728D01*
X87877589Y-79664094D01*
X87818955Y-79639807D01*
X87659730Y-79533416D01*
X87638789Y-79519424D01*
X87485576Y-79366211D01*
X87445267Y-79305884D01*
X87365193Y-79186045D01*
X87334996Y-79113143D01*
X87282272Y-78985858D01*
X87240000Y-78773341D01*
X87240000Y-78556659D01*
X87282272Y-78344142D01*
X87365193Y-78143956D01*
X87365193Y-78143955D01*
X87485575Y-77963791D01*
X87485576Y-77963789D01*
X87638789Y-77810576D01*
X87701695Y-77768544D01*
X87818955Y-77690193D01*
X87877589Y-77665906D01*
X88019142Y-77607272D01*
X88231659Y-77565000D01*
X88448341Y-77565000D01*
X88660858Y-77607272D01*
X88660858Y-77607272D01*
G37*
G36*
X114060858Y-77607272D02*
X114202411Y-77665906D01*
X114261045Y-77690193D01*
X114378305Y-77768544D01*
X114441211Y-77810576D01*
X114594424Y-77963789D01*
X114594425Y-77963791D01*
X114714807Y-78143955D01*
X114714807Y-78143956D01*
X114797728Y-78344142D01*
X114840000Y-78556659D01*
X114840000Y-78773341D01*
X114797728Y-78985858D01*
X114745004Y-79113143D01*
X114714807Y-79186045D01*
X114634733Y-79305884D01*
X114594424Y-79366211D01*
X114441211Y-79519424D01*
X114420270Y-79533416D01*
X114261045Y-79639807D01*
X114202411Y-79664094D01*
X114060858Y-79722728D01*
X113848341Y-79765000D01*
X113631659Y-79765000D01*
X113419142Y-79722728D01*
X113277589Y-79664094D01*
X113218955Y-79639807D01*
X113059730Y-79533416D01*
X113038789Y-79519424D01*
X112885576Y-79366211D01*
X112845267Y-79305884D01*
X112765193Y-79186045D01*
X112734996Y-79113143D01*
X112682272Y-78985858D01*
X112640000Y-78773341D01*
X112640000Y-78556659D01*
X112682272Y-78344142D01*
X112765193Y-78143956D01*
X112765193Y-78143955D01*
X112885575Y-77963791D01*
X112885576Y-77963789D01*
X113038789Y-77810576D01*
X113101695Y-77768544D01*
X113218955Y-77690193D01*
X113277589Y-77665906D01*
X113419142Y-77607272D01*
X113631659Y-77565000D01*
X113848341Y-77565000D01*
X114060858Y-77607272D01*
X114060858Y-77607272D01*
G37*
G36*
X122432283Y-75845742D02*
X122606274Y-75880350D01*
X122797362Y-75959502D01*
X122969336Y-76074411D01*
X123115589Y-76220664D01*
X123230498Y-76392638D01*
X123309650Y-76583726D01*
X123350000Y-76786584D01*
X123350000Y-76993416D01*
X123309650Y-77196274D01*
X123230498Y-77387362D01*
X123115589Y-77559336D01*
X122969336Y-77705589D01*
X122797362Y-77820498D01*
X122606274Y-77899650D01*
X122432283Y-77934258D01*
X122403417Y-77940000D01*
X122196583Y-77940000D01*
X122167717Y-77934258D01*
X121993726Y-77899650D01*
X121802638Y-77820498D01*
X121630664Y-77705589D01*
X121484411Y-77559336D01*
X121369502Y-77387362D01*
X121290350Y-77196274D01*
X121250000Y-76993416D01*
X121250000Y-76786584D01*
X121290350Y-76583726D01*
X121369502Y-76392638D01*
X121484411Y-76220664D01*
X121630664Y-76074411D01*
X121802638Y-75959502D01*
X121993726Y-75880350D01*
X122167717Y-75845742D01*
X122196583Y-75840000D01*
X122403417Y-75840000D01*
X122432283Y-75845742D01*
X122432283Y-75845742D01*
G37*
G36*
X77466701Y-74261486D02*
X77466704Y-74261487D01*
X77466703Y-74261487D01*
X77757884Y-74382098D01*
X77864620Y-74453417D01*
X78019943Y-74557200D01*
X78242800Y-74780057D01*
X78301431Y-74867805D01*
X78417902Y-75042116D01*
X78417902Y-75042117D01*
X78538514Y-75333299D01*
X78600000Y-75642412D01*
X78600000Y-75957588D01*
X78538514Y-76266701D01*
X78538513Y-76266703D01*
X78417902Y-76557884D01*
X78400634Y-76583727D01*
X78242800Y-76819943D01*
X78019943Y-77042800D01*
X77932195Y-77101431D01*
X77757884Y-77217902D01*
X77551987Y-77303187D01*
X77466701Y-77338514D01*
X77157588Y-77400000D01*
X76842412Y-77400000D01*
X76533299Y-77338514D01*
X76448013Y-77303187D01*
X76242116Y-77217902D01*
X76067805Y-77101431D01*
X75980057Y-77042800D01*
X75757200Y-76819943D01*
X75599366Y-76583727D01*
X75582098Y-76557884D01*
X75461487Y-76266703D01*
X75461486Y-76266701D01*
X75400000Y-75957588D01*
X75400000Y-75642412D01*
X75461486Y-75333299D01*
X75582098Y-75042117D01*
X75582098Y-75042116D01*
X75698569Y-74867805D01*
X75757200Y-74780057D01*
X75980057Y-74557200D01*
X76135380Y-74453417D01*
X76242116Y-74382098D01*
X76533297Y-74261487D01*
X76533296Y-74261487D01*
X76533299Y-74261486D01*
X76842412Y-74200000D01*
X77157588Y-74200000D01*
X77466701Y-74261486D01*
X77466701Y-74261486D01*
G37*
G36*
X73566701Y-72501486D02*
X73566704Y-72501487D01*
X73566703Y-72501487D01*
X73857884Y-72622098D01*
X74032195Y-72738569D01*
X74119943Y-72797200D01*
X74342800Y-73020057D01*
X74342801Y-73020059D01*
X74517902Y-73282116D01*
X74603187Y-73488013D01*
X74638514Y-73573299D01*
X74700000Y-73882412D01*
X74700000Y-74197588D01*
X74638514Y-74506701D01*
X74603187Y-74591987D01*
X74517902Y-74797884D01*
X74401431Y-74972195D01*
X74342800Y-75059943D01*
X74119943Y-75282800D01*
X74032195Y-75341431D01*
X73857884Y-75457902D01*
X73651987Y-75543187D01*
X73566701Y-75578514D01*
X73257588Y-75640000D01*
X72942412Y-75640000D01*
X72633299Y-75578514D01*
X72548013Y-75543187D01*
X72342116Y-75457902D01*
X72167805Y-75341431D01*
X72080057Y-75282800D01*
X71857200Y-75059943D01*
X71798569Y-74972195D01*
X71682098Y-74797884D01*
X71596813Y-74591987D01*
X71561486Y-74506701D01*
X71500000Y-74197588D01*
X71500000Y-73882412D01*
X71561486Y-73573299D01*
X71596813Y-73488013D01*
X71682098Y-73282116D01*
X71857199Y-73020059D01*
X71857200Y-73020057D01*
X72080057Y-72797200D01*
X72167805Y-72738569D01*
X72342116Y-72622098D01*
X72633297Y-72501487D01*
X72633296Y-72501487D01*
X72633299Y-72501486D01*
X72942412Y-72440000D01*
X73257588Y-72440000D01*
X73566701Y-72501486D01*
X73566701Y-72501486D01*
G37*
G36*
X122432283Y-73305742D02*
X122606274Y-73340350D01*
X122797362Y-73419502D01*
X122969336Y-73534411D01*
X123115589Y-73680664D01*
X123230498Y-73852638D01*
X123309650Y-74043726D01*
X123350000Y-74246584D01*
X123350000Y-74453416D01*
X123309650Y-74656274D01*
X123230498Y-74847362D01*
X123115589Y-75019336D01*
X122969336Y-75165589D01*
X122797362Y-75280498D01*
X122606274Y-75359650D01*
X122432283Y-75394258D01*
X122403417Y-75400000D01*
X122196583Y-75400000D01*
X122167717Y-75394258D01*
X121993726Y-75359650D01*
X121802638Y-75280498D01*
X121630664Y-75165589D01*
X121484411Y-75019336D01*
X121369502Y-74847362D01*
X121290350Y-74656274D01*
X121250000Y-74453416D01*
X121250000Y-74246584D01*
X121290350Y-74043726D01*
X121369502Y-73852638D01*
X121484411Y-73680664D01*
X121630664Y-73534411D01*
X121802638Y-73419502D01*
X121993726Y-73340350D01*
X122167717Y-73305742D01*
X122196583Y-73300000D01*
X122403417Y-73300000D01*
X122432283Y-73305742D01*
X122432283Y-73305742D01*
G37*
G36*
X122432283Y-70765742D02*
X122606274Y-70800350D01*
X122797362Y-70879502D01*
X122969336Y-70994411D01*
X123115589Y-71140664D01*
X123230498Y-71312638D01*
X123309650Y-71503726D01*
X123350000Y-71706584D01*
X123350000Y-71913416D01*
X123309650Y-72116274D01*
X123230498Y-72307362D01*
X123115589Y-72479336D01*
X122969336Y-72625589D01*
X122797362Y-72740498D01*
X122606274Y-72819650D01*
X122432283Y-72854258D01*
X122403417Y-72860000D01*
X122196583Y-72860000D01*
X122167717Y-72854258D01*
X121993726Y-72819650D01*
X121802638Y-72740498D01*
X121630664Y-72625589D01*
X121484411Y-72479336D01*
X121369502Y-72307362D01*
X121290350Y-72116274D01*
X121250000Y-71913416D01*
X121250000Y-71706584D01*
X121290350Y-71503726D01*
X121369502Y-71312638D01*
X121484411Y-71140664D01*
X121630664Y-70994411D01*
X121802638Y-70879502D01*
X121993726Y-70800350D01*
X122167717Y-70765742D01*
X122196583Y-70760000D01*
X122403417Y-70760000D01*
X122432283Y-70765742D01*
X122432283Y-70765742D01*
G37*
G36*
X74700000Y-70560000D02*
X71500000Y-70560000D01*
X71500000Y-67360000D01*
X74700000Y-67360000D01*
X74700000Y-70560000D01*
X74700000Y-70560000D01*
G37*
G36*
X122432283Y-68225742D02*
X122606274Y-68260350D01*
X122797362Y-68339502D01*
X122969336Y-68454411D01*
X123115589Y-68600664D01*
X123230498Y-68772638D01*
X123309650Y-68963726D01*
X123350000Y-69166584D01*
X123350000Y-69373416D01*
X123309650Y-69576274D01*
X123230498Y-69767362D01*
X123115589Y-69939336D01*
X122969336Y-70085589D01*
X122797362Y-70200498D01*
X122606274Y-70279650D01*
X122432283Y-70314258D01*
X122403417Y-70320000D01*
X122196583Y-70320000D01*
X122167717Y-70314258D01*
X121993726Y-70279650D01*
X121802638Y-70200498D01*
X121630664Y-70085589D01*
X121484411Y-69939336D01*
X121369502Y-69767362D01*
X121290350Y-69576274D01*
X121250000Y-69373416D01*
X121250000Y-69166584D01*
X121290350Y-68963726D01*
X121369502Y-68772638D01*
X121484411Y-68600664D01*
X121630664Y-68454411D01*
X121802638Y-68339502D01*
X121993726Y-68260350D01*
X122167717Y-68225742D01*
X122196583Y-68220000D01*
X122403417Y-68220000D01*
X122432283Y-68225742D01*
X122432283Y-68225742D01*
G37*
G36*
X77466701Y-65661486D02*
X77524598Y-65685468D01*
X77757884Y-65782098D01*
X77783932Y-65799503D01*
X78019943Y-65957200D01*
X78242800Y-66180057D01*
X78242801Y-66180059D01*
X78417902Y-66442116D01*
X78441066Y-66498039D01*
X78538514Y-66733299D01*
X78600000Y-67042412D01*
X78600000Y-67357588D01*
X78538514Y-67666701D01*
X78538513Y-67666703D01*
X78417902Y-67957884D01*
X78301431Y-68132195D01*
X78242800Y-68219943D01*
X78019943Y-68442800D01*
X77932195Y-68501431D01*
X77757884Y-68617902D01*
X77551987Y-68703187D01*
X77466701Y-68738514D01*
X77157588Y-68800000D01*
X76842412Y-68800000D01*
X76533299Y-68738514D01*
X76448013Y-68703187D01*
X76242116Y-68617902D01*
X76067805Y-68501431D01*
X75980057Y-68442800D01*
X75757200Y-68219943D01*
X75698569Y-68132195D01*
X75582098Y-67957884D01*
X75461487Y-67666703D01*
X75461486Y-67666701D01*
X75400000Y-67357588D01*
X75400000Y-67042412D01*
X75461486Y-66733299D01*
X75558934Y-66498039D01*
X75582098Y-66442116D01*
X75757199Y-66180059D01*
X75757200Y-66180057D01*
X75980057Y-65957200D01*
X76216068Y-65799503D01*
X76242116Y-65782098D01*
X76475402Y-65685468D01*
X76533299Y-65661486D01*
X76842412Y-65600000D01*
X77157588Y-65600000D01*
X77466701Y-65661486D01*
X77466701Y-65661486D01*
G37*
G36*
X122430906Y-65685468D02*
X122606274Y-65720350D01*
X122797362Y-65799502D01*
X122969336Y-65914411D01*
X123115589Y-66060664D01*
X123230498Y-66232638D01*
X123309650Y-66423726D01*
X123350000Y-66626584D01*
X123350000Y-66833416D01*
X123309650Y-67036274D01*
X123230498Y-67227362D01*
X123115589Y-67399336D01*
X122969336Y-67545589D01*
X122797362Y-67660498D01*
X122606274Y-67739650D01*
X122432283Y-67774258D01*
X122403417Y-67780000D01*
X122196583Y-67780000D01*
X122167717Y-67774258D01*
X121993726Y-67739650D01*
X121802638Y-67660498D01*
X121630664Y-67545589D01*
X121484411Y-67399336D01*
X121369502Y-67227362D01*
X121290350Y-67036274D01*
X121250000Y-66833416D01*
X121250000Y-66626584D01*
X121290350Y-66423726D01*
X121369502Y-66232638D01*
X121484411Y-66060664D01*
X121630664Y-65914411D01*
X121802638Y-65799502D01*
X121993726Y-65720350D01*
X122169094Y-65685468D01*
X122196583Y-65680000D01*
X122403417Y-65680000D01*
X122430906Y-65685468D01*
X122430906Y-65685468D01*
G37*
G36*
X71185468Y-62740308D02*
X71613143Y-62917457D01*
X71998039Y-63174636D01*
X72325364Y-63501961D01*
X72582543Y-63886857D01*
X72759692Y-64314532D01*
X72850000Y-64768544D01*
X72850000Y-65231456D01*
X72759692Y-65685468D01*
X72582543Y-66113143D01*
X72325364Y-66498039D01*
X71998039Y-66825364D01*
X71613143Y-67082543D01*
X71185468Y-67259692D01*
X70731456Y-67350000D01*
X70268544Y-67350000D01*
X69814532Y-67259692D01*
X69386857Y-67082543D01*
X69001961Y-66825364D01*
X68674636Y-66498039D01*
X68417457Y-66113143D01*
X68240308Y-65685468D01*
X68150000Y-65231456D01*
X68150000Y-64768544D01*
X68240308Y-64314532D01*
X68417457Y-63886857D01*
X68674636Y-63501961D01*
X69001961Y-63174636D01*
X69386857Y-62917457D01*
X69814532Y-62740308D01*
X70268544Y-62650000D01*
X70731456Y-62650000D01*
X71185468Y-62740308D01*
X71185468Y-62740308D01*
G37*
G36*
X122432283Y-63145742D02*
X122606274Y-63180350D01*
X122797362Y-63259502D01*
X122969336Y-63374411D01*
X123115589Y-63520664D01*
X123230498Y-63692638D01*
X123309650Y-63883726D01*
X123350000Y-64086584D01*
X123350000Y-64293416D01*
X123309650Y-64496274D01*
X123230498Y-64687362D01*
X123115589Y-64859336D01*
X122969336Y-65005589D01*
X122797362Y-65120498D01*
X122606274Y-65199650D01*
X122432283Y-65234258D01*
X122403417Y-65240000D01*
X122196583Y-65240000D01*
X122167717Y-65234258D01*
X121993726Y-65199650D01*
X121802638Y-65120498D01*
X121630664Y-65005589D01*
X121484411Y-64859336D01*
X121369502Y-64687362D01*
X121290350Y-64496274D01*
X121250000Y-64293416D01*
X121250000Y-64086584D01*
X121290350Y-63883726D01*
X121369502Y-63692638D01*
X121484411Y-63520664D01*
X121630664Y-63374411D01*
X121802638Y-63259502D01*
X121993726Y-63180350D01*
X122167717Y-63145742D01*
X122196583Y-63140000D01*
X122403417Y-63140000D01*
X122432283Y-63145742D01*
X122432283Y-63145742D01*
G37*
G36*
X122432283Y-60605742D02*
X122606274Y-60640350D01*
X122797362Y-60719502D01*
X122969336Y-60834411D01*
X123115589Y-60980664D01*
X123230498Y-61152638D01*
X123309650Y-61343726D01*
X123350000Y-61546584D01*
X123350000Y-61753416D01*
X123309650Y-61956274D01*
X123230498Y-62147362D01*
X123115589Y-62319336D01*
X122969336Y-62465589D01*
X122797362Y-62580498D01*
X122606274Y-62659650D01*
X122432283Y-62694258D01*
X122403417Y-62700000D01*
X122196583Y-62700000D01*
X122167717Y-62694258D01*
X121993726Y-62659650D01*
X121802638Y-62580498D01*
X121630664Y-62465589D01*
X121484411Y-62319336D01*
X121369502Y-62147362D01*
X121290350Y-61956274D01*
X121250000Y-61753416D01*
X121250000Y-61546584D01*
X121290350Y-61343726D01*
X121369502Y-61152638D01*
X121484411Y-60980664D01*
X121630664Y-60834411D01*
X121802638Y-60719502D01*
X121993726Y-60640350D01*
X122167717Y-60605742D01*
X122196583Y-60600000D01*
X122403417Y-60600000D01*
X122432283Y-60605742D01*
X122432283Y-60605742D01*
G37*
G36*
X114060858Y-59827272D02*
X114202411Y-59885906D01*
X114261045Y-59910193D01*
X114380884Y-59990267D01*
X114441211Y-60030576D01*
X114594424Y-60183789D01*
X114594425Y-60183791D01*
X114714807Y-60363955D01*
X114714807Y-60363956D01*
X114797728Y-60564142D01*
X114840000Y-60776659D01*
X114840000Y-60993341D01*
X114797728Y-61205858D01*
X114740620Y-61343726D01*
X114714807Y-61406045D01*
X114634733Y-61525884D01*
X114594424Y-61586211D01*
X114441211Y-61739424D01*
X114420270Y-61753416D01*
X114261045Y-61859807D01*
X114202411Y-61884094D01*
X114060858Y-61942728D01*
X113848341Y-61985000D01*
X113631659Y-61985000D01*
X113419142Y-61942728D01*
X113277589Y-61884094D01*
X113218955Y-61859807D01*
X113059730Y-61753416D01*
X113038789Y-61739424D01*
X112885576Y-61586211D01*
X112845267Y-61525884D01*
X112765193Y-61406045D01*
X112739380Y-61343726D01*
X112682272Y-61205858D01*
X112640000Y-60993341D01*
X112640000Y-60776659D01*
X112682272Y-60564142D01*
X112765193Y-60363956D01*
X112765193Y-60363955D01*
X112885575Y-60183791D01*
X112885576Y-60183789D01*
X113038789Y-60030576D01*
X113099116Y-59990267D01*
X113218955Y-59910193D01*
X113277589Y-59885906D01*
X113419142Y-59827272D01*
X113631659Y-59785000D01*
X113848341Y-59785000D01*
X114060858Y-59827272D01*
X114060858Y-59827272D01*
G37*
G36*
X108980858Y-59827272D02*
X109122411Y-59885906D01*
X109181045Y-59910193D01*
X109300884Y-59990267D01*
X109361211Y-60030576D01*
X109514424Y-60183789D01*
X109514425Y-60183791D01*
X109634807Y-60363955D01*
X109634807Y-60363956D01*
X109717728Y-60564142D01*
X109760000Y-60776659D01*
X109760000Y-60993341D01*
X109717728Y-61205858D01*
X109660620Y-61343726D01*
X109634807Y-61406045D01*
X109554733Y-61525884D01*
X109514424Y-61586211D01*
X109361211Y-61739424D01*
X109340270Y-61753416D01*
X109181045Y-61859807D01*
X109122411Y-61884094D01*
X108980858Y-61942728D01*
X108768341Y-61985000D01*
X108551659Y-61985000D01*
X108339142Y-61942728D01*
X108197589Y-61884094D01*
X108138955Y-61859807D01*
X107979730Y-61753416D01*
X107958789Y-61739424D01*
X107805576Y-61586211D01*
X107765267Y-61525884D01*
X107685193Y-61406045D01*
X107659380Y-61343726D01*
X107602272Y-61205858D01*
X107560000Y-60993341D01*
X107560000Y-60776659D01*
X107602272Y-60564142D01*
X107685193Y-60363956D01*
X107685193Y-60363955D01*
X107805575Y-60183791D01*
X107805576Y-60183789D01*
X107958789Y-60030576D01*
X108019116Y-59990267D01*
X108138955Y-59910193D01*
X108197589Y-59885906D01*
X108339142Y-59827272D01*
X108551659Y-59785000D01*
X108768341Y-59785000D01*
X108980858Y-59827272D01*
X108980858Y-59827272D01*
G37*
G36*
X122432283Y-58065742D02*
X122606274Y-58100350D01*
X122797362Y-58179502D01*
X122969336Y-58294411D01*
X123115589Y-58440664D01*
X123230498Y-58612638D01*
X123309650Y-58803726D01*
X123350000Y-59006584D01*
X123350000Y-59213416D01*
X123309650Y-59416274D01*
X123230498Y-59607362D01*
X123115589Y-59779336D01*
X122969336Y-59925589D01*
X122797362Y-60040498D01*
X122606274Y-60119650D01*
X122432283Y-60154258D01*
X122403417Y-60160000D01*
X122196583Y-60160000D01*
X122167717Y-60154258D01*
X121993726Y-60119650D01*
X121802638Y-60040498D01*
X121630664Y-59925589D01*
X121484411Y-59779336D01*
X121369502Y-59607362D01*
X121290350Y-59416274D01*
X121250000Y-59213416D01*
X121250000Y-59006584D01*
X121290350Y-58803726D01*
X121369502Y-58612638D01*
X121484411Y-58440664D01*
X121630664Y-58294411D01*
X121802638Y-58179502D01*
X121993726Y-58100350D01*
X122167717Y-58065742D01*
X122196583Y-58060000D01*
X122403417Y-58060000D01*
X122432283Y-58065742D01*
X122432283Y-58065742D01*
G37*
G36*
X122432283Y-55525742D02*
X122606274Y-55560350D01*
X122797362Y-55639502D01*
X122969336Y-55754411D01*
X123115589Y-55900664D01*
X123230498Y-56072638D01*
X123309650Y-56263726D01*
X123350000Y-56466584D01*
X123350000Y-56673416D01*
X123309650Y-56876274D01*
X123230498Y-57067362D01*
X123115589Y-57239336D01*
X122969336Y-57385589D01*
X122797362Y-57500498D01*
X122606274Y-57579650D01*
X122432283Y-57614258D01*
X122403417Y-57620000D01*
X122196583Y-57620000D01*
X122167717Y-57614258D01*
X121993726Y-57579650D01*
X121802638Y-57500498D01*
X121630664Y-57385589D01*
X121484411Y-57239336D01*
X121369502Y-57067362D01*
X121290350Y-56876274D01*
X121250000Y-56673416D01*
X121250000Y-56466584D01*
X121290350Y-56263726D01*
X121369502Y-56072638D01*
X121484411Y-55900664D01*
X121630664Y-55754411D01*
X121802638Y-55639502D01*
X121993726Y-55560350D01*
X122167717Y-55525742D01*
X122196583Y-55520000D01*
X122403417Y-55520000D01*
X122432283Y-55525742D01*
X122432283Y-55525742D01*
G37*
G36*
X71904235Y-51519130D02*
X71904238Y-51519131D01*
X71904237Y-51519131D01*
X72468401Y-51752815D01*
X72976135Y-52092072D01*
X73407928Y-52523865D01*
X73747185Y-53031599D01*
X73927930Y-53467957D01*
X73980870Y-53595765D01*
X74100000Y-54194675D01*
X74100000Y-54805325D01*
X73980870Y-55404235D01*
X73980869Y-55404237D01*
X73747185Y-55968401D01*
X73407928Y-56476135D01*
X72976135Y-56907928D01*
X72468401Y-57247185D01*
X72032043Y-57427930D01*
X71904235Y-57480870D01*
X71305325Y-57600000D01*
X70694675Y-57600000D01*
X70095765Y-57480870D01*
X69967957Y-57427930D01*
X69531599Y-57247185D01*
X69023865Y-56907928D01*
X68592072Y-56476135D01*
X68252815Y-55968401D01*
X68019131Y-55404237D01*
X68019130Y-55404235D01*
X67900000Y-54805325D01*
X67900000Y-54194675D01*
X68019130Y-53595765D01*
X68072070Y-53467957D01*
X68252815Y-53031599D01*
X68592072Y-52523865D01*
X69023865Y-52092072D01*
X69531599Y-51752815D01*
X70095763Y-51519131D01*
X70095762Y-51519131D01*
X70095765Y-51519130D01*
X70694675Y-51400000D01*
X71305325Y-51400000D01*
X71904235Y-51519130D01*
X71904235Y-51519130D01*
G37*
M02*
